<svg xmlns="http://www.w3.org/2000/svg" xmlns:xlink="http://www.w3.org/1999/xlink" viewBox="0 0 656.67 450.19"><defs><style>.cls-1{fill:none;}.cls-2{fill:#8c8c8c;}.cls-3{fill:#2b3990;}.cls-4{clip-path:url(#clip-path);}.cls-5{fill:url(#linear-gradient);}.cls-6{clip-path:url(#clip-path-2);}.cls-7{fill:url(#linear-gradient-2);}.cls-8{clip-path:url(#clip-path-3);}.cls-9{fill:url(#linear-gradient-3);}.cls-10{clip-path:url(#clip-path-4);}.cls-11{fill:url(#linear-gradient-4);}.cls-12{clip-path:url(#clip-path-5);}.cls-13{fill:url(#linear-gradient-5);}.cls-14{clip-path:url(#clip-path-6);}.cls-15{fill:url(#linear-gradient-6);}.cls-16{clip-path:url(#clip-path-7);}.cls-17{fill:url(#linear-gradient-7);}.cls-18{clip-path:url(#clip-path-8);}.cls-19{fill:url(#linear-gradient-8);}.cls-20{clip-path:url(#clip-path-9);}.cls-21{fill:url(#linear-gradient-9);}.cls-22{clip-path:url(#clip-path-10);}.cls-23{fill:url(#linear-gradient-10);}.cls-24{clip-path:url(#clip-path-11);}.cls-25{fill:url(#linear-gradient-11);}.cls-26{clip-path:url(#clip-path-12);}.cls-27{fill:url(#linear-gradient-12);}.cls-28{clip-path:url(#clip-path-13);}.cls-29{fill:url(#linear-gradient-13);}.cls-30{clip-path:url(#clip-path-14);}.cls-31{fill:url(#linear-gradient-14);}.cls-32{clip-path:url(#clip-path-15);}.cls-33{fill:url(#linear-gradient-15);}</style><clipPath id="clip-path" transform="translate(0 0)"><path class="cls-1" d="M26.7,341.55V354c1.41-3.43,3.25-7.95,5.1-12.48Z"/></clipPath><linearGradient id="linear-gradient" x1="1562" y1="1179.03" x2="1563" y2="1179.03" gradientTransform="translate(-14678.99 19839.73) rotate(-90) scale(12.47)" gradientUnits="userSpaceOnUse"><stop offset="0" stop-color="#ee4498"/><stop offset="0.01" stop-color="#ee4498"/><stop offset="0.22" stop-color="#e73d93"/><stop offset="0.52" stop-color="#d52b85"/><stop offset="0.88" stop-color="#b70c6f"/><stop offset="1" stop-color="#ab0066"/></linearGradient><clipPath id="clip-path-2" transform="translate(0 0)"><path class="cls-1" d="M95.24,281.48c2.62,3,5.09,5.83,7.61,8.7-1.3-4.06-2.52-7.88-3.84-12-1.28,1.12-2.52,2.21-3.77,3.29"/></clipPath><linearGradient id="linear-gradient-2" x1="1563.3" y1="1172.75" x2="1564.3" y2="1172.75" gradientTransform="translate(-13963.24 19035.4) rotate(-90) scale(11.99)" xlink:href="#linear-gradient"/><clipPath id="clip-path-3" transform="translate(0 0)"><path class="cls-1" d="M158.05,208.26c-6.76-3.1-9.24-7.46-7.9-14.81,1.73-9.61,7.73-16.28,15.19-21.81,8.69-6.44,18.51-9.19,28.95-9.35h0s11.85-1,28.66,5.06l.11,0,.42.15h0c9.28,3.27,21.17,8.31,25.15,10.89-4.23,7.22-8.55,14.36-12.66,21.61a170.35,170.35,0,0,0-9,18.22c-.93,2.36-1.91,2.77-4.12,2.62-6.35-.41-12.8-1.2-19.07-.54-7.82.83-13.94,5.15-17.68,12.35a7.15,7.15,0,0,0-.88,2.2,5.37,5.37,0,0,0,.5,1.88c.61-.2,1.47-.21,1.79-.63,6-7.84,14.65-8.62,23.42-9.06,4-.19,8,0,12.18,0a10.86,10.86,0,0,1-.37,1.57c-8.09,18.18-18.64,34.63-33.92,47.69-20.83,17.82-50.49,20-72.65,5.54-15.23-10-21.84-26.49-17.34-43.28,1.88-7,6.22-12.17,11.92-16.38l5.27-3.87-.36-1A46.09,46.09,0,0,0,109.5,220c-8.12,4.86-12.61,12.08-14.23,21.43-1.74,10-1.46,19.8,2.66,28.83a49.56,49.56,0,0,1-4.61-3.75c-.76-.8-1.68-2.34-1.39-3.12,1.62-4.28-2.42-7.63-1.56-11.85A90,90,0,0,0,91.57,239c.27-4.19.39-8.39.46-12.58a73.5,73.5,0,0,0-8.81-35.93,38.11,38.11,0,0,0-12.77-14.41,69.35,69.35,0,0,1-7.84-6.58C82,178.79,91.93,194.33,93,215.82c5-9.18,13.12-15.32,19.79-22.71a5,5,0,0,1,3-1.29c3.75-.39,7.1-1.21,9.67-4.44.84-1.06,3-1.35,4.65-1.44a26.67,26.67,0,0,0,14.79-5.7,97.48,97.48,0,0,0-2,9.81c-1.73,16.11,13.11,25.45,26.23,23.35,10.49-1.69,18.95-6.23,22.32-17.23a25,25,0,0,0,.51-3l-1.06-.47c-.64,1.13-1.37,2.22-1.91,3.4s-.54,2.39-1.2,3.3C184,204.47,175.38,210,166.38,210a19.78,19.78,0,0,1-8.33-1.78m5.91-69c-3.45-2.77-7.56-3.35-11.79-3.63-.77-.05-2-.18-2.81-.32-9.28-1.79-12.83-7-11.44-16.84a8,8,0,0,1,5.57-6.85,98.8,98.8,0,0,1,13.34-2.93c3.13-.51,6.35-.47,9.88-.69l-1.53-3.1c4.09,1.43,7.62,2.58,11.07,3.91,2.51,1,4.83,2.53,7.39,3.2,4.3,1.12,6.79,4,8.63,7.65,1.71,3.36,3.19,6.84,4.76,10.26,5.22-2.46,7.16-2.28,11.05,1.2-2.15-.37-4.06-.72-6-1.06l-.2.47c1,.8,2,1.55,2.85,2.42s1.75,1.88,2.62,2.83a65.51,65.51,0,0,0-8.42-.86c-3.11.07-5,2.05-5.9,5.24l5.62.94c-.28.95-.51,1.75-.82,2.79-5.65-2.58-11.31-1.52-16.91-.81a33.6,33.6,0,0,1-4.44.31A19.18,19.18,0,0,1,164,139.28M155,94.58l.74-.59,6.07,8.75c-2.71-.6-5.36-3.63-6.81-8.16M168.86,69a39.64,39.64,0,0,1,5.08,18c-4.11-3.69-6.25-10.59-5.08-18M174,.74c-.92.91-.72,2.26-.52,3.7a14.18,14.18,0,0,0,.66,2.39c.34.73.65,1.48,1,2.18,1.92,3.59,4,7,6.14,10.42A7.22,7.22,0,0,0,181,24a9,9,0,0,1-.53,6.54c-1.61,3.27-2.1,7.18.51,9.9s2.1,5.21,1.29,8.12a55.2,55.2,0,0,0-1.76,6.65c-.73,4.87-1.24,9.77-1.84,14.7a65,65,0,0,0-5.93-5.68,97.91,97.91,0,0,0-10.18-6.67,3.26,3.26,0,0,0-4.8,1.67c-1,2.85-3.13,2.88-5.37,3.19a29.26,29.26,0,0,0-3.24.57c-4.42,1.13-5.89,3.08-5.81,7.71a17.33,17.33,0,0,0,.21,2.89,8.45,8.45,0,0,1-2.17,7.33c-3.89,4.22-7.62,8.59-11.28,13-2.91,3.53-5.77,7.18-3.55,12.79l-5.32-1.63c-.77,4.37-2.12,8.38-6.85,9.94,1.49,11.18-2.42,21.4-5.13,31.89,5.7-1.39,12.87,4.61,12.9,10.79l-13.74-7.43-.49.8c.12.65.25,1.31.41,2.1l-3.9-1.39c.15,1.23.26,2.14.28,2.33-4.65,0-9.15-.41-13.55.07-10.81,1.21-21.6,2.66-32.36,4.28a9,9,0,0,0-6.44,13.61c3.49,5.78,7.3,11.46,10,17.62,3.45,7.93,6,16.27,8.74,24.48a6.68,6.68,0,0,1-.22,3.41c-1,4.35-2.22,8.66-3.21,13-1.62,7.16-2.47,14.58-4.83,21.48-3.7,10.83-8.37,21.33-12.68,32-5.86,14.43-13.09,28-24.23,39.22-4,4.08-7.32,9-10.5,13.79-3.51,5.32-4.48,11.48-4.6,17.67C6.33,354,2.52,355.26,0,360l3.11-.57a25.43,25.43,0,0,1,8.14,1.8c2.75,1.1,4.06-.17,4.62-2.46.74-3.1,1.13-6.27,1.7-9.41,1.47-8,1.77-8.31,9.69-9A8.9,8.9,0,0,0,35.48,330a4.66,4.66,0,0,1,2.16-5.24c.63-.41,1.65-.94,1.68-1.46.19-3.55,2.33-5.88,4.68-8.15,4.75-4.57,9.58-9.07,14.18-13.8,13.71-14.09,21-30.5,17.32-50.53-.75-4.13,1.11-7,3.76-11,1.07,5.45,2.46,10,2.78,14.72.57,8.25.32,16.57.72,24.84.41,8.69,3.31,16.46,9.55,22.72-4,1.29-4.69,4.73-5.38,8.83,3.17-1.42,6-2.62,8.73-3.92,3.84-1.8,4.17-2.74,2.19-6.65-.85-1.69-2-3.22-3-4.83a58.87,58.87,0,0,1-3.21-5.39c-2-4.25-1.8-5.15,1.58-8.31,2.54-2.37,5.31-4.61,5.34-8.74a1.53,1.53,0,0,1,.59.71c6.35,11.18,16.08,18.26,28.13,21.92,25.21,7.66,58.5,3.29,80.64-25.59,8.18-10.66,13.52-22.78,18.53-35.09,1-2.37,1.41-5.69,3.2-6.79,1.17-.73,2.9-.49,4.67-.25a17.54,17.54,0,0,0,2.93.22c8.37-.35,16.74-.76,25.09-1.31,1.29-.09,2.51-1.05,3.77-1.61-.09-.4-.16-.81-.24-1.21l-34.9-.87c6.16-15.5,11.79-30.07,21.76-42.59,3.68,1.77,7.13,3.55,10.67,5.13,9.32,4.15,18.86,7.62,29.06,9,5.93.78,11.37-.25,15.95-4.27,2.9-2.53,3.87-5.78,3.06-10.49A24.31,24.31,0,0,0,309,183.4c-1.5,3.36-4.28,4.92-7.67,5.55a32.39,32.39,0,0,1-5.66.53c-8.95.09-17.28-2.76-25.58-5.64-4.92-1.71-9.7-3.83-14.79-5.86,4-3.89,7-4.69,10-3.1a10.62,10.62,0,0,0,2.34.63c-.07-1,.24-2.44-.32-3a7.44,7.44,0,0,0-3.74-2.05,11.39,11.39,0,0,0-9.69,2.94l-2.68,2.27c.08-.32.14-.63.22-.95l-37.63-17c-8.08-3.65-20.88-4.1-27.3-4.07a33.85,33.85,0,0,0-7.1.69,52.48,52.48,0,0,0-28.81,16.85c4.09-10-1.67-18-6-27.14,5,.94,9,1.8,13.15,2.46a8.06,8.06,0,0,0,2.29-.09,13.14,13.14,0,0,1,1.65-.15c.2,0,.41,0,.62,0a9.57,9.57,0,0,1,3.45.41q3.23,1.29,6.43,2.65a36.29,36.29,0,0,0,14.68,2.9A79.9,79.9,0,0,1,211,155.36a5.66,5.66,0,0,0,6.28-2.27l0,0c3-4,2.45-8.18.75-14.86-.56-2.18-1-5.79-2.23-10.06a107.62,107.62,0,0,1-3.34-16,1.77,1.77,0,0,1,.42-1c2.39-3.46,2.34-4.49-1-7a5,5,0,0,1-2.4-4.53,15,15,0,0,0-7.29-13.26c-3.5-2-7.2-3.6-10.67-5.61a4.23,4.23,0,0,1-2-2.84,127.58,127.58,0,0,0-4-28.08c-1.1-4.26-2.32-8.9,2.26-12.3l1.12.68c.43-1.15.78-2.11,1.13-3.08l.66.17v9.4L187,41.63c-2.05,4.07-.24,14.28,2.83,16.87a3,3,0,0,0,2,.52c1.77-.18,3.51-.69,5.27-.8a12.1,12.1,0,0,0,8.35-3.51c1-1,1.8-2.09,2.2-2.56,1.81,1.17,3.43,2.33,5,3.37.9.77,1.8,1.58,2.73,2.34a12.5,12.5,0,0,0,4.23,2.57,10.31,10.31,0,0,0,1.55.29,4.05,4.05,0,0,0,4.36-5,3.33,3.33,0,0,0-.37-1.06c-2.45-4.35-5.07-8.6-7.73-12.82.76-2.75,1.72-5.45,2.73-8.12A7.12,7.12,0,0,0,218,25.15a8,8,0,0,1-2.29-3c-2.34-6.74-6.71-8.74-13.23-6.1a33.91,33.91,0,0,1-3.85,1.35c-.34-.26-.67-.56-1-.89-5.8-5.22-11-10.35-17.69-15.24A7.72,7.72,0,0,0,176.17,0,3.68,3.68,0,0,0,174,.74"/></clipPath><linearGradient id="linear-gradient-3" x1="1523.54" y1="1333.19" x2="1524.54" y2="1333.19" gradientTransform="translate(-474991.88 -415465.17) scale(311.77)" xlink:href="#linear-gradient"/><clipPath id="clip-path-4" transform="translate(0 0)"><path class="cls-1" d="M276,208.44l-4.74,24.35h4.24l4.74-24.35Zm.78-6.8a2.39,2.39,0,0,0,2.44,2.6,2.79,2.79,0,0,0,2.89-2.81,2.45,2.45,0,0,0-2.53-2.62,2.8,2.8,0,0,0-2.8,2.83"/></clipPath><linearGradient id="linear-gradient-4" x1="1351.1" y1="1297.44" x2="1352.1" y2="1297.44" gradientTransform="translate(-14393.7 -13866.72) scale(10.85)" xlink:href="#linear-gradient"/><clipPath id="clip-path-5" transform="translate(0 0)"><path class="cls-1" d="M295.65,213.73h-.15c.29-1.9.5-3.6.7-5.29h-3.75c-.28,2.26-.65,5.49-1.26,8.66l-3,15.69h4.25l2.05-10.74c1.07-5.66,4.36-10,8-10a7.16,7.16,0,0,1,1.16.08l.82-4.12a7.64,7.64,0,0,0-1.21-.09c-3.33,0-6,2.51-7.61,5.85"/></clipPath><linearGradient id="linear-gradient-5" x1="1410.95" y1="1309.85" x2="1411.95" y2="1309.85" gradientTransform="translate(-22740.61 -21158.29) scale(16.32)" xlink:href="#linear-gradient"/><clipPath id="clip-path-6" transform="translate(0 0)"><path class="cls-1" d="M311.92,215.39c0,2.51,1.62,4.65,4.49,6.21,2.57,1.41,3.44,2.6,3.44,4.49,0,2.17-1.86,4-4.71,4a11.64,11.64,0,0,1-5.35-1.51l-1.21,3.09a11.19,11.19,0,0,0,6.17,1.67c5.24,0,9.47-2.91,9.47-8,0-2.74-1.87-4.86-4.63-6.4-2.22-1.22-3.41-2.3-3.41-4.1,0-2.07,1.83-3.66,4.43-3.66a8.89,8.89,0,0,1,4.27,1.12l1.2-3.16a10.37,10.37,0,0,0-5.17-1.21c-5.23,0-9,3.26-9,7.51"/></clipPath><linearGradient id="linear-gradient-6" x1="1418.94" y1="1311.5" x2="1419.94" y2="1311.5" gradientTransform="translate(-24520.84 -22728.81) scale(17.5)" xlink:href="#linear-gradient"/><clipPath id="clip-path-7" transform="translate(0 0)"><path class="cls-1" d="M340.53,203l-1,5.49h-3.56l-.65,3.27h3.55L336.41,224a22.27,22.27,0,0,0-.55,4.57c0,2.49,1.48,4.72,5.23,4.72a10.43,10.43,0,0,0,3.29-.44l.2-3.28a8.47,8.47,0,0,1-2,.19,2.09,2.09,0,0,1-2.34-2.36,20,20,0,0,1,.49-3.89L343,211.71h5.93l.66-3.27h-5.93l1.28-6.55Z"/></clipPath><linearGradient id="linear-gradient-7" x1="1394.37" y1="1306.41" x2="1395.37" y2="1306.41" gradientTransform="translate(-19636.31 -18494.1) scale(14.32)" xlink:href="#linear-gradient"/><clipPath id="clip-path-8" transform="translate(0 0)"><path class="cls-1" d="M371.81,215.39c0,2.51,1.62,4.65,4.49,6.21,2.57,1.41,3.45,2.6,3.45,4.49,0,2.17-1.86,4-4.73,4a11.56,11.56,0,0,1-5.33-1.51l-1.22,3.09a11.22,11.22,0,0,0,6.17,1.67c5.23,0,9.47-2.91,9.47-8,0-2.74-1.86-4.86-4.63-6.4-2.22-1.22-3.41-2.3-3.41-4.1,0-2.07,1.84-3.66,4.43-3.66a9,9,0,0,1,4.28,1.12l1.19-3.16a10.37,10.37,0,0,0-5.17-1.21c-5.23,0-9,3.26-9,7.51"/></clipPath><linearGradient id="linear-gradient-8" x1="1418.96" y1="1311.51" x2="1419.96" y2="1311.51" gradientTransform="translate(-24466.51 -22733.67) scale(17.5)" xlink:href="#linear-gradient"/><clipPath id="clip-path-9" transform="translate(0 0)"><path class="cls-1" d="M398.78,218.82c1-3.8,4.09-7.69,8.14-7.69,2.22,0,3.78,1.1,3.78,3.1,0,3.65-4.83,4.6-11.13,4.6h-.79m-4.8,4.7c0,5.39,2.86,9.8,9.44,9.8a17.76,17.76,0,0,0,8.21-1.93l-.63-3.11a13.94,13.94,0,0,1-6.68,1.67,5.62,5.62,0,0,1-5.52-3.28,9.91,9.91,0,0,1-.5-4.63c9.17.17,16.51-1.52,16.51-7.91,0-3.48-2.57-6.25-7.28-6.25-8,0-13.55,8.3-13.55,15.64"/></clipPath><linearGradient id="linear-gradient-9" x1="1436.64" y1="1315.17" x2="1437.64" y2="1315.17" gradientTransform="translate(-29523.17 -27167.08) scale(20.82)" xlink:href="#linear-gradient"/><clipPath id="clip-path-10" transform="translate(0 0)"><path class="cls-1" d="M424.42,215.39c0,2.51,1.62,4.65,4.49,6.21,2.57,1.41,3.45,2.6,3.45,4.49,0,2.17-1.86,4-4.73,4a11.56,11.56,0,0,1-5.33-1.51l-1.22,3.09a11.22,11.22,0,0,0,6.17,1.67c5.24,0,9.47-2.91,9.47-8,0-2.74-1.86-4.86-4.63-6.4-2.21-1.22-3.41-2.3-3.41-4.1,0-2.07,1.83-3.66,4.43-3.66a9,9,0,0,1,4.28,1.12l1.19-3.16a10.36,10.36,0,0,0-5.16-1.21c-5.24,0-9,3.26-9,7.51"/></clipPath><linearGradient id="linear-gradient-10" x1="1418.94" y1="1311.5" x2="1419.94" y2="1311.5" gradientTransform="translate(-24408.34 -22728.81) scale(17.5)" xlink:href="#linear-gradient"/><clipPath id="clip-path-11" transform="translate(0 0)"><path class="cls-1" d="M448.68,215.39c0,2.51,1.61,4.65,4.48,6.21,2.58,1.41,3.45,2.6,3.45,4.49,0,2.17-1.85,4-4.72,4a11.64,11.64,0,0,1-5.34-1.51l-1.21,3.09a11.18,11.18,0,0,0,6.16,1.67c5.24,0,9.48-2.91,9.48-8,0-2.74-1.87-4.86-4.63-6.4-2.22-1.22-3.41-2.3-3.41-4.1,0-2.07,1.83-3.66,4.43-3.66a8.89,8.89,0,0,1,4.27,1.12l1.2-3.16a10.4,10.4,0,0,0-5.17-1.21c-5.23,0-9,3.26-9,7.51"/></clipPath><linearGradient id="linear-gradient-11" x1="1418.96" y1="1311.51" x2="1419.96" y2="1311.51" gradientTransform="translate(-24389.65 -22733.67) scale(17.5)" xlink:href="#linear-gradient"/><clipPath id="clip-path-12" transform="translate(0 0)"><path class="cls-1" d="M475.34,208.44l-4.74,24.35h4.24l4.75-24.35Zm.79-6.8a2.39,2.39,0,0,0,2.44,2.6,2.8,2.8,0,0,0,2.89-2.81,2.46,2.46,0,0,0-2.54-2.62,2.79,2.79,0,0,0-2.79,2.83"/></clipPath><linearGradient id="linear-gradient-12" x1="1351.16" y1="1297.45" x2="1352.16" y2="1297.45" gradientTransform="translate(-14199.94 -13871.57) scale(10.86)" xlink:href="#linear-gradient"/><clipPath id="clip-path-13" transform="translate(0 0)"><path class="cls-1" d="M492.2,223.18c0-5.58,3.54-12,8.91-12,4.44,0,5.78,4,5.78,6.8,0,5.66-3.8,12-8.81,12-3.64,0-5.88-2.89-5.88-6.85m-4.39.16c0,5.48,3.47,10,9.68,10,8.35,0,13.79-7.81,13.79-15.33,0-5.16-3-10.13-9.71-10.13-8.07,0-13.76,7.42-13.76,15.46"/></clipPath><linearGradient id="linear-gradient-13" x1="1447.13" y1="1317.35" x2="1448.13" y2="1317.35" gradientTransform="translate(-33473.78 -30695.2) scale(23.47)" xlink:href="#linear-gradient"/><clipPath id="clip-path-14" transform="translate(0 0)"><path class="cls-1" d="M527.14,213.22H527l.63-4.78h-3.82c-.28,2-.62,4.38-1.17,7.08l-3.31,17.27h4.24L525.84,221c1.13-6,5.43-9.59,8.49-9.59s3.89,1.8,3.89,4.24a17.43,17.43,0,0,1-.34,3.12l-2.71,14.07h4.24l2.76-14.22a24.23,24.23,0,0,0,.44-3.92c0-5.1-3.32-6.77-6.27-6.77a11,11,0,0,0-9.2,5.34"/></clipPath><linearGradient id="linear-gradient-14" x1="1446.35" y1="1317.19" x2="1447.35" y2="1317.19" gradientTransform="translate(-33105.83 -30402.03) scale(23.25)" xlink:href="#linear-gradient"/><clipPath id="clip-path-15" transform="translate(0 0)"><path class="cls-1" d="M568,233.79c-.75.44-1.51.88-2.23,1.37-7.44,5-11,11.81-9.45,20.92,1,6,3.32,11.52,5.43,17.14,2,5.29,3.91,10.6,4.65,16.25.91,7-.35,13.46-4.56,19.27a54.94,54.94,0,0,1-16.08,14.36c-.51.31-1,.67-1.47,1A29.48,29.48,0,0,0,555.83,318c4-3.6,7.76-7.59,11.59-11.44,2.45-2.46,5-4.78,8.44-5.73,2.57-.7,5.18-1.27,7.77-1.89,7.87-1.86,13.9-6,16.82-13.82.53-1.44,1.13-2.87,1.55-4.35a13,13,0,0,1,9.1-9.41c.44-.14.85-.35,1.27-.53-6.81-1.28-13.52-1.82-20.22,0a17.7,17.7,0,0,0-9.86,6.71c-3.09,4.15-5,8.92-7.26,13.95,2.58-2.59,4.75-4.9,7.09-7,2.86-2.62,6.26-4.36,8.27-4.43-8.06,4.05-13.25,10.93-18.6,18a5.66,5.66,0,0,1,0-.63c.08-.29.17-.59.26-.88,2-5.94,2-11.78-.64-17.56q-2.86-6.23-5.59-12.51a22.56,22.56,0,0,1-2.08-10.61,48.18,48.18,0,0,0,1.52,5.72c1.46,3.61,3.07,7.16,4.71,10.7,2.32,5,4.35,10.1,4.67,15.69a6.79,6.79,0,0,0,.27,1.09c.35-.82.58-1.26.72-1.72.63-2.16,1.32-4.32,1.84-6.51,1.59-6.71,1.62-13.33-1.28-19.75-.91-2-1.89-4-2.9-5.95a38.48,38.48,0,0,1-4.67-19.85c0-.48,0-1,0-1.51a2,2,0,0,0-.61.09"/></clipPath><linearGradient id="linear-gradient-15" x1="1519.04" y1="1313.92" x2="1520.04" y2="1313.92" gradientTransform="translate(-129184.42 -111912.87) scale(85.39)" xlink:href="#linear-gradient"/></defs><g id="Layer_2" data-name="Layer 2"><g id="Layer_1-2" data-name="Layer 1"><path class="cls-2" d="M385,404.83c1-4,2-7.54,2.73-11.09a3,3,0,0,0-1.77-3.69c-1.56-.58-2.15.88-2.87,1.86a10.43,10.43,0,0,0-1.28,2c-2.15,5.12-6.41,8.15-10.88,10.94-.8.5-1.89,1.44-2.75.5-.69-.75.26-1.68.67-2.45a49.39,49.39,0,0,0,3.83-8.76c.43-1.43.82-3.08-.8-4s-2.54.58-3.36,1.57a29.8,29.8,0,0,0-6.39,13.08,9.32,9.32,0,0,1-5.37,6.62c-4,2.06-6,.9-6.29-3.62-.2-2.78.85-5.4,1.07-8.11a9.88,9.88,0,0,0-4.7-9.59c-3.31-2.13-6.41-1.1-9.12,1.17-4.9,4.1-9.66,8.37-13.31,13.68-2.19,3.19-3.45,6.71-2.68,10.66.68,3.51,2.25,4.41,5.63,3.28,3.65-1.23,6.54-3.65,9.31-6.22,2.4-2.23,4.43-4.89,7.63-6.55.16,1.28.3,2.38.43,3.48.37,3.29,1.73,6.05,4.95,7.21s6.27.18,8.67-2.43c.7-.75,1.46-1.44,2.2-2.15s1.36-.89,2.12-.21a6.78,6.78,0,0,0,6.51,1.35,69.92,69.92,0,0,0-17.68,14.52c-3.46,3.87-6.2,8.16-6.93,13.48-.41,3.05.09,5.83,2.73,7.59s5.45,1.52,8.14.06a26.73,26.73,0,0,0,8-7.37,114,114,0,0,0,14.21-22.52c3.18-6.9,8.23-10.85,14.94-13.47a75.38,75.38,0,0,0,7-3.61c-5.24-.94-9.6,2.06-14.61,2.77m-55.8,6.68a28.17,28.17,0,0,1,13.73-14.14c-3.87,5.39-8.15,10.4-13.73,14.14m27.34,30.55c-2.91,3.13-6.74,4.55-7.93,2.93-2.15-2.91-.16-5.88,1.23-8.18a38.65,38.65,0,0,1,7.48-8.81c4.82-4.26,9.58-8.69,15.75-11.34-5.29,8.66-9.56,17.92-16.53,25.4m-62-66.33a3.83,3.83,0,0,1-.9-6.24c.56-.52,1.48-.66,1.72-1.8-7.1.12-14.06.66-20.78,3a17.84,17.84,0,0,0-5.44,2.82c-3.84,3.06-4.59,6.55-2.26,10.85a36.55,36.55,0,0,0,8.67,10,70.47,70.47,0,0,1,11.82,12.75c5.13,7.26,2.22,16.69-5.82,20.16-6.54,2.82-13.26,3.32-20,3v.05a27,27,0,0,1-3.82-.08,70.74,70.74,0,0,1-8.56-1.24,29.56,29.56,0,0,1-7.44-2.19l-.59-.28-.17-.09q-.49-.24-1-.51c-1-.53-2.53-1-2.77-2a14.64,14.64,0,0,1-2.13-2.46.9.9,0,0,1,.7-.45l.88-.09a1.82,1.82,0,0,0,.82-.3,1.54,1.54,0,0,0,.54-1.07,8.68,8.68,0,0,0,4.07,2.12,31.51,31.51,0,0,0,4.73.71c1.61.13,3.2.27,4.77.44a15.16,15.16,0,0,1,2.27.41l2.18.08a4.57,4.57,0,0,0,0-.65h-4.51l0-1.05,3.36-.27a5.62,5.62,0,0,0-1.62-.22,29.31,29.31,0,0,0-3.06.17,5.14,5.14,0,0,1-3.08-.57q4.08-.18,7.83-.3a56.55,56.55,0,0,0,6.6-.63v1l2.9-.25a42.69,42.69,0,0,0,15.45-4.06c2.18-1.07,2.5-2.26,1.29-4.28a46.21,46.21,0,0,0-6.48-7.92c-3.14-3.3-6.44-6.46-9.64-9.71-9-9.18-8.62-19.52,1.25-27.82,6.68-5.63,14.63-8.21,23.19-9.17,5.44-.61,9.69,2.29,13.89,4.91,2.85,1.77,3.25,6.49,1.41,9.29-2,3-7.68,5.24-10.23,4M494.18,389c-2.14,8-5.37,15.72-7.26,23.83-.24,1-.35,2.52-1.89,2.44-1.3-.07-1.83-1.28-2.18-2.37-1.26-4-.27-7.87.58-12-1.56.14-2.33,1.14-3.23,1.88a39.68,39.68,0,0,1-3.44,2.8c-5.58,3.56-9.73,2.13-12.06-4.06-.35-.92-.2-2.38-1.31-2.58s-1.82,1.19-2.5,2a63.83,63.83,0,0,1-7.74,8.19c-3,2.66-5.62,1.68-6.26-2.28a14.34,14.34,0,0,1,.65-6.74c1.28-4.06,3.42-7.7,5.35-11.45,1-2,2.72-3,4.79-2s1,2.83.54,4.22c-1,2.74-2.28,5.38-3.45,8.06l.71.38c2.26-2.69,4.51-5.39,6.8-8,1.27-1.47,2.57-3.15,4.87-2.24s3,2.79,2.94,5a45.85,45.85,0,0,1-.47,5.09c-.31,2.53.85,3.61,3.32,3.49,4.6-.22,11.92-5.87,13.31-10.33.81-2.59,1.55-5.21,2.38-8-2,.12-3.92.1-5.76.37s-3.24,2-6.06,1.37a25.63,25.63,0,0,1,10.49-6.53c3.82-1.12,5.29-3.53,5.89-7a29.29,29.29,0,0,1,1.06-4.65c.61-1.84,1.93-2.86,4-2.22a3.25,3.25,0,0,1,2.56,3.88,28.17,28.17,0,0,1-1.37,5.27c-.79,2-.54,2.67,1.81,2.17,4-.85,8.06-1.47,12.11-2.15a2.63,2.63,0,0,1,2.14.62c-2.75.95-5.5,1.91-8.26,2.84a20.11,20.11,0,0,1-2.31.61c-5.63,1.26-9.08,4-10.72,10.22m-50.51-17.18c-1,2-2.16,3.95-1.94,6.42.13,1.47-1.05,1.86-2.39,1.52-2.39-.61-4.27-4.09-3.5-6.46.69-2.12,2.64-5.08.84-6.28-2.07-1.39-4.29,1.48-5.79,3.09-7.8,8.32-15.56,16.72-18.94,28.06a25.5,25.5,0,0,0-1.28,9.76c.4,4.14,2.86,6.58,7,7.06a17.16,17.16,0,0,0,9-1.63c3.12-1.38,6.2-2.88,9.26-4.39,1.56-.77,2.89-2.41,4.67-.13.77,1,1.67-1,3.3-.32-6.07,5.93-12.45,11-20.65,12.5-10.32,1.93-16.53-3.08-18.21-13.93a24.11,24.11,0,0,1,1.39-11.44c4.76-14.09,12.66-26,24.8-34.76,4.64-3.37,6.26-3.34,9.67-.39,3.73,3.22,4.73,7.19,2.76,11.32M321,395.63c-4.51,9.23-10.32,17.91-14.86,27.21-.56,1.15-1,2.9-2.77,2.54s-2.13-2-2.37-3.45a15.57,15.57,0,0,1,1.32-8.34c3.19-7.85,8.17-14.74,12-22.26.46-.89,1.27-1.63,1.21-2.85-5.51-.39-10.47,1.49-16,3,.77-2.3,2.18-2.71,3.3-3.32a65.84,65.84,0,0,1,14.85-6,7.72,7.72,0,0,0,5.58-4.5c1.28-2.8,2.7-5.53,4-8.3a4.94,4.94,0,0,1,4.71-2.84c2.95-.07,4.35,1.79,3.63,4.68-.57,2.26-1.94,4.11-3,6.11-.37.67-1.18,1.33-.69,2.15s1.64.57,2.5.44c4.73-.72,9.45-1.49,14.17-2.24a9.32,9.32,0,0,1,5.39.3,94.67,94.67,0,0,0-12.18,3.56,5.09,5.09,0,0,1-.68.12c-8.93,1.44-15.66,5-20.06,14m196.83,5.65a49.32,49.32,0,0,1-6,2,33.15,33.15,0,0,1-6.32,1,14,14,0,0,1-5.82-.77,22.54,22.54,0,0,0,9.21-5.77,33.62,33.62,0,0,0,6.17-8.88,3.95,3.95,0,0,0-3.12-2.95,9.32,9.32,0,0,0-2.34-.2c-.84,0-1.72.07-2.66.12a2.83,2.83,0,0,1-1.17-.08,2.13,2.13,0,0,0-1-.08,10.15,10.15,0,0,0-3.86,2.12c-1.33,1.1-2.52,2.1-3.56,3a17.53,17.53,0,0,0-3.16,3.6,8.43,8.43,0,0,0-1.45,3.93,12,12,0,0,0,2.42,5.81,8.27,8.27,0,0,0,4.54,2.78,9.52,9.52,0,0,0,2.34.33,29.17,29.17,0,0,0,3.24,0,24,24,0,0,0,3.24-.37,6.35,6.35,0,0,0,2.42-.86c-.05,0-.07,0-.07-.08s.05-.11.15-.16c.94-.33,2-.71,3.13-1.15a35.61,35.61,0,0,0,3.36-1.47,25.63,25.63,0,0,0,3-1.8,8.41,8.41,0,0,0,2.19-2.13c-1.36.6-3,1.28-4.88,2m-20.74-8.35a5,5,0,0,1,1.09-1.64,14.87,14.87,0,0,1,1.76-1.55c.65-.49,1.31-1,2-1.39s1.28-.79,1.8-1.07a4.3,4.3,0,0,1-1.21,1.48c-.55.43-1.16.87-1.84,1.31s-1.34.88-2,1.34a7.3,7.3,0,0,0-1.6,1.52m2,5.89c0,.11-.08.17-.24.17a.8.8,0,0,0-.39.08,18,18,0,0,1,5.12-6.8,50.56,50.56,0,0,1,7.3-4.91,5.78,5.78,0,0,1-1.87,3.56c-1,1-2.06,1.9-3.05,2.83l-3.12,2.9a9.71,9.71,0,0,1-3.75,2.17M236.51,417.44c-.51-.17-1.18-.37-2-.61-.4,0-.63-.15-.67-.38s-.25-.41-.63-.53a11,11,0,0,0,.8-1.61,20,20,0,0,1,3.82,1.9c1.1.71,2.19,1.46,3.28,2.25,2.62.42,3.83.83,3.66,1.22s-1.48.17-4-.69a15.29,15.29,0,0,0-1.56-.7,10,10,0,0,0-1.31-.42c-.44-.12-.92-.26-1.43-.43" transform="translate(0 0)"/><path class="cls-3" d="M272.66,256.36a9,9,0,0,0-7.09,3.32,23.51,23.51,0,0,0-4.46,8.15,54.73,54.73,0,0,0-2.26,10.49,92.41,92.41,0,0,0-.68,10.94q0,13.74,4.62,23.93t16.28,10.18a21.91,21.91,0,0,0,14.53-5.2A32.65,32.65,0,0,0,303,305l2.27,1.21Q295.12,328.51,269,328.5q-17.25,0-29.34-10.18t-12.1-26.94q0-16.9,11.87-27.17T269,254a49.19,49.19,0,0,1,12.25,1.43,51.16,51.16,0,0,1,10.51,3.93,35.23,35.23,0,0,1,9.37,7.09,15,15,0,0,1,4.46,10.79,12,12,0,0,1-3.49,9q-3.48,3.39-10.31,3.39a15.85,15.85,0,0,1-10.7-4.15q-4.79-4.14-4.78-9.43a19.2,19.2,0,0,1,1.66-7.84,16.4,16.4,0,0,0,1.66-6.35,4.87,4.87,0,0,0-1.81-3.92,7.84,7.84,0,0,0-5.13-1.51" transform="translate(0 0)"/><path class="cls-3" d="M385.79,319.6q3.57,0,5-4.47a35.79,35.79,0,0,0,1.41-10.69h2.12q0,13.32-4.76,17.56T381,327.37a34.47,34.47,0,0,1-9.66,1.13,20.5,20.5,0,0,1-11.54-3.32,13.29,13.29,0,0,1-6.11-8.92,17.4,17.4,0,0,1-8.08,9.19q-5.65,3-14.71,3.05c-6.45,0-11.67-1.76-15.7-5.29s-6-8.41-6-14.67q0-7.56,3.78-12.17t7.7-5.67a78.18,78.18,0,0,1,12.06-1.82,83.65,83.65,0,0,0,12-1.74,18.43,18.43,0,0,0,5.5-2.12,4.31,4.31,0,0,0,1.67-3.85l-.15-13.77c0-3.93-.51-6.75-1.5-8.47s-3.09-2.57-6.27-2.57a8.74,8.74,0,0,0-5,1.37,4.05,4.05,0,0,0-2,3.48c0,1.12,1.06,2.51,3.21,4.18s3.22,4.17,3.22,7.5a10.82,10.82,0,0,1-4.17,8.34q-4.16,3.64-13.54,3.64a14.89,14.89,0,0,1-9-2.8,8.8,8.8,0,0,1-3.86-7.51q0-9.39,10.51-15t25-5.61A50.16,50.16,0,0,1,370.89,259q10.28,5.07,10.28,15.69v34.72a23.94,23.94,0,0,0,.9,7.43,3.45,3.45,0,0,0,3.72,2.73m-33.89-4.53V286.24l-.45-.16a12.21,12.21,0,0,1-5,3.4,15.58,15.58,0,0,0-5.08,3.1c-.95,1-1.69,2.94-2.24,5.81a46.79,46.79,0,0,0-.82,8.83,45.12,45.12,0,0,0,1.05,10.87q1,4.08,4.77,4.08a6.73,6.73,0,0,0,5-2.27,10.4,10.4,0,0,0,2.77-4.83" transform="translate(0 0)"/><path class="cls-3" d="M393.4,327v-2.42l4.08-.15q4.36-.45,5.28-2.11c.6-1.11.9-3.52.9-7.25l.15-6.94V272.06l-.15-6.19a25,25,0,0,0-.9-5.43q-.61-1.81-5.43-2.27l-3.93-.3v-2.41h39.24v12.68a52.71,52.71,0,0,1,4.44-8.15q3.41-5.44,15.79-5.44a16.76,16.76,0,0,1,12.3,5.06,16.39,16.39,0,0,1,5.05,12,15.38,15.38,0,0,1-4.75,11.54,16.18,16.18,0,0,1-11.7,4.61,13.76,13.76,0,0,1-9.88-4,12.39,12.39,0,0,1-4.16-9.14,17.53,17.53,0,0,1,1.36-6.94c1-1.91,2-3.87,3-5.89a2,2,0,0,0-1.51-1.05q-3.9,0-6.78,4.68a16.88,16.88,0,0,0-2.87,8.75V309l.14,7.55q0,4.23,1,5.74t5.21,2l4.47.3V327Z" transform="translate(0 0)"/><path class="cls-3" d="M548.55,304.36a36.26,36.26,0,0,1-13.61,17.73q-9.37,6.42-22.08,6.41-17.83,0-29.34-9.88T472,291.23q0-16.31,11.87-26.79T512.41,254q17.39,0,26.61,9.81t9.23,24H501.91a76.82,76.82,0,0,0,.83,11.09,42.13,42.13,0,0,0,3.15,10.94,21.07,21.07,0,0,0,6.59,8.53,17.23,17.23,0,0,0,10.72,3.24q9.25,0,14.65-5.2a34.49,34.49,0,0,0,8.28-13.06Zm-26.71-19.62c-.1-1.11-.18-2.42-.23-3.93s-.07-3.42-.07-5.73q0-9.21-2.25-14a7.93,7.93,0,0,0-7.79-4.76,6.71,6.71,0,0,0-6.66,4.6q-1.87,4.62-2.62,14.12l-.31,9.66Z" transform="translate(0 0)"/><g class="cls-4"><rect class="cls-5" x="26.7" y="341.55" width="5.1" height="12.47"/></g><g class="cls-6"><rect class="cls-7" x="95.24" y="278.19" width="7.6" height="11.99"/></g><g class="cls-8"><rect class="cls-9" width="312.3" height="362.31"/></g><g class="cls-10"><rect class="cls-11" x="271.29" y="198.81" width="10.85" height="33.97"/></g><g class="cls-12"><rect class="cls-13" x="288.15" y="207.88" width="16.32" height="24.9"/></g><g class="cls-14"><rect class="cls-15" x="308.58" y="207.88" width="17.5" height="25.43"/></g><g class="cls-16"><rect class="cls-17" x="335.28" y="201.89" width="14.32" height="31.43"/></g><g class="cls-18"><rect class="cls-19" x="368.47" y="207.88" width="17.5" height="25.43"/></g><g class="cls-20"><rect class="cls-21" x="393.98" y="207.88" width="20.82" height="25.43"/></g><g class="cls-22"><rect class="cls-23" x="421.08" y="207.88" width="17.5" height="25.43"/></g><g class="cls-24"><rect class="cls-25" x="445.34" y="207.88" width="17.5" height="25.43"/></g><g class="cls-26"><rect class="cls-27" x="470.6" y="198.81" width="10.86" height="33.97"/></g><g class="cls-28"><rect class="cls-29" x="487.81" y="207.88" width="23.47" height="25.46"/></g><g class="cls-30"><rect class="cls-31" x="519.37" y="207.88" width="23.25" height="24.9"/></g><g class="cls-32"><rect class="cls-33" x="521.78" y="223.93" width="113.09" height="109.94" transform="translate(-3.62 550.16) rotate(-50.74)"/></g></g></g></svg>