<svg xmlns="http://www.w3.org/2000/svg" xmlns:xlink="http://www.w3.org/1999/xlink" viewBox="0 0 179.08 98.8"><defs><style>.cls-1{fill:none;}.cls-2{fill:#2b3990;}.cls-3{clip-path:url(#clip-path);}.cls-4{fill:url(#linear-gradient);}.cls-5{clip-path:url(#clip-path-2);}.cls-6{fill:url(#linear-gradient-2);}.cls-7{clip-path:url(#clip-path-3);}.cls-8{fill:url(#linear-gradient-3);}.cls-9{clip-path:url(#clip-path-4);}.cls-10{fill:url(#linear-gradient-4);}.cls-11{clip-path:url(#clip-path-5);}.cls-12{fill:url(#linear-gradient-5);}.cls-13{clip-path:url(#clip-path-6);}.cls-14{fill:url(#linear-gradient-6);}.cls-15{clip-path:url(#clip-path-7);}.cls-16{fill:url(#linear-gradient-7);}.cls-17{clip-path:url(#clip-path-8);}.cls-18{fill:url(#linear-gradient-8);}.cls-19{clip-path:url(#clip-path-9);}.cls-20{fill:url(#linear-gradient-9);}.cls-21{clip-path:url(#clip-path-10);}.cls-22{fill:url(#linear-gradient-10);}.cls-23{clip-path:url(#clip-path-11);}.cls-24{fill:url(#linear-gradient-11);}.cls-25{clip-path:url(#clip-path-12);}.cls-26{fill:url(#linear-gradient-12);}.cls-27{clip-path:url(#clip-path-13);}.cls-28{fill:url(#linear-gradient-13);}.cls-29{clip-path:url(#clip-path-14);}.cls-30{fill:url(#linear-gradient-14);}.cls-31{clip-path:url(#clip-path-15);}.cls-32{fill:url(#linear-gradient-15);}</style><clipPath id="clip-path" transform="translate(0)"><path class="cls-1" d="M7.28,93.14v3.41c.39-.94.89-2.17,1.39-3.41Z"/></clipPath><linearGradient id="linear-gradient" x1="300.28" y1="389.03" x2="301.28" y2="389.03" gradientTransform="matrix(0, -3.4, -3.4, 0, 1331.79, 1118.37)" gradientUnits="userSpaceOnUse"><stop offset="0" stop-color="#ee4498"/><stop offset="0.01" stop-color="#ee4498"/><stop offset="0.22" stop-color="#e73d93"/><stop offset="0.52" stop-color="#d52b85"/><stop offset="0.88" stop-color="#b70c6f"/><stop offset="1" stop-color="#ab0066"/></linearGradient><clipPath id="clip-path-2" transform="translate(0)"><path class="cls-1" d="M26,76.76l2.08,2.37C27.69,78,27.36,77,27,75.86l-1,.9"/></clipPath><linearGradient id="linear-gradient-2" x1="301.5" y1="393.09" x2="302.5" y2="393.09" gradientTransform="matrix(0, -3.27, -3.27, 0, 1312.35, 1065.01)" xlink:href="#linear-gradient"/><clipPath id="clip-path-3" transform="translate(0)"><path class="cls-1" d="M43.1,56.79a3.26,3.26,0,0,1-2.15-4,9.51,9.51,0,0,1,4.14-5.94A13.21,13.21,0,0,1,53,44.26h0a20.11,20.11,0,0,1,7.81,1.38h0l.12,0h0a46,46,0,0,1,6.86,3c-1.16,2-2.34,3.91-3.46,5.89a48.8,48.8,0,0,0-2.46,5,.92.92,0,0,1-1.12.72,30.2,30.2,0,0,0-5.2-.15,6,6,0,0,0-4.82,3.37,1.94,1.94,0,0,0-.24.6,1.67,1.67,0,0,0,.13.51c.17-.06.41-.06.49-.17,1.63-2.14,4-2.35,6.39-2.47,1.08-.06,2.17,0,3.32,0a3.14,3.14,0,0,1-.1.43,35.76,35.76,0,0,1-9.25,13,16.57,16.57,0,0,1-19.81,1.51A10.52,10.52,0,0,1,27,65.06a8.1,8.1,0,0,1,3.25-4.47l1.44-1.05c0-.1-.07-.19-.1-.28a13.92,13.92,0,0,0-1.68.72A8,8,0,0,0,26,65.83a13.14,13.14,0,0,0,.73,7.86,11.53,11.53,0,0,1-1.26-1c-.21-.21-.46-.63-.38-.85.44-1.16-.66-2.08-.43-3.23A24.16,24.16,0,0,0,25,65.17c.07-1.14.11-2.29.13-3.43a20.17,20.17,0,0,0-2.4-9.8A10.47,10.47,0,0,0,19.21,48a19,19,0,0,1-2.14-1.79c5.29,2.54,8,6.77,8.29,12.64,1.37-2.51,3.58-4.18,5.39-6.2a1.36,1.36,0,0,1,.81-.35A3.49,3.49,0,0,0,34.2,51.1a1.89,1.89,0,0,1,1.27-.39,7.31,7.31,0,0,0,4-1.56c-.19.89-.45,1.78-.55,2.68-.47,4.39,3.58,6.94,7.15,6.36,2.87-.45,5.17-1.69,6.09-4.69a7.56,7.56,0,0,0,.14-.83L52,52.55c-.17.3-.37.6-.52.92a5.06,5.06,0,0,1-.33.9,7.76,7.76,0,0,1-5.82,2.91,5.4,5.4,0,0,1-2.27-.49M44.71,38a5.49,5.49,0,0,0-3.21-1,6.73,6.73,0,0,1-.77-.09c-2.53-.48-3.5-1.91-3.12-4.59a2.18,2.18,0,0,1,1.52-1.86,26.22,26.22,0,0,1,3.64-.8c.85-.14,1.73-.13,2.69-.19l-.41-.85c1.11.39,2.07.71,3,1.07a19.67,19.67,0,0,0,2,.87,3.64,3.64,0,0,1,2.35,2.09c.47.91.87,1.86,1.3,2.8,1.43-.68,2-.62,3,.32l-1.62-.29-.06.13c.26.22.54.43.78.66s.48.52.71.77a18.31,18.31,0,0,0-2.29-.23,1.68,1.68,0,0,0-1.61,1.43l1.53.26c-.08.25-.14.47-.22.75-1.54-.7-3.09-.41-4.61-.21a10.1,10.1,0,0,1-1.21.08A5.23,5.23,0,0,1,44.71,38M42.28,25.79l.2-.16L44.14,28a3.06,3.06,0,0,1-1.86-2.23m3.77-7a10.89,10.89,0,0,1,1.39,4.91,5.48,5.48,0,0,1-1.39-4.91M47.45.2c-.26.25-.2.62-.14,1a2.94,2.94,0,0,0,.18.65c.09.2.17.4.27.6.53,1,1.09,1.92,1.68,2.84a1.92,1.92,0,0,0-.07,1.24,2.45,2.45,0,0,1-.15,1.78,2.32,2.32,0,0,0,.14,2.7,2,2,0,0,1,.35,2.22,16.07,16.07,0,0,0-.48,1.81c-.2,1.33-.34,2.67-.5,4a18.28,18.28,0,0,0-1.62-1.55,27,27,0,0,0-2.77-1.82.89.89,0,0,0-1.31.46c-.28.77-.86.78-1.47.87-.29,0-.59.08-.88.15a1.77,1.77,0,0,0-1.58,2.1,4.09,4.09,0,0,0,0,.79,2.3,2.3,0,0,1-.59,2c-1.06,1.15-2.08,2.34-3.07,3.55-.8,1-1.58,2-1,3.49l-1.45-.44c-.22,1.19-.58,2.28-1.87,2.71.4,3.05-.66,5.83-1.4,8.7A3.2,3.2,0,0,1,33.32,43l-3.75-2-.13.22c0,.18.06.35.11.57l-1.06-.38c0,.34.06.59.07.64a32.53,32.53,0,0,0-3.7,0c-2.94.33-5.89.72-8.82,1.16a2.48,2.48,0,0,0-1.76,3.72A39.94,39.94,0,0,1,17,51.73c.94,2.16,1.63,4.44,2.39,6.68a1.82,1.82,0,0,1-.06.92c-.28,1.19-.61,2.37-.88,3.56a55.2,55.2,0,0,1-1.32,5.86c-1,3-2.28,5.81-3.45,8.71a31.66,31.66,0,0,1-6.61,10.7A24.1,24.1,0,0,0,4.2,91.92,8.86,8.86,0,0,0,3,96.73,2.59,2.59,0,0,0,0,98.17L.85,98a7.22,7.22,0,0,1,2.22.49c.75.3,1.11,0,1.26-.67.2-.84.31-1.71.46-2.56.4-2.19.48-2.27,2.64-2.45A2.42,2.42,0,0,0,9.67,90a1.28,1.28,0,0,1,.59-1.43c.18-.11.45-.26.46-.4A3.36,3.36,0,0,1,12,85.94c1.29-1.25,2.61-2.47,3.87-3.76,3.74-3.85,5.72-8.32,4.72-13.79-.21-1.12.3-1.91,1-3a34.68,34.68,0,0,1,.75,4c.16,2.25.09,4.52.2,6.77a9.07,9.07,0,0,0,2.6,6.2c-1.07.35-1.28,1.29-1.46,2.41.86-.39,1.63-.72,2.38-1.07,1-.49,1.13-.75.59-1.82-.23-.45-.54-.87-.81-1.31A15.74,15.74,0,0,1,25,79.13c-.56-1.16-.5-1.41.43-2.27a3.24,3.24,0,0,0,1.45-2.38.41.41,0,0,1,.16.19,12.78,12.78,0,0,0,7.67,6,20,20,0,0,0,22-7,40.39,40.39,0,0,0,5-9.57c.26-.64.39-1.55.87-1.85a2.07,2.07,0,0,1,1.28-.07,4.38,4.38,0,0,0,.8.06q3.42-.14,6.84-.36a3.48,3.48,0,0,0,1-.43c0-.11,0-.22-.07-.33L63,60.88c1.68-4.23,3.22-8.2,5.94-11.62,1,.49,1.94,1,2.91,1.4a28.89,28.89,0,0,0,7.92,2.45,5.22,5.22,0,0,0,4.35-1.17A2.8,2.8,0,0,0,85,49.08a6.22,6.22,0,0,0-.68.93,2.63,2.63,0,0,1-2.09,1.52,8.91,8.91,0,0,1-1.54.14,20.39,20.39,0,0,1-7-1.54c-1.34-.46-2.65-1-4-1.59,1.1-1.06,1.92-1.28,2.74-.85a2.62,2.62,0,0,0,.64.17c0-.28.06-.66-.09-.82a2.1,2.1,0,0,0-1-.56,3.1,3.1,0,0,0-2.64.8l-.73.62c0-.08,0-.17,0-.26L58.31,43c-2.2-1-5.69-1.12-7.44-1.11a9.05,9.05,0,0,0-1.94.19,14.29,14.29,0,0,0-7.85,4.59c1.11-2.74-.46-4.9-1.63-7.4,1.35.26,2.46.49,3.59.67a1.85,1.85,0,0,0,.62,0,3.42,3.42,0,0,1,.45,0h.17a2.43,2.43,0,0,1,.94.11c.59.23,1.17.47,1.75.72a9.86,9.86,0,0,0,4,.79,21.63,21.63,0,0,1,6.57.86,1.55,1.55,0,0,0,1.71-.62h0c.83-1.09.67-2.23.21-4.05-.15-.6-.27-1.58-.61-2.75A29.34,29.34,0,0,1,58,30.59a.52.52,0,0,1,.11-.28c.65-.95.64-1.23-.28-1.9a1.39,1.39,0,0,1-.66-1.24,4.07,4.07,0,0,0-2-3.61c-1-.54-2-1-2.91-1.53a1.15,1.15,0,0,1-.54-.78,34.7,34.7,0,0,0-1.1-7.65c-.3-1.17-.63-2.43.62-3.36l.31.19c.11-.32.21-.58.3-.84l.18,0V12.2l-1-.85c-.56,1.11-.07,3.9.77,4.6a.75.75,0,0,0,.55.14c.49,0,1-.18,1.44-.21a3.33,3.33,0,0,0,2.28-1c.26-.27.49-.57.6-.7.49.32.93.64,1.36.92.25.21.49.43.75.64a3.39,3.39,0,0,0,1.15.7,3,3,0,0,0,.43.08,1.1,1.1,0,0,0,1.18-1.35.67.67,0,0,0-.1-.29c-.66-1.19-1.38-2.35-2.1-3.5.2-.75.47-1.49.74-2.21a2,2,0,0,0-.59-2.35,2.05,2.05,0,0,1-.63-.81C58.19,4.21,57,3.67,55.22,4.39a9.32,9.32,0,0,1-1,.37l-.28-.25A58.32,58.32,0,0,0,49.07.36,2.07,2.07,0,0,0,48,0a1,1,0,0,0-.59.2"/></clipPath><linearGradient id="linear-gradient-3" x1="266.31" y1="290.45" x2="267.31" y2="290.45" gradientTransform="matrix(85.02, 0, 0, -85.02, -22642.35, 24743.65)" xlink:href="#linear-gradient"/><clipPath id="clip-path-4" transform="translate(0)"><path class="cls-1" d="M75.28,56.84,74,63.48h1.16l1.29-6.64ZM75.49,55a.65.65,0,0,0,.66.71.76.76,0,0,0,.79-.77.67.67,0,0,0-.69-.71.76.76,0,0,0-.76.77"/></clipPath><linearGradient id="linear-gradient-4" x1="155.62" y1="323.7" x2="156.62" y2="323.7" gradientTransform="matrix(2.96, 0, 0, -2.96, -386.76, 1017.21)" xlink:href="#linear-gradient"/><clipPath id="clip-path-5" transform="translate(0)"><path class="cls-1" d="M80.63,58.29h0c.08-.52.13-1,.19-1.45h-1c-.07.62-.17,1.5-.34,2.37l-.83,4.27h1.16l.56-2.93c.29-1.54,1.19-2.73,2.19-2.73a1.47,1.47,0,0,1,.32,0L83,56.72a1.69,1.69,0,0,0-.33,0,2.45,2.45,0,0,0-2.07,1.6"/></clipPath><linearGradient id="linear-gradient-5" x1="194" y1="312.17" x2="195" y2="312.17" gradientTransform="matrix(4.45, 0, 0, -4.45, -784.69, 1449.19)" xlink:href="#linear-gradient"/><clipPath id="clip-path-6" transform="translate(0)"><path class="cls-1" d="M85.06,58.74a2,2,0,0,0,1.23,1.69c.7.39.94.71.94,1.23a1.16,1.16,0,0,1-1.29,1.08,3.12,3.12,0,0,1-1.46-.41l-.33.84a3.06,3.06,0,0,0,1.68.46,2.3,2.3,0,0,0,2.59-2.19,2.08,2.08,0,0,0-1.26-1.75c-.61-.33-.93-.62-.93-1.11a1.07,1.07,0,0,1,1.2-1,2.47,2.47,0,0,1,1.17.3l.32-.86a2.76,2.76,0,0,0-1.4-.33,2.22,2.22,0,0,0-2.46,2.05"/></clipPath><linearGradient id="linear-gradient-6" x1="199.16" y1="310.62" x2="200.16" y2="310.62" gradientTransform="matrix(4.77, 0, 0, -4.77, -866.25, 1542.5)" xlink:href="#linear-gradient"/><clipPath id="clip-path-7" transform="translate(0)"><path class="cls-1" d="M92.87,55.35l-.29,1.49h-1l-.18.89h1l-.66,3.37a5.8,5.8,0,0,0-.15,1.24A1.25,1.25,0,0,0,93,63.63a2.73,2.73,0,0,0,.89-.12l.06-.9a2.2,2.2,0,0,1-.55.06.57.57,0,0,1-.64-.65A5.07,5.07,0,0,1,92.92,61l.62-3.23h1.62l.18-.89H93.72l.35-1.78Z"/></clipPath><linearGradient id="linear-gradient-7" x1="183.38" y1="315.36" x2="184.38" y2="315.36" gradientTransform="matrix(3.91, 0, 0, -3.91, -624.84, 1291.15)" xlink:href="#linear-gradient"/><clipPath id="clip-path-8" transform="translate(0)"><path class="cls-1" d="M101.4,58.74a2,2,0,0,0,1.22,1.69c.7.39.94.71.94,1.23a1.16,1.16,0,0,1-1.29,1.08,3.11,3.11,0,0,1-1.45-.41l-.34.84a3.08,3.08,0,0,0,1.69.46,2.3,2.3,0,0,0,2.58-2.19,2.08,2.08,0,0,0-1.26-1.75c-.61-.33-.93-.62-.93-1.11a1.08,1.08,0,0,1,1.21-1,2.46,2.46,0,0,1,1.16.3l.33-.86a2.83,2.83,0,0,0-1.41-.33,2.21,2.21,0,0,0-2.45,2.05"/></clipPath><linearGradient id="linear-gradient-8" x1="199.16" y1="310.62" x2="200.16" y2="310.62" gradientTransform="matrix(4.77, 0, 0, -4.77, -849.92, 1542.5)" xlink:href="#linear-gradient"/><clipPath id="clip-path-9" transform="translate(0)"><path class="cls-1" d="M108.75,59.67A2.61,2.61,0,0,1,111,57.58c.61,0,1,.3,1,.84,0,1-1.31,1.26-3,1.26h-.22M107.44,61A2.42,2.42,0,0,0,110,63.63a4.82,4.82,0,0,0,2.23-.53l-.17-.85a3.77,3.77,0,0,1-1.82.46,1.54,1.54,0,0,1-1.5-.89,2.61,2.61,0,0,1-.14-1.27c2.5.05,4.5-.41,4.5-2.15a1.74,1.74,0,0,0-2-1.71c-2.18,0-3.7,2.27-3.7,4.26"/></clipPath><linearGradient id="linear-gradient-9" x1="210.51" y1="307.21" x2="211.51" y2="307.21" gradientTransform="matrix(5.68, 0, 0, -5.68, -1087.96, 1804.66)" xlink:href="#linear-gradient"/><clipPath id="clip-path-10" transform="translate(0)"><path class="cls-1" d="M115.74,58.74A2,2,0,0,0,117,60.43c.7.39.94.71.94,1.23a1.16,1.16,0,0,1-1.29,1.08,3.12,3.12,0,0,1-1.46-.41l-.33.84a3.06,3.06,0,0,0,1.68.46,2.3,2.3,0,0,0,2.59-2.19,2.07,2.07,0,0,0-1.27-1.75c-.6-.33-.92-.62-.92-1.11a1.07,1.07,0,0,1,1.2-1,2.47,2.47,0,0,1,1.17.3l.32-.86a2.76,2.76,0,0,0-1.4-.33,2.22,2.22,0,0,0-2.46,2.05"/></clipPath><linearGradient id="linear-gradient-10" x1="199.16" y1="310.62" x2="200.16" y2="310.62" gradientTransform="matrix(4.77, 0, 0, -4.77, -835.57, 1542.5)" xlink:href="#linear-gradient"/><clipPath id="clip-path-11" transform="translate(0)"><path class="cls-1" d="M122.36,58.74a2,2,0,0,0,1.22,1.69c.7.39.94.71.94,1.23a1.16,1.16,0,0,1-1.29,1.08,3.11,3.11,0,0,1-1.45-.41l-.33.84a3,3,0,0,0,1.68.46,2.29,2.29,0,0,0,2.58-2.19,2.08,2.08,0,0,0-1.26-1.75c-.6-.33-.93-.62-.93-1.11a1.08,1.08,0,0,1,1.21-1,2.46,2.46,0,0,1,1.16.3l.33-.86a2.8,2.8,0,0,0-1.41-.33,2.21,2.21,0,0,0-2.45,2.05"/></clipPath><linearGradient id="linear-gradient-11" x1="199.16" y1="310.62" x2="200.16" y2="310.62" gradientTransform="matrix(4.77, 0, 0, -4.77, -828.96, 1542.5)" xlink:href="#linear-gradient"/><clipPath id="clip-path-12" transform="translate(0)"><path class="cls-1" d="M129.63,56.84l-1.29,6.64h1.15l1.3-6.64Zm.21-1.85a.66.66,0,0,0,.67.71.77.77,0,0,0,.79-.77.67.67,0,0,0-.69-.71.77.77,0,0,0-.77.77"/></clipPath><linearGradient id="linear-gradient-12" x1="155.61" y1="323.71" x2="156.61" y2="323.71" gradientTransform="matrix(2.96, 0, 0, -2.96, -332.3, 1017.1)" xlink:href="#linear-gradient"/><clipPath id="clip-path-13" transform="translate(0)"><path class="cls-1" d="M134.23,60.86c0-1.52,1-3.26,2.43-3.26a1.64,1.64,0,0,1,1.57,1.85c0,1.54-1,3.28-2.4,3.28a1.66,1.66,0,0,1-1.6-1.87m-1.2,0a2.55,2.55,0,0,0,2.64,2.72,4,4,0,0,0,3.76-4.18,2.56,2.56,0,0,0-2.65-2.76A4,4,0,0,0,133,60.91"/></clipPath><linearGradient id="linear-gradient-13" x1="217.26" y1="305.18" x2="218.26" y2="305.18" gradientTransform="matrix(6.4, 0, 0, -6.4, -1257.51, 2013.48)" xlink:href="#linear-gradient"/><clipPath id="clip-path-14" transform="translate(0)"><path class="cls-1" d="M143.75,58.15h0l.17-1.31h-1c-.08.55-.17,1.2-.32,1.93l-.9,4.71h1.15l.61-3.23a2.94,2.94,0,0,1,2.32-2.61c.8,0,1.06.49,1.06,1.16a4.71,4.71,0,0,1-.1.85l-.74,3.83h1.16l.75-3.87a6.34,6.34,0,0,0,.13-1.07,1.65,1.65,0,0,0-1.72-1.85,3,3,0,0,0-2.51,1.46"/></clipPath><linearGradient id="linear-gradient-14" x1="216.75" y1="305.34" x2="217.75" y2="305.34" gradientTransform="matrix(6.34, 0, 0, -6.34, -1232.51, 1995.86)" xlink:href="#linear-gradient"/><clipPath id="clip-path-15" transform="translate(0)"><path class="cls-1" d="M154.89,63.76c-.2.12-.41.24-.6.37a5.36,5.36,0,0,0-2.58,5.7,26.25,26.25,0,0,0,1.48,4.68,20,20,0,0,1,1.27,4.43,7.06,7.06,0,0,1-1.24,5.25,14.83,14.83,0,0,1-4.39,3.92l-.4.27a8,8,0,0,0,3.15-1.65c1.11-1,2.12-2.07,3.16-3.12a5.25,5.25,0,0,1,2.3-1.56c.7-.2,1.41-.35,2.12-.52a5.93,5.93,0,0,0,4.59-3.77c.14-.39.31-.78.42-1.18A3.54,3.54,0,0,1,166.65,74l.35-.14a12.25,12.25,0,0,0-5.52,0,4.8,4.8,0,0,0-2.69,1.83,20.64,20.64,0,0,0-2,3.8c.71-.7,1.3-1.34,1.94-1.92A4.35,4.35,0,0,1,161,76.36c-2.19,1.11-3.61,3-5.07,4.9a.85.85,0,0,1,0-.17c0-.08,0-.16.07-.24a6.31,6.31,0,0,0-.17-4.79c-.52-1.13-1-2.27-1.53-3.41a6.15,6.15,0,0,1-.56-2.9,13.39,13.39,0,0,0,.41,1.56c.4,1,.84,2,1.29,2.92a12,12,0,0,1,1.27,4.28,2.46,2.46,0,0,0,.07.3,4.25,4.25,0,0,0,.2-.47c.17-.59.36-1.18.5-1.77a8.12,8.12,0,0,0-.35-5.39c-.25-.55-.51-1.09-.79-1.62a10.45,10.45,0,0,1-1.27-5.42c0-.13,0-.26,0-.41a.52.52,0,0,0-.17,0"/></clipPath><linearGradient id="linear-gradient-15" x1="264.47" y1="303.21" x2="265.47" y2="303.21" gradientTransform="matrix(23.29, 0, 0, -23.29, -6016.09, 7136.65)" xlink:href="#linear-gradient"/></defs><g id="Layer_2" data-name="Layer 2"><g id="Layer_1-2" data-name="Layer 1"><path class="cls-2" d="M74.36,69.91a2.45,2.45,0,0,0-1.94.91A6.4,6.4,0,0,0,71.21,73a14.45,14.45,0,0,0-.62,2.86,25.72,25.72,0,0,0-.18,3,15.69,15.69,0,0,0,1.25,6.53,4.49,4.49,0,0,0,4.44,2.78,6,6,0,0,0,4-1.42,8.92,8.92,0,0,0,2.56-3.61l.62.33c-1.85,4.07-5.14,6.1-9.9,6.1a12,12,0,0,1-8-2.78,9.13,9.13,0,0,1-3.3-7.35,9.32,9.32,0,0,1,3.24-7.41,11.91,11.91,0,0,1,8.06-2.8,13.48,13.48,0,0,1,3.34.39,14.89,14.89,0,0,1,2.87,1.07,9.8,9.8,0,0,1,2.55,1.94,4.11,4.11,0,0,1,1.22,2.94,3.28,3.28,0,0,1-1,2.45,3.88,3.88,0,0,1-2.82.93,4.32,4.32,0,0,1-2.91-1.14,3.34,3.34,0,0,1-1.31-2.57,5.31,5.31,0,0,1,.46-2.14,4.47,4.47,0,0,0,.45-1.73,1.33,1.33,0,0,0-.49-1.07A2.16,2.16,0,0,0,74.36,69.91Z" transform="translate(0)"/><path class="cls-2" d="M105.21,87.16c.65,0,1.1-.41,1.36-1.22A9.71,9.71,0,0,0,107,83h.58q0,3.63-1.3,4.79a6.65,6.65,0,0,1-2.32,1.47,9.64,9.64,0,0,1-2.64.31,5.61,5.61,0,0,1-3.14-.91,3.63,3.63,0,0,1-1.67-2.43,4.7,4.7,0,0,1-2.2,2.5,8.39,8.39,0,0,1-4,.84A6.24,6.24,0,0,1,86,88.14a5.77,5.77,0,0,1-.61-7.32,4.19,4.19,0,0,1,2.1-1.54,20.52,20.52,0,0,1,3.29-.5A25.1,25.1,0,0,0,94,78.31a5.17,5.17,0,0,0,1.5-.58,1.2,1.2,0,0,0,.46-1l0-3.76a4.89,4.89,0,0,0-.4-2.31,1.85,1.85,0,0,0-1.71-.7,2.45,2.45,0,0,0-1.37.37,1.12,1.12,0,0,0-.55,1c0,.3.29.68.88,1.13a2.46,2.46,0,0,1,.88,2,3,3,0,0,1-1.14,2.28,5.59,5.59,0,0,1-3.7,1,4.06,4.06,0,0,1-2.45-.77,2.38,2.38,0,0,1-1-2q0-2.56,2.86-4.1A14.32,14.32,0,0,1,95,69.25a13.64,13.64,0,0,1,6.15,1.39,4.53,4.53,0,0,1,2.8,4.28v9.47a6.52,6.52,0,0,0,.24,2A1,1,0,0,0,105.21,87.16ZM96,85.92V78.06l-.13,0a3.23,3.23,0,0,1-1.36.92,4.23,4.23,0,0,0-1.39.85,3.38,3.38,0,0,0-.61,1.58,12.86,12.86,0,0,0-.22,2.41,12.35,12.35,0,0,0,.29,3,1.26,1.26,0,0,0,1.3,1.11,1.84,1.84,0,0,0,1.36-.62A2.8,2.8,0,0,0,96,85.92Z" transform="translate(0)"/><path class="cls-2" d="M107.28,89.17v-.65l1.12,0q1.18-.12,1.44-.57a5.08,5.08,0,0,0,.24-2l0-1.89V74.19l0-1.69a7.29,7.29,0,0,0-.24-1.48c-.11-.33-.61-.53-1.49-.61l-1.07-.09v-.66H118v3.46a15.18,15.18,0,0,1,1.22-2.22c.61-1,2-1.48,4.3-1.48a4.57,4.57,0,0,1,3.36,1.38,4.5,4.5,0,0,1,1.37,3.27,4.22,4.22,0,0,1-1.29,3.15,4.41,4.41,0,0,1-3.19,1.25,3.75,3.75,0,0,1-2.7-1.09,3.36,3.36,0,0,1-1.13-2.49,4.72,4.72,0,0,1,.37-1.89c.27-.52.55-1.06.82-1.61a.53.53,0,0,0-.41-.28,2.22,2.22,0,0,0-1.85,1.27,4.64,4.64,0,0,0-.78,2.39v9.51l0,2a3,3,0,0,0,.28,1.57,2,2,0,0,0,1.42.53l1.22.09v.65Z" transform="translate(0)"/><path class="cls-2" d="M149.6,83a9.94,9.94,0,0,1-3.72,4.84,10.43,10.43,0,0,1-6,1.75,11.83,11.83,0,0,1-8-2.7,10.18,10.18,0,0,1,.1-14.78,11.38,11.38,0,0,1,7.78-2.86c3.16,0,5.58.9,7.26,2.68a9.21,9.21,0,0,1,2.51,6.54H136.88a21,21,0,0,0,.22,3,11.55,11.55,0,0,0,.86,3,5.75,5.75,0,0,0,1.8,2.33,4.67,4.67,0,0,0,2.92.88,5.51,5.51,0,0,0,4-1.42,9.2,9.2,0,0,0,2.25-3.56Zm-7.29-5.35c0-.3-.05-.66-.06-1.07s0-.93,0-1.56a9.36,9.36,0,0,0-.61-3.81,2.16,2.16,0,0,0-2.13-1.3,1.83,1.83,0,0,0-1.82,1.26A13.89,13.89,0,0,0,137,75l-.08,2.63Z" transform="translate(0)"/><g class="cls-3"><rect class="cls-4" x="7.28" y="93.15" width="1.39" height="3.4"/></g><g class="cls-5"><rect class="cls-6" x="25.97" y="75.87" width="2.07" height="3.27"/></g><g class="cls-7"><rect class="cls-8" width="85.17" height="98.8"/></g><g class="cls-9"><rect class="cls-10" x="73.98" y="54.22" width="2.96" height="9.26"/></g><g class="cls-11"><rect class="cls-12" x="78.58" y="56.69" width="4.45" height="6.79"/></g><g class="cls-13"><rect class="cls-14" x="84.15" y="56.69" width="4.77" height="6.93"/></g><g class="cls-15"><rect class="cls-16" x="91.43" y="55.06" width="3.91" height="8.57"/></g><g class="cls-17"><rect class="cls-18" x="100.49" y="56.69" width="4.77" height="6.93"/></g><g class="cls-19"><rect class="cls-20" x="107.44" y="56.69" width="5.68" height="6.93"/></g><g class="cls-21"><rect class="cls-22" x="114.83" y="56.69" width="4.77" height="6.93"/></g><g class="cls-23"><rect class="cls-24" x="121.45" y="56.69" width="4.77" height="6.93"/></g><g class="cls-25"><rect class="cls-26" x="128.34" y="54.22" width="2.96" height="9.26"/></g><g class="cls-27"><rect class="cls-28" x="133.03" y="56.69" width="6.4" height="6.94"/></g><g class="cls-29"><rect class="cls-30" x="141.64" y="56.69" width="6.34" height="6.79"/></g><g class="cls-31"><rect class="cls-32" x="142.29" y="61.07" width="30.84" height="29.98" transform="translate(-0.99 150.03) rotate(-50.74)"/></g></g></g></svg>