<svg xmlns="http://www.w3.org/2000/svg" width="123.109" height="154.937" viewBox="0 0 123.109 154.937">
  <g id="Layer_2" data-name="Layer 2" transform="translate(0.009 -0.001)">
    <g id="OBJECTS">
      <path id="Path_41" data-name="Path 41" d="M76.72,18.29A25.41,25.41,0,0,0,65.16,4.75c-6.18-3.58-12.5-3.11-18.4.57A21.83,21.83,0,0,0,38,16.14c-.37.95-.79,1.89-1.1,2.87a3.76,3.76,0,0,1-2.28,2.34c-.85.37-1.67.29-1.93-.27-.35-.73.33-1.08.65-1.56V19.2a2.56,2.56,0,0,0-1.48-1.81A16.77,16.77,0,0,0,21.5,15.24,18.88,18.88,0,0,0,14,17.87,23.2,23.2,0,0,0,3,33.53,29.07,29.07,0,0,0,8.25,56.89,23.92,23.92,0,0,0,13.85,63a54,54,0,0,0,16.36,7.66c7,2,14.18,2,21.35,2.3A3.23,3.23,0,0,0,54,71.86a9.3,9.3,0,0,1,1.81-1.64,18.1,18.1,0,0,0,5.37-5c1.6-2,3.16-4,4.6-6.16,3.76-5.51,7.51-11,9.64-17.45.48-1.46.93-2.93,1.52-4.36C79.56,30.88,79,24.5,76.72,18.29Z" fill="#ab0066"/>
      <path id="Path_42" data-name="Path 42" d="M54.81,74.16A14.41,14.41,0,0,1,58,79.36c-1.94,2.13-4.52,1.53-6.85,2.13-.08-.5-.25-.86-.14-1C52.21,78.37,53.49,76.32,54.81,74.16Z" fill="#ab0066" fill-rule="evenodd"/>
      <path id="Path_43" data-name="Path 43" d="M55.88,13.3a2.48,2.48,0,0,1,1.79-2.14,4.29,4.29,0,0,1,2.07.11,15.74,15.74,0,0,1,7.37,4.27,12.59,12.59,0,0,1,3.48,9.83c0,.14-.27.26-.47.44-.2-.18-.51-.32-.61-.55-1.8-3.85-4.9-6.52-8.15-9a10.39,10.39,0,0,0-2.47-1.17,6.56,6.56,0,0,1-3.01-1.79Z" fill="#fff" fill-rule="evenodd"/>
      <path id="Path_44" data-name="Path 44" d="M71.7,34.68c-.28,1.66-.52,3-.77,4.5-1.46.19-2-.69-2.62-1.7C68.82,36,69.3,34.56,71.7,34.68Z" fill="#fff" fill-rule="evenodd"/>
      <path id="Path_45" data-name="Path 45" d="M74.25,102.08a20.53,20.53,0,0,1,8.32,4.47,30.36,30.36,0,0,1,5.32,6.73,75,75,0,0,1,5.43,12.39,99.73,99.73,0,0,0,6.32,14.69,24,24,0,0,0,8.42,9.22c4.21,2.58,8.68,4.19,13.73,3.6a5.528,5.528,0,0,1,.91,0c.07,0,.14.09.4.26a4,4,0,0,1-1,.68,17.47,17.47,0,0,1-13.73-1.36,27.94,27.94,0,0,1-5.72-3.6,32.88,32.88,0,0,1-7-10,128,128,0,0,1-5.42-14.07,52.58,52.58,0,0,0-6.66-13.81,18.3,18.3,0,0,0-8.39-6.52,5,5,0,0,0-1.08-.14c-.25.62-.49,1.27-.76,1.89a22.2,22.2,0,0,1-1.76,3.9c-1.76,2.62-4.5,2.87-6.84.77a8,8,0,0,1-1.43-1.6,4.36,4.36,0,0,1,1-6,7.71,7.71,0,0,1,4.23-1.7,6.07,6.07,0,0,0,3.16-.67c.31-3.37-.68-6.64-1.84-9.78-2.08-5.6-6.7-12.23-9.82-14.64-.65.58,0,1.11.08,1.64.27,1.76-.12,2.75-1.61,3.62a8.191,8.191,0,0,1-1.7.72,19.52,19.52,0,0,1-7,.71,2.55,2.55,0,0,1-2.18-1.17c.56-2.61,3.17-4.13,4.07-6.76-1-.53-1.91,0-2.77-.08s-1.63-.15-2.45-.16a70.44,70.44,0,0,1-12.55-1A55.93,55.93,0,0,1,12.5,65.37a23.89,23.89,0,0,1-4.65-4.45A33.46,33.46,0,0,1,.2,43,28.5,28.5,0,0,1,5,23.42a24.48,24.48,0,0,1,10.8-9.24,16.7,16.7,0,0,1,11.73-.79c.2.06.39.13.59.18,2.68.71,5.3,1.55,7.18,4.19.49-1.13.82-2,1.2-2.76s.85-1.64,1.31-2.45a25.88,25.88,0,0,1,7.6-8.79C51.56-.5,58.21-1.26,65,2.1A29,29,0,0,1,79,16.68a16,16,0,0,1,1.12,3.82c.57,3.64,1.42,7.25,1,11a25,25,0,0,1-2,7.71c-1.87,4.22-3.84,8.4-5.79,12.58a15.69,15.69,0,0,1-1.48,2.7c-4.25,5.92-8.31,12-13.63,17.06-.07.07-.08.19-.19.44C66.67,80.11,73.43,89.41,74.25,102.08ZM33.36,19.2a2.56,2.56,0,0,0-1.48-1.81,16.77,16.77,0,0,0-10.36-2.15A18.88,18.88,0,0,0,14,17.87,23.2,23.2,0,0,0,3,33.53,29.07,29.07,0,0,0,8.25,56.89,23.92,23.92,0,0,0,13.85,63a54,54,0,0,0,16.36,7.66c7,2,14.18,2,21.35,2.3A3.23,3.23,0,0,0,54,71.86a9.3,9.3,0,0,1,1.81-1.64,18.1,18.1,0,0,0,5.37-5c1.6-2,3.16-4,4.6-6.16,3.76-5.51,7.51-11,9.64-17.45.48-1.46.93-2.93,1.52-4.36,2.59-6.36,2-12.74-.25-19A25.41,25.41,0,0,0,65.16,4.75c-6.18-3.58-12.5-3.11-18.4.57A21.83,21.83,0,0,0,38,16.14c-.37.95-.79,1.89-1.1,2.87a3.76,3.76,0,0,1-2.28,2.34c-.85.37-1.67.29-1.93-.27-.35-.73.33-1.08.65-1.56A2.453,2.453,0,0,0,33.36,19.2ZM71.56,104c-2.49-.22-4.07,0-5.36.76a2.54,2.54,0,0,0-1,3.68,5,5,0,0,0,1,1.13,2.21,2.21,0,0,0,3.25-.36A10.4,10.4,0,0,0,71.56,104ZM54.81,74.16c-1.32,2.16-2.6,4.21-3.83,6.29-.11.18.06.54.14,1,2.33-.6,4.91,0,6.85-2.13a14.41,14.41,0,0,0-3.16-5.16Z" fill="#422f32" fill-rule="evenodd"/>
      <path id="Path_46" data-name="Path 46" d="M72.79,22.67c.07.82.15,1.63.22,2.45A2.74,2.74,0,0,1,71.24,28c-1.83.89-2.7.73-3.37-1.09-1-2.81-3-4.83-5.13-6.79-1.57-1.47-3.15-2.94-5.43-3.33a6.26,6.26,0,0,1-1.94-.92A2.77,2.77,0,0,1,54,12.26a3.81,3.81,0,0,1,4.09-3A11.32,11.32,0,0,1,62,10a20.06,20.06,0,0,1,7.35,4.91,14,14,0,0,1,3.44,7.76ZM55.88,13.3a6.56,6.56,0,0,0,3,1.75,10.39,10.39,0,0,1,2.47,1.17c3.25,2.52,6.35,5.19,8.15,9,.1.23.41.37.61.55.2-.18.46-.3.47-.44A12.59,12.59,0,0,0,67.1,15.5a15.74,15.74,0,0,0-7.37-4.27,4.29,4.29,0,0,0-2.07-.11,2.48,2.48,0,0,0-1.78,2.18Z" fill="#422f32" fill-rule="evenodd"/>
      <path id="Path_47" data-name="Path 47" d="M72.16,41.78a5.37,5.37,0,0,1-3.8-1.18,4,4,0,0,1,.72-7,6,6,0,0,1,1.17-.34c2.58-.57,3.51.3,3.09,2.84-.2,1.2-.33,2.42-.56,3.63A17.39,17.39,0,0,1,72.16,41.78Zm-.46-7.1c-2.4-.12-2.88,1.31-3.39,2.8.58,1,1.16,1.89,2.62,1.7.25-1.47.49-2.84.77-4.5Z" fill="#422f32" fill-rule="evenodd"/>
      <path id="Path_48" data-name="Path 48" d="M15.68,57.89a6,6,0,0,1-1.22-5.63c0-.16.49-.23.75-.35C16.33,55.4,16.45,56.79,15.68,57.89Z" fill="#422f32" fill-rule="evenodd"/>
      <path id="Path_49" data-name="Path 49" d="M19.86,56.6c.28,1.79.51,3.29.73,4.8a.715.715,0,0,1-1.21-.36,5.33,5.33,0,0,1-.57-3.86C18.88,57,19.38,56.85,19.86,56.6Z" fill="#422f32" fill-rule="evenodd"/>
      <path id="Path_50" data-name="Path 50" d="M23.67,63.28a5,5,0,0,1-1.34-3.57c1.72.35,1.56,1.79,2,2.79C24.49,62.9,24.24,63.25,23.67,63.28Z" fill="#422f32" fill-rule="evenodd"/>
      <path id="Path_51" data-name="Path 51" d="M28.33,62.93a6.65,6.65,0,0,1,.61.58,4.41,4.41,0,0,1,.24.54c.16.24.36.46.51.71a2.33,2.33,0,0,1,.17.57C28.39,65.15,28.21,64.14,28.33,62.93Z" fill="#422f32" fill-rule="evenodd"/>
    </g>
  </g>
</svg>
