<svg xmlns="http://www.w3.org/2000/svg" width="172.274" height="89.861" viewBox="0 0 172.274 89.861">
  <g id="Layer_2" data-name="Layer 2" transform="translate(-0.002 -0.003)">
    <g id="OBJECTS">
      <path id="Path_52" data-name="Path 52" d="M131.86,27.35A23,23,0,0,0,131,22a19.55,19.55,0,0,0-8.86-11.4,19,19,0,0,0-12.67-2.72,25.94,25.94,0,0,0-13.3,5.42c-1,.86-2.08,1.68-3.17,2.45a19.15,19.15,0,0,1-2,1.07c-.72-1.21-1.24-2-1.69-2.87A27.69,27.69,0,0,0,83.1,6.18a15.19,15.19,0,0,0-12.56-4c-9.79,1.35-15.78,7.39-19,16.57a35.815,35.815,0,0,0-.15,15.46A61.71,61.71,0,0,0,57.3,48.78,65.67,65.67,0,0,0,64,58.62c4.07,5.13,8.88,9.62,12.62,15a3.18,3.18,0,0,0,3,1.33,6.14,6.14,0,0,0,1.5-.39A106.57,106.57,0,0,0,94.3,69.28a130.613,130.613,0,0,0,20.77-12.09c6-4.42,11.08-9.45,14.34-16.33a27.11,27.11,0,0,0,2.45-13.51Z" fill="#e8556f"/>
      <path id="Path_53" data-name="Path 53" d="M118.07,58.19c2.86-2.9,5.54-5.46,8-8.21a38.849,38.849,0,0,0,3.81-5.25,8.4,8.4,0,0,1,2.72-2.87c1.92-1.18,3.76-2.52,5.64-3.77a16.79,16.79,0,0,1,7.2-2.64c4.88-.66,8.81,1.51,12,5.18a47.83,47.83,0,0,1,9.65,17.63,58.92,58.92,0,0,1,2.56,20.17A21.231,21.231,0,0,1,168.58,84c-1,2.86-2.52,3.76-5.5,3.32-4.48-.66-7.44-3.38-8.94-7.69a16.32,16.32,0,0,1-1.23-7.21,5.28,5.28,0,0,0-.1-1.58,1.38,1.38,0,0,0-2-.74,7.52,7.52,0,0,0-1,1.19c-1,1.45-1.94,2.94-3,4.37-1.8,2.53-4.28,3.42-6.72,2.46a7.44,7.44,0,0,1-3.33-2.92c-1.38-2-2.19-4.17-1.32-6.62A11.161,11.161,0,0,0,136,66.1a1.23,1.23,0,0,0-.91-1.47,1,1,0,0,0-1.3.59,19.191,19.191,0,0,0-1.13,3.54,12,12,0,0,1-2.18,5.45A2.14,2.14,0,0,1,128,75c-3.85-1-6-3.8-7.53-7.29a41.85,41.85,0,0,1-2.4-9.52ZM138,69.64a6.74,6.74,0,0,0,.62-5.23C137.51,66.33,137,67.85,138,69.64Zm-16.48-11.3c-.44,1.47-.83,2.95.11,4.52a5.53,5.53,0,0,0-.12-4.52Zm2.89,10.94c1-1,1-2.45,1-3.86,0-.09-.3-.18-.61-.36a5.9,5.9,0,0,0-.4,4.22Zm14,3.9c.39-.74,1.27-1.43.2-2.39-.88.75-1.19,1.47-.25,2.39Zm20.54,9c.86-.31.84-1,.63-1.75a.91.91,0,0,0-.63-.52.79.79,0,0,0-.66.43,1.4,1.4,0,0,0,.61,1.86Zm-3.48-9.3c.17-.1.42-.14.51-.29.39-.68,1-1.34.32-2.22a.26.26,0,0,0-.24-.07c-.74.2-1,.87-.77,2.32-.04.11.07.19.13.28Zm1.66,3.48c-1-.32-1.25.22-1.21.94,0,.24.29.48.46.72.23-.16.58-.27.66-.49a4.18,4.18,0,0,0,.04-1.15Zm-29.75-8c-1,1.9-1,1.9-.31,2.64.11-.15.3-.29.32-.45-.02-.5-.05-.99-.06-2.21Z" fill="#fff" fill-rule="evenodd"/>
      <path id="Path_54" data-name="Path 54" d="M4.81,35.62a63.92,63.92,0,0,1,7.56-9.81,65.73,65.73,0,0,1,10.79-10.1,24.31,24.31,0,0,1,9.18-4.24,23.39,23.39,0,0,1,4-.4,8.66,8.66,0,0,1,5,1.58,24.62,24.62,0,0,1,6.48,6.59,4,4,0,0,1,.63,3A35.06,35.06,0,0,0,50.82,40.1c1,2.5,2.06,4.95,3.17,7.38a2.19,2.19,0,0,1-.25,2.62c-2.08,2.43-4.08,4.93-6.21,7.31a19.07,19.07,0,0,1-3.24,2.84c-2.07,1.47-4,1.08-5.1-1.93A11.62,11.62,0,0,1,38.73,52c.15-.72.37-1.42.56-2.13a2.76,2.76,0,0,0,.25-.9,2.8,2.8,0,0,0-.3-1.46c-.35-.48-.94-.31-1.41,0s-.87.55-1.3.83c-2,1.3-3.9,2.68-6,3.87a28,28,0,0,1-5,2.32c-1.66.56-2.62-.19-2.77-2a21.4,21.4,0,0,1,1.48-9.59c.3-.77.93-1.57.26-2.35-.85-1-1.75-.18-2.52.19A42.79,42.79,0,0,1,7.82,44.81,21.7,21.7,0,0,1,4.4,45a2.1,2.1,0,0,1-2.05-2.63,15.2,15.2,0,0,1,2.46-6.75Zm15.33.53c-.43.17-1,.23-1.27.54-1,1.09-2.21,2-2.45,3.73a6.36,6.36,0,0,0,3.72-4.27Zm-5.4,1.08c-2.78,1-4.28,2.67-4.23,4.79C12,40.35,13.62,39.19,14.74,37.23Zm12.6,13.89c1.85-1.38,2.26-2.67,1.54-4.26C27.65,47.85,27.43,49.22,27.34,51.12Zm17.34,4.64a4,4,0,0,0,2.17-2.91,3.24,3.24,0,0,0-2.17,2.91ZM33.5,45.63a8.48,8.48,0,0,0-1.47.74A1.36,1.36,0,0,0,31.49,48a.38.38,0,0,0,.26.17c.76.09,1-.54,1.27-1a11.249,11.249,0,0,0,.48-1.54Zm-8.34-10c-.85.09-1.44.41-1.41,1.41a.3.3,0,0,0,.19.19c.9.11,1.1-.57,1.29-1.24a1.1,1.1,0,0,0-.07-.39ZM37,44.27a5.918,5.918,0,0,0-.07-1.14c-.34.11-.83.11-1,.34s.09.69.16,1.05Zm12.6,6.44c.47-.34.78-.45.91-.68a6.25,6.25,0,0,0,.29-1.31c-.5.34-.83.45-.94.67a5.41,5.41,0,0,0-.25,1.32Z" fill="#fff" fill-rule="evenodd"/>
      <path id="Path_55" data-name="Path 55" d="M49.27,17.51c.84-1.74,1.56-3.34,2.38-4.88A23.07,23.07,0,0,1,69.5.22c6.12-.91,11.56,1.05,16.08,5.67a24.87,24.87,0,0,1,4.5,6.25c.38.74.81,1.44,1.31,2.35.76-.63,1.36-1.15,2-1.65a31.48,31.48,0,0,1,17.5-7.09A20.48,20.48,0,0,1,124,9.42c7.34,4.79,10.19,11.85,10.11,20.28A25.26,25.26,0,0,1,133,37.82a6.51,6.51,0,0,0-.18,1.22c1.29,0,2-.85,2.8-1.42a21.18,21.18,0,0,1,10.22-4.08,14.5,14.5,0,0,1,8.45,1.87c4.51,2.43,7.49,6.36,10.06,10.6a55.45,55.45,0,0,1,7.36,21.11,51.43,51.43,0,0,1,0,15.22,17.139,17.139,0,0,1-.9,3.32,6,6,0,0,1-6.26,4.18c-6-.23-11.06-3.48-12.84-10-.42-1.54-.66-3.12-1-4.63-.85-.25-.92.43-1.17.8a16.251,16.251,0,0,1-2.84,3.25c-4,3.47-9.06,1.45-11.52-2-.5-.69-.79-1.52-1.22-2.26a10.589,10.589,0,0,0-.86-1.07c-.49.73-.89,1.31-1.28,1.9a3.21,3.21,0,0,1-3.8,1.41,15.44,15.44,0,0,1-4-1.76,14,14,0,0,1-5.89-8.17c-.69-2.24-1.16-4.55-1.77-7a3.18,3.18,0,0,0-2.5.64c-3.3,2.08-6.59,4.22-10,6.13A149.689,149.689,0,0,1,82.21,77c-.67.24-1.4.36-2,.52-3.64-1.22-6.21-3.83-8.64-6.54Q66.16,65,61,58.74c-1.64-2-3-4.18-4.49-6.29l-1.17-1.71c-.45.57-.78.95-1.06,1.35-1.45,2-2.84,4.08-4.33,6.06a15.14,15.14,0,0,1-4.59,4.1c-3.81,2.2-7.58.44-8.65-4a15.81,15.81,0,0,1-.23-5.4c.05-.5.07-1,.11-1.5-.69-.39-1,.12-1.42.38-2,1.28-4,2.57-6,3.84A7.48,7.48,0,0,1,24.8,56.7,3.84,3.84,0,0,1,21,53.89a7.18,7.18,0,0,1-.4-2.82c.17-2,.54-4,.82-5.94.06-.4.11-.8.15-1.12-.62-.67-1.07-.2-1.49,0a50,50,0,0,1-11.37,3A22.689,22.689,0,0,1,4,47.16C1.7,47,.64,45.93.16,43.64a7.07,7.07,0,0,1,.12-3.45,24.79,24.79,0,0,1,3.3-7.06A89.05,89.05,0,0,1,18.05,16.62a34,34,0,0,1,9.63-6.06A29.29,29.29,0,0,1,33.32,9c5-.93,9.23,1,12.77,4.75C47.17,14.88,48.13,16.15,49.27,17.51ZM91,16.82c-.72-1.21-1.24-2-1.69-2.87A27.69,27.69,0,0,0,83.1,6.18a15.19,15.19,0,0,0-12.56-4c-9.79,1.35-15.78,7.39-19,16.57a35.815,35.815,0,0,0-.15,15.46A61.71,61.71,0,0,0,57.3,48.78,65.67,65.67,0,0,0,64,58.62c4.07,5.13,8.88,9.62,12.62,15a3.18,3.18,0,0,0,3,1.33,6.14,6.14,0,0,0,1.5-.39A106.57,106.57,0,0,0,94.3,69.28a130.613,130.613,0,0,0,20.77-12.09c6-4.42,11.08-9.45,14.34-16.33a27.11,27.11,0,0,0,2.45-13.51A23,23,0,0,0,131,22a19.55,19.55,0,0,0-8.86-11.4,19,19,0,0,0-12.67-2.72,25.94,25.94,0,0,0-13.3,5.42c-1,.86-2.08,1.68-3.17,2.45a19.15,19.15,0,0,1-2,1.07Zm27.11,41.37a41.85,41.85,0,0,0,2.37,9.55C122,71.23,124.12,74,128,75a2.14,2.14,0,0,0,2.46-.82,12,12,0,0,0,2.18-5.45,19.189,19.189,0,0,1,1.13-3.54,1,1,0,0,1,1.3-.59,1.23,1.23,0,0,1,.93,1.5,11.16,11.16,0,0,1-.48,2.46c-.87,2.45-.06,4.61,1.32,6.62a7.44,7.44,0,0,0,3.33,2.92c2.44,1,4.92.07,6.72-2.46,1-1.43,2-2.92,3-4.37a7.521,7.521,0,0,1,1-1.19,1.38,1.38,0,0,1,2,.74,5.28,5.28,0,0,1,.1,1.58,16.32,16.32,0,0,0,1.23,7.21c1.5,4.31,4.46,7,8.94,7.69,3,.44,4.53-.46,5.5-3.32a21.23,21.23,0,0,0,1.07-5.55,58.92,58.92,0,0,0-2.56-20.17,47.83,47.83,0,0,0-9.65-17.63c-3.17-3.67-7.1-5.84-12-5.18a16.79,16.79,0,0,0-7.2,2.64c-1.88,1.25-3.72,2.59-5.64,3.77a8.4,8.4,0,0,0-2.72,2.87A38.849,38.849,0,0,1,126.09,50c-2.48,2.73-5.16,5.29-8.02,8.19ZM4.81,35.62a15.2,15.2,0,0,0-2.46,6.71A2.1,2.1,0,0,0,4.4,45a21.7,21.7,0,0,0,3.42-.15A42.79,42.79,0,0,0,22,40.75c.77-.37,1.67-1.2,2.52-.19.67.78,0,1.58-.26,2.35a21.4,21.4,0,0,0-1.48,9.59c.15,1.82,1.11,2.57,2.77,2a28,28,0,0,0,5-2.32c2.05-1.19,4-2.57,6-3.87.43-.28.86-.57,1.3-.83s1.06-.43,1.41,0a2.8,2.8,0,0,1,.3,1.46,2.76,2.76,0,0,1-.25.9c-.19.71-.41,1.41-.56,2.13a11.62,11.62,0,0,0,.46,6.29c1.11,3,3,3.4,5.1,1.93a19.07,19.07,0,0,0,3.24-2.84c2.13-2.38,4.13-4.88,6.21-7.31A2.19,2.19,0,0,0,54,47.48c-1.11-2.43-2.2-4.88-3.17-7.38A35.06,35.06,0,0,1,48.5,22.25a4,4,0,0,0-.63-3,24.62,24.62,0,0,0-6.48-6.59,8.66,8.66,0,0,0-5-1.58,23.39,23.39,0,0,0-4,.4,24.31,24.31,0,0,0-9.18,4.24,65.73,65.73,0,0,0-10.79,10.1,63.92,63.92,0,0,0-7.61,9.8Z" fill="#422f32" fill-rule="evenodd"/>
      <path id="Path_56" data-name="Path 56" d="M54.53,27.29a2.87,2.87,0,0,1-.1-3.09c.88-1.77,1.17-4,3.48-5.08.06.57.25,1,.12,1.26C56.92,22.66,55.75,24.91,54.53,27.29Z" fill="#422f32" fill-rule="evenodd"/>
      <path id="Path_57" data-name="Path 57" d="M59.24,34.26c.36,2.3-.39,4.42-.64,6.71-.39-.21-.69-.29-.7-.4a10.79,10.79,0,0,1,1.34-6.31Z" fill="#422f32" fill-rule="evenodd"/>
      <path id="Path_58" data-name="Path 58" d="M57.64,30c-.58,1.78-1.15,3.54-1.74,5.29,0,.07-.17.1-.27.16-.77-.73-.47-1.62-.23-2.34.37-1.11.6-2.46,1.6-3.27C57.06,29.77,57.33,29.92,57.64,30Z" fill="#422f32" fill-rule="evenodd"/>
      <path id="Path_59" data-name="Path 59" d="M61.42,41c.31,2.16-.17,4-.55,6.19C60.07,44.84,60.2,43.67,61.42,41Z" fill="#422f32" fill-rule="evenodd"/>
      <path id="Path_60" data-name="Path 60" d="M64.52,46.43c.74,1.87,0,3.31-.13,4.78-.69.2-.79-.34-.75-.68C63.78,49.23,63.65,47.83,64.52,46.43Z" fill="#422f32" fill-rule="evenodd"/>
      <path id="Path_61" data-name="Path 61" d="M75.24,62.34c.76,1.42.75,1.42.6,3.24a3.74,3.74,0,0,1-.6-3.24Z" fill="#422f32" fill-rule="evenodd"/>
      <path id="Path_62" data-name="Path 62" d="M71,60.43c0-.54.11-1.08.16-1.68.78.2.44.66.47,1a2.49,2.49,0,0,1-.17.78Z" fill="#422f32" fill-rule="evenodd"/>
      <path id="Path_63" data-name="Path 63" d="M67.63,54.57c-.93-.12-1.09-.69-.82-1.74.33.7.57,1.23.81,1.75Z" fill="#422f32" fill-rule="evenodd"/>
      <path id="Path_64" data-name="Path 64" d="M67.62,54.58c-.12.13-.26.27-.38.41a1.831,1.831,0,0,0-.16.26c0-.15-.08-.38,0-.44a1.67,1.67,0,0,1,.56-.24Z" fill="#422f32" fill-rule="evenodd"/>
      <path id="Path_65" data-name="Path 65" d="M138,69.64c-1-1.79-.48-3.31.62-5.23a6.74,6.74,0,0,1-.62,5.23Z" fill="#422f32" fill-rule="evenodd"/>
      <path id="Path_66" data-name="Path 66" d="M121.51,58.34a5.53,5.53,0,0,1,.11,4.52C120.68,61.29,121.07,59.81,121.51,58.34Z" fill="#422f32" fill-rule="evenodd"/>
      <path id="Path_67" data-name="Path 67" d="M124.4,69.28a5.9,5.9,0,0,1,.39-4.22c.31.18.61.27.61.36C125.43,66.83,125.45,68.24,124.4,69.28Z" fill="#422f32" fill-rule="evenodd"/>
      <path id="Path_68" data-name="Path 68" d="M138.36,73.18c-.94-.92-.63-1.64.2-2.39C139.63,71.75,138.75,72.44,138.36,73.18Z" fill="#422f32" fill-rule="evenodd"/>
      <path id="Path_69" data-name="Path 69" d="M158.9,82.2a1.4,1.4,0,0,1-.66-1.84.79.79,0,0,1,.66-.43.91.91,0,0,1,.63.52C159.74,81.17,159.76,81.89,158.9,82.2Z" fill="#422f32" fill-rule="evenodd"/>
      <path id="Path_70" data-name="Path 70" d="M155.42,72.9c-.06-.09-.17-.17-.18-.26-.2-1.45,0-2.12.77-2.32a.26.26,0,0,1,.24.07c.69.88.07,1.54-.32,2.22C155.84,72.76,155.59,72.8,155.42,72.9Z" fill="#422f32" fill-rule="evenodd"/>
      <path id="Path_71" data-name="Path 71" d="M157.08,76.38a4.18,4.18,0,0,1-.09,1.17c-.08.22-.43.33-.66.49-.17-.24-.45-.48-.46-.72C155.83,76.6,156.06,76.06,157.08,76.38Z" fill="#422f32" fill-rule="evenodd"/>
      <path id="Path_72" data-name="Path 72" d="M127.33,68.34v2.19c0,.16-.21.3-.32.45C126.29,70.24,126.29,70.24,127.33,68.34Z" fill="#422f32" fill-rule="evenodd"/>
      <path id="Path_73" data-name="Path 73" d="M20.14,36.15a6.36,6.36,0,0,1-3.72,4.27c.24-1.69,1.46-2.64,2.45-3.73C19.16,36.38,19.71,36.32,20.14,36.15Z" fill="#422f32" fill-rule="evenodd"/>
      <path id="Path_74" data-name="Path 74" d="M14.74,37.23c-1.12,2-2.78,3.12-4.23,4.79C10.46,39.9,12,38.27,14.74,37.23Z" fill="#422f32" fill-rule="evenodd"/>
      <path id="Path_75" data-name="Path 75" d="M27.34,51.12c.09-1.9.31-3.27,1.54-4.26C29.6,48.45,29.19,49.74,27.34,51.12Z" fill="#422f32" fill-rule="evenodd"/>
      <path id="Path_76" data-name="Path 76" d="M44.68,55.76a3.24,3.24,0,0,1,2.17-2.91A4,4,0,0,1,44.68,55.76Z" fill="#422f32" fill-rule="evenodd"/>
      <path id="Path_77" data-name="Path 77" d="M33.5,45.63a11.25,11.25,0,0,1-.5,1.48c-.3.5-.51,1.13-1.27,1a.38.38,0,0,1-.26-.17A1.36,1.36,0,0,1,32,46.37a8.48,8.48,0,0,1,1.5-.74Z" fill="#422f32" fill-rule="evenodd"/>
      <path id="Path_78" data-name="Path 78" d="M25.16,35.6c0,.18.09.28.07.36-.19.67-.39,1.35-1.29,1.24a.3.3,0,0,1-.19-.19C23.72,36,24.31,35.69,25.16,35.6Z" fill="#422f32" fill-rule="evenodd"/>
      <path id="Path_79" data-name="Path 79" d="M37,44.27l-.88.25c-.07-.36-.29-.82-.16-1.05s.63-.23,1-.34A10.3,10.3,0,0,1,37,44.27Z" fill="#422f32" fill-rule="evenodd"/>
      <path id="Path_80" data-name="Path 80" d="M49.61,50.71a5.41,5.41,0,0,1,.26-1.32c.11-.22.44-.33.94-.67A6.25,6.25,0,0,1,50.52,50C50.39,50.26,50.08,50.37,49.61,50.71Z" fill="#422f32" fill-rule="evenodd"/>
    </g>
  </g>
</svg>
