<svg xmlns="http://www.w3.org/2000/svg" width="499.613" height="427.099" viewBox="0 0 499.613 427.099">
  <g id="Group_92" data-name="Group 92" transform="translate(-140 -5710.181)">
    <g id="Group_91" data-name="Group 91">
      <g id="Group_90" data-name="Group 90">
        <g id="Group_89" data-name="Group 89">
          <path id="Path_24" data-name="Path 24" d="M426.865,397.841c-9.315,5.291-17.822,3.5-25.739,3.15q-62.687-2.74-125.406-6.3A786.573,786.573,0,0,1,122,369.872c-28.813-7.622-58-10.016-86.937-14.866-5.558-.945-11.209-1.323-16.735-2.457-8.725-1.8-10.867-3.15-11.457-11.685-1.273-17.953-2.546-36-2.173-53.921.869-44.566,2.794-89.1,4.036-133.668C9.694,117.4,10.1,81.435,16.524,46.191c1.739-9.606,4.5-18.9,6.8-28.346A16,16,0,0,1,37.141,5.593,59.313,59.313,0,0,1,53.752,4.208c14.717,1.7,29.807.441,43.9,7.276,4.844,2.362,10.96,2.488,16.549,3.15,44.741,5.575,89.514,10.866,134.255,16.6,37.879,4.85,75.821,9.638,113.576,15.433,23.5,3.622,46.884,8.5,70.108,13.827a121.9,121.9,0,0,1,27.944,10.9c13.1,6.772,15.524,11.37,13.1,24.126-4.968,27.842-10,55.684-13.879,83.684-4.471,32.031-8.011,64.188-11.457,96.345q-5.039,51.74-15.183,102.77C431.149,384.864,428.759,391.164,426.865,397.841ZM242.311,248.331a30.679,30.679,0,0,0,20.9-4c16.145-10.236,32.6-20.126,48.126-31.149a831.285,831.285,0,0,0,75.728-61.921q26.3-23.653,52.193-47.842c2.391-2.236,5.309-4.913,3.571-9.071-1.211-2.835-5.837-2.457-11.084,1.984-13.568,11.433-26.857,23.181-40.363,34.834-23.131,20.252-45.269,41.543-70.7,59.369-20,14.047-40.8,27.149-61.011,40.944a22.5,22.5,0,0,1-26.081.472,410.9,410.9,0,0,1-39.4-24.756,396.535,396.535,0,0,1-78.864-78.991C89.147,92.679,61.669,57.845,39.345,20.113a2.9,2.9,0,0,0-1.3-1.228c-1.677-.6-4.223-1.921-5-1.323-1.739,1.26-3.85,3.779-3.477,5.354a30.17,30.17,0,0,0,4.844,9.449C52.6,59.388,70.518,86.6,89.24,113.309c31.421,44.787,68.99,84.723,116.029,116.408a127.944,127.944,0,0,0,37.041,18.614Zm3.446-25.574c7.669-5.669,14.469-10.362,20.927-15.5,5.589-4.409,10.867-9.134,16.052-13.953A103.926,103.926,0,0,0,308.6,156.426a117.745,117.745,0,0,0,5.682-18.11,14.059,14.059,0,0,0-3.509-13.134,35.345,35.345,0,0,0-36.2-8.535,41.566,41.566,0,0,0-17.946,11.527c-3.633,4.315-7.638,8.378-11.736,12.85-3.943-3.15-7.141-6.11-10.494-8.787a62.363,62.363,0,0,0-25.429-11.212c-14.127-3.15-28.285,3.465-26.236,21.8A55.6,55.6,0,0,0,194.092,170.5a280.873,280.873,0,0,0,51.665,52.251Zm65.513,11.811a55.431,55.431,0,0,0,3.384,7.464c8.6,13.732,17.6,27.307,26.019,41.165,18.164,29.795,35.489,59.842,59.365,86.519,6.21,6.8,12.419,13.386,18.909,19.968.683.693,2.236.693,3.353,1.008a4.4,4.4,0,0,0,3.132-2.868,4.492,4.492,0,0,0-.71-4.219,168.1,168.1,0,0,0-15.276-22.33,393.792,393.792,0,0,1-42.723-58.645c-8.694-14.457-17.263-28.945-26.454-43.086A219.611,219.611,0,0,0,323.6,238a9.517,9.517,0,0,0-12.326-3.433ZM30.838,330.125a50.564,50.564,0,0,0,5.216-4.157c11.364-12.6,22.355-25.574,33.967-38.047,20.8-22.362,41.947-44.44,63.06-66.834a44.851,44.851,0,0,0,6.21-8.252,4.711,4.711,0,0,0-.994-4.346,5.307,5.307,0,0,0-4.875-.567,52.714,52.714,0,0,0-7.917,6.866q-24.435,25.386-48.84,50.866c-11.861,12.283-24,24.315-35.52,36.85a76.319,76.319,0,0,0-11.736,17.2C28.168,322.062,30.155,325.967,30.838,330.125Zm4.1-235.556c-7.11,22.9-9.47,85.889-4.719,103.054,4.192-15.433,7.328-76.125,4.719-103.054Zm207.25,240.659a83.827,83.827,0,0,0-30.366,17.291c-1.18,1.008-1.056,3.37-2.515,8.63C222.626,351.479,234.114,345.463,242.187,335.227ZM404.6,236.835a99.847,99.847,0,0,0,21.455-19.464c.714-.882,0-2.8,0-7.275C416.929,217.937,408.111,222.756,404.6,236.835ZM262.927,359.006a53.042,53.042,0,0,0,24.032-10.331c.466-.283,0-1.921-.342-3.874C279.01,348.739,269.323,348.865,262.927,359.006ZM43.537,239.323c-8.725,4.819-15.524,11.307-16.083,22.047,6.272-6.646,12.978-12.756,16.083-21.952ZM409.074,254.6c10.588-5.984,10.588-5.984,16.27-14.708-9.128,2.173-14.531,5.89-16.27,14.8Zm1.118,27.5,12.42-10.9a11.073,11.073,0,0,0-8.594,2.724,11.405,11.405,0,0,0-3.826,8.268ZM29.441,283.511c10.712-8.063,11.581-9.228,8.6-11.212a10.965,10.965,0,0,0-8.6,11.307ZM409.571,304.9c6.21-3.654,6.21-3.654,8.29-10.3-4.626,2.772-8.445,4.535-8.29,10.394Zm-96.81,54.141c-7.886.787-7.886.787-9.874,7.276Z" transform="translate(151.856 5720.697)" fill="#fff" fill-rule="evenodd"/>
          <path id="Path_25" data-name="Path 25" d="M124.724,83.036A133.043,133.043,0,0,1,133.017,69.9a139.992,139.992,0,0,1,17.37-19.043,38.121,38.121,0,0,1,16.765-7.368c6.692-1.246,14.736-2.6,20.36,3.061,6.265,6.3,4.449,13.49,1.246,20.324a146.364,146.364,0,0,1-29.365,42.108c-9.966,9.824-21.784,18.117-33.6,27.763a116.113,116.113,0,0,1-10.109-7.724c-14.06-13.561-29.757-25.877-39.4-42.713A136.43,136.43,0,0,1,67.061,68.3a26.945,26.945,0,0,1-1.032-11.568c.427-5.3,4.165-8.044,10.109-7.653,16.836,1.175,30.326,7.831,39.474,21.356C118.1,74.245,120.915,77.84,124.724,83.036Z" transform="translate(272.058 5798.379)" fill="#ab0066" fill-rule="evenodd"/>
          <path id="Path_26" data-name="Path 26" d="M169.443,403.377c-8.01-1.746-16.083-3.175-24.031-5.334-17.21-4.286-34.7-6.572-52.13-9.525Q64.323,383.755,35.27,380.1c-4.381-.571-8.7-1.651-13.048-2.381-12.36-2.191-19.212-9.525-20.151-20.7A441.983,441.983,0,0,1,.005,311.589Q1.32,239.8,3.854,168.082c.97-29.749,1.877-59.5,4.443-89.089a358,358,0,0,1,9.669-51.466C22.378,8.953,34.707,1.143,57.486,0A106.061,106.061,0,0,1,74.445,1.46c34.42,4.223,68.839,7.366,102.883,16.16,16.991,4.6,34.951,5.4,52.474,7.779,19.4,2.508,38.894,4.254,58.263,7.144,41.867,6.35,83.7,12.7,125.475,19.589,20.558,3.429,41.053,7.779,60.109,16.732,2.847,1.365,5.726,2.635,8.417,4.191,13.236,7.779,19.275,18.383,17.116,32.861-4.068,27.051-8.042,53.974-11.452,81.279-4.506,35.813-8.261,71.722-12.673,107.567q-5.914,48.481-12.516,96.9a101.6,101.6,0,0,1-6.665,21.494c-3.786,9.747-11.483,14.414-23.061,13.906-21.9-1.016-44.026-1.619-66.023-2.635-27.661-1.333-55.29-2.73-82.92-4.54a631.957,631.957,0,0,1-88.3-10.985c-8.668-1.841-17.3-3.842-25.94-5.747A1.139,1.139,0,0,1,169.443,403.377Zm270.569,6.572c1.909-6.6,4.349-13.144,5.757-19.939q10.213-51.376,15.3-103.6c3.473-32.416,7.04-64.832,11.421-97.122,3.911-28.225,8.98-56.292,13.987-84.358,2.284-12.7,0-17.494-13.2-24.32a122.827,122.827,0,0,0-28.161-10.985c-23.405-5.366-46.936-10.287-70.654-13.938C336.409,49.847,298.172,45.021,260,40.131,215.065,34.353,169.944,29.019,124.854,23.4c-5.632-.7-11.8-.825-16.678-3.175-14.3-6.921-29.413-5.651-44.245-7.366a59.76,59.76,0,0,0-16.74,1.4A16.13,16.13,0,0,0,33.267,26.606c-2.315,9.525-5.1,19.05-6.853,28.574-6.477,35.591-6.884,71.849-7.854,107.948-1.252,44.925-3.129,89.819-4.068,134.745-.375,18.065.907,36.258,2.19,54.355.595,8.445,2.754,9.969,11.546,11.779,5.57,1.143,11.265,1.524,16.866,2.476,29.225,4.889,58.638,7.3,87.613,14.986a792.5,792.5,0,0,0,154.919,25.019q63.175,3.81,126.382,6.35c8.042.635,16.584,2.445,26-2.889Z" transform="translate(140.003 5710.181)" fill="#422f32" fill-rule="evenodd"/>
          <path id="Path_27" data-name="Path 27" d="M221.263,269.327a119.932,119.932,0,0,1-36.315-21.036C138.832,212.483,102,167.35,71.194,116.7,52.93,86.516,35.275,55.762,17.437,25.223a36.257,36.257,0,0,1-4.749-10.678c-.365-1.78,1.7-4.627,3.409-6.051.761-.676,3.257.819,4.9,1.495a3.062,3.062,0,0,1,1.278,1.388c21.978,42.713,48.7,81.867,74.487,122.159a423.685,423.685,0,0,0,77.44,89.306,399.378,399.378,0,0,0,38.628,27.977,19.717,19.717,0,0,0,25.57-.534c19.816-15.59,40.211-30.4,59.815-46.272,24.93-20.146,46.634-44.208,69.312-67.095,13.12-13.17,26.148-26.446,39.572-39.367,5.144-5.019,9.68-5.446,10.867-2.242,1.7,4.7-1.157,7.724-3.5,10.251q-25.356,27.265-51.17,54.068A851.2,851.2,0,0,1,289.053,229.6c-15.22,12.458-31.353,23.635-47.182,35.2A26.789,26.789,0,0,1,221.263,269.327Z" transform="translate(172.376 5731.48)" fill="#422f32" fill-rule="evenodd"/>
          <path id="Path_28" data-name="Path 28" d="M134.384,161.243a319.67,319.67,0,0,1-59.229-59.051A62.361,62.361,0,0,1,62.164,70.9C59.815,50.189,76.045,42.429,92.241,46.274a72.007,72.007,0,0,1,29.152,12.672c3.844,3.025,7.51,6.193,12.031,9.931,4.7-5.054,9.29-9.646,13.455-14.522a47.731,47.731,0,0,1,20.573-13.027,40.933,40.933,0,0,1,41.5,9.646,15.733,15.733,0,0,1,4.022,14.843,131.694,131.694,0,0,1-6.514,20.467,117.461,117.461,0,0,1-29.686,41.681c-5.944,5.446-12,10.678-18.4,15.768C151.149,149.532,143.176,154.836,134.384,161.243Zm.249-70.192c-3.809-5.2-6.621-8.792-9.112-12.529C116.374,64.854,102.883,58.2,86.047,57.165c-5.944-.392-9.682,2.349-10.109,7.653a26.945,26.945,0,0,0,1.032,11.568A136.433,136.433,0,0,0,86.19,94.4c9.646,16.907,25.343,29.223,39.4,42.713a116.1,116.1,0,0,0,10.109,7.724c11.817-9.646,23.634-17.8,33.6-27.763a146.363,146.363,0,0,0,29.365-42.108c3.2-6.834,5.019-14.024-1.246-20.324-5.624-5.659-13.668-4.307-20.36-3.061A38.122,38.122,0,0,0,160.3,58.945a140,140,0,0,0-17.37,19.043,133.06,133.06,0,0,0-8.294,13.063Z" transform="translate(262.183 5790.408)" fill="#422f32" fill-rule="evenodd"/>
          <path id="Path_29" data-name="Path 29" d="M103.39,78.136a11,11,0,0,1,14.238,3.88,248.662,248.662,0,0,1,19.114,24.346c10.678,15.982,20.36,32.355,30.326,48.693A445.347,445.347,0,0,0,215.9,221.331a189.894,189.894,0,0,1,17.512,25.236,5.019,5.019,0,0,1-2.776,8.009c-1.281-.356-3.061-.356-3.844-1.139-7.332-7.439-14.665-14.878-21.677-22.567-27.372-29.97-47.233-64.069-68.056-97.777-9.646-15.661-19.968-31-29.828-46.522A62.222,62.222,0,0,1,103.39,78.136Z" transform="translate(335.91 5855.397)" fill="#422f32" fill-rule="evenodd"/>
          <path id="Path_30" data-name="Path 30" d="M14.577,207.337c-.783-4.7-3.061-9.112-1.637-11.782a86.209,86.209,0,0,1,13.455-19.434c13.205-14.238,27.123-27.763,40.72-41.645q28.048-28.725,55.99-57.485a60.191,60.191,0,0,1,9.077-7.938,6.158,6.158,0,0,1,5.588.641,5.268,5.268,0,0,1,1.139,5.232,50.758,50.758,0,0,1-7.119,9.183c-24.2,25.307-48.444,50.259-72.292,75.531-13.312,14.238-25.913,28.689-38.94,43a57.839,57.839,0,0,1-5.98,4.7Z" transform="translate(171.954 5848.748)" fill="#422f32" fill-rule="evenodd"/>
          <path id="Path_31" data-name="Path 31" d="M20.322,32.83c2.99,30.433-.605,99.023-5.41,116.464C9.466,129.9,12.171,58.707,20.322,32.83Z" transform="translate(170.907 5777.528)" fill="#422f32" fill-rule="evenodd"/>
          <path id="Path_32" data-name="Path 32" d="M108.244,109.24C98.99,120.808,85.82,127.607,70.55,138.534c1.673-5.944,1.531-8.614,2.883-9.753a96.46,96.46,0,0,1,34.811-19.541Z" transform="translate(288.055 5938.052)" fill="#422f32" fill-rule="evenodd"/>
          <path id="Path_33" data-name="Path 33" d="M133.45,99.729c4.022-15.8,14.238-21.107,24.56-30.219,0,5.054.854,7.119,0,8.222a113.9,113.9,0,0,1-24.56,22Z" transform="translate(412.846 5859.561)" fill="#422f32" fill-rule="evenodd"/>
          <path id="Path_34" data-name="Path 34" d="M87.82,128.333c7.332-11.461,18.4-11.6,27.158-16.053.249,2.207.925,4.058.392,4.378a61.257,61.257,0,0,1-27.55,11.675Z" transform="translate(325.041 5945.833)" fill="#422f32" fill-rule="evenodd"/>
          <path id="Path_35" data-name="Path 35" d="M30.418,78.82c-3.559,10.393-11.426,17.3-18.438,24.916C12.478,91.6,20.416,84.266,30.418,78.82Z" transform="translate(170.671 5879.947)" fill="#422f32" fill-rule="evenodd"/>
          <path id="Path_36" data-name="Path 36" d="M134.89,95.622c1.993-10.073,8.187-14.238,18.651-16.622C147.028,88.86,147.028,88.86,134.89,95.622Z" transform="translate(416.532 5880.909)" fill="#422f32" fill-rule="evenodd"/>
          <path id="Path_37" data-name="Path 37" d="M135.25,101.313A12.814,12.814,0,0,1,149.488,89Z" transform="translate(417.453 5902.663)" fill="#422f32" fill-rule="evenodd"/>
          <path id="Path_38" data-name="Path 38" d="M12.628,101.962a12.422,12.422,0,0,1,9.86-12.672C25.9,91.532,24.908,92.849,12.628,101.962Z" transform="translate(172.301 5903.449)" fill="#422f32" fill-rule="evenodd"/>
          <path id="Path_39" data-name="Path 39" d="M135.05,108.009c0-6.621,4.2-8.614,9.5-11.639C142.24,103.88,142.24,103.88,135.05,108.009Z" transform="translate(416.941 5918.857)" fill="#422f32" fill-rule="evenodd"/>
          <path id="Path_40" data-name="Path 40" d="M112.009,116.83l-11.319,8.222C102.968,117.72,102.968,117.72,112.009,116.83Z" transform="translate(353.501 5957.478)" fill="#422f32" fill-rule="evenodd"/>
        </g>
      </g>
    </g>
  </g>
</svg>
