<svg xmlns="http://www.w3.org/2000/svg" width="1640" height="905.563" viewBox="0 0 1640 905.563">
  <g id="Layer_2" data-name="Layer 2" transform="translate(2703.999 261.563) rotate(180)">
    <g id="BACKGROUND2" transform="translate(1063.999 -644)">
      <g id="Group_55" data-name="Group 55" opacity="0.3">
        <path id="Path_235" data-name="Path 235" d="M1638.709,341.159c-8.215-63.273-56.894-137.58-133.987-203.9C1433.267,75.8,1348.281,29.419,1277.373,13.547c-209.4-46.867-296,31.823-431.149,174.935-10.631,11.222-20.973,22.418-30.992,33.239-59.954,64.8-111.758,120.774-185.275,152.944-80.54,35.217-179.637,36.98-311.724,5.531-81.861-19.479-149.966-12.932-202.253,19.586C4.384,468.987,1.355,634.356,1.323,637.482c-7.474,120.426,16.72,201.281,71.939,240.479,26.063,18.437,58.7,27.6,98.871,27.6a345.209,345.209,0,0,0,59.825-5.8c31.121-5.5,62.371-28.243,95.457-52.318,66.14-48.1,141.139-102.738,246.969-49.912,61.887,30.888,126.8,38.263,187.724,21.376,74.742-20.735,140.881-77.327,176.931-151.368,12.017-24.716,26.127-42.992,42.235-56.566l12.178-3.954c5.155-1.55,10.374-3.073,15.657-4.622q13.434-3.661,27.545-7.188c7.249-1.71,14.658-3.367,22.229-5.023q10.567-2.084,21.617-4.168l20.457-3.393,19.974-2.806,7.539-.908,11.759-1.389,18.814-1.9,18.041-1.523c5.863-.374,11.856-.775,17.88-1.229s11.437-.615,17.268-.989,11.275-.481,17.01-.775c80.83-2.378,176.158-12.665,287.5-60.52C1605.913,472.22,1648.117,413.624,1638.709,341.159Zm-404.023,153.8c12.886-24.048,2.448-55.47-26.965-79.946-15.5-12.906-43.041-29.392-86.114-34.736-40.109-5.05-83.44.855-128.865,17.555-74.87,27.548-117.718,52.5-152.866,75.4l-8.473,5.531C782.4,510.83,747,534.077,642.36,540.81q-38.756,3.1-76.965,9.539c-18.4,2.806-37.177,5.665-57.312,8.016l-2.287.08c9.182-1.977,18.2-4.061,27.126-6.119,32.216-7.508,62.983-14.589,97.357-15.31,111.532-2.3,149.129-28.724,201.158-65.3l10.857-7.588c41.527-28.911,85.115-53.44,162.756-78.877,65.238-21.376,156.119-26.105,215.462,24.9,28.995,24.956,39.69,56.432,27.158,80.16-7.571,14.348-22.552,24.636-44.007,30.461,13.686-5.3,24.674-14.444,31.024-25.811ZM1189.2,522.747c13.051-4.83,23.6-13.355,29.768-24.048,12.886-23.193,2.287-54.188-26.256-77.14-18.492-14.856-88.337-59.452-210.854-9a977.51,977.51,0,0,0-144.973,73.239c-64.432,38.557-99.258,59.372-297.194,70.888,8.892-1.283,17.622-2.672,26.256-3.928q38.016-6.393,76.674-9.512c105.54-6.787,141.236-30.193,190.655-62.551l8.473-5.531c40.464-26.346,81.8-49.191,152.189-75.109,64.142-23.62,153.413-31.583,211.563,16.807,28.511,23.727,38.853,54.027,26.353,77.14C1224.474,507.677,1209.783,517.484,1189.2,522.747Zm61.211-31.423c12.886-24.689,2.126-57.234-27.77-82.832-23.826-20.051-54.588-33.453-88.015-38.343-40.818-6.546-84.825-2.218-130.7,12.852-78.06,25.624-121.842,50.207-163.594,79.278q-5.573,3.848-10.857,7.615c-51.546,36.232-88.82,62.418-199.289,64.716-34.761.721-65.528,7.829-98.1,15.391-13.885,3.206-28.06,6.466-42.783,9.272h-2.158l-5.8.294c8.441-2.458,16.72-5.077,24.9-7.642,33.827-10.688,68.846-21.723,111.468-21.109h8.473c111.661,0,152.64-30.434,204.154-68.723q5.992-4.462,12.21-9.031c43.492-32.064,89.625-58.249,173.323-82.644,101-29.392,179.444-2.351,219.07,32.865,29.607,26.212,40.592,58.944,28,83.366-7.925,15.391-24.259,26.533-47.455,32.865,15.41-5.494,27.81-15.54,34.794-28.189Zm15.432-3.634c13.047-25.33,1.836-59.131-28.576-86.065-24.292-21.068-55.611-35.646-89.948-41.87-41.526-8.016-86.082-5.184-132.44,8.337-84.149,24.555-130.54,51.008-174.322,83.152q-6.25,4.569-12.21,9.031c-52.319,38.877-93.427,69.659-210.6,68.029-43.17-.561-78.478,10.554-112.563,21.376-11.6,3.634-23.389,7.348-35.438,10.688-3.8.214-7.539.481-11.211.721,7.635-2.832,15.3-5.905,23.131-9.058,35.792-14.4,72.809-29.392,123.613-27.227,124.934,5.1,168.877-29.071,224.482-72.331l13.144-10.18c47.229-36.232,94.458-63.353,183.922-86.439,102.351-26.4,182.182,3.687,222.775,40.694,30.7,27.949,41.881,61.188,28.995,86.759-8.247,16.379-25.773,28.323-50.837,35.19,17.912-7,30.992-17.341,37.951-30.808Zm15.367-3.58c13.305-26.479,2.03-60.734-29.478-89.4-41.2-37.568-122.2-68.162-225.9-41.389C935.85,376.536,888.3,403.817,840.78,440.29c-4.51,3.447-8.859,6.867-13.176,10.207-55.09,42.752-98.581,76.713-222.292,71.636-51.546-2.111-88.917,12.959-125.063,27.495-10.664,4.275-21.005,8.443-31.443,12.051h-1.256c7.055-3.313,14.111-6.92,21.295-10.688,33.022-16.94,70.425-36.1,123.807-32.705C724.544,526.7,770.709,489.4,829.182,442.16c4.542-3.661,9.149-7.4,13.917-11.2,51.224-40.8,99.451-68.643,194.489-90.206,103.607-23.513,184.824,9.566,226.254,48.363,31.378,29.392,42.783,63.914,29.832,90.26-8.6,17.5-27.48,30.407-54.542,37.835,20.135-7.214,34.568-18.463,41.945-33.106Zm15.271-3.607c13.4-27.2,1.74-62.792-30.38-92.851-41.881-39.358-124.387-72.918-229.315-49.111-95.617,21.7-144.2,49.726-195.778,90.848-4.768,3.794-9.375,7.508-13.917,11.2-57.989,46.786-103.639,83.74-234.212,75.43-54.381-3.5-92.2,16.032-125.643,33.079-9.31,4.756-18.428,9.432-27.513,13.36-5.058.481-10.019.962-14.884,1.5,6.8-3.741,13.692-8.016,20.908-12.291C480.12,530.817,519,507.2,580.087,512.273c138.948,11.6,187.337-28.8,248.644-79.946,4.768-3.981,9.665-8.016,14.594-12.131,54.188-44.569,105.122-74.254,205.088-94.027,104.767-20.708,187.337,15.31,229.669,55.951,32.055,30.755,43.846,66.8,30.8,93.894-6.991,14.509-23.324,31.877-61.211,41.416,23.808-7.909,40.56-20.441,48.678-36.927Zm15.238-3.554c13.466-28.029,1.482-65.009-31.314-96.459-42.912-41.2-126.577-77.728-232.665-56.726C947.093,343.671,895.8,373.544,841.231,418.433c-4.994,4.088-9.826,8.149-14.626,12.131-30.992,25.865-57.731,48.1-94.426,63.032-40.3,16.326-88.53,21.376-151.77,16.219-62.177-5.344-101.61,18.7-136.4,39.813-9.149,5.558-17.783,10.688-26.288,15.15-5.445.641-10.76,1.336-15.915,2.084,6.862-4.3,13.885-9.218,21.23-14.4,33.73-23.727,75.708-53.253,144.554-46.359,146,14.616,196.518-28.831,260.758-83.82,4.993-4.3,10.051-8.657,15.271-13.066,58.633-49.565,110.4-79.839,215.687-97.795,105.894-18.063,189.817,20.922,233.052,63.433,33.247,32.678,45.1,69.178,31.733,97.634-9.665,20.334-31.024,35.11-62.886,43.66,29.993-10.234,43.975-25.865,50.386-39.2ZM422.549,566.782l-3.93.508h0Zm-11.855,1.443-.58.241c-5.09.748-10.051,1.5-14.787,2.3l.9-.508c4.575-.721,9.407-1.416,14.24-2.031ZM1326.986,473.4c13.788-29.392,1.74-66.8-32.216-100.173-43.782-43.046-128.865-82.538-235.951-64.261-106.055,18.089-158.149,48.577-217.234,98.516-5.219,4.409-10.277,8.764-15.27,13.066-63.53,54.508-113.691,97.554-258.245,83.1-70.167-7.027-112.757,22.872-146.841,46.92-9.117,6.386-17.687,12.425-26.063,17.288-5.767.882-11.372,1.844-16.817,2.832,7.216-4.943,14.562-10.848,22.326-17.1,34.568-27.842,77.609-62.471,154.638-53.654C708.4,517.537,761.27,471.044,828.151,412.207c5.219-4.569,10.5-9.245,15.947-13.948,63.3-54.829,115.688-85.5,226.286-101.535,107.119-15.5,194.3,28.483,236.4,70.861,33.988,34.175,46.2,72.144,32.7,101.535-10.019,21.777-33.279,37.675-67.879,46.84,33.15-11.169,48.453-28.243,55.154-42.565ZM247.745,661.931c1.321-1.683,2.706-3.447,4.188-5.21a.952.952,0,0,1,0,.134C250.418,658.591,249.033,660.274,247.745,661.931Zm.644,11.543a35.052,35.052,0,0,0,6.121,20.12c13.144,20.841,53.318,33.907,111.339,37.194-60.6-2.031-96.036-11.516-109.857-29.125C248.067,691.563,245.779,682.853,248.389,673.474ZM227.8,700.06c.548,13.093,9.665,21.964,22.745,31.262,21.778,15.257,64.11,13.146,117.75,10.474,7.313-.374,14.98-.748,22.873-1.1-13.337.855-26.159,1.9-38.273,2.886-45.554,3.768-81.507,6.76-101.61-4.89-12.886-7.375-25.354-15.765-27.384-29.926-2.191-15.5,8.441-36.9,33.054-65.7a48.908,48.908,0,0,0-3.222,7C235.567,670.669,227.255,686.941,227.8,700.06Zm140.3,39.225c-52.963,2.672-94.748,4.756-115.592-9.86-12.661-8.871-21.2-17.261-21.714-29.392-.387-9.325,4.22-20.628,14.078-34.228a50.576,50.576,0,0,0-10.7,25.3c-.838,13.36,8.312,23.139,17.365,30.861,22.326,18.971,71.681,18.2,134.341,16.513ZM253.7,720.154c-9.021-7.669-17.3-16.486-16.527-28.964a36.385,36.385,0,0,1,3.93-13.36,36.648,36.648,0,0,0-1.063,4.248c-2.223,13.2,5.509,23.219,12.532,30.461,19.781,20.494,67.88,24.048,127.512,23.62C320.875,737.628,274.484,737.815,253.7,720.154Zm1.224-9.245c-9.987-10.314-13.531-18.864-11.888-28.563a32.253,32.253,0,0,1,1.611-5.8c-1.256,8.684,1.643,17.207,8.924,26.479,17.816,22.659,66.687,29.392,118.781,30.594C317.138,733.62,273.1,729.719,254.929,710.909Zm2.352-18.49a31.889,31.889,0,0,1-5.735-21.376,44.721,44.721,0,0,0,4.124,12.986c13.305,26.907,61.211,40.614,112.757,44.328-58.086-2.859-98.259-15.524-111.146-35.938Zm1.192-9.218a40.587,40.587,0,0,1-4.285-20.547,41.314,41.314,0,0,0,2.545,12.024c9.375,25.01,49.065,43.874,99.645,50.34C306.346,719.806,269.072,704.629,258.473,683.2Zm-1.289-21.109c.193,1.069.354,2.111.644,3.153,6.8,25.437,42.2,46.279,86.984,55.337-43.46-7.7-77.093-24.9-85.244-46.626A38.956,38.956,0,0,1,257.184,662.091Zm3.576,2.672a34.538,34.538,0,0,1-.966-5.077c7.764,27.495,46.81,50.982,93.008,59.879-47.1-7.962-85.083-28.937-92.042-54.856Zm1.128-9.245a.334.334,0,0,0,0-.187,59.55,59.55,0,0,0,12.435,20.948c14.658,16.62,38.144,29.793,64.432,37.408-40.528-10.955-72.519-33.052-76.868-58.222Zm1.1-11.169a529.9,529.9,0,0,1,39.433-37.007c4.639-2.4,9.665-4.809,15.238-7.161a502.589,502.589,0,0,0-54.767,44.969,2.75,2.75,0,0,0,.1-.855Zm58.182-56.112-3.447,2.806a190.787,190.787,0,0,0-19.33,8.818l3.673-3.5a187.825,187.825,0,0,1,19.1-8.257Zm-13.273,2.672.58-.534h.934Zm27.867-3.607-1,.668q-8.859,2.966-16.366,6.012l1.16-.962c4.961-2.057,10.341-3.955,16.2-5.825ZM325.74,588l.58-.481,1.16-.133Zm-14.819,8.63-1.385,1.176a162,162,0,0,0-19.942,10.688l1.031-1.015a151.2,151.2,0,0,1,20.3-10.955Zm-22.551,9.058A91.248,91.248,0,0,0,272.1,618.832,77.108,77.108,0,0,1,292.879,601.2Zm1.772,8.684c-10.438,9.245-19.33,17.849-27.191,25.811v-.321c1-1.71,2.126-3.474,3.415-5.344.805-1.069,1.707-2.191,2.642-3.313a108.357,108.357,0,0,1,21.231-16.94Zm37.886-18.517q5.928-2.271,12.564-4.489c-19.33,11.837-35.76,22.632-49.323,32.545l-1,.641Q306.571,611.35,328.027,595.853Zm23.357-8.016c3.222-.962,6.6-1.924,10.051-2.886q-21.23,10.688-38.369,20.441,13.048-8.2,28.318-17.341Zm-7.281-3.42h.354l1.353-.134-2.448.722Zm-.225-2.672c1.224-.641,2.416-1.336,3.64-2.084q8.151-2.138,16.656-3.928l-3.222,1.6q-8.892,2.138-16.785,4.382Zm29.736,0,6.7-1.63q-12.081,5.023-23,9.86,7.829-3.794,16.4-7.989Zm-2.835-6.6,1.772-1.042q7.7-1.523,15.56-2.672l-1.482.721q-8.264,1.643-15.85,3.233Zm971.156-105.517c13.917-30.22,1.514-69.071-33.151-103.94-42.686-42.645-130.894-87.16-239.205-71.5-111.435,16.032-164.3,47.107-227.929,102.337Q833.5,403.6,825.542,410.5c-66.3,58.3-118.62,104.368-270.262,86.973-78.35-9.031-121.97,26.105-157.021,54.322a298.673,298.673,0,0,1-27.094,20.227q-9.117,1.79-17.558,3.848A313.018,313.018,0,0,0,378.091,555c33.408-30.434,79.155-72.144,164.3-61.242a536.428,536.428,0,0,0,67.912,4.7c109.889,0,158.278-43.473,217.04-96.191,5.445-4.89,10.954-9.86,16.624-14.856,66.752-59.051,121.68-91.569,236.885-105.41,65.565-7.578,132.151,5.794,186.274,37.408,49.709,28.51,83.762,68.055,91.14,105.757,8.537,43.74-19.845,76.125-78.479,91.061,38.337-12,55.025-30.861,62.145-46.359Zm1.482,16.673c16.4-16.78,22.551-38.129,18.009-61.776-7.474-38.37-41.881-78.53-92.4-107.414-54.764-31.928-122.1-45.422-188.4-37.755C964.651,293.3,909.175,326.063,841.972,385.541c-5.67,5.023-11.211,9.993-16.624,14.856-69.1,62.1-123.646,111.128-282.31,90.847-86.694-11.089-133.085,31.155-166.976,62.017-10.921,9.966-20.554,18.7-29.864,24.475q-10.567,2.672-19.91,5.985c9.439-6.092,18.975-15.845,29.929-27.04,33.891-34.736,80.347-82.217,173.967-69.151,167.363,23.326,224.579-29.1,297.033-95.47,5.67-5.184,11.4-10.447,17.3-15.791,71.745-64.715,127.093-97.554,247.517-109.2,137.144-13.36,266.234,72.892,281.7,153.078,8.859,45.985-21.778,80.293-84.6,96.031Q1324.022,505.834,1343.416,486.3Zm33.183-66.532c-7.6-39.572-43.009-81.549-94.651-112.223-57.087-33.988-124.709-49.218-190.365-42.752C970.224,276.551,914.394,309.63,842.2,374.8q-8.86,8.016-17.3,15.791C753.055,456.4,696.322,508.4,530.57,485.286c-95.263-13.36-142.331,34.869-176.706,70.033-17.461,17.876-31.25,32.064-46.037,32.652h-.644l-.419.374L300,594.757c-16.656,8.444-28.382,18.223-34.665,29.392a39.874,39.874,0,0,0-4.188,10.341c-29.639,33.186-42.525,57.474-40.077,74.815,2.158,15.177,15.335,24.048,28.64,31.663,11.308,6.546,27.094,8.711,46.423,8.711,16.624,0,35.889-1.6,57.216-3.367,13.917-1.149,28.769-2.378,44.3-3.26-19.33,1.5-37.918,3.687-55.057,5.771-40.592,4.89-72.68,8.791-92.364-.615-15.657-7.455-29.993-15.391-33.537-30.327-5.831-24.342,17.719-63.914,74.1-124.541,14.4-1.1,27.287-15.791,43.556-34.362,34.214-39.091,81.12-92.664,183.278-77.327C692.1,507.784,751.509,452.421,826.7,382.308c5.9-5.478,11.856-11.062,18.009-16.7,75.418-69.178,133.278-103.726,258.116-113.025,139.238-10.341,270.39,80.747,286.047,162.991,9.246,48.71-24.387,85.236-92.718,101.535,60.148-16.914,89.142-51.462,80.283-97.287Zm15.206-4.81c-15.851-83.366-148.42-175.63-289.3-165.155-126,9.379-184.341,44.114-260.21,113.88-6.153,5.665-12.145,11.249-18.041,16.727-74.58,69.472-133.472,124.434-306.311,98.543-103.994-15.6-153.478,40.935-186.242,78.316-16.108,18.33-28.7,32.785-41.881,33.373h-.677l-.419.454c-57.248,61.456-81.088,101.856-75.064,127,3.8,16.032,18.718,24.262,34.987,32.064,9.085,4.409,20.908,6.012,34.858,6.012,16.849,0,36.855-2.4,59.439-5.157,17.816-2.164,37.016-4.436,57.345-5.932-23.324,2.138-45.1,5.665-65.205,8.951-37.21,6.039-66.623,10.821-86.146,3.206-18.846-7.348-34.858-14.723-40.174-30.648-8.408-25.037,11.92-66.613,63.949-130.74,12.886-1.122,24.839-16.032,39.658-34.869,32.474-41.229,81.571-103.513,192.524-85.824a556.607,556.607,0,0,0,86.822,7.562c117.4,0,170.359-50.153,234.34-110.754q9.182-8.711,18.718-17.635C925.54,279.063,983.5,244.353,1113.49,237.513c65.5-3.474,133.729,15.123,192.2,52.344,53.7,34.175,90.431,79.278,98.2,120.693,9.665,52.291-26.095,90.233-101.159,107.254,65.947-17.288,98.163-54.108,89.013-102.791Zm15.206-4.783c-16.108-85.5-150.546-182.657-293.553-175.149C983.24,241.9,922.383,278.448,842.841,352.6q-9.665,8.924-18.782,17.662c-77.319,73.186-138.336,130.927-318.3,102.364-112.982-18.009-162.692,45.13-195.617,86.92-14.658,18.7-26.224,33.266-38.08,33.8h-.741l-.419.534c-52.835,65.009-73.453,107.36-64.851,133.225,5.638,16.914,22.97,24.9,41.881,32.251a73.945,73.945,0,0,0,26.739,4.142c17.075,0,37.628-3.34,61.211-7.188q36.073-6.307,72.776-9.566a722.5,722.5,0,0,0-78.64,12.959c-34.922,7.188-62.5,12.852-82.087,6.68-21.52-6.787-39.916-13.787-47.132-30.808-11.082-25.33,6.669-70.247,54.027-136.779,11.727-1.149,21.939-15.471,35.921-35.137,32.506-45.691,81.668-114.735,201.641-94.615,188.819,31.716,252.51-29.392,333.147-106.879q9.665-9.192,19.491-18.7c84.632-80,145.069-116.338,279.314-120.64,64.819-2.057,135.6,18.7,194.2,57.207,55.09,36.1,92.686,83.152,100.547,125.824,5.863,31.636-.322,88.336-107.441,112.544l-3.8.855c72.744-17.742,108.729-56.993,99-109.017ZM406.441,717.883c-47.519,5.344-103.317-13.173-129.735-43.153a53.334,53.334,0,0,1-12.887-24.181c2.352-2.3,4.865-4.649,7.635-7.081a315.563,315.563,0,0,1,43.621-30.06,853.867,853.867,0,0,1,80.057-36.259l6.926-1.389a102.034,102.034,0,0,0,17.461-3.286c4.575-.722,9.214-1.416,14.014-2.111s9.375-1.5,13.982-2.4l3.9-.427c8.505-.908,16.752-2.111,24.774-3.42,11.211-.935,22-2.057,32.216-3.286,226.77-11.169,262.014-32.251,330.216-73.025a975.609,975.609,0,0,1,144.457-73.025c120.714-49.726,189.27-6.012,207.407,8.55,27.609,22.231,37.919,52.077,25.612,74.308-7.635,13.814-22.551,23.139-43.653,27.682l-4.768.294h-1.418q-9.665,0-18.879.695h-1.289c-5.96,0-11.855.187-17.655.534-6.443,0-12.629,0-18.814.374-92.493-1.951-163.5,49.752-226.48,95.63-27.577,20.093-53.511,38.984-79.38,52.558q-14.118,4.162-28.737,6.974c-5.445.935-10.857,1.71-16.3,2.245-2.867.267-5.7.588-8.57.908H749.9c-5.187.187-10.341.508-15.432.882s-10.277,0-15.3.214c-5.283-.24-10.438-.347-15.56-.347s-10.019-.721-14.916-.908c-5.38-.615-10.664-1.1-15.818-1.443-5.122-.748-10.084-1.336-15.013-1.817-69.233-12.051-118.717,2.432-166.815,16.513C464.527,706.366,436.982,714.436,406.441,717.883Zm486.077-93.52c56.088-38.824,118.394-81.9,195.874-92.611-74.838,14.349-135.662,54.268-190.687,90.42-12.307,8.016-24.259,16.032-36.05,23.273,10.116-6.707,20.361-13.787,30.734-21.055Zm-44.3,26.72c12.274-8.39,24.581-17.341,37.049-26.426,53.93-39.3,113.82-82.832,187.885-92.932-71.391,13.868-129.734,54.188-182.569,90.847-14.5,9.94-28.544,19.639-42.364,28.51Zm51.353-26.934c58.408-38.37,123.356-80.988,204.573-92.424-78.672,14.91-142.234,54.455-199.74,90.233-10.116,6.279-20.006,12.451-29.7,18.33q12.306-7.856,24.871-16.139Zm6.766-.187c60.727-37.862,128.349-79.972,213.432-92.29-82.7,15.658-148.967,54.8-208.793,90.126-7.506,4.435-14.852,8.791-22.133,13.013Zm6.443,0c63.3-37.408,133.922-79.091,223.419-92.37-87.338,16.486-156.764,55.31-219.3,90.313l-12.887,7.214Zm240.944-92.825c-93.008,17.5-166.074,56.112-231.763,91.008l-1.514.8c65.753-36.927,139.27-77.728,233.213-91.916Zm16.817-.347c-93.008,17.715-166.4,52.745-232.117,85.5,65.431-34.522,138.883-70.968,232.053-85.61ZM1189,530.1c-92.364,17.769-165.72,49-231.054,79.518,65.109-32.2,138.5-64.528,230.989-79.625ZM722.611,695.758c1.579.16,3.222.267,4.671.374h0c-1.675,0-3.383-.133-5.058-.267Zm-2.932-2.859h.225l2.642.321h0Zm-7.345,1.389,3.221.588-.966.24-3.608-.561Zm-1.224-2.672h.547l1.128.214h-.516Zm-5.058,1.5-1.321.267-2.352-.535,1.514-.24,1.224.294Zm-8.827-2.031-.9.16-1.063-.294h.87ZM492.233,701.209c39.561-11.57,80.089-23.407,131.861-20.334-43.331.561-79.7,10.234-115.269,19.719-19.33,5.1-39.078,10.421-59.5,14.055-10.374,1.844-24.194,4.168-38.885,5.638h-1.675c30.025-3.767,57.184-11.676,83.408-19.372Zm-42.3,15.9c20.586-3.687,40.528-9,59.826-14.135,39.432-10.528,79.864-21.376,129.767-19.372-41.269,1.389-76.868,10.207-111.693,18.864-24.806,6.146-48.324,11.971-73.614,15.284l-3.7.481c-11.662,1.55-23.776,3.126-36.179,4.168h-.322c13.531-1.763,26.192-3.874,35.857-5.585ZM451,720.715l3.7-.481a660.584,660.584,0,0,0,74.1-15.391c38.982-9.673,78.962-19.612,126.8-18.891-39.014,2.191-73.582,10.367-107.344,18.41-29.961,7.134-58.279,13.868-89.046,16.486l-15.528,1.443c-7.506.722-15.238,1.443-23.067,2.031q15.415-1.964,30.412-3.9Zm-7.055,4.061,15.5-1.443c31.024-2.672,59.439-9.405,89.529-16.566,37.854-9,76.642-18.169,121.584-18.864-36.05,3.1-68.814,10.688-100.837,18.25-35.438,8.337-69.071,16.192-105.7,17.822-8.054.347-16.334.935-24.355,1.5l-12.017.775c5.444-.748,10.921-1.256,16.237-1.763Zm-4.027,3.18c8.344-.588,16.108-1.149,24.259-1.5,36.984-1.63,70.682-9.539,106.313-17.9,34.793-8.15,70.425-16.486,110.147-18.891l1,.267c-31.346,3.954-60.631,10.928-89.3,17.769-41.4,9.86-80.54,19.185-123.452,19.372-10.567,0-20.908.561-31.862,1.122l-3.222.16Zm28.995,1.6c43.363-.187,82.667-9.539,124.258-19.452,30.476-7.268,61.63-14.669,95.2-18.437l2.03.561c-25.773,4.436-50.257,10.688-74.387,16.566-47.583,11.837-92.525,23.033-142.234,21.376-10.277-.321-20.715,0-30.992.241,8.827-.722,17.4-.962,26.1-1.149Zm4.671,2.832c50.193,1.63,95.36-9.592,143.2-21.509C642.554,704.5,668.616,698,696,693.514l2.964.8c-19.942,4.382-39.433,9.539-58.569,14.643-53.962,14.322-104.96,27.9-161.822,24.048-7.41-.508-14.916-.668-22.39-.668h-4.51C459.083,732.124,466.331,732.124,473.58,732.391Zm4.768,3.1q10.084.668,19.974.668c49.548,0,95.1-12.1,143.007-24.823,20.651-5.5,41.72-11.089,63.3-15.658,1.321.267,2.674.588,4,.828-14.53,3.848-28.995,8.016-43.041,12.051C607.6,725.284,547.9,742.6,483.47,736.105c-6.153-.615-12.274-.962-18.363-1.176,4.446.107,8.859.267,13.305.561Zm3.995,3.046h.773c9.482.946,19.025,1.419,28.576,1.416,54.316,0,105.314-14.749,154.9-29.071,15.85-4.6,31.991-9.245,48.324-13.36,1.772.241,3.576.4,5.38.561-9.665,2.993-19.33,6.065-28.995,9.111-64.142,20.467-130.508,41.63-202.962,32.064-1.868-.294-3.93-.534-5.928-.721Zm9.665,3.634a285.568,285.568,0,0,0,32.828,1.924c59.02,0,114.045-17.555,167.524-34.736,11.662-3.714,23.486-7.482,35.438-11.062h7.088l-17.364,6.146C647.064,729.505,574.191,755.4,493.2,742.358ZM718.713,706.74c8.924-3.18,17.622-6.252,26.256-9.218,3.222-.427,6.733-.989,10.084-1.657L744.2,700.221C668.52,730.441,590.3,761.676,501.7,746.1c78.189,10.073,148.839-15.1,217.1-39.358Zm26.772-4.275c17.2-6.867,33.472-13.36,49.742-19.265l2.32-.855c-8.57,3.767-17.2,7.669-26.288,11.757C693.938,729,606.7,768.383,509.34,749.866c86.661,12.318,165.881-19.318,236.241-47.4Zm27.223-6.172c10.921-4.916,21.23-9.592,31.54-14.081l5.992-2.672,3.222-1.443-1.868.935-12.661,6.52c-78.124,40.08-174.8,89.912-281.956,68.109,95.134,15.1,180.346-23.273,255.829-57.368ZM570.454,761.516c86.726,0,164.947-40.24,230.249-73.854l12.661-6.493q7.635-3.9,15.367-7.7c-2.706,1.55-5.412,3.1-8.086,4.676-71.1,42-177.189,104.769-295.293,79.6A271.808,271.808,0,0,0,570.454,761.516Zm10.148,4.516c96.648,0,181.635-50.287,241.782-85.851q10.148-6.012,20.618-11.65c-4.542,2.832-9.053,5.718-13.531,8.737C745.71,733.647,645.84,786.953,533.7,761.917a269.18,269.18,0,0,0,46.907,4.2Zm250.771-86.839c8.247-5.558,16.656-10.688,25.225-15.738q-9.31,6.119-18.266,12.932c-107.377,81.683-204.766,111.154-297.033,89.7,110.018,21,207.923-31.289,290.075-86.813Zm8.988-.989a343.222,343.222,0,0,1,28.383-19.372q-11.018,7.749-21.553,16.646c-70.586,60.093-177.737,123.152-297.065,95.069,90.431,17.689,185.726-12.745,290.235-92.263Zm8.988-.962a292.208,292.208,0,0,1,31.282-23.193A260.092,260.092,0,0,0,856.082,674.6c-30.154,28.537-78.865,67.227-139.786,89.618C662.85,783.854,609.79,787.381,558.244,774.9c117.106,23.407,221.712-38.477,291.105-97.581ZM717.521,766.486c61.4-22.552,110.469-61.456,140.817-90.233a257.985,257.985,0,0,1,34.246-27.308,241.143,241.143,0,0,0-27.641,24.769c-28.995,30.14-76.481,71.1-139.883,94.936-53.35,20.067-106.571,23.594-158.665,10.688,49.419,10.26,100.1,5.985,151.126-12.772ZM573.45,783.64c50.289,10.875,101.61,6.707,152.994-12.639,63.917-24.048,111.951-65.276,141.01-95.657a235.222,235.222,0,0,1,36.4-31.1,222.1,222.1,0,0,0-29.9,28.67C807.339,749.412,695.871,814.956,573.45,783.64ZM876.282,674.356a215.684,215.684,0,0,1,38.66-35.03A209.506,209.506,0,0,0,882.725,672c-61.211,77.3-174.418,149.311-301.833,116.018C701.574,814.662,810.657,749.866,876.282,674.356Zm8.956-.962a201.5,201.5,0,0,1,40.141-38.69,199.085,199.085,0,0,0-33.763,36.419c-36.179,49.779-86.049,89.191-140.4,110.994-52.706,21.135-107.924,24.662-161.661,10.688,125.031,27.735,235.178-43.286,295.68-119.464ZM752.54,784.361c54.767-21.99,105.153-61.749,141.751-111.956a192.09,192.09,0,0,1,41.881-42.538,192.31,192.31,0,0,0-35.438,40.347C866.359,721.7,815.1,764.135,760.11,786.606c-53.124,21.723-109.019,25.143-163.658,10.367C648.32,809,701.574,804.8,752.54,784.361Zm8.7,4.489c55.508-22.712,107.216-65.49,141.751-117.407a183.392,183.392,0,0,1,43.138-46.2,185.82,185.82,0,0,0-36.694,43.981C868.872,735.09,802.764,785.136,732.6,803.012a247.011,247.011,0,0,1-130.057-1.9C655.633,813.994,709.692,809.905,761.238,788.85Zm-27.77,16.673c70.875-18.089,137.724-68.59,178.639-135.069a176.784,176.784,0,0,1,44.136-49.726,180.238,180.238,0,0,0-37.918,47.695c-38.885,68.456-104.8,120.533-176.351,139.291a244.852,244.852,0,0,1-132.505-2.057A249.816,249.816,0,0,0,733.468,805.523Zm9.407,4.569c72.325-18.971,138.948-71.529,178.155-140.6,13.144-23.086,28.125-40.267,45.1-53.172a178.2,178.2,0,0,0-38.853,51.2c-37.242,70.888-102.9,124.942-175.61,144.608a243.451,243.451,0,0,1-129.7-.588A247.18,247.18,0,0,0,742.875,810.093Zm193.3-143.486c-35.7,73.373-101.159,129.431-175.095,149.952a245.959,245.959,0,0,1-132.086-.775A249.177,249.177,0,0,0,752.7,814.5c73.356-19.879,139.689-74.361,177.286-145.97,12.661-24.048,27.287-41.87,43.943-55.15l.387-.134c-14.272,13.333-27.158,30.7-38.176,53.359Zm91.719-84.114a159.417,159.417,0,0,0-19.781,7.856c-1.192.481-2.352,1.015-3.544,1.55q-12.887,5.344-25.1,10.688c64.432-29.392,137.337-57.955,228.38-73.266a1020.843,1020.843,0,0,0-179.959,53.172Zm28.479-6.974c-2.029.347-4.059.721-6.057,1.122a996.349,996.349,0,0,1,178.961-48.817,1270.339,1270.339,0,0,0-172.9,47.588Zm17.687-2.672-3.769.454a1263.109,1263.109,0,0,1,178.961-46.92,1667.781,1667.781,0,0,0-175.191,46.466Zm12.081-1.2a1680.092,1680.092,0,0,1,186.4-47.294c-69.813,15.123-130.282,30.968-183.89,47.107Zm13.853-.962c57.248-16.887,122.2-33.453,197.839-49.138h0c-74.1,16.94-138.755,33.026-196.035,49.058Zm14.079-.615h-1.063c58.246-16.032,123.871-32.251,199.418-49.325,81.088-18.3,120.005-59.265,109.535-115.35-7.99-43.259-46-90.847-101.674-127.373-59.02-38.744-130.6-59.8-195.939-57.715-135.308,4.3-196.229,40.962-281.472,121.5q-10.019,9.432-19.491,18.7C743.358,437.378,680.15,498.085,493.1,466.689,371,446.2,321.2,516.174,288.272,562.48c-13.337,18.7-23.84,33.48-34.31,33.961h-.805l-.419.588c-48.807,68.536-66.269,112.918-54.993,139.611,7.635,18.036,26.643,25.3,48.9,32.331a69.44,69.44,0,0,0,20.779,2.672c17.4,0,38.434-4.329,63.079-9.379a693.983,693.983,0,0,1,81.6-13.2C379.9,752.431,350.9,759.752,326,765.9c-33.376,8.31-59.729,14.883-79.477,9.94-24.259-6.092-45.1-12.585-54.381-30.835-13.466-26.426,1.224-73.346,44.909-143.432,10.5-1.2,19.716-15.5,32.216-35.083C299.709,519.22,350.643,440.1,479.894,462.815c195.939,34.415,261.788-29.659,345.164-110.807q9.89-9.673,20.232-19.586c88.595-84.782,151.416-122.911,289.945-124.434,65.109-.748,136.6,21.857,196.2,62.043,56.443,38.049,94.941,87.027,103.092,130.927,10.148,55.738-28.286,97.153-108.182,116.605l-45.747,11.142C1218.514,543.856,1163.521,557.216,1114.069,570.068Zm11.34-.294h0c46.713-12.051,98.291-24.582,155.894-38.583l45.715-11.115c110.018-26.72,116.333-86.305,110.34-119.384-8.118-44.569-47-94.107-104.026-132.557-60.148-40.534-132.247-63.326-198.129-62.6-139.625,1.6-202.962,40.08-292.2,125.316q-10.341,9.94-20.232,19.586c-82.731,80.534-148.194,144.1-342.264,110.006-131.442-23.113-183.052,57.047-213.883,104.929-12.017,18.7-21.52,33.427-30.7,33.827h-.87l-.387.641c-44.426,71.128-59.278,118.93-45.393,146.158,10.47,20.868,35.921,27.2,56.282,32.278a65.361,65.361,0,0,0,16.108,1.817c17.88,0,39.433-5.344,65.044-11.757s55.637-13.868,88.691-17.074c-34.536,4.008-65.624,13.093-92.235,20.895-31.056,9.085-57.989,16.967-78.028,13.066-26.965-5.344-50.225-11.142-61.855-30.7-16.108-27.361-4.542-76.445,35.728-150.059,9.343-1.229,17.171-14.669,28.995-34.736,30.187-51.783,80.7-138.436,219.457-113.052,202.962,37.141,271.067-29.819,357.148-114.6,6.862-6.76,13.821-13.627,21.005-20.574,94.458-91.435,157.086-129.511,300.545-128.255,65.4.561,137.659,24.9,198.226,66.8,57.989,40.08,97.228,90.848,105.347,136.271,10.148,56.833-28.543,99.692-108.955,120.667-64.594,16.833-122.422,30.621-173.452,42.752C1152.858,563.2,1138.908,566.461,1125.409,569.774Zm21-2.431,21.681-5.184c51.03-12.158,108.891-25.945,173.516-42.752,81.99-21.376,121.423-65.223,111.017-123.419-8.183-45.851-47.97-97.367-106.313-137.767-61.211-42.271-134.051-66.8-200.127-67.387-72.357-.615-125.869,9-173.226,31.209-45.876,21.376-85.018,54.7-129.638,97.9-7.184,6.947-14.143,13.841-21.005,20.6-85.437,84.114-152.9,150.593-354.217,113.773C327.028,428.507,275.869,516.281,245.3,568.706c-10.76,18.463-19.33,33.052-27.255,33.4h-.9l-.387.695c-40.947,74.815-52.738,124.675-36.018,152.837,13.176,22.2,42.461,27.869,63.852,32.064a64.067,64.067,0,0,0,12.178,1.069c18.943,0,41.881-6.68,67.654-14.215,27.48-8.016,59.761-17.475,95.65-21.189-37.081,4.542-70.231,15.631-98.485,25.117-30.476,10.207-56.829,19.051-77.319,16.032-28.544-4.088-55.38-9.486-69.49-30.407-19.1-28.35-10.374-79.652,26.675-156.819,8.247-1.336,15.206-14.509,25.547-34.095,27.513-52.691,79.413-150.807,227.9-122.671a590.958,590.958,0,0,0,109.535,11.463c129.122,0,188.336-58.944,259.533-129.858,7.087-7.081,14.336-14.3,21.778-21.563,98.614-96.512,163.594-136.271,311.176-132.076,146.455,4.088,291.75,120.587,307.986,213.064,10.181,57.955-28.8,102.257-109.728,124.7-79.413,22.07-148,37.568-208.761,51.088Zm21.81-2.3c55.508-12.451,117.364-26.72,187.981-46.412,82.473-22.9,122.164-68.136,111.758-127.427C1449.922,288.388,1293.03,179.8,1157.078,176c-148.806-4.168-214.3,35.778-313.56,132.931-7.474,7.295-14.69,14.509-21.81,21.59-88.111,87.748-157.7,157.059-366.137,117.567-150.965-28.59-203.413,70.754-231.6,124.14-9.665,18.089-17.107,32.385-23.9,32.678H199.1l-.354.721c-37.661,78.4-46.488,130.607-26.836,159.7C186.663,787.22,214.175,792.8,243.492,797a62.4,62.4,0,0,0,9.021.615c19.749,0,43.331-8.016,70.038-16.887,29.413-9.86,64.142-21.376,103.092-25.517C385.694,760.1,350.321,773.38,320.3,784.6s-56.249,21.216-77.319,19.158c-29.832-2.939-60.405-7.669-77.319-30.006-22.068-29.392-16.108-82.831,17.719-163.739,7.184-1.363,12.886-13.52,22.358-33.106,27.319-57.207,78.221-163.686,236.724-132.664,43.814,8.55,81.7,12.451,115.044,12.451,132.086,0,193.007-61.162,266.041-134.615,7.377-7.428,14.852-14.963,22.551-22.578,49.935-49.378,90.5-84.515,138.24-106.879,50.128-23.594,106.7-32.518,183.632-28.911,66.043,3.1,139.818,30.915,202.382,76.285,60.7,44.034,101.868,98.863,110.115,146.959,7.184,41.79-6.153,98.035-110.534,128.683-76.481,22.284-142.492,37.114-201.705,49.4Zm20.489-1.71c54.156-11.516,114.013-25.464,182.086-45.424,82.957-24.342,122.9-70.995,112.5-131.408-18.073-105.089-177.189-218.755-315.3-225.248-77.319-3.634-134.535,5.344-185.178,29.231-48.131,22.658-88.917,57.955-139.077,107.547-7.7,7.615-15.206,15.177-22.551,22.578-90.785,91.355-162.5,163.5-378.089,121.335-161.081-31.5-212.627,76.258-240.2,134.16-8.408,17.555-15.013,31.423-20.747,31.69h-1l-.354.8c-34.568,82-40.4,136.512-17.719,166.6,17.526,23.273,48.84,28.163,79.445,31.155q3.1.29,6.218.294c20.715,0,45.1-9.192,72.809-19.666,30.766-11.6,67.171-25.33,108.279-29.766-41.881,5.344-78.865,20.735-110.147,33.8-30.154,12.585-56.185,23.46-78,22.177-32.216-1.844-65.334-5.665-85.083-29.392-25.129-30.3-22.229-86.171,8.859-170.766,6.186-1.47,11.211-13.173,19.33-31.85,12.661-29.392,31.765-73.72,68.846-106.372,44.1-39.011,103.414-51.3,176.255-36.606,224.547,45.183,298.9-30.327,393.037-125.931,7.635-7.749,15.4-15.631,23.389-23.62C949.574,185.65,1016.036,138.3,1178.727,148.964c66.4,4.382,140.946,33.881,204.476,80.988s104.091,102.23,112.5,152.3c7.184,42.592-6.443,100.2-111.372,132.664a1848.693,1848.693,0,0,1-195.552,48.416Zm22.068-1.844q88.738-17.937,174.515-44.328c106.925-33.052,120.65-91.863,113.3-135.363-8.408-50.474-49.774-106.585-113.3-153.746s-139.206-77.194-206.183-81.6c-164.077-10.688-231.022,36.9-335.048,140.6-7.99,8.016-15.754,15.845-23.389,23.62-93.427,94.909-167.3,169.885-390.009,125.076C259.149,401.226,206.991,522.16,181.959,580.275c-6.991,16.166-12.886,30.14-17.719,30.327h-1.063l-.29.828c-31.6,85.8-34.471,142.577-8.731,173.679,20.489,24.716,55.831,28.724,87.338,30.567h3.737c21.81,0,46.971-10.5,75.837-22.578,31.8-13.36,69.49-29.018,112.273-33.934-43.556,5.825-81.636,23.246-113.884,37.969-30.219,13.841-56.41,25.758-78.93,25.277-33.022-.721-70.135-3.581-92.944-28.857-28.221-31.316-28.221-89.511,0-177.9,4.993-1.416,8.827-10.688,16.366-30.247,23.969-61.883,73.872-190.646,253.477-153.532,231.731,47.829,308.18-30.514,404.989-129.7,7.893-8.016,15.915-16.3,24.194-24.636C954.02,169.565,1022.9,120.24,1189.584,134.161c66.849,5.638,142.17,36.847,206.667,85.664s106.313,106.292,114.883,157.647c7.152,43.393-6.443,102.337-112.273,136.592a1501.934,1501.934,0,0,1-188.078,47.428Zm15.689-.481a1489.959,1489.959,0,0,0,173.484-44.569c107.57-34.869,121.455-94.989,114.174-139.29-8.569-51.943-50.772-109.952-115.978-159.17s-140.946-80.614-208.406-86.305C1021.77,117.568,952.409,167.267,844.227,276.1c-8.247,8.31-16.3,16.566-24.194,24.636-96.133,98.516-172.067,176.351-401.9,128.843-78.479-16.219-141.751-2.512-188.142,40.694-38.466,35.858-56.8,83.179-68.91,114.495-5.928,15.31-11.05,28.537-14.819,28.7h-1.1l-.258.882c-28.737,89.592-28.672,148.749.225,180.786,23.614,26.159,61.565,29.124,95.3,29.873h1.418c23.035,0,49.033-11.89,79.026-25.6,32.7-14.91,71.52-32.545,115.785-37.889-44.942,6.306-84.084,25.678-117.17,42.057-30.477,15.1-56.8,28.136-80.186,28.4-37.79.4-76.095-2.672-100.837-28.136-30.992-31.85-33.956-94.161-8.827-185.168,4.156-1.47,7.249-9.86,13.627-28.3,21.2-61.269,70.876-204.808,261.627-164.487,238.883,50.5,317.458-30.648,416.909-133.412q12.21-12.638,25-25.678c111.726-113.292,183.084-164.755,353.669-147.333,67.235,6.894,143.394,39.813,208.89,90.34,66.011,50.9,108.762,110.38,117.234,163.151,7.12,44.195-6.765,104.448-113.175,140.52a1282.642,1282.642,0,0,1-186.95,47.642Zm188.078-45.424c108.214-36.633,122.421-98.089,115.044-143.165-8.57-53.44-51.546-113.346-118.169-164.648-65.979-50.768-142.717-84.034-210.6-90.847-172.1-17.608-244,34.175-356.343,148.215-8.57,8.684-16.881,17.261-25.032,25.7C720.678,392.782,642.65,473.5,405.636,423.4,212.081,382.5,161.824,527.611,140.368,589.6c-4.542,13.093-9.214,26.72-12.049,26.72h-1.16l-.226.908c-25.966,93.52-22.97,154.975,9.182,188.028,24.227,24.93,60.7,29.1,97.2,29.1h6.024c24.194-.267,50.869-13.36,81.7-28.751,35.116-17.368,73.807-36.526,118.588-42.164-45.36,6.627-84.342,27.468-119.78,46.172-30.831,16.406-57.441,30.567-81.7,31.556-67.847,2.859-93.169-12.184-108.762-27.281C95.169,781.048,89.241,716.306,111.76,621.37c3.222-1.443,5.67-8.63,10.986-25.945C135.31,554.223,161.7,468.506,238.4,430.885c41.881-20.494,93.588-24.262,153.864-11.249,52.351,11.3,97.2,16.406,136.371,16.406,144.973,0,212.079-69.846,292.458-153.532q12.661-13.186,25.773-26.72c60.277-61.456,105.315-102.043,157.344-126.893,56.829-27.147,120.65-34.736,206.924-24.262,66.72,8.016,145.682,43.553,211.177,94.989,67.654,53.039,111.081,114.521,119.586,168.682,10.116,64.528-29.349,114.468-114.141,144.287A1121.5,1121.5,0,0,1,1244.577,560.1a1266.661,1266.661,0,0,0,169.972-44.408Zm14.594-.721c108.826-38.423,123.13-101.161,115.978-146.959-8.634-54.669-52.544-116.739-120.52-170.179-65.947-51.73-145.617-87.481-212.852-95.577-86.984-10.447-151.416-2.886-208.857,24.556-52.512,25.036-97.615,65.677-158.149,127.48-8.86,9.031-17.429,17.982-25.773,26.72C717.521,386.53,637.4,469.922,393.265,417.177c-61.211-13.2-113.659-9.325-156.184,11.49-77.9,38.156-104.413,124.568-117.17,166.091-3.544,11.65-7.249,23.674-9.472,24.369h-1.128l-.226.935C86.18,716.253,92.269,781.9,127.192,815.41c14.787,14.4,37.854,28.67,95.1,28.67,5.058,0,10.341,0,16.108-.347,25.064-1.042,52-15.364,83.182-32.064,36.372-19.345,76.513-40.694,123.324-46.466-47.326,6.76-87.725,29.659-124.387,50.474-31.282,17.742-58.247,33.079-83.44,34.736-40.141,2.672-85.373,1.763-116.687-26.453C82.83,790.32,74.1,723.039,93.848,624.176c2.61-1.443,4.317-7.482,8.57-23.22C114.144,557.189,138.6,466.1,219.394,425.407c43.3-21.857,97.325-25.865,160.5-11.944,54.445,12,101,17.395,141.751,17.395,148.194,0,216.911-72.01,299.159-158.262,8.7-9.111,17.558-18.41,26.675-27.789,54.027-55.577,103.543-103.887,162.176-132s124.161-35.163,212.626-22.979c67.171,9.272,146.906,46.439,213.432,99.665,69.007,55.15,113.433,118.636,121.906,174.213,10.02,65.7-29.8,116.953-115.108,148.242a1008.342,1008.342,0,0,1-180.636,47.695,1117.488,1117.488,0,0,0,167.266-44.676Zm14.594-.722c109.535-40.08,123.968-104.207,116.848-150.86-8.537-56.112-53.286-120.239-122.775-175.683-66.881-53.44-147.293-90.847-215.108-100.333-89.271-12.318-155.507-5.13-214.721,23.273S899.22,187.44,844.968,243.151q-13.788,14.188-26.675,27.9C714.2,380.2,631.987,466.422,380.668,411.059c-64.014-14.108-118.813-9.993-162.853,12.211C135.922,464.525,111.309,556.308,99.453,600.422c-2.8,10.474-5.477,20.414-7.184,21.616H91.238l-.193.989c-20.264,100.066-11.179,168.335,27.029,202.75,25.225,22.739,58.956,28.3,92.042,28.3,9.149,0,18.267-.428,27.126-1.042,25.966-1.763,53.253-17.261,84.857-35.19,37.177-21.109,78.189-44.382,126.255-50.474C399.837,774.5,358.6,799.3,321.165,821.823,289.4,840.954,261.984,857.44,235.825,859.9c-39.69,3.714-89.722,4.168-124.58-25.544C70.459,799.618,58.6,729.8,75.807,626.9c1.9-1.389,3.222-6.386,6.443-20.013,9.665-42.752,32.893-142.844,117.879-187.039C244.974,396.6,301.256,392.328,367.4,407.157c56.539,12.692,104.8,18.383,146.809,18.383,151.416,0,221.744-74.174,305.86-162.991,8.892-9.405,18.105-19.1,27.513-28.857,117.3-121.281,193.007-188.535,385.5-158.636,67.654,10.554,148.484,49.539,215.848,104.207,70.489,57.287,115.753,122.911,124.193,179.8,9.89,66.8-30.251,119.438-116.14,152.063a918.214,918.214,0,0,1-178.542,48.1,1006.085,1006.085,0,0,0,165.3-44.969Zm14.561-.748c87.177-33.133,127.931-86.6,117.847-154.628-8.505-57.528-54.091-123.606-125.063-181.267-67.815-55.123-149.1-94.374-217.459-104.982-91.494-14.242-159.534-7.482-220.552,21.91-60.179,28.964-111.629,79.518-167.846,137.741-9.439,9.753-18.621,19.479-27.545,28.884C710.948,373.758,626.638,462.761,368.2,404.779c-67.01-15.043-124.1-10.688-169.65,12.986C112.437,462.521,89.209,563.388,79.286,606.541c-2.03,8.711-3.9,16.94-5.155,18.437h-.87v1.015c-17.848,103.994-5.606,174.721,35.824,210.125,26.16,22.311,60.47,28.083,92.815,28.083q17.186-.1,34.278-1.79c26.933-2.539,54.767-19.212,86.726-38.53,37.145-22.338,78.092-46.947,126-54-48.324,8.016-89.5,34.2-126.9,57.982-30.96,19.666-60.18,38.236-87.306,41.416-41.591,4.836-94.2,6.439-132.505-24.556C57.991,809,43.2,736.667,57.991,629.707c1.256-1.2,2.062-4.97,4.22-16.3,7.925-41.282,28.995-150.887,118.459-198.742,46.391-24.769,104.96-29.392,174.161-13.547C413.4,414.479,463.3,420.491,506.7,420.491c154.38,0,226.157-76.071,312.014-167.026,9.375-9.94,19.1-20.254,28.995-30.594,121.229-126.679,199.321-196.6,396.259-162.59,68.363,11.864,149.966,52.558,218.329,108.99,71.971,59.425,118.072,127,126.481,185.409,9.665,68-30.766,121.869-117.171,155.83a851.1,851.1,0,0,1-177,48.5,917.38,917.38,0,0,0,163.69-45.5Zm14.594-.721c87.693-34.469,128.865-89.244,118.846-158.4-8.473-58.944-54.768-127.08-127.318-186.879-68.749-56.753-150.933-97.768-219.843-109.551C1150.8,41.63,1080.951,47.936,1018.129,78.29c-61.63,29.766-114.657,82.377-172.646,143.031-9.987,10.341-19.684,20.654-28.995,30.594C707.211,367.719,620.9,459.181,355.8,398.714c-70.038-16.032-129.477-11.329-176.577,13.868C88.532,461.025,67.366,571.431,59.409,612.98a104.85,104.85,0,0,1-3.222,14.749H55.51v1.042c-15.109,108.082,0,181.321,45.1,217.66,27.126,21.964,61.211,27.976,93.427,27.976a360.364,360.364,0,0,0,41.656-2.672c27.9-3.26,57.441-22.017,88.723-41.9,39.046-24.823,82.216-52.264,133.278-58.6-51.546,7.455-94.844,36.366-134.116,62.578-31.507,21.029-61.211,40.908-89.464,44.782-39.98,5.531-98.066,9.112-140.366-23.513-48.1-36.66-65.946-111.582-53.607-222.656.773-1.1,1.224-4.035,2.416-11.97C48.488,581.21,66.5,461.693,161.115,409.375c47.905-26.426,108.923-31.342,181.28-14.562,60.7,14.055,112.241,20.361,157.054,20.361,157.859,0,231.215-78.316,318.94-171.915,9.665-10.234,19.523-20.842,29.7-31.476C973.575,80.16,1054.341,7.429,1254.854,45.424c68.975,13.119,151.416,55.6,220.81,113.666,73.485,61.589,120.392,131.221,128.865,191.074,9.665,69.1-31.282,124.274-118.266,159.571a798.071,798.071,0,0,1-176,49.084,851.955,851.955,0,0,0,162.627-46.038Zm14.594-.722c88.208-35.7,129.767-91.756,119.877-161.922-8.376-60.387-55.605-130.58-129.574-192.543C1408.138,99.1,1325.053,56.379,1255.5,43.153,1053.213,4.73,972,77.889,845.709,210.446c-10.18,10.688-20.1,21.376-29.7,31.5C758.789,302.977,709.37,355.7,639.4,386.236c-76.771,33.427-170.746,35.457-296.163,6.44-73.26-16.967-135.115-11.97-183.632,14.883C63.694,460.25,45.524,580.623,39.564,620.168c-.709,4.783-2.352,11.543-2.352,11.543-12.532,112.223,5.606,187.92,53.93,225.195,28.221,21.8,63.176,27.815,95.36,27.815a347.677,347.677,0,0,0,47.519-3.634c28.995-4.008,59.052-24.048,90.882-45.424,39.69-26.479,83.762-55.764,135.727-62.444-52.545,7.829-96.648,38.557-136.5,66.426-32.216,22.418-62.5,43.607-91.752,48.229-41.623,6.573-102.286,11.409-148.194-22.445-50.966-37.621-71.81-115.162-61.919-230.459a49.356,49.356,0,0,0,.9-6.733c14.272-137.447,72-197.727,117.943-223.859,49.516-28.323,113.047-33.614,188.819-15.685,62.6,14.616,115.785,21.189,161.918,21.189,161.628,0,236.66-80.56,326.317-176.832,9.665-10.474,19.845-21.376,30.154-32.064C978.246,63.968,1061.686-11.489,1265.711,30.728c69.683,14.429,153.188,58.784,223.355,118.342,75,63.754,122.711,135.47,130.959,196.738,9.472,70.246-31.8,126.705-119.2,163.285A753.246,753.246,0,0,1,1325.7,558.846a801.765,801.765,0,0,0,161.789-46.786Zm27.77-3.687a717.468,717.468,0,0,1-175.062,50.661,755.939,755.939,0,0,0,161.725-47.615c88.755-37.087,130.572-94.4,120.971-165.663-8.312-61.83-56.346-134.08-131.8-198.208-70.36-60.12-154.476-104.688-224.643-119.117C1060.59-14.295,976.506,61.616,845.966,199.331c-10.341,10.9-20.425,21.723-30.187,32.2-58.6,62.925-109.213,117.273-180.958,148.589-78.64,34.308-175.288,36.286-304.088,6.172-76.642-18.116-141.01-12.719-191.332,16.032-84.181,48.1-111.307,149.311-119.2,225.7-.226,2.271-.805,5.344-.805,5.344v1.1C9.248,750.828,30.414,829.171,82.186,867.353c29.285,21.616,64.432,27.815,96.649,27.815a347.546,347.546,0,0,0,54.027-4.756c30.025-4.729,60.663-26.132,93.1-48.79,38.434-26.72,80.7-56.325,130.54-65.089-49.871,9.806-92.106,40.534-131.281,69.044-32.764,23.861-63.724,46.386-94.071,51.73C163.338,909.25,112.308,902.276,75.1,875.93,20.749,837.4-3.219,757.187,4.351,637.589h0c0-1.657,2.513-166.972,113.369-235.749,32.216-20.013,70.553-30.033,114.528-30.033a368.334,368.334,0,0,1,85.18,10.848c64.819,15.444,119.747,22.338,167.363,22.338,164.689,0,241.3-82.832,332.825-181.695,10.019-10.688,20.361-22.017,30.96-33.24C915.038,119.705,971,63.38,1035.43,31.824c67.525-33.213,141.944-38.076,241.17-15.791,70.392,15.765,154.863,61.75,225.932,123.045,76.513,65.918,125.031,139.691,133.182,202.43,9.278,71.262-32.377,129-120.456,166.865Z" transform="translate(0.001 0)" fill="#ab0066"/>
      </g>
    </g>
  </g>
</svg>
