<svg xmlns="http://www.w3.org/2000/svg" width="267.73" height="259.73" viewBox="0 0 267.73 259.73">
  <g id="Group_70" data-name="Group 70" transform="translate(-193 -1822)">
    <g id="BACKGROUND2" transform="translate(193 1822)">
      <path id="Path_81" data-name="Path 81" d="M5.369,95.878l74.009,74.009c1.591.618,3.2,1.2,4.828,1.759L3.61,91.05C4.171,92.678,4.751,94.287,5.369,95.878Z" transform="translate(3.145 79.329)" fill="#fff"/>
      <path id="Path_82" data-name="Path 82" d="M1.554,83.863,103.295,185.6c1.254.243,2.489.468,3.743.674L.88,80.12C1.1,81.374,1.31,82.609,1.554,83.863Z" transform="translate(0.767 69.806)" fill="#fff"/>
      <path id="Path_83" data-name="Path 83" d="M.131,74.275l121.5,121.464,3.219.131L0,71A26.762,26.762,0,0,0,.131,74.275Z" transform="translate(0 61.86)" fill="#fff"/>
      <path id="Path_84" data-name="Path 84" d="M.1,65.938,136.815,202.653l2.863-.206L.306,63C.231,64.029.156,64.984.1,65.938Z" transform="translate(0.087 54.89)" fill="#fff"/>
      <path id="Path_85" data-name="Path 85" d="M1.418,55.83c-.15.861-.318,1.722-.468,2.582l148.9,148.9h.393l1.31-1.291Z" transform="translate(0.828 48.643)" fill="#fff"/>
      <path id="Path_86" data-name="Path 86" d="M157.915,204,3.124,49.23c-.225.786-.468,1.591-.674,2.377L156.381,205.537Z" transform="translate(2.135 42.893)" fill="#fff"/>
      <path id="Path_87" data-name="Path 87" d="M163.827,201.628,5.349,43.15c-.3.73-.6,1.46-.879,2.208l157.823,157.8Z" transform="translate(3.895 37.595)" fill="#fff"/>
      <path id="Path_88" data-name="Path 88" d="M169.3,198.87,7.936,37.51,7,39.568,167.929,200.5Z" transform="translate(6.099 32.681)" fill="#fff"/>
      <path id="Path_89" data-name="Path 89" d="M174.494,195.754,11.02,32.28c-.393.636-.786,1.272-1.16,1.871L172.922,197.289Z" transform="translate(8.591 28.125)" fill="#fff"/>
      <path id="Path_90" data-name="Path 90" d="M179.317,192.289,14.44,27.43c-.43.58-.879,1.16-1.31,1.759L177.8,193.861Z" transform="translate(11.44 23.899)" fill="#fff"/>
      <path id="Path_91" data-name="Path 91" d="M183.787,188.537,18.18,22.93c-.487.543-.973,1.067-1.46,1.628L182.253,190.072Z" transform="translate(14.568 19.978)" fill="#fff"/>
      <path id="Path_92" data-name="Path 92" d="M188.023,184.49,22.322,18.77,20.75,20.286,186.488,186.024Z" transform="translate(18.079 16.354)" fill="#fff"/>
      <path id="Path_93" data-name="Path 93" d="M191.932,180.1,26.793,15l-1.7,1.366L190.435,181.711Z" transform="translate(21.86 13.069)" fill="#fff"/>
      <path id="Path_94" data-name="Path 94" d="M195.562,175.461,31.6,11.5,29.73,12.735,193.99,177Z" transform="translate(25.903 10.02)" fill="#fff"/>
      <path id="Path_95" data-name="Path 95" d="M198.826,170.443,36.755,8.41l-1.965,1.1,162.5,162.5Z" transform="translate(30.311 7.327)" fill="#fff"/>
      <path id="Path_96" data-name="Path 96" d="M201.775,165.161,42.343,5.71l-2.133.954L200.241,166.7Z" transform="translate(35.034 4.975)" fill="#fff"/>
      <path id="Path_97" data-name="Path 97" d="M204.369,159.466,48.343,3.44l-2.283.786L202.835,161Z" transform="translate(40.131 2.997)" fill="#fff"/>
      <path id="Path_98" data-name="Path 98" d="M206.527,153.283,54.954,1.71l-2.564.543,152.6,152.6Z" transform="translate(45.646 1.49)" fill="#fff"/>
      <path id="Path_99" data-name="Path 99" d="M205.21,143.678,62,.47,59.27.826,204.855,146.41C204.986,145.55,205.1,144.6,205.21,143.678Z" transform="translate(51.64 0.409)" fill="#fff"/>
      <path id="Path_100" data-name="Path 100" d="M199.494,129.623,69.871,0H66.84l132.6,132.654Q199.494,131.139,199.494,129.623Z" transform="translate(58.236)" fill="#fff"/>
      <path id="Path_101" data-name="Path 101" d="M191.17,113.081,78.763.674C77.622.525,76.48.412,75.32.3L191.545,116.525C191.432,115.364,191.32,114.223,191.17,113.081Z" transform="translate(65.624 0.261)" fill="#fff"/>
      <path id="Path_102" data-name="Path 102" d="M178.808,92.5,89.324,3.017Q87.266,2.455,85.17,1.95l94.7,94.7Q179.37,94.559,178.808,92.5Z" transform="translate(74.206 1.699)" fill="#fff"/>
      <path id="Path_103" data-name="Path 103" d="M157.649,63.1,103.832,9.411c-2-1.067-4.023-2.058-6.082-3.031l62.856,62.856C159.708,67.121,158.716,65.1,157.649,63.1Z" transform="translate(85.167 5.559)" fill="#fff"/>
    </g>
    <g id="BACKGROUND2-2" data-name="BACKGROUND2" transform="translate(460.73 2081.73) rotate(180)">
      <path id="Path_81-2" data-name="Path 81" d="M5.369,95.878l74.009,74.009c1.591.618,3.2,1.2,4.828,1.759L3.61,91.05C4.171,92.678,4.751,94.287,5.369,95.878Z" transform="translate(3.145 79.329)" fill="#fff"/>
      <path id="Path_82-2" data-name="Path 82" d="M1.554,83.863,103.295,185.6c1.254.243,2.489.468,3.743.674L.88,80.12C1.1,81.374,1.31,82.609,1.554,83.863Z" transform="translate(0.767 69.806)" fill="#fff"/>
      <path id="Path_83-2" data-name="Path 83" d="M.131,74.275l121.5,121.464,3.219.131L0,71A26.762,26.762,0,0,0,.131,74.275Z" transform="translate(0 61.86)" fill="#fff"/>
      <path id="Path_84-2" data-name="Path 84" d="M.1,65.938,136.815,202.653l2.863-.206L.306,63C.231,64.029.156,64.984.1,65.938Z" transform="translate(0.087 54.89)" fill="#fff"/>
      <path id="Path_85-2" data-name="Path 85" d="M1.418,55.83c-.15.861-.318,1.722-.468,2.582l148.9,148.9h.393l1.31-1.291Z" transform="translate(0.828 48.643)" fill="#fff"/>
      <path id="Path_86-2" data-name="Path 86" d="M157.915,204,3.124,49.23c-.225.786-.468,1.591-.674,2.377L156.381,205.537Z" transform="translate(2.135 42.893)" fill="#fff"/>
      <path id="Path_87-2" data-name="Path 87" d="M163.827,201.628,5.349,43.15c-.3.73-.6,1.46-.879,2.208l157.823,157.8Z" transform="translate(3.895 37.595)" fill="#fff"/>
      <path id="Path_88-2" data-name="Path 88" d="M169.3,198.87,7.936,37.51,7,39.568,167.929,200.5Z" transform="translate(6.099 32.681)" fill="#fff"/>
      <path id="Path_89-2" data-name="Path 89" d="M174.494,195.754,11.02,32.28c-.393.636-.786,1.272-1.16,1.871L172.922,197.289Z" transform="translate(8.591 28.125)" fill="#fff"/>
      <path id="Path_90-2" data-name="Path 90" d="M179.317,192.289,14.44,27.43c-.43.58-.879,1.16-1.31,1.759L177.8,193.861Z" transform="translate(11.44 23.899)" fill="#fff"/>
      <path id="Path_91-2" data-name="Path 91" d="M183.787,188.537,18.18,22.93c-.487.543-.973,1.067-1.46,1.628L182.253,190.072Z" transform="translate(14.568 19.978)" fill="#fff"/>
      <path id="Path_92-2" data-name="Path 92" d="M188.023,184.49,22.322,18.77,20.75,20.286,186.488,186.024Z" transform="translate(18.079 16.354)" fill="#fff"/>
      <path id="Path_93-2" data-name="Path 93" d="M191.932,180.1,26.793,15l-1.7,1.366L190.435,181.711Z" transform="translate(21.86 13.069)" fill="#fff"/>
      <path id="Path_94-2" data-name="Path 94" d="M195.562,175.461,31.6,11.5,29.73,12.735,193.99,177Z" transform="translate(25.903 10.02)" fill="#fff"/>
      <path id="Path_95-2" data-name="Path 95" d="M198.826,170.443,36.755,8.41l-1.965,1.1,162.5,162.5Z" transform="translate(30.311 7.327)" fill="#fff"/>
      <path id="Path_96-2" data-name="Path 96" d="M201.775,165.161,42.343,5.71l-2.133.954L200.241,166.7Z" transform="translate(35.034 4.975)" fill="#fff"/>
      <path id="Path_97-2" data-name="Path 97" d="M204.369,159.466,48.343,3.44l-2.283.786L202.835,161Z" transform="translate(40.131 2.997)" fill="#fff"/>
      <path id="Path_98-2" data-name="Path 98" d="M206.527,153.283,54.954,1.71l-2.564.543,152.6,152.6Z" transform="translate(45.646 1.49)" fill="#fff"/>
      <path id="Path_99-2" data-name="Path 99" d="M205.21,143.678,62,.47,59.27.826,204.855,146.41C204.986,145.55,205.1,144.6,205.21,143.678Z" transform="translate(51.64 0.409)" fill="#fff"/>
      <path id="Path_100-2" data-name="Path 100" d="M199.494,129.623,69.871,0H66.84l132.6,132.654Q199.494,131.139,199.494,129.623Z" transform="translate(58.236)" fill="#fff"/>
      <path id="Path_101-2" data-name="Path 101" d="M191.17,113.081,78.763.674C77.622.525,76.48.412,75.32.3L191.545,116.525C191.432,115.364,191.32,114.223,191.17,113.081Z" transform="translate(65.624 0.261)" fill="#fff"/>
      <path id="Path_102-2" data-name="Path 102" d="M178.808,92.5,89.324,3.017Q87.266,2.455,85.17,1.95l94.7,94.7Q179.37,94.559,178.808,92.5Z" transform="translate(74.206 1.699)" fill="#fff"/>
      <path id="Path_103-2" data-name="Path 103" d="M157.649,63.1,103.832,9.411c-2-1.067-4.023-2.058-6.082-3.031l62.856,62.856C159.708,67.121,158.716,65.1,157.649,63.1Z" transform="translate(85.167 5.559)" fill="#fff"/>
    </g>
  </g>
</svg>
