<svg xmlns="http://www.w3.org/2000/svg" width="185.75" height="191.522" viewBox="0 0 185.75 191.522">
  <g id="Layer_2" data-name="Layer 2" transform="translate(563.75 -298.269)">
    <g id="BACKGROUND2" transform="translate(-563.75 298.269)">
      <path id="Path_104" data-name="Path 104" d="M26.577,1.892A2.711,2.711,0,0,0,29.1.17c-1.563.191-3.189.383-4.656.638a2.711,2.711,0,0,0,2.137,1.084Z" transform="translate(53.495 0.372)" fill="#fff"/>
      <path id="Path_105" data-name="Path 105" d="M30.9,2.264A2.711,2.711,0,0,0,33.612,0H28.35A2.742,2.742,0,0,0,30.9,2.264Z" transform="translate(62.054)" fill="#fff"/>
      <path id="Path_106" data-name="Path 106" d="M16.488,4.18c-1.307.765-2.583,1.594-3.858,2.424a2.71,2.71,0,0,0,1.18.191A2.742,2.742,0,0,0,16.488,4.18Z" transform="translate(27.645 9.149)" fill="#fff"/>
      <path id="Path_107" data-name="Path 107" d="M18.882,3.3a2.742,2.742,0,1,0,2.742,2.742A2.742,2.742,0,0,0,18.882,3.3Z" transform="translate(35.328 7.223)" fill="#fff"/>
      <circle id="Ellipse_10" data-name="Ellipse 10" cx="2.742" cy="2.742" r="2.742" transform="translate(64.446 10.523)" fill="#fff"/>
      <path id="Path_108" data-name="Path 108" d="M26.992,3.3a2.742,2.742,0,1,0,2.742,2.742A2.742,2.742,0,0,0,26.992,3.3Z" transform="translate(53.079 7.223)" fill="#fff"/>
      <circle id="Ellipse_11" data-name="Ellipse 11" cx="2.742" cy="2.742" r="2.742" transform="translate(90.212 10.523)" fill="#fff"/>
      <path id="Path_109" data-name="Path 109" d="M10.757,13.029A2.711,2.711,0,0,0,11.3,7.64,33.432,33.432,0,0,0,8.11,10.829,2.679,2.679,0,0,0,10.757,13.029Z" transform="translate(17.752 16.723)" fill="#fff"/>
      <path id="Path_110" data-name="Path 110" d="M14.882,7.61a2.742,2.742,0,1,0,2.742,2.742A2.742,2.742,0,0,0,14.882,7.61Z" transform="translate(26.573 16.657)" fill="#fff"/>
      <path id="Path_111" data-name="Path 111" d="M18.882,7.61a2.742,2.742,0,1,0,2.742,2.742A2.742,2.742,0,0,0,18.882,7.61Z" transform="translate(35.328 16.657)" fill="#fff"/>
      <path id="Path_112" data-name="Path 112" d="M22.952,7.61a2.742,2.742,0,1,0,2.742,2.742A2.711,2.711,0,0,0,22.952,7.61Z" transform="translate(44.236 16.657)" fill="#fff"/>
      <path id="Path_113" data-name="Path 113" d="M26.992,7.61a2.742,2.742,0,1,0,2.742,2.742A2.711,2.711,0,0,0,26.992,7.61Z" transform="translate(53.079 16.657)" fill="#fff"/>
      <path id="Path_114" data-name="Path 114" d="M31.032,7.61a2.742,2.742,0,1,0,2.742,2.742A2.711,2.711,0,0,0,31.032,7.61Z" transform="translate(61.922 16.657)" fill="#fff"/>
      <path id="Path_115" data-name="Path 115" d="M6.432,17.23A2.711,2.711,0,0,0,7.166,12Q5.635,14.009,4.2,16.114A2.711,2.711,0,0,0,6.432,17.23Z" transform="translate(9.193 26.266)" fill="#fff"/>
      <path id="Path_116" data-name="Path 116" d="M10.822,11.92a2.742,2.742,0,1,0,2.742,2.742,2.742,2.742,0,0,0-2.742-2.742Z" transform="translate(17.686 26.091)" fill="#fff"/>
      <path id="Path_117" data-name="Path 117" d="M14.882,11.92a2.742,2.742,0,1,0,2.742,2.742,2.742,2.742,0,0,0-2.742-2.742Z" transform="translate(26.573 26.091)" fill="#fff"/>
      <path id="Path_118" data-name="Path 118" d="M18.882,11.92a2.742,2.742,0,1,0,2.742,2.742A2.774,2.774,0,0,0,18.882,11.92Z" transform="translate(35.328 26.091)" fill="#fff"/>
      <path id="Path_119" data-name="Path 119" d="M22.952,11.92a2.742,2.742,0,1,0,2.742,2.742,2.742,2.742,0,0,0-2.742-2.742Z" transform="translate(44.236 26.091)" fill="#fff"/>
      <path id="Path_120" data-name="Path 120" d="M26.992,11.92a2.742,2.742,0,1,0,2.742,2.742A2.742,2.742,0,0,0,26.992,11.92Z" transform="translate(53.079 26.091)" fill="#fff"/>
      <path id="Path_121" data-name="Path 121" d="M31.032,11.92a2.742,2.742,0,1,0,2.742,2.742A2.742,2.742,0,0,0,31.032,11.92Z" transform="translate(61.922 26.091)" fill="#fff"/>
      <path id="Path_122" data-name="Path 122" d="M6.826,16.23a2.774,2.774,0,1,0,2.742,2.742A2.774,2.774,0,0,0,6.826,16.23Z" transform="translate(8.799 35.525)" fill="#fff"/>
      <circle id="Ellipse_12" data-name="Ellipse 12" cx="2.742" cy="2.742" r="2.742" transform="translate(25.766 51.755)" fill="#fff"/>
      <circle id="Ellipse_13" data-name="Ellipse 13" cx="2.742" cy="2.742" r="2.742" transform="translate(38.649 51.755)" fill="#fff"/>
      <path id="Path_123" data-name="Path 123" d="M18.926,16.23a2.774,2.774,0,1,0,2.742,2.742A2.774,2.774,0,0,0,18.926,16.23Z" transform="translate(35.284 35.525)" fill="#fff"/>
      <circle id="Ellipse_14" data-name="Ellipse 14" cx="2.742" cy="2.742" r="2.742" transform="translate(64.446 51.755)" fill="#fff"/>
      <path id="Path_124" data-name="Path 124" d="M27.036,16.23a2.774,2.774,0,1,0,2.742,2.742A2.742,2.742,0,0,0,27.036,16.23Z" transform="translate(53.036 35.525)" fill="#fff"/>
      <circle id="Ellipse_15" data-name="Ellipse 15" cx="2.742" cy="2.742" r="2.742" transform="translate(90.212 51.755)" fill="#fff"/>
      <path id="Path_125" data-name="Path 125" d="M2.3,26.035a2.742,2.742,0,0,0,0-5.485,2.232,2.232,0,0,0-.8.159C1.029,22.113.583,23.548.2,24.982a2.774,2.774,0,0,0,2.1,1.052Z" transform="translate(0.438 44.981)" fill="#fff"/>
      <path id="Path_126" data-name="Path 126" d="M6.782,20.55a2.742,2.742,0,1,0,2.742,2.742A2.742,2.742,0,0,0,6.782,20.55Z" transform="translate(8.843 44.981)" fill="#fff"/>
      <path id="Path_127" data-name="Path 127" d="M10.822,20.55a2.742,2.742,0,1,0,2.742,2.742,2.742,2.742,0,0,0-2.742-2.742Z" transform="translate(17.686 44.981)" fill="#fff"/>
      <path id="Path_128" data-name="Path 128" d="M14.882,20.55a2.742,2.742,0,1,0,2.742,2.742A2.742,2.742,0,0,0,14.882,20.55Z" transform="translate(26.573 44.981)" fill="#fff"/>
      <path id="Path_129" data-name="Path 129" d="M18.882,20.55a2.742,2.742,0,1,0,2.742,2.742,2.742,2.742,0,0,0-2.742-2.742Z" transform="translate(35.328 44.981)" fill="#fff"/>
      <path id="Path_130" data-name="Path 130" d="M22.952,20.55a2.742,2.742,0,1,0,2.742,2.742,2.742,2.742,0,0,0-2.742-2.742Z" transform="translate(44.236 44.981)" fill="#fff"/>
      <path id="Path_131" data-name="Path 131" d="M26.992,20.55a2.742,2.742,0,1,0,2.742,2.742,2.742,2.742,0,0,0-2.742-2.742Z" transform="translate(53.079 44.981)" fill="#fff"/>
      <path id="Path_132" data-name="Path 132" d="M31.032,20.55a2.742,2.742,0,1,0,2.742,2.742A2.742,2.742,0,0,0,31.032,20.55Z" transform="translate(61.922 44.981)" fill="#fff"/>
      <circle id="Ellipse_16" data-name="Ellipse 16" cx="2.742" cy="2.742" r="2.742" transform="translate(0 79.275)" fill="#fff"/>
      <path id="Path_133" data-name="Path 133" d="M6.782,24.86A2.742,2.742,0,1,0,9.525,27.6,2.742,2.742,0,0,0,6.782,24.86Z" transform="translate(8.843 54.415)" fill="#fff"/>
      <circle id="Ellipse_17" data-name="Ellipse 17" cx="2.742" cy="2.742" r="2.742" transform="translate(25.766 79.275)" fill="#fff"/>
      <circle id="Ellipse_18" data-name="Ellipse 18" cx="2.742" cy="2.742" r="2.742" transform="translate(38.649 79.275)" fill="#fff"/>
      <path id="Path_134" data-name="Path 134" d="M18.882,24.86A2.742,2.742,0,1,0,21.625,27.6a2.742,2.742,0,0,0-2.742-2.742Z" transform="translate(35.328 54.415)" fill="#fff"/>
      <circle id="Ellipse_19" data-name="Ellipse 19" cx="2.742" cy="2.742" r="2.742" transform="translate(64.446 79.275)" fill="#fff"/>
      <path id="Path_135" data-name="Path 135" d="M26.992,24.86A2.742,2.742,0,1,0,29.735,27.6a2.742,2.742,0,0,0-2.742-2.742Z" transform="translate(53.079 54.415)" fill="#fff"/>
      <circle id="Ellipse_20" data-name="Ellipse 20" cx="2.742" cy="2.742" r="2.742" transform="translate(90.212 79.275)" fill="#fff"/>
      <circle id="Ellipse_21" data-name="Ellipse 21" cx="2.742" cy="2.742" r="2.742" transform="translate(0 93.018)" fill="#fff"/>
      <path id="Path_136" data-name="Path 136" d="M6.782,29.17a2.742,2.742,0,1,0,2.742,2.742A2.742,2.742,0,0,0,6.782,29.17Z" transform="translate(8.843 63.848)" fill="#fff"/>
      <circle id="Ellipse_22" data-name="Ellipse 22" cx="2.742" cy="2.742" r="2.742" transform="translate(25.766 93.018)" fill="#fff"/>
      <circle id="Ellipse_23" data-name="Ellipse 23" cx="2.742" cy="2.742" r="2.742" transform="translate(38.649 93.018)" fill="#fff"/>
      <path id="Path_137" data-name="Path 137" d="M18.882,29.17a2.742,2.742,0,1,0,2.742,2.742,2.774,2.774,0,0,0-2.742-2.742Z" transform="translate(35.328 63.848)" fill="#fff"/>
      <circle id="Ellipse_24" data-name="Ellipse 24" cx="2.742" cy="2.742" r="2.742" transform="translate(64.446 93.018)" fill="#fff"/>
      <path id="Path_138" data-name="Path 138" d="M26.926,29.171a2.742,2.742,0,1,0,1.968.735,2.742,2.742,0,0,0-1.968-.735Z" transform="translate(53.146 63.847)" fill="#fff"/>
      <circle id="Ellipse_25" data-name="Ellipse 25" cx="2.742" cy="2.742" r="2.742" transform="translate(90.212 93.018)" fill="#fff"/>
      <path id="Path_139" data-name="Path 139" d="M34.869,1.892A2.711,2.711,0,0,0,37.006.808C35.443.553,33.817.361,32.35.17a2.679,2.679,0,0,0,2.519,1.722Z" transform="translate(70.809 0.372)" fill="#fff"/>
      <path id="Path_140" data-name="Path 140" d="M35.022,3.3a2.742,2.742,0,1,0,2.742,2.742A2.742,2.742,0,0,0,35.022,3.3Z" transform="translate(70.656 7.223)" fill="#fff"/>
      <path id="Path_141" data-name="Path 141" d="M39.062,3.3A2.742,2.742,0,1,0,41.8,6.042,2.742,2.742,0,0,0,39.062,3.3Z" transform="translate(79.499 7.223)" fill="#fff"/>
      <circle id="Ellipse_26" data-name="Ellipse 26" cx="2.742" cy="2.742" r="2.742" transform="translate(128.702 10.523)" fill="#fff"/>
      <path id="Path_142" data-name="Path 142" d="M47.121,6.839a2.742,2.742,0,0,0,1.148-.255c-1.276-.829-2.551-1.658-3.858-2.424a2.742,2.742,0,0,0,2.711,2.679Z" transform="translate(97.206 9.106)" fill="#fff"/>
      <path id="Path_143" data-name="Path 143" d="M35.022,7.61a2.742,2.742,0,1,0,2.742,2.742A2.711,2.711,0,0,0,35.022,7.61Z" transform="translate(70.656 16.657)" fill="#fff"/>
      <path id="Path_144" data-name="Path 144" d="M39.062,7.61A2.742,2.742,0,1,0,41.8,10.352,2.742,2.742,0,0,0,39.062,7.61Z" transform="translate(79.499 16.657)" fill="#fff"/>
      <path id="Path_145" data-name="Path 145" d="M43.1,7.61a2.742,2.742,0,1,0,2.742,2.742A2.742,2.742,0,0,0,43.1,7.61Z" transform="translate(88.342 16.657)" fill="#fff"/>
      <path id="Path_146" data-name="Path 146" d="M47.142,7.61a2.742,2.742,0,1,0,2.742,2.742A2.742,2.742,0,0,0,47.142,7.61Z" transform="translate(97.185 16.657)" fill="#fff"/>
      <path id="Path_147" data-name="Path 147" d="M48.445,10.4a2.717,2.717,0,0,0,5.421.383c-1.052-1.052-2.1-2.041-3.189-3.189A2.711,2.711,0,0,0,48.445,10.4Z" transform="translate(106.023 16.613)" fill="#fff"/>
      <path id="Path_148" data-name="Path 148" d="M35.022,11.92a2.742,2.742,0,1,0,2.742,2.742A2.742,2.742,0,0,0,35.022,11.92Z" transform="translate(70.656 26.091)" fill="#fff"/>
      <path id="Path_149" data-name="Path 149" d="M39.062,11.92A2.742,2.742,0,1,0,41.8,14.662a2.742,2.742,0,0,0-2.742-2.742Z" transform="translate(79.499 26.091)" fill="#fff"/>
      <path id="Path_150" data-name="Path 150" d="M43.1,11.92a2.742,2.742,0,1,0,2.742,2.742A2.742,2.742,0,0,0,43.1,11.92Z" transform="translate(88.342 26.091)" fill="#fff"/>
      <path id="Path_151" data-name="Path 151" d="M47.142,11.92a2.742,2.742,0,1,0,2.742,2.742,2.742,2.742,0,0,0-2.742-2.742Z" transform="translate(97.185 26.091)" fill="#fff"/>
      <path id="Path_152" data-name="Path 152" d="M51.161,11.92a2.742,2.742,0,1,0,2.774,2.742,2.774,2.774,0,0,0-2.774-2.742Z" transform="translate(106.049 26.091)" fill="#fff"/>
      <path id="Path_153" data-name="Path 153" d="M52.49,14.553A2.711,2.711,0,0,0,55.233,17.3a2.615,2.615,0,0,0,2.2-1.212c-.925-1.4-1.913-2.774-2.934-4.114a2.711,2.711,0,0,0-2.009,2.583Z" transform="translate(114.892 26.2)" fill="#fff"/>
      <path id="Path_154" data-name="Path 154" d="M35.066,16.23a2.774,2.774,0,1,0,2.742,2.742,2.742,2.742,0,0,0-2.742-2.742Z" transform="translate(70.612 35.525)" fill="#fff"/>
      <path id="Path_155" data-name="Path 155" d="M39.106,16.23a2.774,2.774,0,1,0,2.742,2.742,2.774,2.774,0,0,0-2.742-2.742Z" transform="translate(79.455 35.525)" fill="#fff"/>
      <circle id="Ellipse_27" data-name="Ellipse 27" cx="2.742" cy="2.742" r="2.742" transform="translate(128.702 51.755)" fill="#fff"/>
      <path id="Path_156" data-name="Path 156" d="M47.186,16.23a2.774,2.774,0,1,0,2.742,2.742A2.774,2.774,0,0,0,47.186,16.23Z" transform="translate(97.141 35.525)" fill="#fff"/>
      <path id="Path_157" data-name="Path 157" d="M51.2,16.23a2.774,2.774,0,1,0,2.774,2.742A2.774,2.774,0,0,0,51.2,16.23Z" transform="translate(106.006 35.525)" fill="#fff"/>
      <path id="Path_158" data-name="Path 158" d="M55.276,16.23a2.774,2.774,0,1,0,2.742,2.742A2.742,2.742,0,0,0,55.276,16.23Z" transform="translate(114.849 35.525)" fill="#fff"/>
      <path id="Path_159" data-name="Path 159" d="M35.022,20.55a2.742,2.742,0,1,0,2.742,2.742A2.742,2.742,0,0,0,35.022,20.55Z" transform="translate(70.656 44.981)" fill="#fff"/>
      <path id="Path_160" data-name="Path 160" d="M39.062,20.55A2.742,2.742,0,1,0,41.8,23.292a2.742,2.742,0,0,0-2.742-2.742Z" transform="translate(79.499 44.981)" fill="#fff"/>
      <path id="Path_161" data-name="Path 161" d="M43.1,20.55a2.742,2.742,0,1,0,2.742,2.742A2.742,2.742,0,0,0,43.1,20.55Z" transform="translate(88.342 44.981)" fill="#fff"/>
      <path id="Path_162" data-name="Path 162" d="M47.142,20.55a2.742,2.742,0,1,0,2.742,2.742A2.742,2.742,0,0,0,47.142,20.55Z" transform="translate(97.185 44.981)" fill="#fff"/>
      <path id="Path_163" data-name="Path 163" d="M51.161,20.55a2.742,2.742,0,1,0,1.96.792A2.742,2.742,0,0,0,51.161,20.55Z" transform="translate(106.049 44.981)" fill="#fff"/>
      <path id="Path_164" data-name="Path 164" d="M55.232,20.55a2.742,2.742,0,1,0,2.742,2.742A2.742,2.742,0,0,0,55.232,20.55Z" transform="translate(114.892 44.981)" fill="#fff"/>
      <path id="Path_165" data-name="Path 165" d="M56.53,23.293a2.742,2.742,0,0,0,2.742,2.742,2.774,2.774,0,0,0,2.1-1.052c-.415-1.435-.829-2.87-1.307-4.273a2.232,2.232,0,0,0-.8-.159,2.711,2.711,0,0,0-2.742,2.742Z" transform="translate(123.735 44.981)" fill="#fff"/>
      <path id="Path_166" data-name="Path 166" d="M35.022,24.86A2.742,2.742,0,1,0,37.765,27.6a2.742,2.742,0,0,0-2.742-2.742Z" transform="translate(70.656 54.415)" fill="#fff"/>
      <path id="Path_167" data-name="Path 167" d="M39.062,24.86A2.742,2.742,0,1,0,41.8,27.6a2.742,2.742,0,0,0-2.742-2.742Z" transform="translate(79.499 54.415)" fill="#fff"/>
      <circle id="Ellipse_28" data-name="Ellipse 28" cx="2.742" cy="2.742" r="2.742" transform="translate(128.702 79.275)" fill="#fff"/>
      <path id="Path_168" data-name="Path 168" d="M47.142,24.86A2.742,2.742,0,1,0,49.885,27.6,2.742,2.742,0,0,0,47.142,24.86Z" transform="translate(97.185 54.415)" fill="#fff"/>
      <path id="Path_169" data-name="Path 169" d="M51.161,24.86a2.742,2.742,0,1,0,1.96.792A2.742,2.742,0,0,0,51.161,24.86Z" transform="translate(106.049 54.414)" fill="#fff"/>
      <path id="Path_170" data-name="Path 170" d="M55.232,24.86A2.742,2.742,0,1,0,57.975,27.6a2.742,2.742,0,0,0-2.742-2.742Z" transform="translate(114.892 54.415)" fill="#fff"/>
      <path id="Path_171" data-name="Path 171" d="M59.272,24.86A2.742,2.742,0,1,0,62.015,27.6a2.742,2.742,0,0,0-2.742-2.742Z" transform="translate(123.735 54.415)" fill="#fff"/>
      <path id="Path_172" data-name="Path 172" d="M35.021,29.17a2.742,2.742,0,1,0,2.742,2.647,2.742,2.742,0,0,0-2.742-2.647Z" transform="translate(70.657 63.848)" fill="#fff"/>
      <path id="Path_173" data-name="Path 173" d="M39.062,29.17A2.742,2.742,0,1,0,41.8,31.912a2.742,2.742,0,0,0-2.742-2.742Z" transform="translate(79.499 63.848)" fill="#fff"/>
      <circle id="Ellipse_29" data-name="Ellipse 29" cx="2.742" cy="2.742" r="2.742" transform="translate(128.702 93.018)" fill="#fff"/>
      <path id="Path_174" data-name="Path 174" d="M47.142,29.17a2.742,2.742,0,1,0,2.742,2.742,2.742,2.742,0,0,0-2.742-2.742Z" transform="translate(97.185 63.848)" fill="#fff"/>
      <path id="Path_175" data-name="Path 175" d="M51.161,29.17a2.742,2.742,0,1,0,2.774,2.742,2.774,2.774,0,0,0-2.774-2.742Z" transform="translate(106.049 63.848)" fill="#fff"/>
      <path id="Path_176" data-name="Path 176" d="M55.232,29.17a2.742,2.742,0,1,0,2.742,2.742,2.742,2.742,0,0,0-2.742-2.742Z" transform="translate(114.892 63.848)" fill="#fff"/>
      <path id="Path_177" data-name="Path 177" d="M59.272,29.17a2.742,2.742,0,1,0,2.742,2.742,2.742,2.742,0,0,0-2.742-2.742Z" transform="translate(123.735 63.848)" fill="#fff"/>
      <circle id="Ellipse_30" data-name="Ellipse 30" cx="2.742" cy="2.742" r="2.742" transform="translate(0 106.826)" fill="#fff"/>
      <path id="Path_178" data-name="Path 178" d="M6.782,33.5a2.742,2.742,0,1,0,2.742,2.742A2.742,2.742,0,0,0,6.782,33.5Z" transform="translate(8.843 73.326)" fill="#fff"/>
      <circle id="Ellipse_31" data-name="Ellipse 31" cx="2.742" cy="2.742" r="2.742" transform="translate(25.766 106.826)" fill="#fff"/>
      <circle id="Ellipse_32" data-name="Ellipse 32" cx="2.742" cy="2.742" r="2.742" transform="translate(38.649 106.826)" fill="#fff"/>
      <path id="Path_179" data-name="Path 179" d="M18.882,33.5a2.742,2.742,0,1,0,2.742,2.742A2.774,2.774,0,0,0,18.882,33.5Z" transform="translate(35.328 73.326)" fill="#fff"/>
      <circle id="Ellipse_33" data-name="Ellipse 33" cx="2.742" cy="2.742" r="2.742" transform="translate(64.446 106.826)" fill="#fff"/>
      <path id="Path_180" data-name="Path 180" d="M26.992,33.5a2.742,2.742,0,1,0,2.742,2.742A2.742,2.742,0,0,0,26.992,33.5Z" transform="translate(53.079 73.326)" fill="#fff"/>
      <circle id="Ellipse_34" data-name="Ellipse 34" cx="2.742" cy="2.742" r="2.742" transform="translate(90.212 106.826)" fill="#fff"/>
      <path id="Path_181" data-name="Path 181" d="M5.047,40.552A2.742,2.742,0,0,0,2.3,37.81,2.774,2.774,0,0,0,.2,38.862c.383,1.435.829,2.87,1.307,4.273a2.232,2.232,0,0,0,.8.159,2.711,2.711,0,0,0,2.742-2.742Z" transform="translate(0.438 82.76)" fill="#fff"/>
      <path id="Path_182" data-name="Path 182" d="M6.782,37.81a2.742,2.742,0,1,0,2.742,2.742A2.742,2.742,0,0,0,6.782,37.81Z" transform="translate(8.843 82.76)" fill="#fff"/>
      <circle id="Ellipse_35" data-name="Ellipse 35" cx="2.742" cy="2.742" r="2.742" transform="translate(25.766 120.57)" fill="#fff"/>
      <circle id="Ellipse_36" data-name="Ellipse 36" cx="2.742" cy="2.742" r="2.742" transform="translate(38.649 120.57)" fill="#fff"/>
      <path id="Path_183" data-name="Path 183" d="M18.882,37.81a2.742,2.742,0,1,0,2.742,2.742A2.774,2.774,0,0,0,18.882,37.81Z" transform="translate(35.328 82.76)" fill="#fff"/>
      <circle id="Ellipse_37" data-name="Ellipse 37" cx="2.742" cy="2.742" r="2.742" transform="translate(64.446 120.57)" fill="#fff"/>
      <path id="Path_184" data-name="Path 184" d="M26.992,37.81a2.742,2.742,0,1,0,2.742,2.742A2.742,2.742,0,0,0,26.992,37.81Z" transform="translate(53.079 82.76)" fill="#fff"/>
      <circle id="Ellipse_38" data-name="Ellipse 38" cx="2.742" cy="2.742" r="2.742" transform="translate(90.212 120.57)" fill="#fff"/>
      <path id="Path_185" data-name="Path 185" d="M6.826,42.12a2.774,2.774,0,1,0,2.742,2.742A2.774,2.774,0,0,0,6.826,42.12Z" transform="translate(8.799 92.194)" fill="#fff"/>
      <circle id="Ellipse_39" data-name="Ellipse 39" cx="2.742" cy="2.742" r="2.742" transform="translate(25.766 134.314)" fill="#fff"/>
      <circle id="Ellipse_40" data-name="Ellipse 40" cx="2.742" cy="2.742" r="2.742" transform="translate(38.649 134.314)" fill="#fff"/>
      <path id="Path_186" data-name="Path 186" d="M18.926,42.12a2.774,2.774,0,1,0,2.742,2.742A2.774,2.774,0,0,0,18.926,42.12Z" transform="translate(35.284 92.194)" fill="#fff"/>
      <circle id="Ellipse_41" data-name="Ellipse 41" cx="2.742" cy="2.742" r="2.742" transform="translate(64.446 134.314)" fill="#fff"/>
      <path id="Path_187" data-name="Path 187" d="M26.97,42.121a2.774,2.774,0,1,0,2.838,2.806,2.742,2.742,0,0,0-2.838-2.806Z" transform="translate(53.101 92.193)" fill="#fff"/>
      <circle id="Ellipse_42" data-name="Ellipse 42" cx="2.742" cy="2.742" r="2.742" transform="translate(90.212 134.314)" fill="#fff"/>
      <path id="Path_188" data-name="Path 188" d="M9.175,49.189A2.711,2.711,0,0,0,4.2,47.658q1.435,2.1,2.966,4.114a2.711,2.711,0,0,0,2.009-2.583Z" transform="translate(9.193 101.643)" fill="#fff"/>
      <circle id="Ellipse_43" data-name="Ellipse 43" cx="2.742" cy="2.742" r="2.742" transform="translate(25.766 148.09)" fill="#fff"/>
      <circle id="Ellipse_44" data-name="Ellipse 44" cx="2.742" cy="2.742" r="2.742" transform="translate(38.649 148.09)" fill="#fff"/>
      <path id="Path_189" data-name="Path 189" d="M18.882,46.44a2.742,2.742,0,1,0,2.742,2.742,2.742,2.742,0,0,0-2.742-2.742Z" transform="translate(35.328 101.65)" fill="#fff"/>
      <circle id="Ellipse_45" data-name="Ellipse 45" cx="2.742" cy="2.742" r="2.742" transform="translate(64.446 148.09)" fill="#fff"/>
      <path id="Path_190" data-name="Path 190" d="M26.992,46.44a2.742,2.742,0,1,0,2.742,2.742,2.742,2.742,0,0,0-2.742-2.742Z" transform="translate(53.079 101.65)" fill="#fff"/>
      <circle id="Ellipse_46" data-name="Ellipse 46" cx="2.742" cy="2.742" r="2.742" transform="translate(90.212 148.09)" fill="#fff"/>
      <path id="Path_191" data-name="Path 191" d="M13.5,53.493a2.711,2.711,0,0,0-2.742-2.742A2.679,2.679,0,0,0,8.11,53.11c1.02,1.052,2.1,2.041,3.189,3.029A2.711,2.711,0,0,0,13.5,53.493Z" transform="translate(17.752 111.084)" fill="#fff"/>
      <circle id="Ellipse_47" data-name="Ellipse 47" cx="2.742" cy="2.742" r="2.742" transform="translate(38.649 161.834)" fill="#fff"/>
      <path id="Path_192" data-name="Path 192" d="M18.882,50.75a2.742,2.742,0,1,0,2.742,2.742,2.742,2.742,0,0,0-2.742-2.742Z" transform="translate(35.328 111.084)" fill="#fff"/>
      <circle id="Ellipse_48" data-name="Ellipse 48" cx="2.742" cy="2.742" r="2.742" transform="translate(64.446 161.834)" fill="#fff"/>
      <path id="Path_193" data-name="Path 193" d="M26.992,50.75a2.742,2.742,0,1,0,2.742,2.742,2.742,2.742,0,0,0-2.742-2.742Z" transform="translate(53.079 111.084)" fill="#fff"/>
      <circle id="Ellipse_49" data-name="Ellipse 49" cx="2.742" cy="2.742" r="2.742" transform="translate(90.212 161.834)" fill="#fff"/>
      <path id="Path_194" data-name="Path 194" d="M13.766,55.06a2.711,2.711,0,0,0-1.116.255c1.276.829,2.551,1.658,3.858,2.424A2.742,2.742,0,0,0,13.766,55.06Z" transform="translate(27.689 120.518)" fill="#fff"/>
      <path id="Path_195" data-name="Path 195" d="M18.882,55.06A2.742,2.742,0,1,0,21.625,57.8,2.774,2.774,0,0,0,18.882,55.06Z" transform="translate(35.328 120.518)" fill="#fff"/>
      <path id="Path_196" data-name="Path 196" d="M22.952,55.06A2.742,2.742,0,1,0,25.695,57.8a2.742,2.742,0,0,0-2.742-2.742Z" transform="translate(44.236 120.518)" fill="#fff"/>
      <path id="Path_197" data-name="Path 197" d="M26.992,55.06A2.742,2.742,0,1,0,29.735,57.8a2.742,2.742,0,0,0-2.742-2.742Z" transform="translate(53.079 120.518)" fill="#fff"/>
      <path id="Path_198" data-name="Path 198" d="M31.032,55.06A2.742,2.742,0,1,0,33.775,57.8,2.742,2.742,0,0,0,31.032,55.06Z" transform="translate(61.922 120.518)" fill="#fff"/>
      <path id="Path_199" data-name="Path 199" d="M26.577,59.37a2.711,2.711,0,0,0-2.137,1.084c1.531.255,3.189.446,4.656.638A2.711,2.711,0,0,0,26.577,59.37Z" transform="translate(53.495 129.951)" fill="#fff"/>
      <path id="Path_200" data-name="Path 200" d="M30.967,59.37a2.742,2.742,0,0,0-2.647,2.2h5.262A2.711,2.711,0,0,0,30.967,59.37Z" transform="translate(61.988 129.951)" fill="#fff"/>
      <path id="Path_201" data-name="Path 201" d="M35.022,33.5a2.742,2.742,0,1,0,2.742,2.742A2.742,2.742,0,0,0,35.022,33.5Z" transform="translate(70.656 73.326)" fill="#fff"/>
      <path id="Path_202" data-name="Path 202" d="M39.062,33.5A2.742,2.742,0,1,0,41.8,36.242,2.742,2.742,0,0,0,39.062,33.5Z" transform="translate(79.499 73.326)" fill="#fff"/>
      <circle id="Ellipse_50" data-name="Ellipse 50" cx="2.742" cy="2.742" r="2.742" transform="translate(128.702 106.826)" fill="#fff"/>
      <path id="Path_203" data-name="Path 203" d="M47.142,33.5a2.742,2.742,0,1,0,2.742,2.742A2.742,2.742,0,0,0,47.142,33.5Z" transform="translate(97.185 73.326)" fill="#fff"/>
      <path id="Path_204" data-name="Path 204" d="M51.161,33.5a2.742,2.742,0,1,0,2.774,2.742A2.774,2.774,0,0,0,51.161,33.5Z" transform="translate(106.049 73.326)" fill="#fff"/>
      <path id="Path_205" data-name="Path 205" d="M55.232,33.5a2.742,2.742,0,1,0,2.742,2.742A2.742,2.742,0,0,0,55.232,33.5Z" transform="translate(114.892 73.326)" fill="#fff"/>
      <path id="Path_206" data-name="Path 206" d="M59.272,33.5a2.742,2.742,0,1,0,2.742,2.742A2.742,2.742,0,0,0,59.272,33.5Z" transform="translate(123.735 73.326)" fill="#fff"/>
      <path id="Path_207" data-name="Path 207" d="M35.022,37.81a2.742,2.742,0,1,0,2.742,2.742A2.742,2.742,0,0,0,35.022,37.81Z" transform="translate(70.656 82.76)" fill="#fff"/>
      <path id="Path_208" data-name="Path 208" d="M39.062,37.81A2.742,2.742,0,1,0,41.8,40.552a2.742,2.742,0,0,0-2.742-2.742Z" transform="translate(79.499 82.76)" fill="#fff"/>
      <circle id="Ellipse_51" data-name="Ellipse 51" cx="2.742" cy="2.742" r="2.742" transform="translate(128.702 120.57)" fill="#fff"/>
      <path id="Path_209" data-name="Path 209" d="M47.142,37.81a2.742,2.742,0,1,0,2.742,2.742,2.742,2.742,0,0,0-2.742-2.742Z" transform="translate(97.185 82.76)" fill="#fff"/>
      <path id="Path_210" data-name="Path 210" d="M51.161,37.81a2.742,2.742,0,1,0,2.774,2.742,2.774,2.774,0,0,0-2.774-2.742Z" transform="translate(106.049 82.76)" fill="#fff"/>
      <path id="Path_211" data-name="Path 211" d="M55.232,37.81a2.742,2.742,0,1,0,2.742,2.742A2.742,2.742,0,0,0,55.232,37.81Z" transform="translate(114.892 82.76)" fill="#fff"/>
      <path id="Path_212" data-name="Path 212" d="M59.272,37.81a2.742,2.742,0,1,0,0,5.485,2.232,2.232,0,0,0,.8-.159c.478-1.4.893-2.838,1.307-4.273A2.774,2.774,0,0,0,59.272,37.81Z" transform="translate(123.735 82.76)" fill="#fff"/>
      <path id="Path_213" data-name="Path 213" d="M35.066,42.12a2.774,2.774,0,1,0,2.742,2.806,2.742,2.742,0,0,0-2.742-2.806Z" transform="translate(70.612 92.194)" fill="#fff"/>
      <path id="Path_214" data-name="Path 214" d="M39.194,42.123a2.774,2.774,0,1,0,2.615,2.806,2.774,2.774,0,0,0-2.615-2.806Z" transform="translate(79.368 92.191)" fill="#fff"/>
      <circle id="Ellipse_52" data-name="Ellipse 52" cx="2.742" cy="2.742" r="2.742" transform="translate(128.702 134.314)" fill="#fff"/>
      <path id="Path_215" data-name="Path 215" d="M47.186,42.12a2.774,2.774,0,1,0,2.742,2.742A2.774,2.774,0,0,0,47.186,42.12Z" transform="translate(97.141 92.194)" fill="#fff"/>
      <path id="Path_216" data-name="Path 216" d="M51.2,42.12a2.774,2.774,0,1,0,2.774,2.742A2.774,2.774,0,0,0,51.2,42.12Z" transform="translate(106.006 92.194)" fill="#fff"/>
      <path id="Path_217" data-name="Path 217" d="M55.276,42.12a2.774,2.774,0,1,0,2.742,2.742A2.742,2.742,0,0,0,55.276,42.12Z" transform="translate(114.849 92.194)" fill="#fff"/>
      <path id="Path_218" data-name="Path 218" d="M35.022,46.44a2.742,2.742,0,1,0,2.742,2.742A2.742,2.742,0,0,0,35.022,46.44Z" transform="translate(70.656 101.65)" fill="#fff"/>
      <path id="Path_219" data-name="Path 219" d="M39.062,46.44A2.742,2.742,0,1,0,41.8,49.182a2.742,2.742,0,0,0-2.742-2.742Z" transform="translate(79.499 101.65)" fill="#fff"/>
      <circle id="Ellipse_53" data-name="Ellipse 53" cx="2.742" cy="2.742" r="2.742" transform="translate(128.702 148.09)" fill="#fff"/>
      <path id="Path_220" data-name="Path 220" d="M47.142,46.44a2.742,2.742,0,1,0,2.742,2.742A2.742,2.742,0,0,0,47.142,46.44Z" transform="translate(97.185 101.65)" fill="#fff"/>
      <path id="Path_221" data-name="Path 221" d="M51.161,46.44a2.742,2.742,0,1,0,1.96.792,2.742,2.742,0,0,0-1.96-.792Z" transform="translate(106.049 101.65)" fill="#fff"/>
      <path id="Path_222" data-name="Path 222" d="M55.224,46.44a2.711,2.711,0,0,0-.733,5.325c1.02-1.339,2.009-2.711,2.934-4.114A2.615,2.615,0,0,0,55.224,46.44Z" transform="translate(114.9 101.65)" fill="#fff"/>
      <path id="Path_223" data-name="Path 223" d="M35.022,50.75a2.742,2.742,0,1,0,2.742,2.742A2.742,2.742,0,0,0,35.022,50.75Z" transform="translate(70.656 111.084)" fill="#fff"/>
      <path id="Path_224" data-name="Path 224" d="M39.062,50.75A2.742,2.742,0,1,0,41.8,53.492a2.742,2.742,0,0,0-2.742-2.742Z" transform="translate(79.499 111.084)" fill="#fff"/>
      <circle id="Ellipse_54" data-name="Ellipse 54" cx="2.742" cy="2.742" r="2.742" transform="translate(128.702 161.834)" fill="#fff"/>
      <path id="Path_225" data-name="Path 225" d="M47.142,50.75a2.742,2.742,0,1,0,2.742,2.742A2.742,2.742,0,0,0,47.142,50.75Z" transform="translate(97.185 111.084)" fill="#fff"/>
      <path id="Path_226" data-name="Path 226" d="M51.182,50.75a2.742,2.742,0,0,0-2.742,2.742,2.71,2.71,0,0,0,2.232,2.647c1.084-.989,2.137-1.977,3.189-3.029A2.711,2.711,0,0,0,51.182,50.75Z" transform="translate(106.027 111.084)" fill="#fff"/>
      <path id="Path_227" data-name="Path 227" d="M35.022,55.06A2.742,2.742,0,1,0,37.765,57.8,2.742,2.742,0,0,0,35.022,55.06Z" transform="translate(70.656 120.518)" fill="#fff"/>
      <path id="Path_228" data-name="Path 228" d="M39.062,55.06A2.742,2.742,0,1,0,41.8,57.8a2.742,2.742,0,0,0-2.742-2.742Z" transform="translate(79.499 120.518)" fill="#fff"/>
      <path id="Path_229" data-name="Path 229" d="M43.1,55.06A2.742,2.742,0,1,0,45.845,57.8,2.742,2.742,0,0,0,43.1,55.06Z" transform="translate(88.342 120.518)" fill="#fff"/>
      <path id="Path_230" data-name="Path 230" d="M44.41,57.739c1.307-.765,2.583-1.594,3.858-2.424a2.742,2.742,0,0,0-1.148-.255,2.711,2.711,0,0,0-2.711,2.679Z" transform="translate(97.206 120.518)" fill="#fff"/>
      <path id="Path_231" data-name="Path 231" d="M34.869,59.37a2.679,2.679,0,0,0-2.519,1.722c1.563-.191,3.189-.383,4.656-.638a2.711,2.711,0,0,0-2.137-1.084Z" transform="translate(70.809 129.951)" fill="#fff"/>
    </g>
  </g>
</svg>
