<svg xmlns="http://www.w3.org/2000/svg" width="318.662" height="261.534" viewBox="0 0 318.662 261.534">
  <g id="Group_89" data-name="Group 89" transform="translate(258.129 -1694.183)">
    <path id="Path_232" data-name="Path 232" d="M251.789,65.98c-10.672,0-15.857-9.023-20.435-16.833s-8.013-13.9-15.116-13.9-10.773,6.43-15.049,13.9-9.8,16.833-20.469,16.833-15.857-9.023-20.435-16.833-7.979-13.9-15.082-13.9-10.807,6.43-15.082,13.9S120.357,65.98,109.684,65.98s-15.89-9.023-20.469-16.833-7.979-14.072-15.15-14.072-10.807,6.43-15.116,13.9S49.186,65.812,38.514,65.812,22.657,56.789,18.079,48.979,10.1,35.075,3.1,35.075a3.1,3.1,0,1,1,0-6.195c10.672,0,15.857,9.056,20.435,17s7.979,13.9,15.082,13.9,10.807-6.43,15.082-13.9,9.8-17,20.469-17,15.857,9.056,20.435,17,7.979,13.9,15.082,13.9,10.773-6.43,15.082-13.9,9.763-17,20.435-17,15.857,9.056,20.435,17,7.979,13.9,15.082,13.9,10.807-6.43,15.082-13.9,9.8-17,20.435-17,15.89,9.056,20.469,17,7.979,13.9,15.082,13.9,10.807-6.43,15.082-13.9,9.763-17,20.435-17a3.1,3.1,0,1,1,0,6.195c-7.1,0-10.807,6.43-15.082,13.9S262.6,65.98,251.789,65.98Z" transform="translate(-225.138 1753.374) rotate(30)" fill="#fff"/>
    <path id="Path_233" data-name="Path 233" d="M251.789,51.54c-10.672,0-15.857-9.056-20.435-17s-8.013-13.9-15.116-13.9-10.773,6.43-15.049,13.9-9.8,17-20.469,17-15.756-9.056-20.435-17-7.979-13.9-15.082-13.9-10.807,6.43-15.082,13.9-9.763,17-20.435,17-15.89-9.056-20.469-17-7.979-13.9-15.15-13.9-10.807,6.43-15.116,13.9-9.763,17-20.435,17-15.756-9.056-20.334-17S10.1,20.635,3.1,20.635a3.1,3.1,0,0,1,0-6.195c10.672,0,15.857,9.056,20.435,16.833s7.979,13.9,15.082,13.9,10.807-6.43,15.082-13.9,9.8-16.833,20.469-16.833S90.023,23.463,94.6,31.273s7.979,13.9,15.082,13.9,10.773-6.43,15.082-13.9S134.53,14.44,145.2,14.44s15.857,9.056,20.435,16.833,7.979,13.9,15.082,13.9,10.807-6.43,15.082-13.9,9.8-16.833,20.435-16.833,15.89,9.056,20.469,16.833,7.979,13.9,15.082,13.9,10.807-6.43,15.082-13.9,9.763-16.833,20.435-16.833a3.1,3.1,0,1,1,0,6.195c-7.1,0-10.807,6.43-15.082,13.9S262.6,51.54,251.789,51.54Z" transform="translate(-208.051 1723.779) rotate(30)" fill="#fff"/>
    <path id="Path_234" data-name="Path 234" d="M251.789,37.033c-10.672,0-15.857-9.056-20.435-16.833S223.341,6.3,216.238,6.3s-10.874,6.329-15.049,13.9-9.8,16.833-20.469,16.833S164.964,28.044,160.285,20.2,152.306,6.3,145.2,6.3,134.4,12.625,130.12,20.2s-9.763,16.833-20.435,16.833S93.794,28.044,89.215,20.2,81.236,6.195,74.066,6.195,63.36,12.625,59.05,20.2,49.287,37.033,38.615,37.033,22.758,28.044,18.18,20.2,10.1,6.195,3.1,6.195A3.1,3.1,0,1,1,3.1,0C13.769,0,18.954,9.023,23.566,17c4.276,7.474,7.979,13.9,15.082,13.9S49.422,24.475,53.866,17s9.629-17,20.2-17S89.922,9.023,94.5,17c4.276,7.474,7.979,13.9,15.082,13.9s10.773-6.43,15.082-13.9,10-17,20.536-17,15.857,9.023,20.435,17c4.309,7.474,7.979,13.9,15.082,13.9S191.527,24.475,195.8,17,205.6.168,216.238.168,232.3,9.023,236.707,17c4.276,7.474,7.979,13.9,15.082,13.9S262.6,24.475,266.872,17,276.635.168,287.307.168a3.1,3.1,0,1,1,0,6.195c-7.1,0-10.807,6.43-15.082,13.9S262.6,37.033,251.789,37.033Z" transform="translate(-190.965 1694.183) rotate(30)" fill="#fff"/>
  </g>
</svg>
