<svg xmlns="http://www.w3.org/2000/svg" viewBox="0 0 1100.7 1693.93"><defs><style>.cls-1{fill:#fff;}</style></defs><g id="Layer_2" data-name="Layer 2"><g id="_1" data-name="1"><path class="cls-1" d="M892.88,540.28a15.89,15.89,0,0,0-10.25-5.12A22.51,22.51,0,0,0,869.89,538a49.22,49.22,0,0,0-10.69,8.26q-4.82,4.63-9.15,9.73a138.51,138.51,0,0,0-15.13,21.61,140.9,140.9,0,0,0-10.78,24c-.37,1.06-.71,2.13-1,3.2-.25.8,1,1.14,1.25.34a136.42,136.42,0,0,1,9.94-23.51,140.05,140.05,0,0,1,14.1-21.27q4-5,8.44-9.55a79.21,79.21,0,0,1,9.62-8.78,26.16,26.16,0,0,1,11.74-5.22,15.4,15.4,0,0,1,11.56,2.7c5.66,4.31,7.3,12.07,8.18,18.72.11.86.24,1.73.34,2.59s1.48.93,1.42,0C899.21,553.76,897.82,545.75,892.88,540.28Z"/><path class="cls-1" d="M590.23,290.86c-5,8.58-9.86,17.21-14.75,25.83q-2.1,3.69-4.18,7.38a.77.77,0,0,0,1.33.78q7.32-12.94,14.6-25.92,2.07-3.71,4.12-7.42A.65.65,0,0,0,590.23,290.86Z"/><path class="cls-1" d="M676.68,212.78c-2.09,10.39-4.18,20.78-6.67,31.08a267.87,267.87,0,0,1-9,30.36,160.49,160.49,0,0,1-12.17,25.86,122,122,0,0,1-16,21.48,94.41,94.41,0,0,1-20.71,16.75c-.94.55-1.9,1.09-2.86,1.61s-.09,1.72.75,1.27a93.46,93.46,0,0,0,21.42-16.08A118.77,118.77,0,0,0,648.08,304a152.48,152.48,0,0,0,12.59-25.17,242.29,242.29,0,0,0,9.55-30.47c2.59-10.37,4.7-20.85,6.75-31.34.26-1.32.52-2.64.77-4C677.88,212.39,676.82,212.09,676.68,212.78Z"/><path class="cls-1" d="M702.87,215.71a319.26,319.26,0,0,1-9.71,32.78,311.56,311.56,0,0,1-13.29,31.75,285.14,285.14,0,0,1-16.09,29,132.22,132.22,0,0,1-18.31,23.3c-6.91,6.81-15,12.6-24.08,16-1.11.42-2.24.8-3.37,1.15-.76.23-.44,1.43.33,1.2a67.36,67.36,0,0,0,25-14.67,120.78,120.78,0,0,0,19.17-22.77A267.32,267.32,0,0,0,679,285a309.06,309.06,0,0,0,13.84-31.73A300.26,300.26,0,0,0,703,220.2c.34-1.39.67-2.79,1-4.19C704.13,215.3,703,215,702.87,215.71Z"/><path class="cls-1" d="M492.89,327.16a137.52,137.52,0,0,1-3-31.67.5.5,0,0,0-1,0,133.75,133.75,0,0,0,2.81,32C491.9,328.23,493.05,327.91,492.89,327.16Z"/><path class="cls-1" d="M515.93,322.86a141.44,141.44,0,0,1-5.26-30.28c-.18-2.89-.27-5.78-.29-8.67a.58.58,0,0,0-1.15,0,133.37,133.37,0,0,0,3.13,30.79c.63,2.87,1.37,5.72,2.18,8.54A.72.72,0,0,0,515.93,322.86Z"/><path class="cls-1" d="M532.1,295.47c-.08-.69-1.16-.71-1.09,0,.83,8.21,1.76,16.41,2.67,24.62.08.76,1.3.77,1.21,0C534,311.88,533.1,303.67,532.1,295.47Z"/><path class="cls-1" d="M555.33,282.28c-2,9.38-3.85,18.77-5.74,28.16q-.81,4-1.6,8c-.2,1,1.32,1.42,1.52.42q2.82-14.1,5.6-28.2c.53-2.66,1-5.34,1.53-8C556.81,281.79,555.51,281.42,555.33,282.28Z"/><path class="cls-1" d="M744,552.22a212.47,212.47,0,0,0-45.95-3.15,303.58,303.58,0,0,0-45.76,5.39c-14.26,2.71-28.47,6.16-42,11.54a122,122,0,0,0-34.44,20.26,86.41,86.41,0,0,0-22.61,29.25c-.63,1.37-1.21,2.76-1.76,4.16a.49.49,0,0,0,.22.64h-.17c-.94-.07-.93,1.39,0,1.46a64.61,64.61,0,0,0,22.07-2.21.72.72,0,0,0,1.11,0c.1-.12.19-.26.29-.39a96.33,96.33,0,0,0,14.4-5.48c0,.54.65,1,1.08.49s.93-1.13,1.38-1.71a164,164,0,0,0,17.75-10.51.57.57,0,0,0,.65-.13c.27-.27.52-.56.79-.84,3.52-2.38,7-4.84,10.47-7.3a.53.53,0,0,0,.32-.17,1.83,1.83,0,0,0,.13-.16l2.58-1.82c6.28-4.46,12.63-8.83,19.23-12.78a.67.67,0,0,0,1,.17c1.09-.86,2.17-1.73,3.25-2.62a129,129,0,0,1,11.64-5.83A173.64,173.64,0,0,1,694,560a.58.58,0,0,0,.42-.05l.08,0c1.3-.27,2.61-.53,3.92-.78q4.14-.76,8.3-1.41l-.13.08c-.71.47,0,1.62.68,1.15a31.37,31.37,0,0,1,3.07-1.78c5.61-.82,11.24-1.5,16.88-2.13l-.33.13c-.5.2-.28,1,.22.81l3.16-1.27c2.83-.3,5.65-.59,8.48-.87l5.11-.51C744.46,553.26,744.7,552.35,744,552.22ZM591.18,611.28c-3,1.48-6,2.86-9.15,4.06a71.52,71.52,0,0,0,16.4-30.53,58.51,58.51,0,0,0,1.68-10.1c0-.74-1-.7-1.13,0a78.37,78.37,0,0,1-4.15,17.22,70.35,70.35,0,0,1-8.22,15.67,67.69,67.69,0,0,1-6.34,7.78.62.62,0,0,0-.12.66c-1.24.45-2.48.88-3.74,1.27a81.23,81.23,0,0,0,12.12-25,60.21,60.21,0,0,0,1.85-8.48c.09-.66-1-.8-1.16-.16a101.23,101.23,0,0,1-4,14.51,79.21,79.21,0,0,1-6.64,13.6c-1.29,2.12-2.7,4.15-4.18,6.14a65.2,65.2,0,0,1-17.74,2.57c-1.42,0-2.83,0-4.25-.13a.6.6,0,0,0,.33-.35c.73-1.86,1.54-3.68,2.41-5.46v.07a6.58,6.58,0,0,0,4.17,5.07.64.64,0,0,0,.34-1.24l-.58-.27a5.93,5.93,0,0,1-.62-.4,3.92,3.92,0,0,1-.48-.41,7.14,7.14,0,0,1-.54-.56,5.68,5.68,0,0,1-1.2-2.49.56.56,0,0,0-.69-.39.52.52,0,0,0-.13.06,84.82,84.82,0,0,1,18.37-24.09A115.58,115.58,0,0,1,606.69,569c.59-.26,1.19-.49,1.79-.74a96.46,96.46,0,0,1-4.12,18.54,82.76,82.76,0,0,1-8.31,17.56A81.52,81.52,0,0,1,591.18,611.28Zm143-58.14.64-.26c.48-.19.27-1-.21-.77l-3.34,1.33c-5.61.57-11.2,1.19-16.79,1.93a35,35,0,0,1,10.3-2,.52.52,0,0,0,0-1A32.82,32.82,0,0,0,709.63,556c-2,.29-4,.59-5.94.91q-2.72.45-5.41.95c3.56-1.89,7.11-3.78,10.65-5.72.58-.32.07-1.18-.52-.89q-7.21,3.66-14.35,7.44c-5.35,1.07-10.66,2.31-15.89,3.81a133.69,133.69,0,0,1,15.33-8.35c.55-.26.16-1.22-.41-1a94.72,94.72,0,0,0-16.81,8.8.74.74,0,0,0-.12,1.13c-3.87,1.15-7.7,2.42-11.48,3.87l-2.56,1c6-4.52,11.94-9,17.79-13.68.44-.36-.15-1.15-.62-.8-6.74,4.94-13.33,10.11-20,15.19a.59.59,0,0,0-.23.57q-3.2,1.4-6.33,2.94A132.41,132.41,0,0,0,664,560.85c1.62-1.86,3.17-3.77,4.67-5.72.36-.48-.45-1.11-.84-.65a156.7,156.7,0,0,1-18.09,18.79c-.55.48-1.11.94-1.67,1.41-.49.27-1,.52-1.46.79-3.92,2.21-7.73,4.62-11.47,7.11A118.59,118.59,0,0,0,647.78,567q2.15-3.16,4-6.5a.53.53,0,0,0-.92-.54,137.31,137.31,0,0,1-16.13,21.27c-1.66,1.76-3.38,3.48-5.14,5.14l-.43.3c-1.22.84-2.43,1.71-3.64,2.56A102.78,102.78,0,0,0,639,567.54c1.22-2.66,2.32-5.36,3.27-8.13.21-.64-.76-.87-1-.27a118.1,118.1,0,0,1-14.65,26.69c-1.54,2.06-3.16,4-4.84,6-2.27,1.61-4.54,3.22-6.83,4.82a73.73,73.73,0,0,0,13-23.19,67.72,67.72,0,0,0,2.46-9.3c.13-.67-.88-1-1-.28a76.4,76.4,0,0,1-13.8,29.95,74,74,0,0,1-5,5.78c-3.16,2.14-6.35,4.23-9.62,6.2l.12-.09a101.66,101.66,0,0,0,16.45-28.2,68,68,0,0,0,2.79-8.79.54.54,0,0,0-1-.29,141.44,141.44,0,0,1-5.76,15.11,100.48,100.48,0,0,1-7.87,13.88c-1.71,2.54-3.55,5-5.49,7.37a.68.68,0,0,0,.66,1.1c-2,1.18-3.94,2.34-6,3.44l-1.1.57a83.72,83.72,0,0,0,14.16-31,67.71,67.71,0,0,0,1.58-11.07v0a215.37,215.37,0,0,1,38-11.1,314.89,314.89,0,0,1,45.13-6.17,216.79,216.79,0,0,1,45.54,1.87l1.41.23Z"/><path class="cls-1" d="M723.05,628.26a69.52,69.52,0,0,1-8.83,10.38,66.52,66.52,0,0,1-10.79,8.19,85,85,0,0,1-26.34,10.33,149,149,0,0,1-33.18,2.89c-9.78-.09-19.57-1.07-29.35-.6-8.71.42-17.76,2.08-25,7.29a30.93,30.93,0,0,0-2.54,2c-.78.69.36,1.82,1.14,1.14,6.75-5.95,15.7-8.13,24.48-8.74,9.67-.68,19.38.28,29.05.46a159.94,159.94,0,0,0,33.14-2.38A89.06,89.06,0,0,0,702,649.54a65,65,0,0,0,20.43-17.75,33.08,33.08,0,0,0,1.82-2.82C724.72,628.18,723.56,627.54,723.05,628.26Z"/><path class="cls-1" d="M726.82,618.52A85.86,85.86,0,0,0,695,603.68,93.17,93.17,0,0,0,660,602a86.74,86.74,0,0,0-31.75,11.14,92.65,92.65,0,0,0-24.65,21.18,90.57,90.57,0,0,0-15.78,28.38q-.64,1.92-1.2,3.87a.8.8,0,0,0,1.55.43,88.05,88.05,0,0,1,14.27-28.6,91.22,91.22,0,0,1,23.37-21.86,85.74,85.74,0,0,1,30.43-12.29,90.87,90.87,0,0,1,66.38,13.16c1.19.78,2.37,1.56,3.53,2.37C726.86,620.28,727.53,619.06,726.82,618.52Z"/><path class="cls-1" d="M462.38,697a70.57,70.57,0,0,0-25.16,5c-8.2,3.1-16,7.15-23.82,11.12s-15.86,8-24.26,10.82a70,70,0,0,1-55.21-3.71c-1.07-.53-2.13-1.07-3.19-1.63a.68.68,0,0,0-.68,1.17,57.82,57.82,0,0,0,13.13,6.08,71.41,71.41,0,0,0,42.32.9c8.53-2.43,16.62-6.2,24.53-10.15s15.79-8.2,24-11.62c8-3.32,16.42-5.88,25.12-6.33,1.07,0,2.15-.07,3.22-.07A.81.81,0,0,0,462.38,697Z"/><path class="cls-1" d="M461.29,695.18a58.71,58.71,0,0,0-23.5-16A103,103,0,0,0,409.1,673a153.12,153.12,0,0,0-15.88-.56,75.52,75.52,0,0,0-17.47,2.06c-9.91,2.54-18.42,8.28-25.42,15.63s-12.53,15.74-17.61,24.32c-.63,1.05-1.23,2.11-1.79,3.2a.67.67,0,0,0,1.15.67c2.82-4,5.23-8.36,8-12.46a118.59,118.59,0,0,1,8.82-11.73c6.35-7.32,14-13.64,23.29-16.86,10.6-3.7,22.24-3.61,33.31-2.93a110.34,110.34,0,0,1,28.32,5.11c8.93,3,17.38,7.62,24,14.37q1.21,1.23,2.34,2.55C460.83,697.1,462,696,461.29,695.18Z"/><path class="cls-1" d="M669.34,910.28l-.18,0c.37-.76-.85-1.39-1.41-.65l-.17.21c-5.43-1.51-10.91-2.83-16.37-4.21l-18-4.55-18.16-4.58-9-2.28a58.63,58.63,0,0,0-8.51-1.74,16.57,16.57,0,0,0-8.24,1.16c-2.44,1-4.62,2.58-7,3.76A27.88,27.88,0,0,1,566.65,900a26.43,26.43,0,0,1-3.94-.79c-1.36-.38-2.68-.94-4.06-1.23a6.92,6.92,0,0,0-3.93.19,14.07,14.07,0,0,0-3.36,2l-15.1,11.05q-15,11-30,22.07L502.49,936c-.69.51,0,1.66.67,1.16q14.93-10.87,29.86-21.72,7.44-5.38,14.86-10.82l3.74-2.73a16.74,16.74,0,0,1,3.52-2.26c2.69-1,5.63.72,8.24,1.33a29.61,29.61,0,0,0,15.35-.52,33.3,33.3,0,0,0,7.13-3.26c2.37-1.38,4.76-2.76,7.52-3.15a23.68,23.68,0,0,1,8.54.74c3,.68,5.9,1.47,8.85,2.21l17.84,4.5c8.21,2.07,16.41,4.19,24.62,6.25-.77-.14-1.53-.29-2.3-.41a94.46,94.46,0,0,0-15.48-1.2,99.71,99.71,0,0,0-30.62,5.27c-10,3.27-19.73,7.41-30.11,9.27-5.47,1-11,1.29-16.56,1.75a115.22,115.22,0,0,0-16,2.32c-10.43,2.35-20.45,6.22-30.36,10.2l-3.72,1.5c-.77.31-.44,1.59.35,1.27,9.87-4,19.78-7.93,30.1-10.59a106,106,0,0,1,15.81-2.81c5.45-.53,10.92-.78,16.35-1.46,10.47-1.3,20.26-5,30.17-8.41A139.84,139.84,0,0,1,615.73,910a91.23,91.23,0,0,1,15.53-2.13,95.09,95.09,0,0,1,30.66,3.59l3.54,1a158.72,158.72,0,0,1-23.74,24.32,128.67,128.67,0,0,1-32,19.27,105.34,105.34,0,0,1-35.7,8.09,99.62,99.62,0,0,1-35.46-4.87,84.49,84.49,0,0,1-30.66-17.77c-1.1-1-2.16-2-3.2-3.12-.66-.68-1.69.35-1,1a84.37,84.37,0,0,0,30,19.76,98.7,98.7,0,0,0,35.8,6.66A105.12,105.12,0,0,0,606,959.27a127.47,127.47,0,0,0,33.14-18.39,152.77,152.77,0,0,0,27.19-26.83c.68-.86,1.34-1.75,2-2.63l.69.16A.67.67,0,0,0,669.34,910.28Zm-3,1.13a.77.77,0,0,0-.27-.19c-.94-.35-1.89-.67-2.84-1l1.25.31c.72.18,1.43.33,2.15.49Z"/><path class="cls-1" d="M540.28,842.75a14.66,14.66,0,0,0-2.65-2.32c-1-.72-1.93-1.4-2.94-2a41.36,41.36,0,0,0-6.2-3.21A42.35,42.35,0,0,0,514.77,832a40.49,40.49,0,0,0-8,.32c-.92.13-.52,1.52.39,1.4a40.46,40.46,0,0,1,26.11,5.52c1.08.65,2.13,1.36,3.15,2.12s2,1.7,3.07,2.4C540.16,844.22,540.71,843.29,540.28,842.75Z"/><path class="cls-1" d="M598.87,813.63A42.18,42.18,0,0,0,566,830.14a18.44,18.44,0,0,0-2.53,4c-.26.62.71,1.16,1.13.66.84-1,1.53-2.18,2.32-3.25a38.47,38.47,0,0,1,2.58-3.12,41.4,41.4,0,0,1,20.35-12.13,39.09,39.09,0,0,1,9.07-1.17A.76.76,0,0,0,598.87,813.63Z"/><path class="cls-1" d="M515.42,740.56a168.84,168.84,0,0,0-11-41.38,166.9,166.9,0,0,0-10.72-21.65.77.77,0,0,0-1.33.78,165.48,165.48,0,0,1,16.71,39.23,169.18,169.18,0,0,1,5.08,66.11c-.11.84,1.2.82,1.31,0A163.59,163.59,0,0,0,515.42,740.56Z"/><path class="cls-1" d="M559.91,1150c-22.73-12.66-47.5-21-72.79-26.83-25.78-6-52-9.5-78.24-13-14.05-1.89-28.22-3.46-42.36-1.58s-27.77,6.18-41.65,9.21c-1.73.37-3.48.72-5.22,1.08a43.75,43.75,0,0,1,7.27-4.91q5.58-3.33,10.88-7.08A175.47,175.47,0,0,0,375,1071.43,177.29,177.29,0,0,0,389.34,1050a171.21,171.21,0,0,0,11-23.32c.37-1,.74-2,1.1-3s-1.14-1.31-1.47-.4a172.09,172.09,0,0,1-10.64,23.43,175.2,175.2,0,0,1-31,40.91,171.28,171.28,0,0,1-19.64,16.63q-5.21,3.78-10.69,7.15c-3.55,2.18-7.7,4.07-10.41,7.32-.18.22-.34.45-.5.67-25.85,5.21-52,8.53-78.2,11.67-7,.84-14,1.6-20.91,2.52-6,.8-12.23,2-17.35,5.38-4.12,2.75-7.61,6.92-8.45,11.92a13,13,0,0,0,4.86,12.35,9.7,9.7,0,0,0,5.89,2,.71.71,0,0,0,0-1.42,9.94,9.94,0,0,1-8.29-6.11,70,70,0,0,0,22.78-4.23c6.56-2.43,13.46-5.75,18.19-11.06a16.94,16.94,0,0,0,4.47-9.59.69.69,0,0,0,0-.25l1.67-.2c24.82-3,49.66-6.2,74.19-11.07h0a.64.64,0,0,0,1.11.65c.23-.36.48-.7.73-1,1.57-.32,3.15-.62,4.73-1,13.34-2.83,26.47-6.83,39.92-9.12,13.78-2.35,27.55-1.47,41.35.28,25.39,3.21,50.87,6.72,75.92,12.06,24.47,5.21,48.77,12.37,71.21,23.6q4.2,2.12,8.32,4.39A.67.67,0,0,0,559.91,1150ZM238.63,1132.8c-.64,6.38-5.93,11-11.1,14.17a64.46,64.46,0,0,1-20.41,7.82,63.81,63.81,0,0,1-12.63,1.34.83.83,0,0,0-.36.09,10.79,10.79,0,0,1-.49-3.33c.07-5.67,4.32-10.51,9-13.24,5.61-3.27,12.28-4.07,18.62-4.84l17.41-2.09Z"/><path class="cls-1" d="M735.25,1553.2q-9.64-21.84-19.26-43.7l-9.65-21.84c-2.87-6.51-5.68-13.06-8.74-19.48-5.61-11.78-12.48-23.25-23-31.3-10.9-8.34-24.19-12.56-36.67-17.92a266,266,0,0,1-38.88-20.67l-1.35-.85a.68.68,0,0,0,.15-1.16c-18.2-14.08-32-32.71-46.4-50.38a324.42,324.42,0,0,0-24.21-26.74c-8.89-8.69-18.25-16.88-27.81-24.82-18.25-15.17-37.22-29.7-58-41.21a202,202,0,0,0-31.95-14.34,247.42,247.42,0,0,0-36.1-9.1c-24.49-4.47-49.35-6.51-73.82-11-5.86-1.09-11.73-2.25-17.48-3.81-5.53-1.51-11.07-3.55-15.63-7.12-4.15-3.26-7-8.09-11.79-10.51-4.07-2-10.73-3.12-10.85-8.85-.13-6.13,5.91-9.31,11-10.71a167.74,167.74,0,0,1,18.46-3.64,249,249,0,0,1,38.56-3,260.19,260.19,0,0,1,75.39,11.65c23.33,7.07,45.93,16.3,69.27,23.33a251.78,251.78,0,0,0,35.21,8.18c11.45,1.71,23.16,2,34.44,4.73a54.46,54.46,0,0,1,15.64,6.28c.72.44,1.37-.69.66-1.12-9.77-6-21.18-7.86-32.38-9.13-12.25-1.39-24.34-2.84-36.35-5.72-24.1-5.79-47.16-15-70.59-23a363.32,363.32,0,0,0-35.86-10.49,251.4,251.4,0,0,0-77.21-5.35q-9.64.84-19.19,2.4c-6,1-12.28,1.91-18.1,3.8-4.48,1.46-8.72,4.17-10.13,8.92-1.35,4.55,1,8.4,5,10.42,2.16,1.07,4.5,1.74,6.62,2.88a26,26,0,0,1,6.38,5.55,37.1,37.1,0,0,0,13,9.32,90.81,90.81,0,0,0,16.51,4.73c6.16,1.32,12.36,2.45,18.57,3.45,12.57,2,25.21,3.58,37.82,5.3,24.83,3.39,49.78,7.55,73.06,17.2,22.67,9.4,43.29,23.14,62.6,38.14,19.84,15.42,39.27,31.84,56.16,50.5,15.67,17.31,28.84,36.82,45.55,53.21q4.85,4.74,10.11,9a.72.72,0,0,0-.36,1.31,198.6,198.6,0,0,0,18.85,11.7q9.56,5.34,19.54,9.87c6.34,2.88,12.82,5.4,19.26,8.07a115.56,115.56,0,0,1,18.12,9,59.27,59.27,0,0,1,14.5,13.13,96.94,96.94,0,0,1,10.38,16.76c3.06,6,5.75,12.27,8.49,18.46q4.8,10.85,9.61,21.69,9.6,21.67,19.24,43.35l2.36,5.31C734.39,1554.76,735.62,1554,735.25,1553.2Z"/><path class="cls-1" d="M543.59,1181c-29.09-8-58.27-15.67-87.41-23.47-14.26-3.82-28.52-7.84-43.09-10.32a172.74,172.74,0,0,0-43.57-1.57c-15,1.25-30,3.34-45,5.14l-45.28,5.43-44.95,5.39-22.3,2.68c-3.42.41-6.95.59-10.32,1.31-2,.44-4.16,1.39-4.94,3.44-1,2.62.66,5.31,2,7.45a55.1,55.1,0,0,0,4.85,6.52A59.77,59.77,0,0,0,216,1193.86a61,61,0,0,0,31.21,10.06,55.72,55.72,0,0,0,8.17-.32c1-.11,1-1.72,0-1.61a59.52,59.52,0,0,1-49.82-19.07,31.51,31.51,0,0,0,4.56-.09c2-.13,4-.39,6-.7,3.64-.57,7.29-1.16,10.88-2,6.46-1.5,12.9-4.15,17.21-9.39a17.63,17.63,0,0,0,4-9.16s0,0,0-.07l29.58-3.55,43.23-5.18c14.45-1.74,28.89-3.66,43.38-5.09,14.34-1.42,28.66-1.78,43,.23,14,2,27.74,5.62,41.4,9.27l84.09,22.51c3.44.92,6.88,1.81,10.32,2.71A.74.74,0,0,0,543.59,1181ZM236.8,1174.9c-6,3.39-13,4.39-19.7,5.5-2.08.35-4.17.68-6.28.88-1,.1-2.07.16-3.11.17s-2.26-.1-3.39-.07l-.08,0a51.46,51.46,0,0,1-5-7.09c-.84-1.44-1.85-3.44-.92-5.09.77-1.37,2.49-1.86,3.93-2.14,3.39-.67,6.92-.88,10.35-1.3l22-2.63,12.17-1.46C246,1167.45,241.7,1172.13,236.8,1174.9Z"/><path class="cls-1" d="M299.36,1172.06c-.17-.94-1.6-.54-1.43.39a11.6,11.6,0,0,1-2.25,8.56,19.73,19.73,0,0,1-7.49,6,71.14,71.14,0,0,1-9.53,3.7q-5.27,1.72-10.64,3.06c-1.95.48-3.9.92-5.87,1.32s-4.13.73-6.17,1.17c-.74.16-.59,1.42.18,1.34a87.75,87.75,0,0,0,11.46-2.2q5.65-1.35,11.18-3.16c6.43-2.1,13.7-4.42,17.91-10.09A13.13,13.13,0,0,0,299.36,1172.06Z"/><path class="cls-1" d="M234.5,1203.79a328.35,328.35,0,0,0-31.06,50.57A534.49,534.49,0,0,0,180.12,1309c-6.92,18.76-13.1,37.77-19.17,56.81-6.53,20.49-13.14,41-18.56,61.8s-9.67,42.31-11,63.93q-.24,4.08-.36,8.16a.63.63,0,0,0,1.25,0c.87-21.72,4.62-43.18,9.78-64.27s11.75-41.85,18.32-62.56c6-18.88,12-37.75,18.72-56.4a569.28,569.28,0,0,1,22.67-55,341.44,341.44,0,0,1,29.7-50.77c1.44-2,2.92-4,4.41-6C236.52,1203.78,235.12,1203,234.5,1203.79Z"/><path class="cls-1" d="M865.07,821.16A67.18,67.18,0,0,0,862,803.6a52.08,52.08,0,0,0-3.35-8.06c-1.14-2.16-2.82-4.35-5.43-4.58s-5.39,1.37-7.45,2.83a24.75,24.75,0,0,0-5.32,5.2,39.57,39.57,0,0,0-6.5,14c-3.23,12.18-2.53,24.91-1.5,37.33.12,1.48.25,3,.38,4.44a.68.68,0,0,0-.73.71c.28,2.35,2.16,3.68,4.24,4.45a25.47,25.47,0,0,0,3.84,1c1.6.34,3.22.64,4.83.91,3.21.54,6.45.95,9.69,1.24,1.23.11,2.74.39,3.74-.55s1.14-2.51,1.46-3.72C863.12,846.54,865.68,833.9,865.07,821.16ZM860.25,851q-1,4.34-2.21,8.62a4.45,4.45,0,0,1-.62,1.66c-.43.49-1.2.35-1.78.3-1.54-.12-3.08-.28-4.61-.46-3-.36-6.08-.85-9.09-1.45-2.31-.46-4.91-.79-6.92-2.14a3.32,3.32,0,0,1-1.45-2,.54.54,0,0,0,.54-.61c-1-11.65-2-23.48-.06-35.08,1.54-9.44,5.1-20.36,13.83-25.53,2-1.21,4.87-2.65,7-1,1.92,1.47,2.93,4.19,3.85,6.33A60.08,60.08,0,0,1,863,815.88C864.49,827.64,862.93,839.5,860.25,851Z"/><path class="cls-1" d="M879,1084.19a401.36,401.36,0,0,1-8.54-52.71c-1.61-17.77-2.12-35.62-2.11-53.46s.54-35.76,1-53.63.9-35.79.71-53.69-.61-36-3.46-53.69q-.55-3.43-1.25-6.84c-.2-1-1.71-.56-1.51.42,3.64,17.82,4.21,36.23,4.53,54.37.33,18,0,35.95-.49,53.92s-1,35.77-1.13,53.66.24,35.55,1.61,53.27c1.36,17.49,3.56,35.1,7.65,52.18.53,2.2,1.09,4.38,1.69,6.56A.67.67,0,0,0,879,1084.19Z"/><path class="cls-1" d="M946.19,1064.61c-1.11-8.87-2.27-17.8-4.87-26.38s-6.74-16.52-13.15-22.84a119.43,119.43,0,0,0-11.38-9.44l-13-10c-4.06-3.11-8.06-6.33-12.24-9.28a37.29,37.29,0,0,0-12.42-6.18,23.09,23.09,0,0,0-3.31-.55c-1-.1-1,1.51,0,1.61,4.57.45,8.76,2.47,12.57,4.92,4.1,2.64,7.89,5.74,11.75,8.7l12.82,9.83c4,3,8,6,11.75,9.33a47.91,47.91,0,0,1,8.94,10.38,55.52,55.52,0,0,1,5.42,11.64c2.83,8.34,4.13,17.11,5.24,25.82,1.33,10.43,2.52,20.88,3.94,31.3.19,1.32.38,2.64.58,4,.11.75,1.41.58,1.33-.18C949,1086.35,947.54,1075.48,946.19,1064.61Z"/><path class="cls-1" d="M1044.37,1158.24c4.46,2.1,9.23,3.75,13.33,6.54,8.78,6,12.76,16.69,15.47,26.51a135.08,135.08,0,0,1,4.44,33c.52,22.47-1.87,45.29-4.94,67.52-1.6,11.55-3.67,23-6.32,34.36-2.52,10.8-5.38,21.53-7.3,32.46-4,22.62-.89,45.08-1,67.83-.15,23.24-4.83,46.16-7,69.23-1.5,15.66-2.31,31.36-2.66,47.07l1.64.49c.22-11,.66-21.93,1.42-32.89,1.62-23.41,5.88-46.52,7.64-69.9s-2.31-47,.06-70.48c1.18-11.71,4-23.18,6.73-34.6,2.71-11.22,5.2-22.46,7-33.86a485.32,485.32,0,0,0,6.38-68,167.4,167.4,0,0,0-2.11-31.62c-1.71-9.86-4.4-20.25-9.71-28.85a31.1,31.1,0,0,0-8.54-9.3c-4.08-2.85-8.84-4.52-13.32-6.62a120.6,120.6,0,0,1-24.59-15.35c-14.88-12-25.76-27-34.45-43.88-7.14-13.88-14.09-29.6-27.34-38.79a38.81,38.81,0,0,0-10-4.94c-.89-.3-1.28,1.11-.39,1.4,16.31,5.46,25.12,21.2,32.57,35.59,3.87,7.47,7.54,15.06,12.08,22.15a123,123,0,0,0,17.32,21.34,124.29,124.29,0,0,0,21.21,16.75A121.08,121.08,0,0,0,1044.37,1158.24Z"/><path class="cls-1" d="M986.87,730.22c-26.06-51-11.17-110.85-24-165-5.72-24.08-17.13-47-37-62.43-12.37-9.59-26.78-15.56-41.84-19.17-1.41-12.15-2.89-24.29-4.56-36.41a.34.34,0,0,0-.07-.49c-3.49-25.2-7.8-50.26-14-74.95-10.32-41.11-26.14-81.36-51.73-115.48-26.15-34.89-61.52-61.18-98.94-82.9-13.15-7.63-26.59-14.74-40.15-21.6a207.31,207.31,0,0,0-4.1-22.66c0-.14.12-.27.16-.41a.57.57,0,0,0-.44-.73C663.24,99.6,650.26,72.67,631,50.4A148.76,148.76,0,0,0,588.39,16,139.31,139.31,0,0,0,536.23.58a130.26,130.26,0,0,0-53.82,6.09A112.25,112.25,0,0,0,458.65,18a129.61,129.61,0,0,0-22.9,19c-7.57,7.69-14.59,15.9-22.11,23.64a173.76,173.76,0,0,1-23,19.89c-15.37,11.11-32,20.29-47.3,31.56s-28.67,24.79-36.62,42.2a96.27,96.27,0,0,0-7.26,56.21A90,90,0,0,0,303,224c.32.93,1.8.53,1.48-.41a93.5,93.5,0,0,1-.66-57.29c5.65-18.42,17-33.72,31.62-46.06,14.26-12,30.58-21.3,46.1-31.59a223,223,0,0,0,21.83-16.13c7.94-6.8,15-14.52,22.06-22.22s14-15.28,21.86-22a108,108,0,0,1,23.19-15.07,122.82,122.82,0,0,1,52-11.67,138.69,138.69,0,0,1,52.78,10,140.59,140.59,0,0,1,45.46,30.11C644.92,65.43,661,96.56,669,129.36a18.78,18.78,0,0,1-16.43,9.9,16.26,16.26,0,0,1-5.77-1.07c-8.2-3.85-16.48-7.42-24.94-10.41A21.88,21.88,0,0,0,632.42,122a37.08,37.08,0,0,0,8.28-13c1.17-2.85,2.14-5.77,3-8.72.26-.84-1-1.16-1.3-.36-3.32,9-6.61,19-15.42,24.2a17.53,17.53,0,0,1-7.09,2.37.77.77,0,0,0-.61.4,141.07,141.07,0,0,0-31.75-7,251.83,251.83,0,0,0-36.66-.49,109.84,109.84,0,0,0,23.92-19.29q3.25-3.51,6.19-7.28c.39-.5-.31-1.23-.72-.71a113.33,113.33,0,0,1-24.54,22.8c-2.41,1.64-4.89,3.17-7.42,4.62-12,.68-24,1.83-35.91,2.84-24.66,2.09-49.45,5.32-73,13.29q-6.29,2.13-12.41,4.65c-1.27.11-2.54.19-3.82.22a67.16,67.16,0,0,1-31-6.52,61.35,61.35,0,0,1-14.89-10.06c-.56-.52-1.4.31-.84.84A62.64,62.64,0,0,0,405,140.08a69.36,69.36,0,0,0,18.1,1.86A301.5,301.5,0,0,0,376.8,167.5a478.26,478.26,0,0,0-55.73,42.77,330.44,330.44,0,0,0-79.41,106.48,371.56,371.56,0,0,0-32.81,124.3q-1.47,16.89-1.46,33.85a207.5,207.5,0,0,0-5.53,67.8c2,25.57,9.16,49.83,18.46,73.63,9.06,23.19,19.4,46,25.45,70.25,5.28,21.15,7.44,42.92,9.27,64.59,3.52,41.63,5.32,86.06,27.08,123a125.63,125.63,0,0,0,8.63,12.71c1,1.31,3.28,0,2.27-1.33-25.53-34.4-30.06-78-33.52-119.34-1.77-21.25-3.3-42.57-7.05-63.58-4.19-23.41-12.3-45.51-21.19-67.49-9.32-23-18.81-46.13-23.41-70.68a210.73,210.73,0,0,1-.38-75.91c.05-.26.11-.51.15-.77a435.06,435.06,0,0,0,12.22,88.37c10,41.08,25.57,80.72,45.32,118.08q.39,3.19.59,6.42c1.15,19.19-2.76,38.2-3.25,57.35a149.16,149.16,0,0,0,24.84,85.8,187.35,187.35,0,0,0,8.71,18c2.48,4.5,5.15,8.86,8.05,13.1,1.49,2.17,5,.23,3.58-2.1q-4-6.78-7.67-13.77a.64.64,0,0,0,0-.82l-1-1.23a209.86,209.86,0,0,1-15.75-40.63,202.16,202.16,0,0,1-6.65-61.11c.51-11.24,2.32-22.28,4.3-33.3,2.55,4.22,5.12,8.42,7.77,12.58.42.67,1.49,0,1.06-.62-2.9-4.57-5.71-9.18-8.49-13.83,1.21-6.65,2.46-13.3,3.51-20,6.38,22.51,13.16,44.89,20.69,67.05,7.8,23,16.4,45.73,26.11,68,9.58,22,20.09,43.7,32.77,64.09a292.1,292.1,0,0,0,43.83,54.3c12,11.78,24.77,22.73,37.77,33.4-1.93-1.36-3.87-2.71-5.79-4.08-12.18-8.67-24.13-17.77-34.58-28.5-8.76-9-16.41-19-23.77-29.18-14.31-19.78-27.73-40.81-46.49-56.77a110.77,110.77,0,0,0-14.11-10.24.8.8,0,0,0-1,.12c-5.18,6.08-.72,13.79,1.59,20.13,1.77,4.84,2.46,9.3.65,14.27s-4.41,9.3-5.29,14.55c-3.17,19,10.51,36.34,22.67,49.32,7.44,7.94,15.38,15.41,23,23.22q11.94,12.3,23.45,25,22.63,25,43.49,51.6,23.85,30.39,45.21,62.61c.57.86,2,.06,1.39-.81A973.5,973.5,0,0,0,403.46,1022q-19.84-23.09-41.1-44.88c-13.39-13.72-28.82-26.63-38.13-43.68-4.41-8.08-7.2-17.39-5.38-26.62,1-5.3,3.95-10,5.42-15a79.36,79.36,0,0,0,7,8.23,89.86,89.86,0,0,0,8.71,8.3,57.12,57.12,0,0,0,21,11.38,40.84,40.84,0,0,0,13.33,1.46c1-.06,1-1.67,0-1.61-16.05,1-30.22-8.41-40.86-19.57q-2.26-2.37-4.39-4.85c-1.43-1.67-2.79-3.43-4.31-5a16.87,16.87,0,0,0,.09-7.26c-.83-3.84-2.55-7.4-3.88-11.08-1-2.73-3.08-8.41-.56-11,.93-.94,1.26-.43,2.33.26.77.5,1.53,1,2.28,1.51,2.06,1.41,4.08,2.9,6,4.45,3.18,2.52,6.22,5.21,9.14,8,24.41,23.55,39.66,54.66,63,79.17,13.34,14,29.21,25.25,45,36.29q9.58,6.71,19,13.63c8.32,6.68,16.74,13.4,25.35,19.89l1.3,1.07c28.07,23.68,53.82,50,78.56,77,24.91,27.26,48.85,55.39,73.41,82.95s49.64,54.45,76.88,79.25c14,12.71,28.61,24.5,43.44,36.18,15.39,12.11,30.14,24.86,41.56,40.9,21.15,29.7,31.12,65.63,38.62,100.84,1.86,8.71,3.55,17.46,5.23,26.2.18.93,1.59.54,1.42-.39-9-47.46-19.23-98.38-50.77-136.4,4.86,4.61,9.66,9.28,14.32,14.1a245.6,245.6,0,0,1,23.79,28.15c7.59,10.66,14.56,22.27,18.64,34.76a66.66,66.66,0,0,1,3.23,22.13c-.15,7.86-1,15.72-1.72,23.54q-2,23.81-4,47.62c-.31,3.87-.63,7.75-.9,11.63-.06.85,1.23.83,1.31,0,1.59-16,2.88-32,4.24-48q1-12,2-24c.64-7.67,1.09-15.39-.11-23-2.11-13.4-8.59-25.88-15.76-37.23A213.27,213.27,0,0,0,825,1352.57c-16.62-18.41-35.51-34.55-53.68-51.37-19-17.6-37-36.1-51.21-57.88-8.26-12.63-15.7-25.78-23.82-38.51q-12.36-19.35-26.11-37.75-3.3-4.41-6.67-8.76a.39.39,0,0,0-.1-.08.61.61,0,0,0-.19-1l-.13-.07a28.31,28.31,0,0,0,13-15.65,19.22,19.22,0,0,0,1.17-6.79c0-.71-1.17-1-1.3-.18a49.92,49.92,0,0,1-1.09,5.55,27,27,0,0,1-9.5,13.84,25.69,25.69,0,0,1-3.8,2.37c-4-2.15-7.93-4.28-11.78-6.63q-6.56-4-12.76-8.51A179.66,179.66,0,0,1,613.81,1121c-1.79-1.85-3.55-3.75-5.26-5.67a18.55,18.55,0,0,1-2.39-2.93c-.73-1.3-.06-2.27.87-3.22a23.92,23.92,0,0,1,11.86-6.39c9-2,18,.52,25.83,5a.65.65,0,0,0,.76.76l.43,0,.64.39c9.26,5.89,16.59,14.16,24.23,21.92,1,1,2,2,2.94,2.93.6.58,1.52-.34.92-.92-8.14-8-15.47-16.86-24.77-23.54-.48-.35-1-.68-1.45-1,10.89-.77,21.72,1.49,31.81,5.62,11.26,4.61,21.59,11.35,31.14,18.82a308.84,308.84,0,0,1,27.93,25.08A362.76,362.76,0,0,1,787,1216.64q1.26,1.92,2.53,3.83a.7.7,0,0,0,.33.27c-.12,1.69-.25,3.37-.35,5.06-.05.84,1.26.84,1.31,0,1.31-21.5,4.6-42.79,7.75-64.07,3.11-21,5.87-42,6.84-63.18s.6-42.57,0-63.85-1.31-42.55-1.14-63.83,1.28-42.66,4.41-63.76c.39-2.61.82-5.22,1.24-7.83a.75.75,0,0,0-.48-.82c2.69-5.86,5.11-11.85,7.21-18,6.51-19,9.22-38.69,10-58.62a.54.54,0,0,0,.57-.17l2.82-3.08c.93-1,1.89-2,2.75-3.14a.59.59,0,0,0,0-.81.58.58,0,0,0-.8,0c-1,1-1.93,2-2.87,3l-2.41,2.64q.15-4.38.18-8.78c.19-25.73-1-51.51-1.67-77.24-.68-26-1.3-52-2-78-.68-24.39-2.23-48.75-10.07-72a282,282,0,0,0-15-35.06,39.47,39.47,0,0,0,4.26,2.29c6.07,2.79,13.07,4.39,19.62,2.44,2.1-.62,1.82-4.18-.53-4a32.45,32.45,0,0,1-16.2-2.45,44.26,44.26,0,0,1-12.21-8.32c-2.81-5.47-5.66-10.92-8.45-16.38-3.74-7.32-7.41-14.71-10.78-22.22A181,181,0,0,0,820.73,509c18.92.81,38.87-3.25,57.56.9a44.34,44.34,0,0,0-6.2,1.18c-20.33,5.36-37.56,21.21-45.75,40.39a71.5,71.5,0,0,0-2.55,7c-.27.86,1.08,1.22,1.34.37A70.4,70.4,0,0,1,865.51,515c5.56-2.23,12-3.91,18.09-3.64a42.62,42.62,0,0,1,19.49,13.1c2.78,5.61,3.94,12.17,4.36,18.24.92,13.17-.64,26.48-2.7,39.48-2,12.62-4.34,25.22-6.77,37.77-4.66,24-10.35,48.09-20.42,70.49-8.94,19.87-21.57,40.08-41,51.07A63.34,63.34,0,0,1,829.2,745c-.92.38-.53,1.88.41,1.51,21.21-8.31,35.61-27.8,45.59-47.47,11.46-22.58,18-47.25,23-71.95,2.58-12.69,4.88-25.45,7.07-38.21,2.32-13.56,4.26-27.29,4-41.09a66.36,66.36,0,0,0-2.65-18.92c6.69,9.3,11.23,20.62,15.68,31.09a710.18,710.18,0,0,1,25.28,69.79c1.79,5.84,3.53,11.71,5.32,17.55a2.15,2.15,0,0,0,4.15-1.14c-1.82-7.52-3.91-15-6.17-22.41-.35-17.25-1.18-34.54-4.65-51.46-3.57-17.39-10.17-34.1-21.13-48.18-10-12.9-23.63-23.06-39.59-27.19q-.56-5-1.13-10a117.29,117.29,0,0,1,23.28,8.33c23.19,11.36,39.2,31.47,47.67,55.61C973.71,603.25,959.28,660.6,977,713a125,125,0,0,0,7.87,18.4C985.54,732.74,987.55,731.56,986.87,730.22ZM884.13,496.6c-9.94-2.36-20.24-2.78-30.39-3.47l-32.8-2.25q-24.11-1.67-48.22-3.28c.69-.28.62-1.49-.27-1.46-.48,0-1,0-1.45,0,.79-.2,1.57-.43,2.36-.64,20.51-1.24,41.06-3.43,61.07-3.55,16.13-.1,32.72.91,48.55,4.67Q883.57,491.62,884.13,496.6ZM667.31,134.29a16.26,16.26,0,0,0,2.15-3c.54,2.33,1,4.67,1.51,7,.84,4.24,1.57,8.52,2.13,12.81q-8.86-4.47-17.77-8.83l-3.2-1.55A20,20,0,0,0,667.31,134.29Zm-219.6.59a60.89,60.89,0,0,1-12.87,4.25C439.08,137.59,443.38,136.18,447.71,134.88ZM230.57,347.67c14.63-41,36.86-79.2,66.27-111.34A396.54,396.54,0,0,1,349,189.21c18.43-14.07,37.73-27.26,58.31-38a230.83,230.83,0,0,1,21-9.62,67.29,67.29,0,0,0,9-1.58,61.57,61.57,0,0,0,16.85-7q10.56-2.82,21.44-4.67c24.59-4.18,49.73-5.81,74.62-7.2,12.41-.7,24.88-1,37.27.23a142.64,142.64,0,0,1,35.86,8.38c7.58,2.8,15.05,6,22.43,9.41a.72.72,0,0,0,.41.37,13.56,13.56,0,0,0,1.48.5c13,6.08,25.7,12.83,38.31,19.41,38.63,20.15,76.52,43.29,107,74.86,29.7,30.78,49.77,68.91,62.86,109.38,13.19,40.74,19.84,83.27,25.06,125.66q.85,7,1.67,14a176.31,176.31,0,0,0-24.45-3.73c-24.43-2.08-49.06.32-73.63,2.06.9-.38,1.82-.75,2.71-1.15a96,96,0,0,0,21.41-13.35,92.66,92.66,0,0,0,17.39-19,94.88,94.88,0,0,0,11.68-23.59,92.35,92.35,0,0,0,4.72-25.88c0-1.12,0-2.24,0-3.36a.59.59,0,0,0-1.18,0,95,95,0,0,1-14.73,49.39A91.61,91.61,0,0,1,810,464.15,93.85,93.85,0,0,1,779.94,482c-5.16.34-10.32.63-15.47.84a96.73,96.73,0,0,0,20.68-17.49,111.42,111.42,0,0,0,17.73-27A120.19,120.19,0,0,0,812.72,406a146.34,146.34,0,0,0,.69-38.83,181,181,0,0,0-8.65-38.1q-.78-2.3-1.62-4.58c-.27-.74-1.46-.43-1.19.32a192.53,192.53,0,0,1,9.33,37.45,151.14,151.14,0,0,1,.62,38.6,122.24,122.24,0,0,1-8.59,33,111.19,111.19,0,0,1-16.46,27.52,95.61,95.61,0,0,1-24,21l-.91.53c-4.49.15-9,.23-13.47.2a85.17,85.17,0,0,1-10.93-4A176.48,176.48,0,0,1,722.45,469,94.41,94.41,0,0,0,747,451.7a112.74,112.74,0,0,0,19-24.58,128.5,128.5,0,0,0,12.46-30.06A166.65,166.65,0,0,0,784,359.71a228.17,228.17,0,0,0-1.78-38q-.3-2.32-.63-4.65c-.1-.76-1.43-.59-1.33.18a258.08,258.08,0,0,1,2.29,37.58A173,173,0,0,1,778.1,392a130.55,130.55,0,0,1-11.54,30.87A113.67,113.67,0,0,1,748.62,448a94.17,94.17,0,0,1-24.28,18.53c-1,.54-2.09,1.06-3.14,1.56L721,468c-18.33-13.94-32.79-31.75-46.26-50.26-9.95-13.65-20-28.12-31.31-41.4,23.56.35,45.53-11.57,62.17-27.65a176.81,176.81,0,0,0,22.72-27.52c7-10.2,13.38-21.19,15.91-33.44,3.05-14.7,1-29.7-1.63-44.29a2.17,2.17,0,0,0-2.65-1.5,1.9,1.9,0,0,0-.5.22c-.27-2.89-.63-5.78-1.13-8.64-.27-1.57-.57-3.14-.91-4.71-.17-.8-1.37-.46-1.22.34a122.54,122.54,0,0,1-9.52,75.56,116.57,116.57,0,0,1-21.06,30.51,121.92,121.92,0,0,1-28.28,21.88A119.52,119.52,0,0,1,644,369.72c-1.46.31-2.92.59-4.39.85a.58.58,0,0,0-.53.6q-3.9-4.35-8-8.44a129.06,129.06,0,0,0,15.32-6.41A114.18,114.18,0,0,0,681.4,332.4,110.55,110.55,0,0,0,699.84,308a113.75,113.75,0,0,0,11.45-30,110.45,110.45,0,0,0,2.52-32c-.09-1.3-.21-2.6-.35-3.89-.08-.82-1.37-.84-1.3,0a114.12,114.12,0,0,1-11.87,61.66,108.72,108.72,0,0,1-17.5,25c-2.43,2.6-5,5.08-7.65,7.43,1.23-1.19,2.45-2.4,3.62-3.65A1.94,1.94,0,0,0,676,329.7a130.52,130.52,0,0,1-47.34,28.73,2.41,2.41,0,0,0-1.21.86c-10.05-9.46-21.17-17.55-33.88-23.24l16-13.41a183,183,0,0,0,15-13.42c8.59-9,14.07-20.09,18-31.81,2.2-6.64,3.91-13.41,5.57-20.2.61-2.47-3.11-3.51-3.81-1-3.25,11.45-6.44,23.11-11.94,33.73a68.43,68.43,0,0,1-10.11,14.77,97.46,97.46,0,0,1-7.44,7.22q1.44-2.11,2.81-4.27a121.32,121.32,0,0,0,13.17-29.07,115.88,115.88,0,0,0,3.86-17.64c.11-.74-1-1.07-1.14-.32a121.33,121.33,0,0,1-23.9,55.77c-.56.47-1.11.95-1.68,1.42l-18.18,15.28a2,2,0,0,0-.63,1.1c-2.45-.95-5-1.83-7.53-2.6a82.86,82.86,0,0,0-32.43-3c-12.6,1.3-24.85,4.73-37.09,7.82l-14.73,3.73L468.42,347c-10.51,2.5-21,4.95-31.56,7.44a1.82,1.82,0,0,0-1.19-.83c-16.34-2.79-32.47-11.4-42-25.25a52.08,52.08,0,0,1-8.77-26.28,159.83,159.83,0,0,1,1.52-32.78,215.9,215.9,0,0,1,6.51-30.59c.5-1.06,1-2.11,1.56-3.16s1.14-2.16,1.73-3.23a.62.62,0,0,0-1.07-.63l-.44.8c0-1.81-2.85-2.35-3.57-.39a177.25,177.25,0,0,0-8.73,33.28,169.28,169.28,0,0,0-2.4,34c.43,10.24,2.67,20.32,8.13,29.1a57.25,57.25,0,0,0,8.3,10.37l.6.79c5.11,6.32,11.85,11.49,19.8,13.61a30,30,0,0,0,3,.65h.05a71.92,71.92,0,0,0,8.25,2.63l-5.91,1.42c-.92.06-1.84.1-2.76.11a2.46,2.46,0,0,0-4-1.14c-.34.33-.69.63-1,.95A77.14,77.14,0,0,1,397,354.31a130.64,130.64,0,0,1-18.6-7.66,50.63,50.63,0,0,1-5.63-13.35,150.16,150.16,0,0,1-4-20.7,199.54,199.54,0,0,1-.74-46.12c.08-.79-1.14-.77-1.23,0a188.38,188.38,0,0,0,.16,44.46,163.75,163.75,0,0,0,3.88,21.3,57.56,57.56,0,0,0,5,13.05q-4.17-2.18-8.19-4.56c-8.43-5-16.51-11.05-22.52-18.9-6.27-8.18-9.64-18-10.82-28.21-1.38-11.9-.15-23.91,1.37-35.73.27-2.09-3.32-2.58-3.69-.5-3.77,21.3-5.53,45.42,7.11,64.28C345,330.44,353.16,337.33,362,343a154.29,154.29,0,0,0,20,10.7A26.09,26.09,0,0,0,395.22,361c1,.19,1.44-1.36.43-1.55a23.32,23.32,0,0,1-8.41-3.55c1.59.63,3.19,1.25,4.8,1.83a95,95,0,0,0,9.17,2.8,54.23,54.23,0,0,1-22.89,2.81,59.84,59.84,0,0,1-24.58-7.79,53.9,53.9,0,0,1-18.63-17.61c-5.66-9-8.46-19.3-10.14-29.67-1.72-10.71-2.22-21.56-3.54-32.32-.16-1.26-.32-2.53-.5-3.8-.09-.67-1.27-.52-1.19.17,1.26,10.94,1.73,22,3.2,32.88,1.44,10.68,3.94,21.36,9.22,30.84a54.88,54.88,0,0,0,18.19,19.27A61.23,61.23,0,0,0,375,364.44,56.16,56.16,0,0,0,401,362.12c.9-.31,1.79-.66,2.68-1,1,.23,2.1.43,3.16.62-3.06.77-6.12,1.54-9.18,2.34-2.38.62-4.76,1.28-7.14,1.93-11.33,1.85-22.8,3-34.27,4.15-2.58-.21-5.14-.51-7.7-.9a110.6,110.6,0,0,1-31.23-9.56C308,355.17,298.7,349.2,293,340.29c-6.09-9.46-7.16-20.93-7.76-31.89-.07-1.4-.14-2.8-.2-4.2,0-.82-1.31-.83-1.29,0,.27,11.22.73,23,5.79,33.23,4.83,9.79,13.78,16.65,23.22,21.69A110.56,110.56,0,0,0,344,370.05c1.65.31,3.31.57,5,.81-15.57,1.56-31.1,3.32-46.27,6.9l-19.06-6.51-11.18-3.77c-.67-.22-.95.82-.29,1q14.08,4.92,28.21,9.78-6,1.5-12,3.44c-3.08,1-6.1,2.15-9.06,3.38a58.23,58.23,0,0,1-15-9.27c-.53-.45-1.3.31-.77.77a59.17,59.17,0,0,0,14.25,9.14,118.34,118.34,0,0,0-17.54,9.36,56.79,56.79,0,0,1-18.06-19.34,42.2,42.2,0,0,1-5.09-15.9c-.08-.76-1.26-.78-1.2,0,.75,10.22,5.71,19.62,12.57,27.08A62.31,62.31,0,0,0,259,396a107.88,107.88,0,0,0-15.18,12.26c-.23-.24-.47-.47-.69-.71a61.19,61.19,0,0,1-6.53-8.49c-.43-.67-1.49-.06-1.07.63a59.46,59.46,0,0,0,7.26,9.58q-3.1,3.09-6,6.46c-13.22,15.59-22.3,34.37-28,53.93A379.3,379.3,0,0,1,230.57,347.67Zm35.24,75.63a63.44,63.44,0,0,1-19.89-12.92,108.56,108.56,0,0,1,15.67-12.67A92.18,92.18,0,0,0,275.88,405c4.31,1.76,8.71,3.25,13.16,4.6A113.4,113.4,0,0,0,265.81,423.3Zm22.34-11.85-.77.72a.62.62,0,0,0-.78.25l-.79,1.28a108.23,108.23,0,0,0-9,10.25l-1.73,2.29a61,61,0,0,1-7.74-2.33A110.68,110.68,0,0,1,288.15,411.45Zm-24.62-14.21-.62-.4a103.47,103.47,0,0,1,13.59-7.4c1.65-.75,3.32-1.45,5-2.12a57.54,57.54,0,0,0,8.46,2.52,59.19,59.19,0,0,0,8.4,1.19c.79.05.79-1.19,0-1.24a58.4,58.4,0,0,1-15.14-3.15,157.49,157.49,0,0,1,22.26-6.57l6.14,2.11L322.78,386c.81.28,1.16-1,.35-1.28l-15.22-5.2c10.47-2.19,21.14-3.6,31.7-4.78,8.5-1,17-1.77,25.54-2.69,1.69,0,3.38,0,5.07-.08a298.12,298.12,0,0,0-37,14.46q-5.39,2.56-10.66,5.48c-.7.24-1.41.48-2.1.73a102.76,102.76,0,0,0-22.89,11.27,76.06,76.06,0,0,0-6.14,4.65l-.33.13C281.51,405.86,272.09,402.4,263.53,397.24Zm112.31-25.61c.49-.05,1-.07,1.48-.12a113.6,113.6,0,0,0,21.53-4.31c1.44-.28,2.87-.58,4.31-.9-21.49,13.31-48.52,16.14-72.87,23.18A301.6,301.6,0,0,1,375.84,371.63Zm39.6-8.32a2.2,2.2,0,0,0,2.73,1.65q37.75-9.45,75.49-19c12.28-3.11,24.53-6.38,36.87-9.27,11.84-2.77,23.93-4.73,36.12-3.38,20.57,2.29,39.25,13.31,54.55,26.75,16.63,14.6,29.64,32.55,42.48,50.43,13.1,18.22,26.3,36.64,43,51.76a179,179,0,0,0,27.49,20.36,172.49,172.49,0,0,1-30.36-4.54,107.81,107.81,0,0,1-35.19-15.3C657.21,455,648.1,444.5,640,433.36c-15.49-21.28-28.71-45.49-51.93-59.48a59.28,59.28,0,0,0-37.15-8.5c-15.09,1.59-29.12,7.7-43.68,11.57-25.39,6.75-54,7.81-78.4-3.12a82.24,82.24,0,0,1-15.28-9Q414.51,364.09,415.44,363.31Zm227.4,8.14a120.34,120.34,0,0,0,31.57-11.07,123.24,123.24,0,0,0,29.44-21.16,117.84,117.84,0,0,0,22.31-29.89,122.57,122.57,0,0,0,12.26-37A120.89,120.89,0,0,0,740,255.47c1,9,1.61,18,.37,26.93-1.67,12-7.15,22.69-13.7,32.68-12.47,19-28,37.14-48.45,47.73A73.89,73.89,0,0,1,642.84,371.45Zm-434,110.24c4-18.23,10.78-35.95,20.95-51.63a114.5,114.5,0,0,1,15.07-18.66,63.25,63.25,0,0,0,19.51,13,124.91,124.91,0,0,0-23,23.79c-2,1.15-4,2.33-5.9,3.57q-3.67,2.34-7.18,4.89c-.71.52,0,1.71.7,1.2q4.95-3.39,10.1-6.47-2.76,4-5.22,8.11c-16.86,28.56-21.68,62.65-17.25,95.23A422.53,422.53,0,0,1,208.86,481.69Zm21.82,127.86q-3.87-12-7.1-24.21,3.18,10,7.33,19.66c6.66,15.54,14.62,30.49,21.36,46,5.5,12.65,10.17,25.81,12.34,39.44A522.52,522.52,0,0,1,230.68,609.55Zm28.62,54.68c-5.55-15.31-13-29.84-20-44.53-7.37-15.53-14-31.32-18-48.09-7.86-33.1-6.51-69.15,8-100.28a130.19,130.19,0,0,1,13-21.84c4.07-2.33,8.23-4.5,12.49-6.47q3.9-1.81,7.89-3.42c1-.39.53-1.94-.43-1.56a168.89,168.89,0,0,0-17.54,8.26A123.22,123.22,0,0,1,265.9,425a60.67,60.67,0,0,0,8.22,2.57c-5.39,7.36-10.27,15.12-15,22.87-5.61,9.12-10.78,18.62-14,28.86-8,25.15-4.36,50.52,3.08,75.2,4.09,23.64,10.45,47,16.37,70,4.59,17.79,9.22,35.57,14,53.3-.58,10.71-1.86,21.39-3.33,32q-4.41-7.74-8.57-15.62A136.35,136.35,0,0,0,259.3,664.23Zm2.19-208.46a181.87,181.87,0,0,0-13.12,34.16,127.09,127.09,0,0,0-2.78,13.63c.13-2.28.31-4.57.58-6.87C248,481.8,254,468.45,261.49,455.77ZM250.88,563.18C256,578.5,262.26,593.5,267.67,608c.47,1.25.93,2.51,1.4,3.77,4.5,13.46,8.13,27.15,9.27,41.45a180.26,180.26,0,0,1,.37,20.52q-1.86-6.86-3.7-13.73c-6.25-23.51-12.49-47-18.27-70.66C254.63,580.66,252.62,572,250.88,563.18Zm29.6,261.64q1.74,5.7,3.81,11.3a149.31,149.31,0,0,1-20.09-68c-.82-18.36,2.61-36.49,3.26-54.79a121,121,0,0,0-.46-15.62q1.94,3.62,3.93,7.19t4,7c-1.14,8.2-2.36,16.39-3.41,24.56-3.37,26.29-5.33,54,4.48,79.27,1.16,3,2.47,5.88,3.91,8.73A.54.54,0,0,0,280.48,824.82Zm-7.65-83.07A206.09,206.09,0,0,0,278.78,819c-9.85-23.29-9.46-49.07-6.71-73.91,1.14-10.31,2.68-20.61,4.12-30.92l.91,1.52C275.47,724.33,273.84,733,272.83,741.75Zm4.62-28c-.32-.55-.66-1.1-1-1.65,1.37-9.85,2.62-19.71,3.33-29.61.55,2,1.11,4,1.66,6C280.54,697,279,705.38,277.45,713.77Zm4.36-28.71q-.88-3.19-1.76-6.4c.3-5.3.44-10.61.34-15.94a149,149,0,0,0-1.69-19.48,136.63,136.63,0,0,1,3.65,29.49C282.38,676.86,282.17,681,281.81,685.06ZM802.8,962c-.45,21.38.19,42.75.78,64.12s1.14,42.58.51,63.87a576.82,576.82,0,0,1-6,64.4c-3,21.11-6.41,42.19-8.11,63.45,0,.2,0,.39,0,.59-3.08-5-6.41-9.85-9.8-14.63q-5.52-7.77-11.44-15.26a364.39,364.39,0,0,0-25.25-28.72,329.86,329.86,0,0,0-28-25.78c-9.54-7.75-19.77-14.82-31-20-10.82-4.95-22.63-8-34.6-7.46-1.24.06-2.48.17-3.72.31-7.48-4.55-16.11-7.34-24.93-6.17a27.14,27.14,0,0,0-12.95,5.16,22.44,22.44,0,0,0-2.58,2.3,4.37,4.37,0,0,0-1.53,3.31,6.06,6.06,0,0,0,1.75,3.29c.85,1,1.72,2,2.6,2.94a181,181,0,0,0,23.49,21.73,176.38,176.38,0,0,0,26.89,17.26c.26.14.52.26.79.39l-.09,0c-.89.36-.51,1.82.4,1.46.5-.2,1-.42,1.47-.65l.84.38a.87.87,0,0,0,0,1.06q14.1,18.21,26.82,37.41c8.36,12.62,16,25.66,24,38.52a266.23,266.23,0,0,0,23.75,33.14,356.59,356.59,0,0,0,25.64,26.67c1.21,1.16,2.44,2.3,3.67,3.45l-5-3.94c-10.75-8.41-21.3-17.06-31.5-26.13-20.26-18-39.34-37.24-57.8-57-37-39.77-71.57-81.82-108.66-121.57-17.86-19.14-36.33-37.72-55.88-55.14,22.64,15.62,46.87,28.61,74.16,34.19,22,4.48,45.11,3.87,66.08-4.51,20.42-8.16,37.58-22.42,53.75-37,30.37-27.37,60.68-55.79,84.6-89.15Q781,979.22,775.36,1020q-5.9,42.49-12.56,84.88-1.86,11.78-3.77,23.54c-1.3,8-2.73,16-3.84,24-.12.84,1.14,1.23,1.31.36,2.5-12.59,4.39-25.32,6.36-38a72.69,72.69,0,0,0,24.63,22.38,54.57,54.57,0,0,0,9,4c.68.23,1.17-.89.5-1.18a87,87,0,0,1-14.91-8.1,71.33,71.33,0,0,1-12.53-11.13,69.43,69.43,0,0,1-5.91-7.66.77.77,0,0,0-.43-.32c.14-.91.28-1.82.43-2.73q3.36-21.19,6.52-42.41,6.33-42.54,11.89-85.19,3-23.38,5.84-46.78l.49-.68a240.77,240.77,0,0,0,19.79-33.72C804.53,921.25,803.23,941.7,802.8,962Zm-7.34-414.54c.76,1.53,1.53,3.06,2.28,4.59,10.41,21.25,18.56,43,21.5,66.64,3.07,24.73,2.72,49.92,3.37,74.8q1,38.5,2,77c.65,24.72,1.89,49.66-1.26,74.27a186.11,186.11,0,0,1-19.46,61.51,248.23,248.23,0,0,1-16.42,27.22.89.89,0,0,0-1.07.74c0,.31-.08.62-.11.93-17.58,25.06-39.21,47.35-61.35,68.32-15.72,14.9-31.53,30.23-49.05,43-18.51,13.53-39.27,22.54-62.39,23.58-44.72,2-84.6-20.72-119.36-46.69q-9.68-8.14-19.72-15.86c-3.49-2.67-7-5.27-10.61-7.84Q448.2,987.19,433,974.19C415.4,959.1,398.54,943,384.08,924.88c-14.66-18.4-26.58-38.82-37.07-59.83a724.52,724.52,0,0,1-28.93-66.59c-12.63-33.21-23.23-67.14-32.89-101.32q.6-4.11,1.07-8.23a135.08,135.08,0,0,0-.47-32.73A180.48,180.48,0,0,1,318.07,648a187.35,187.35,0,0,1,73.57,3.1,177.79,177.79,0,0,1,17.67,5.32c5.93,2.12,11.72,4.58,17.6,6.85,11.34,4.37,23.5,8.26,35.79,6.39a38.15,38.15,0,0,0,4.47-1,.72.72,0,0,0-.38-1.38,39.78,39.78,0,0,1-12,1.37,40.4,40.4,0,0,0,4.54-2.32,38.71,38.71,0,0,0,3.3-2.21,23.49,23.49,0,0,0,2.22-1.79c.73.71,1.46,1.42,2.17,2.14.56.57,1.42-.3.87-.87-.73-.75-1.49-1.48-2.25-2.21a.56.56,0,0,0-.65-.65c-1.72-1.65-3.5-3.25-5.3-4.82.14-.24.3-.48.44-.73a.53.53,0,0,0-.92-.54c-.12.18-.25.35-.38.53-3-2.55-6.1-4.95-9.3-7.23.14-.32.28-.62.41-.94.21-.51-.65-.88-.9-.38l-.35.72a132.67,132.67,0,0,0-12.36-7.7,138.36,138.36,0,0,0-37.14-13.92,132.47,132.47,0,0,0-39.72-2.5,137.61,137.61,0,0,0-39.25,9.47,136.22,136.22,0,0,0-30.94,17.48l-.37,0c-.41-.06-.59.39-.48.72-.93.71-1.86,1.42-2.77,2.16l-.26.22a188.81,188.81,0,0,0-7.1-29.58c-10.91-33.93-29.27-67.77-32.38-103.68a110.6,110.6,0,0,1,1.66-19.26c3.82-21.63,13.14-41.71,24-60.78l1.25-1.89c5.08-7.66,10.54-15.15,17.11-21.6,3.18-2.83,6.46-5.55,9.85-8.13A90.34,90.34,0,0,1,314,400.39c30.77-13.7,67.34-12.85,95.59-32.52.63-.44,1.25-.91,1.86-1.38a.34.34,0,0,0,.09.08c20.66,15.76,47.49,20.16,72.87,17.61,13.52-1.36,26.39-4.92,39.31-9,14.33-4.54,29.42-9.11,44.54-5.92,27,5.72,44.49,30.18,59.11,51.56,7.61,11.13,15.22,22.4,24.66,32.09a99.24,99.24,0,0,0,30.92,21.5c18.48,8.18,37.82,11.2,57.48,11.82,3.23,1.78,6.49,3.49,9.82,5.08a2.23,2.23,0,0,0-.65.43,2.47,2.47,0,0,0,0,3.41l26.22,31.91C781.73,534.28,787.79,542,795.46,547.46ZM308.24,646.79c-2.33-1-4.67-2-7-3,2.42-1.47,4.89-2.87,7.4-4.18a.28.28,0,0,0,.08.11c2.8,2.34,5.73,4.51,8.65,6.7a.81.81,0,0,0,1.1-.29.82.82,0,0,0-.29-1.1c-2.75-2.05-5.49-4.12-8.33-6,2.16-1.11,4.35-2.17,6.57-3.15a136.22,136.22,0,0,1,38.48-10.72c2.07-.26,4.14-.45,6.22-.61a.58.58,0,0,0,.05.42c3.34,6.08,6.54,12.23,9.29,18.6.4.93,1.76.13,1.36-.79a124.9,124.9,0,0,0-9.58-18.3,131,131,0,0,1,32.13,1.73,136.06,136.06,0,0,1,53.73,22.3c-2.76,5.64-5.55,11.27-8.62,16.76a.57.57,0,0,0,.23.79c-3.12-.87-6.19-1.9-9.18-3l-1.35-.51a.64.64,0,0,0,.15-.59,98.8,98.8,0,0,1-2.08-17.05.6.6,0,0,0-1.19,0,74.62,74.62,0,0,0,1.89,17.17c-5.06-1.93-10.06-4-15.12-5.92-2.2-.83-4.42-1.6-6.64-2.34,0,0,0,0,0-.06a80.05,80.05,0,0,0-7.88-24.21c-.34-.64-1.22-.08-.95.56a104.11,104.11,0,0,1,7.24,23.18q-4.63-1.5-9.34-2.75a187.12,187.12,0,0,0-57.65-5.93.71.71,0,0,0,.12-1.17A96.94,96.94,0,0,0,324,633.28c-.7-.43-1.25.61-.63,1.07,4.47,3.33,9,6.6,13.18,10.23a1,1,0,0,0,.14.08c-4.87.28-9.73.73-14.57,1.38a186,186,0,0,0-26.21,5.46.58.58,0,0,0-.39-.31c-1.42-.26-2.83-.5-4.25-.73q4.14-3,8.51-5.77c2.5,1.27,5.08,2.37,7.64,3.49a.84.84,0,0,0,1.11-.29A.81.81,0,0,0,308.24,646.79ZM444,666.29c1.83-2,3.55-4.13,5.18-6.31a48.06,48.06,0,0,0,4.44-6.94.55.55,0,0,0,0-.37c1.47,1.14,2.92,2.3,4.34,3.51a49.87,49.87,0,0,1-10.4,10.72.66.66,0,0,0-.11,1,76.11,76.11,0,0,1-7.58-1.71.51.51,0,0,0,.5-.28A174.69,174.69,0,0,0,449,649.16q2.16,1.51,4.25,3.12a.53.53,0,0,0-.44.24c-1.52,2.19-2.95,4.45-4.52,6.61a78.29,78.29,0,0,1-5.08,6.28C442.63,666,443.5,666.89,444,666.29ZM459,657c1.54,1.34,3.07,2.69,4.55,4.09l.35.35c-.69.54-1.34,1.15-2,1.66a38.26,38.26,0,0,1-3.2,2.17,37.86,37.86,0,0,1-6.74,3.21c-1.22-.11-2.45-.28-3.67-.47h0A42.48,42.48,0,0,0,459,657Zm-165.35-4.8c-2.43.73-4.85,1.5-7.25,2.33l-.71.25q2.12-1.71,4.29-3.34C291.2,651.68,292.43,651.93,293.65,652.17ZM789.49,535.64c-3.36-3.55-6.45-7.34-9.55-11.12L767.19,509,754.11,493.1c1.94.87,3.88,1.71,5.84,2.52,4,1.65,8.11,3.14,12.24,4.5C777.49,512.18,783.5,523.9,789.49,535.64Zm95-35.54c.09.85,1.44.86,1.34,0,0-.48-.11-1-.16-1.43a65.58,65.58,0,0,1,15.67,6.46A76.49,76.49,0,0,1,920,520.48c11.47,12.82,18.91,28.65,23.19,45.21,4.53,17.5,5.78,35.61,6.36,53.63-4.76-15.12-10.26-30-16.06-44.72-4.43-11.22-9.05-22.43-14.21-33.34-4.46-9.47-9.87-19-18-25.75-1.1-.91-2.22-1.75-3.36-2.54,10.29,4.37,19.78,10.78,26.7,19.65q1.47,1.9,2.77,3.93c.46.72,1.61.06,1.16-.68-6.59-10.66-16.76-18.43-28.09-23.54a94,94,0,0,0-12.76-4.64A73.94,73.94,0,0,0,865,503.54c-.86-.08-1.72-.17-2.59-.24-16.69-1.29-33.44-.3-50.16-.88q-8.57-.29-17-1.37a165.83,165.83,0,0,1-16.73-4c-2.43-.72-4.84-1.5-7.23-2.32-.47-1.1-.93-2.19-1.37-3.29-.31-.77-1.58-.43-1.26.35s.66,1.58,1,2.36q-8.16-2.88-16-6.55L812,491.74l32.4,2.28c10.55.74,21.23,1.11,31.7,2.66a80.17,80.17,0,0,1,8.19,1.64Z"/><path class="cls-1" d="M581,586.76a92.45,92.45,0,0,1-9.5,24.93q-1.87,3.28-4,6.39c-.54.78.74,1.52,1.28.74a83.54,83.54,0,0,0,11.59-24.28,68.31,68.31,0,0,0,1.73-7.49C582.2,586.36,581.18,586.05,581,586.76Z"/><path class="cls-1" d="M571.33,595.23a151.21,151.21,0,0,1-7.09,22,26.15,26.15,0,0,1-2.78-11.94.49.49,0,0,0-1,0,24.31,24.31,0,0,0,3.09,13.29c.36.66,1.32.13,1.08-.52a.65.65,0,0,0,.73-.39,118,118,0,0,0,6.92-22.17C572.42,594.87,571.48,594.6,571.33,595.23Z"/><path class="cls-1" d="M440.94,644.75c-1.24,6.57-2.3,13.18-3.39,19.79-.14.85,1.17,1.23,1.32.36,1.1-6.61,2.24-13.21,3.2-19.84C442.17,644.33,441.08,644,440.94,644.75Z"/><path class="cls-1" d="M434,641.05c.08-.6-1-.75-1.07-.14a65.24,65.24,0,0,0,.11,22.73c.15.84,1.43.48,1.29-.36A74.29,74.29,0,0,1,434,641.05Z"/><path class="cls-1" d="M421.63,636.74c-.09-.74-1.26-.78-1.2,0,.65,7.72,1.79,15.4,3.16,23,.17.94,1.61.54,1.44-.4C423.68,651.86,422.63,644.31,421.63,636.74Z"/><path class="cls-1" d="M414.69,635.72a.59.59,0,0,0-1.14.32A124.26,124.26,0,0,1,417.62,657c.1,1,1.6,1,1.5,0A98.93,98.93,0,0,0,414.69,635.72Z"/><path class="cls-1" d="M412.34,653.3c-1.51-7.07-3.28-14.1-5.46-21a.59.59,0,0,0-1.14.31c1.81,7,3.55,14,5.05,21.12C411,654.74,412.55,654.31,412.34,653.3Z"/><path class="cls-1" d="M398.09,649.44a137.66,137.66,0,0,0-8.83-18.61c-.41-.72-1.48-.08-1.1.65,3,6,5.91,12.11,8.38,18.39C396.91,650.82,398.47,650.41,398.09,649.44Z"/><path class="cls-1" d="M390.22,647.13A97.56,97.56,0,0,0,378.82,629c-.43-.53-1.36.18-1,.75a132.74,132.74,0,0,1,11.06,18.14C389.35,648.75,390.64,648,390.22,647.13Z"/><path class="cls-1" d="M380.82,646a90.4,90.4,0,0,0-10.09-19.9c-.42-.61-1.39-.07-1,.58a123.16,123.16,0,0,1,9.63,19.72C379.69,647.33,381.16,646.94,380.82,646Z"/><path class="cls-1" d="M364,643.24a155.22,155.22,0,0,0-10.44-16.72c-.44-.61-1.46,0-1,.61,3.52,5.54,7,11.14,10.12,16.9C363.12,644.92,364.48,644.13,364,643.24Z"/><path class="cls-1" d="M354.11,642.37a103.37,103.37,0,0,0-8.38-11.26c-.49-.57-1.52.2-1.06.81,2.8,3.68,5.55,7.39,8.08,11.25C353.3,644,354.67,643.23,354.11,642.37Z"/><path class="cls-1" d="M345.35,642.24a113.15,113.15,0,0,0-11.3-10c-.57-.43-1.28.51-.76,1,3.71,3.33,7.4,6.66,10.92,10.18A.81.81,0,0,0,345.35,642.24Z"/><path class="cls-1" d="M327.3,643.94a34.72,34.72,0,0,0-9.68-7.75.61.61,0,0,0-.62,1,53.17,53.17,0,0,1,9.16,7.84C326.86,645.85,328,644.71,327.3,643.94Z"/><path class="cls-1" d="M337.49,188.53A95.61,95.61,0,0,1,325.14,168c-.28-.62-1.17-.09-.91.53a91.92,91.92,0,0,0,12.43,20.8C337.13,190,338,189.12,337.49,188.53Z"/><path class="cls-1" d="M384.11,155.06c-9.59-2.27-16.63-11.51-17.34-21.18a20.59,20.59,0,0,1,1-8.17c.25-.74-.93-1.06-1.18-.32-3.36,9.86,1.1,21.24,9.42,27.17a21.39,21.39,0,0,0,7.8,3.46C384.47,156.16,384.73,155.21,384.11,155.06Z"/><path class="cls-1" d="M656.05,104.82A57.88,57.88,0,0,1,645.1,129.5c-.4.52.49,1,.88.52a57.53,57.53,0,0,0,11-25C657.06,104.49,656.16,104.23,656.05,104.82Z"/><path class="cls-1" d="M596.36,69.16c-.07-.61-1-.63-1,0a79,79,0,0,1-5.86,38.16,76.49,76.49,0,0,1-5,9.79.53.53,0,0,0,.91.53A79,79,0,0,0,596.7,80.4,76.69,76.69,0,0,0,596.36,69.16Z"/><path class="cls-1" d="M622.14,70.46c-.1-.63-1.06-.36-1,.27a53.77,53.77,0,0,1-9.3,38.24,51.53,51.53,0,0,1-7.57,8.52c-.54.48.25,1.27.78.79a54.38,54.38,0,0,0,17.54-36.15A51.21,51.21,0,0,0,622.14,70.46Z"/><path class="cls-1" d="M459.56,124.22A39.1,39.1,0,0,1,443,111.56a42.61,42.61,0,0,1-8.32-19.16,37.91,37.91,0,0,1,0-12c.1-.66-.89-1-1-.28a39.82,39.82,0,0,0,2.27,21.54,43.2,43.2,0,0,0,12.69,17.58,38.91,38.91,0,0,0,10.63,6.23C460,125.79,460.34,124.52,459.56,124.22Z"/><path class="cls-1" d="M447.18,130.85c-8.26,1.48-16.68-1.07-23.66-5.47-7.36-4.64-13.1-11.37-18-18.47-2.8-4.06-5.36-8.28-7.94-12.49a.54.54,0,0,0-.93.54c4.57,7.81,9.25,15.66,15.36,22.38,5.8,6.39,13,11.62,21.41,14a31.29,31.29,0,0,0,14.1.8C448.37,132,448,130.71,447.18,130.85Z"/><path class="cls-1" d="M581.76,671.29c16.5-11.08,40.57-18.17,60.26-15.49,35.09,4.79,72.22-13.74,89.5-44.65-.79,20.14-15.8,37.65-33.88,46.55s-38.82,10.58-59,10.7S594.74,669.53,581.76,671.29Z"/><path class="cls-1" d="M467.15,696.15c-16.63-.78-36.94,2.82-50.72,12.18-26.8,18.19-63,21.57-92.72,8.64,17.86,18.64,47.82,19.85,72.49,12.25S446.14,708,467.15,696.15Z"/><path class="cls-1" d="M717.45,620.19a72.24,72.24,0,0,1-21,26.9c-1.17.95.38,3,1.63,2.11a65.38,65.38,0,0,0,22.07-27.44C720.93,619.94,718.26,618.35,717.45,620.19Z"/><path class="cls-1" d="M703.24,625.27A77.12,77.12,0,0,1,679.8,657c-1.12.91.36,2.85,1.54,2a71.34,71.34,0,0,0,24.93-32.94C707,624.21,704,623.4,703.24,625.27Z"/><path class="cls-1" d="M691,630.25a51.3,51.3,0,0,1-28.66,31.06c-1,.42-.28,2.13.73,1.75a50.67,50.67,0,0,0,30-32.24C693.53,629.49,691.46,628.93,691,630.25Z"/><path class="cls-1" d="M680.67,632.93a56.83,56.83,0,0,1-26.85,26.48c-1,.48-.27,2.23.76,1.8A54,54,0,0,0,682.48,634C683,632.77,681.25,631.71,680.67,632.93Z"/><path class="cls-1" d="M667.77,635.82c-6,11.87-17.57,18.72-28.36,25.63a1,1,0,0,0,1,1.71c11.36-6.52,23.11-14.2,29.07-26.34C670,635.68,668.34,634.68,667.77,635.82Z"/><path class="cls-1" d="M367.19,727.12c-14.1-4.87-28.63-10.27-38.95-21.53-1.12-1.22-2.74.54-1.77,1.77,9.72,12.44,25.57,17.62,40,22.36C368.13,730.27,368.82,727.68,367.19,727.12Z"/><path class="cls-1" d="M378.24,724.61a54.39,54.39,0,0,1-29.8-16.11c-1.13-1.15-2.73.54-1.74,1.74,7.66,9.28,19,15.22,30.78,17.12C379.27,727.65,380.05,724.92,378.24,724.61Z"/><path class="cls-1" d="M386.73,721.87c-12.15-2.69-22.45-9.67-30.55-19-.93-1.06-2.8.35-2,1.52,7.48,10.45,19.32,17.42,31.79,20.09C387.72,724.89,388.46,722.25,386.73,721.87Z"/><path class="cls-1" d="M396.15,718.77c-9.62-2.14-17.72-7.66-24.15-15-.92-1-2.75.34-1.95,1.5,5.83,8.5,15.33,14.2,25.32,16.37C397.22,722,398,719.18,396.15,718.77Z"/><path class="cls-1" d="M407.71,714.82A56.6,56.6,0,0,1,383.2,704c-1.16-.87-2.64,1.05-1.55,2a50.23,50.23,0,0,0,25.26,11.71C408.81,718.05,409.63,715.14,407.71,714.82Z"/><path class="cls-1" d="M212.38,195.77c-3.81-3.85-11.62-3.47-14.15,1.82-1.7,3.55-2.65,7.37-2,10.95-1.4,3.21-1.1,7.49,1.74,9.81,3.31,2.71,7,3.91,11.19,2.78a13.22,13.22,0,0,0,7.86-6.34C220.64,208,217.35,200.79,212.38,195.77Z"/><path class="cls-1" d="M212,270.32c-7.37,0-7.39,11.46,0,11.46S219.39,270.32,212,270.32Z"/><path class="cls-1" d="M276.55,306.14c-.88-4.11-6.13-7.24-10.15-5.76l-9.28,3.41c-4,1.47-7.14,5.6-5.7,10,1.09,3.36,4.41,6.16,8,6.06a10.08,10.08,0,0,0,10.85.86c1.63-1.24,2.16-1.65,1.59-1.25.38-.29.76-.6,1.11-.92A13.06,13.06,0,0,0,276.55,306.14Z"/><path class="cls-1" d="M357.74,531a9.28,9.28,0,0,0-4.15-5.4l-2.16-.91a6.79,6.79,0,0,0-3.6-.16,4.08,4.08,0,0,0-.61,0,9.58,9.58,0,0,0-5.35,1.24,9.28,9.28,0,0,0-4.51,6.62,7,7,0,0,0-.51,1.4,9.12,9.12,0,0,0,.91,7l1.41,1.83a9,9,0,0,0,4,2.32,10,10,0,0,0,7.83-1,8.88,8.88,0,0,0,2.13-1.66A10.22,10.22,0,0,0,357.74,531Z"/><path class="cls-1" d="M363.78,546.89c-7.34,0-7.35,11.4,0,11.4S371.13,546.89,363.78,546.89Z"/><path class="cls-1" d="M269.23,518.72c-7.37,0-7.39,11.46,0,11.46S276.62,518.72,269.23,518.72Z"/><path class="cls-1" d="M223.5,539.91c-7.37,0-7.39,11.46,0,11.46S230.88,539.91,223.5,539.91Z"/><path class="cls-1" d="M218.54,435.41a12.45,12.45,0,0,0-10.75-6c-6.69.34-10.8,6.45-9.94,12.87.8,5.92,5.07,10.51,10,13.51,3.5,2.12,8.73.89,10.68-2.8a8.17,8.17,0,0,0-.15-8.07,8.53,8.53,0,0,0,1.17-2.36A9.11,9.11,0,0,0,218.54,435.41Z"/><path class="cls-1" d="M336.88,425.65c-3.52.16-6.75,2.92-6.65,6.65l.15,5.65c.09,3.4,2.93,6.66,6.5,6.5a6.63,6.63,0,0,0,6.5-6.5l.15-5.65A6.7,6.7,0,0,0,336.88,425.65Z"/><path class="cls-1" d="M72,138.84c-2.81-2.83-8.56-2.55-10.43,1.35a13.43,13.43,0,0,0-1.47,8.06c-1,2.37-.81,5.52,1.28,7.23a8.82,8.82,0,0,0,8.25,2.05,9.73,9.73,0,0,0,5.79-4.67C78.11,147.85,75.68,142.54,72,138.84Z"/><path class="cls-1" d="M71.74,193.78c-5.43,0-5.44,8.44,0,8.44S77.19,193.78,71.74,193.78Z"/><path class="cls-1" d="M119.3,220.17c-.64-3-4.51-5.33-7.47-4.24L105,218.44c-2.95,1.08-5.26,4.13-4.2,7.4a6.38,6.38,0,0,0,5.91,4.46,7.44,7.44,0,0,0,8,.64c1.2-.92,1.59-1.22,1.17-.92.28-.22.56-.45.82-.68A9.62,9.62,0,0,0,119.3,220.17Z"/><path class="cls-1" d="M179.13,385.89a6.85,6.85,0,0,0-3.06-4l-1.59-.67a5.08,5.08,0,0,0-2.65-.12,3.29,3.29,0,0,0-.45,0,7,7,0,0,0-3.94.92,6.83,6.83,0,0,0-2.48,2.47,7.09,7.09,0,0,0-.85,2.41,4.88,4.88,0,0,0-.37,1,6.73,6.73,0,0,0,.67,5.12l1,1.35a6.69,6.69,0,0,0,2.93,1.71,7.35,7.35,0,0,0,5.77-.73,6.56,6.56,0,0,0,1.57-1.23A7.53,7.53,0,0,0,179.13,385.89Z"/><path class="cls-1" d="M183.58,397.57c-5.41,0-5.41,8.4,0,8.4S189,397.57,183.58,397.57Z"/><path class="cls-1" d="M113.91,376.81c-5.43,0-5.44,8.45,0,8.45S119.36,376.81,113.91,376.81Z"/><path class="cls-1" d="M80.21,392.43c-5.43,0-5.44,8.44,0,8.44S85.65,392.43,80.21,392.43Z"/><path class="cls-1" d="M76.56,315.43A9.18,9.18,0,0,0,68.64,311c-4.93.25-8,4.75-7.33,9.49.59,4.36,3.74,7.74,7.39,9.95a5.81,5.81,0,0,0,7.87-2.06,6,6,0,0,0-.11-5.95,6.3,6.3,0,0,0,.87-1.74A6.74,6.74,0,0,0,76.56,315.43Z"/><path class="cls-1" d="M163.76,308.23a5,5,0,0,0-4.9,4.9c0,1.39.07,2.78.11,4.17a4.79,4.79,0,0,0,9.58,0c0-1.39.07-2.78.11-4.17A5,5,0,0,0,163.76,308.23Z"/><path class="cls-1" d="M903.1,661.89c-2.8-2.83-8.56-2.55-10.42,1.34a13.4,13.4,0,0,0-1.48,8.07c-1,2.37-.81,5.52,1.28,7.23a8.82,8.82,0,0,0,8.25,2.05,9.74,9.74,0,0,0,5.79-4.67C909.19,670.9,906.77,665.59,903.1,661.89Z"/><path class="cls-1" d="M902.82,716.83c-5.43,0-5.44,8.44,0,8.44S908.27,716.83,902.82,716.83Z"/><path class="cls-1" d="M950.39,743.22c-.65-3-4.52-5.34-7.48-4.24l-6.84,2.51c-3,1.08-5.26,4.12-4.2,7.4a6.38,6.38,0,0,0,5.91,4.46,7.44,7.44,0,0,0,8,.64c1.21-.92,1.6-1.22,1.18-.93.28-.21.56-.44.81-.67A9.62,9.62,0,0,0,950.39,743.22Z"/><path class="cls-1" d="M1010.21,908.94a6.84,6.84,0,0,0-3.05-4l-1.6-.67a5,5,0,0,0-2.65-.12,3.4,3.4,0,0,0-.45,0,7,7,0,0,0-3.94.92A6.76,6.76,0,0,0,995.2,910a4.77,4.77,0,0,0-.38,1,6.75,6.75,0,0,0,.67,5.13c.35.45.69.9,1,1.34a6.5,6.5,0,0,0,2.93,1.71,7.3,7.3,0,0,0,5.77-.73,6.1,6.1,0,0,0,1.57-1.22A7.53,7.53,0,0,0,1010.21,908.94Z"/><path class="cls-1" d="M1014.66,920.62c-5.4,0-5.41,8.4,0,8.4S1020.08,920.62,1014.66,920.62Z"/><path class="cls-1" d="M945,899.86c-5.43,0-5.44,8.45,0,8.45S950.44,899.86,945,899.86Z"/><path class="cls-1" d="M911.3,915.48c-5.43,0-5.45,8.44,0,8.44S916.73,915.48,911.3,915.48Z"/><path class="cls-1" d="M907.64,838.47a9.19,9.19,0,0,0-7.92-4.41c-4.93.25-8,4.75-7.32,9.48.59,4.37,3.73,7.75,7.39,10a5.81,5.81,0,0,0,7.87-2.07,6,6,0,0,0-.11-5.94,6.57,6.57,0,0,0,.86-1.74A6.72,6.72,0,0,0,907.64,838.47Z"/><path class="cls-1" d="M994.84,831.28a5,5,0,0,0-4.9,4.9c0,1.39.08,2.78.11,4.17a4.79,4.79,0,0,0,9.58,0c0-1.39.08-2.78.11-4.17A4.93,4.93,0,0,0,994.84,831.28Z"/><path class="cls-1" d="M943.79,874.2c-3.81-3.85-11.62-3.47-14.15,1.82-1.7,3.55-2.65,7.37-2,11-1.4,3.21-1.1,7.49,1.74,9.81,3.31,2.71,7,3.91,11.19,2.78a13.22,13.22,0,0,0,7.86-6.34C952.05,886.42,948.76,879.22,943.79,874.2Z"/><path class="cls-1" d="M943.41,948.75c-7.37,0-7.39,11.46,0,11.46S950.8,948.75,943.41,948.75Z"/><path class="cls-1" d="M1008,984.57c-.88-4.11-6.13-7.24-10.15-5.76l-9.28,3.41c-4,1.47-7.14,5.6-5.7,10,1.09,3.36,4.41,6.16,8,6.06a10.08,10.08,0,0,0,10.85.86c1.63-1.24,2.16-1.65,1.59-1.25.38-.29.76-.6,1.11-.92A13.06,13.06,0,0,0,1008,984.57Z"/><path class="cls-1" d="M1089.15,1209.47a9.28,9.28,0,0,0-4.15-5.4l-2.16-.91a6.79,6.79,0,0,0-3.6-.16,4.08,4.08,0,0,0-.61,0,9.58,9.58,0,0,0-5.35,1.24,9.28,9.28,0,0,0-4.51,6.62,7,7,0,0,0-.51,1.4,9.12,9.12,0,0,0,.91,7l1.41,1.83a9,9,0,0,0,4,2.32,10,10,0,0,0,7.83-1,8.88,8.88,0,0,0,2.13-1.66A10.22,10.22,0,0,0,1089.15,1209.47Z"/><path class="cls-1" d="M1095.19,1225.32c-7.34,0-7.35,11.4,0,11.4S1102.54,1225.32,1095.19,1225.32Z"/><path class="cls-1" d="M1000.64,1197.15c-7.37,0-7.39,11.46,0,11.46S1008,1197.15,1000.64,1197.15Z"/><path class="cls-1" d="M954.91,1218.34c-7.37,0-7.39,11.46,0,11.46S962.29,1218.34,954.91,1218.34Z"/><path class="cls-1" d="M950,1113.84a12.45,12.45,0,0,0-10.75-6c-6.69.34-10.8,6.45-9.94,12.87.8,5.92,5.07,10.51,10,13.51,3.5,2.12,8.73.89,10.68-2.8a8.17,8.17,0,0,0-.15-8.07A8.53,8.53,0,0,0,951,1121,9.11,9.11,0,0,0,950,1113.84Z"/><path class="cls-1" d="M1068.29,1104.08c-3.52.16-6.75,2.92-6.65,6.65l.15,5.65c.09,3.4,2.93,6.66,6.5,6.5a6.63,6.63,0,0,0,6.5-6.5l.15-5.65A6.7,6.7,0,0,0,1068.29,1104.08Z"/><path class="cls-1" d="M217.43,1316.07c.78-4-2.75-8.7-7.11-8a13.67,13.67,0,0,0-7.66,3.38c-2.59.49-5.13,2.48-5.38,5.23a9,9,0,0,0,3,8.14,10,10,0,0,0,7.27,2.21C213.31,1326.37,216.4,1321.28,217.43,1316.07Z"/><path class="cls-1" d="M170.86,1347.32c-3.11-4.59-10.25.24-7.13,4.84S174,1351.92,170.86,1347.32Z"/><path class="cls-1" d="M175.83,1402.63c2.18-2.28,1.91-6.87-.7-8.75l-6-4.34c-2.6-1.86-6.5-2.07-8.65.7a6.52,6.52,0,0,0-.39,7.55,7.62,7.62,0,0,0,4.05,7.12c1.46.49,1.94.64,1.45.46.34.11.69.22,1,.3A9.81,9.81,0,0,0,175.83,1402.63Z"/><path class="cls-1" d="M70.13,1548.16a7,7,0,0,0,1.6-4.86c-.11-.58-.22-1.16-.34-1.73a5.12,5.12,0,0,0-1.42-2.31,3.44,3.44,0,0,0-.28-.36,7.17,7.17,0,0,0-3-2.81,7,7,0,0,0-6,0,5.43,5.43,0,0,0-1.09.27,6.88,6.88,0,0,0-3.94,3.51l-.54,1.65a6.74,6.74,0,0,0,.23,3.45,7.5,7.5,0,0,0,3.93,4.46,6.61,6.61,0,0,0,1.93.62A7.69,7.69,0,0,0,70.13,1548.16Z"/><path class="cls-1" d="M62.81,1558.62c-3.1-4.57-10.2.24-7.09,4.81S65.92,1563.19,62.81,1558.62Z"/><path class="cls-1" d="M40.41,1487.86c-3.11-4.58-10.25.24-7.13,4.84S43.53,1492.46,40.41,1487.86Z"/><path class="cls-1" d="M7.91,1468.35c-3.12-4.59-10.26.24-7.14,4.84S11,1472.94,7.91,1468.35Z"/><path class="cls-1" d="M70.86,1421.12a9.36,9.36,0,0,0-.81-9.22c-3-4-8.58-4-12.21-.75-3.35,3-4.4,7.59-4.18,11.95a5.93,5.93,0,0,0,6.26,5.46,6.13,6.13,0,0,0,5-3.5,6.29,6.29,0,0,0,2-.27A6.83,6.83,0,0,0,70.86,1421.12Z"/><path class="cls-1" d="M126.92,1490.66a5.08,5.08,0,0,0-7-1.33l-3.45,2.48a4.89,4.89,0,0,0,5.49,8.09l3.58-2.29A5,5,0,0,0,126.92,1490.66Z"/><path class="cls-1" d="M474.15,1206.49c.79-4-2.75-8.7-7.11-8a13.77,13.77,0,0,0-7.66,3.38c-2.59.49-5.13,2.48-5.37,5.23a9,9,0,0,0,3,8.14,10,10,0,0,0,7.26,2.21C470,1216.79,473.13,1211.71,474.15,1206.49Z"/><path class="cls-1" d="M427.59,1237.74c-3.12-4.58-10.26.24-7.14,4.84S430.71,1242.34,427.59,1237.74Z"/><path class="cls-1" d="M432.55,1293.05c2.19-2.28,1.92-6.87-.7-8.75l-6-4.33c-2.6-1.87-6.5-2.08-8.66.69a6.52,6.52,0,0,0-.38,7.55,7.57,7.57,0,0,0,4.05,7.12c1.46.49,1.93.64,1.45.46.34.11.69.22,1,.3A9.8,9.8,0,0,0,432.55,1293.05Z"/><path class="cls-1" d="M326.85,1438.58a6.93,6.93,0,0,0,1.61-4.86c-.12-.58-.23-1.16-.34-1.73a5.05,5.05,0,0,0-1.43-2.31,1.93,1.93,0,0,0-.28-.36,7.15,7.15,0,0,0-3-2.81,7,7,0,0,0-6,0,5.43,5.43,0,0,0-1.09.27,6.85,6.85,0,0,0-3.94,3.51l-.55,1.65a6.74,6.74,0,0,0,.24,3.45,7.48,7.48,0,0,0,3.92,4.46,6.3,6.3,0,0,0,1.94.62A7.67,7.67,0,0,0,326.85,1438.58Z"/><path class="cls-1" d="M319.54,1449c-3.1-4.57-10.2.24-7.1,4.81S322.64,1453.61,319.54,1449Z"/><path class="cls-1" d="M297.14,1378.28c-3.12-4.58-10.26.24-7.14,4.84S300.26,1382.88,297.14,1378.28Z"/><path class="cls-1" d="M264.63,1358.77c-3.11-4.59-10.25.24-7.13,4.84S267.75,1363.36,264.63,1358.77Z"/><path class="cls-1" d="M327.59,1311.54a9.39,9.39,0,0,0-.82-9.22c-3-4-8.57-4-12.21-.75-3.34,3-4.4,7.6-4.17,12a5.94,5.94,0,0,0,6.25,5.47,6.15,6.15,0,0,0,5-3.51,6.29,6.29,0,0,0,2-.26A6.9,6.9,0,0,0,327.59,1311.54Z"/><path class="cls-1" d="M383.64,1381.08a5.08,5.08,0,0,0-6.94-1.33l-3.46,2.48a4.89,4.89,0,0,0,5.49,8.1l3.58-2.3A5,5,0,0,0,383.64,1381.08Z"/><path class="cls-1" d="M267.67,1444.72c.79-4-2.75-8.7-7.11-8a13.81,13.81,0,0,0-7.66,3.38c-2.59.49-5.13,2.48-5.37,5.23a9,9,0,0,0,3,8.14,10,10,0,0,0,7.27,2.22C263.55,1455,266.64,1449.94,267.67,1444.72Z"/><path class="cls-1" d="M221.1,1476c-3.11-4.58-10.25.25-7.13,4.85S224.23,1480.57,221.1,1476Z"/><path class="cls-1" d="M226.07,1531.28c2.19-2.28,1.92-6.87-.7-8.75l-6-4.33c-2.61-1.87-6.5-2.08-8.66.69a6.52,6.52,0,0,0-.38,7.55,7.11,7.11,0,0,0,1.22,4.55,7.19,7.19,0,0,0,2.82,2.57c1.46.49,1.94.65,1.45.46.34.11.7.22,1,.3A9.81,9.81,0,0,0,226.07,1531.28Z"/><path class="cls-1" d="M120.37,1676.81A6.93,6.93,0,0,0,122,1672c-.12-.57-.23-1.15-.35-1.73a5.09,5.09,0,0,0-1.42-2.31,3.44,3.44,0,0,0-.28-.36,7.33,7.33,0,0,0-3-2.81,7.07,7.07,0,0,0-3.51-.67,7,7,0,0,0-2.52.66,5.18,5.18,0,0,0-1.08.28,6.82,6.82,0,0,0-4,3.5l-.54,1.65a6.78,6.78,0,0,0,.24,3.46,7.47,7.47,0,0,0,3.92,4.45,6.63,6.63,0,0,0,1.93.63A7.69,7.69,0,0,0,120.37,1676.81Z"/><path class="cls-1" d="M113.06,1687.27c-3.1-4.57-10.21.24-7.1,4.81S116.16,1691.84,113.06,1687.27Z"/><path class="cls-1" d="M90.66,1616.52c-3.12-4.59-10.26.24-7.14,4.84S93.78,1621.12,90.66,1616.52Z"/><path class="cls-1" d="M58.15,1597c-3.11-4.59-10.25.24-7.13,4.84S61.27,1601.59,58.15,1597Z"/><path class="cls-1" d="M121.1,1549.78a9.38,9.38,0,0,0-.81-9.23c-3-4-8.58-4-12.21-.75-3.35,3-4.4,7.6-4.17,12a5.93,5.93,0,0,0,6.25,5.47,6.15,6.15,0,0,0,5-3.5,6.62,6.62,0,0,0,2-.27A6.84,6.84,0,0,0,121.1,1549.78Z"/><path class="cls-1" d="M177.16,1619.32a5.07,5.07,0,0,0-6.95-1.33l-3.45,2.47a4.89,4.89,0,0,0,5.49,8.1l3.58-2.3A5,5,0,0,0,177.16,1619.32Z"/><path class="cls-1" d="M816.81,52.13c.79-4-2.75-8.7-7.11-8A13.7,13.7,0,0,0,802,47.47c-2.59.48-5.13,2.48-5.37,5.23a9,9,0,0,0,3,8.14,10,10,0,0,0,7.26,2.21C812.69,62.43,815.79,57.34,816.81,52.13Z"/><path class="cls-1" d="M770.25,83.38c-3.12-4.59-10.26.24-7.14,4.84S773.37,88,770.25,83.38Z"/><path class="cls-1" d="M775.21,138.69c2.19-2.28,1.92-6.87-.7-8.75l-6-4.34c-2.61-1.87-6.5-2.08-8.66.7a6.52,6.52,0,0,0-.38,7.55,7.56,7.56,0,0,0,4,7.11c1.47.5,1.94.65,1.45.47.35.11.7.22,1.05.3A9.8,9.8,0,0,0,775.21,138.69Z"/><path class="cls-1" d="M669.51,284.22a6.93,6.93,0,0,0,1.61-4.86c-.12-.58-.23-1.16-.34-1.73a5.14,5.14,0,0,0-1.43-2.31,2.48,2.48,0,0,0-.28-.36,7.2,7.2,0,0,0-3-2.81,7,7,0,0,0-6,0,5.51,5.51,0,0,0-1.08.27,6.87,6.87,0,0,0-3.94,3.5l-.55,1.65a6.77,6.77,0,0,0,.24,3.46,7.48,7.48,0,0,0,3.92,4.46,6.58,6.58,0,0,0,1.94.62A7.67,7.67,0,0,0,669.51,284.22Z"/><path class="cls-1" d="M662.2,294.67c-3.1-4.56-10.2.24-7.1,4.82S665.3,299.25,662.2,294.67Z"/><path class="cls-1" d="M639.8,223.92c-3.12-4.59-10.26.24-7.14,4.84S642.92,228.52,639.8,223.92Z"/><path class="cls-1" d="M607.29,204.41c-3.11-4.59-10.25.24-7.13,4.84S610.41,209,607.29,204.41Z"/><path class="cls-1" d="M670.25,157.18a9.39,9.39,0,0,0-.82-9.22c-3-4-8.57-4-12.21-.75-3.34,3-4.4,7.59-4.17,11.95a5.92,5.92,0,0,0,6.25,5.46,6.12,6.12,0,0,0,5-3.5,6.31,6.31,0,0,0,2-.27A6.86,6.86,0,0,0,670.25,157.18Z"/><path class="cls-1" d="M726.3,226.72a5.07,5.07,0,0,0-6.94-1.33l-3.46,2.48a4.89,4.89,0,1,0,5.49,8.09l3.58-2.29A5,5,0,0,0,726.3,226.72Z"/><path class="cls-1" d="M931.71,175.39c.79-4-2.75-8.7-7.11-8a13.74,13.74,0,0,0-7.66,3.38c-2.59.48-5.12,2.48-5.37,5.22a9,9,0,0,0,3,8.14,9.91,9.91,0,0,0,7.26,2.22C927.6,185.69,930.69,180.6,931.71,175.39Z"/><path class="cls-1" d="M885.15,206.64c-3.12-4.59-10.26.24-7.14,4.84S888.27,211.24,885.15,206.64Z"/><path class="cls-1" d="M890.11,262c2.19-2.29,1.92-6.88-.7-8.75q-3-2.17-6-4.34c-2.6-1.87-6.5-2.08-8.66.69a6.52,6.52,0,0,0-.38,7.55,7.57,7.57,0,0,0,4,7.12c1.46.49,1.94.65,1.45.46a9.49,9.49,0,0,0,1,.3A9.81,9.81,0,0,0,890.11,262Z"/><path class="cls-1" d="M784.41,407.48a7,7,0,0,0,1.61-4.87c-.11-.57-.23-1.15-.34-1.73a5.23,5.23,0,0,0-1.42-2.31,2.54,2.54,0,0,0-.29-.36,7.12,7.12,0,0,0-3-2.8,6.94,6.94,0,0,0-6,0,5.44,5.44,0,0,0-1.09.28,6.83,6.83,0,0,0-3.94,3.5l-.55,1.65a6.78,6.78,0,0,0,.24,3.46,7.5,7.5,0,0,0,3.92,4.45,6.69,6.69,0,0,0,1.94.63A7.68,7.68,0,0,0,784.41,407.48Z"/><path class="cls-1" d="M777.1,417.93c-3.1-4.57-10.2.24-7.1,4.82S780.2,422.51,777.1,417.93Z"/><path class="cls-1" d="M754.7,347.18c-3.11-4.59-10.26.24-7.13,4.84S757.82,351.78,754.7,347.18Z"/><path class="cls-1" d="M722.19,327.66c-3.11-4.59-10.25.24-7.13,4.84S725.31,332.26,722.19,327.66Z"/><path class="cls-1" d="M785.15,280.44a9.36,9.36,0,0,0-.82-9.22c-3-4-8.57-4-12.21-.76-3.34,3-4.4,7.6-4.17,12a5.94,5.94,0,0,0,6.26,5.47,6.17,6.17,0,0,0,5-3.5,6.6,6.6,0,0,0,2-.27A6.89,6.89,0,0,0,785.15,280.44Z"/><path class="cls-1" d="M841.21,350a5.07,5.07,0,0,0-7-1.33l-3.46,2.48a4.89,4.89,0,0,0,5.49,8.09l3.58-2.29A5,5,0,0,0,841.21,350Z"/><path class="cls-1" d="M922.3,560c.79-4-2.75-8.7-7.11-8a13.67,13.67,0,0,0-7.66,3.38c-2.59.48-5.13,2.48-5.37,5.22a9,9,0,0,0,3,8.14,10,10,0,0,0,7.27,2.22C918.18,570.27,921.27,565.18,922.3,560Z"/><path class="cls-1" d="M875.73,591.22c-3.11-4.59-10.25.24-7.13,4.84S878.85,595.82,875.73,591.22Z"/><path class="cls-1" d="M880.7,646.53c2.19-2.29,1.92-6.88-.7-8.75l-6-4.34c-2.61-1.87-6.51-2.08-8.66.69a6.54,6.54,0,0,0-.39,7.55A7.62,7.62,0,0,0,869,648.8c1.46.49,1.94.65,1.45.46.34.12.7.22,1,.31A9.86,9.86,0,0,0,880.7,646.53Z"/><path class="cls-1" d="M775,792.06a7.06,7.06,0,0,0,1.61-4.87c-.12-.57-.23-1.15-.35-1.73a5.06,5.06,0,0,0-1.42-2.3,2.75,2.75,0,0,0-.28-.37,7.24,7.24,0,0,0-3-2.8,7,7,0,0,0-3.51-.68,7.39,7.39,0,0,0-2.52.66,5.44,5.44,0,0,0-1.09.28,6.83,6.83,0,0,0-3.94,3.5l-.54,1.65a6.78,6.78,0,0,0,.24,3.46,7.43,7.43,0,0,0,3.92,4.45,6.63,6.63,0,0,0,1.93.63A7.7,7.7,0,0,0,775,792.06Z"/><path class="cls-1" d="M767.68,802.51c-3.1-4.57-10.2.24-7.09,4.82S770.79,807.09,767.68,802.51Z"/><path class="cls-1" d="M745.28,731.76c-3.11-4.59-10.25.24-7.13,4.84S748.4,736.36,745.28,731.76Z"/><path class="cls-1" d="M712.78,712.24c-3.11-4.58-10.26.24-7.14,4.84S715.9,716.84,712.78,712.24Z"/><path class="cls-1" d="M775.73,665a9.36,9.36,0,0,0-.81-9.22c-3-4-8.58-4-12.21-.76-3.35,3-4.4,7.6-4.17,12a5.93,5.93,0,0,0,6.25,5.47,6.13,6.13,0,0,0,5-3.5,6.56,6.56,0,0,0,2-.27A6.86,6.86,0,0,0,775.73,665Z"/><path class="cls-1" d="M831.79,734.56a5.07,5.07,0,0,0-6.95-1.33l-3.45,2.48a4.89,4.89,0,1,0,5.49,8.09l3.58-2.29A5,5,0,0,0,831.79,734.56Z"/></g></g></svg>