<svg xmlns="http://www.w3.org/2000/svg" viewBox="0 0 747.05 476.59"><defs><style>.cls-1{fill:#e6c3b3;}</style></defs><g id="Layer_2" data-name="Layer 2"><g id="Graphic_Elements" data-name="Graphic Elements"><path class="cls-1" d="M149.51,465C127,453.8,106.77,439,88.66,421.79,48.87,384-22.81,304.42,7.11,246.79c28.82-55.5,59.83-112.45,107.05-154.64,68.28-61,141.82-54.1,226.28-56.78,91-2.89,161.86-64.81,253.19-17.82,24,12.32,41,32.53,59.94,51,20.8,20.36,46,35.67,65.55,57.27,41,45.28,34.93,108.29-5.46,152.21-52.49,57.07-126.25,46-195.1,34.21-34.29-5.85-70.14-10.83-104.39-2.2-23.47,5.9-45.75,18.45-60.47,37.65-12.52,16.31-19.08,36.54-31.39,53-19.35,25.89-51.42,51-80.24,65.1C211.63,480.7,179.69,479.92,149.51,465Z"/></g></g></svg>