<svg xmlns="http://www.w3.org/2000/svg" viewBox="0 0 714.06 455.93"><defs><style>.cls-1{fill:#e1eced;}</style></defs><g id="Layer_2" data-name="Layer 2"><g id="Graphic_Elements" data-name="Graphic Elements"><path class="cls-1" d="M364.52,421.91c44.47-7.12,88.59-18.21,129.25-.55,17,7.4,31.22,20.34,48.24,27.78,58,25.36,110.76-25.25,140.28-69.94,39.5-59.81,39-145.81,15.92-211.89C684,126.57,658.66,86.57,628.78,55.56,602,27.74,568.84,11.14,529.39,10c-38.61-1.17-75.81,12.8-113.14,22.7-60.2,16-110.63,2.17-168.95-14.31-37-10.44-74.88-20.22-113.22-18-62,3.55-111.81,45.8-128.8,105.44-21.64,75.94,26.83,147.17,79.8,198.14C160.39,376.37,255.11,439.4,364.52,421.91Z"/></g></g></svg>