<svg xmlns="http://www.w3.org/2000/svg" width="887.831" height="836.796" viewBox="0 0 887.831 836.796">
  <path id="Path_269" data-name="Path 269" d="M417.64,836.8H371.3c-.91-.595-1.926-.3-2.884-.285q-21.214.214-42.41-.743c-9.757-.434-19.513-1.326-29.264-2.093q-31.678-2.479-63.023-7.325c-41.488-6.409-82.227-15.738-121.182-31.791-22.367-9.2-43.569-20.506-62.3-35.905-19.317-15.869-34.342-34.948-42.5-58.9C3.781,688.293,1,676.6.505,664.41c-.155-3.918.268-7.878-.505-11.772V635.4c.785-4,.357-8.05.493-12.069.41-11.814,2.3-23.431,4.364-35.008,4.869-27.35,12.2-54.063,20.286-80.586Q33.937,478.9,43.676,450.37c9.78-28.539,19.543-57.137,28.973-85.818,9.4-28.479,17.724-57.274,25.417-86.3,7.616-28.806,14.8-57.725,22.123-86.6,6.5-25.619,13.282-51.173,21.529-76.293,7.051-21.469,15.149-42.529,26.428-62.208C174.2,42.659,181.1,32.754,189.758,24.234,203.879,10.345,220.765,1.938,240.6.5A172.979,172.979,0,0,1,292.2,4.2c28.973,6.689,56.578,17.242,83.767,29.038,31.88,13.847,63.023,29.234,93.981,45.02q33.729,17.212,67.678,33.979c23.437,11.546,47.035,22.771,70.532,34.2,21.184,10.3,42.249,20.857,62.975,32.07,28.664,15.518,56.6,32.219,82.822,51.667A385.193,385.193,0,0,1,805.308,275.5,284,284,0,0,1,856.85,351.3a345.616,345.616,0,0,1,30.822,134.786c.226,12.266.256,24.531-.214,36.773-.737,19.317-3.734,38.384-7.931,57.25A311.944,311.944,0,0,1,863.2,632.185c-11.374,27.35-26.232,52.523-45.739,74.914-17.706,20.352-38.325,37.142-60.984,51.56-26.452,16.838-54.836,29.561-84.391,39.835C632.2,812.377,591.131,821.242,549.411,827.3q-27.742,4.031-55.716,6.219c-12.319.957-24.626,1.95-36.981,2.378q-18.681.595-37.374.595C418.758,836.5,418.139,836.338,417.64,836.8Z" transform="translate(0 0.001)" fill="#e8556f"/>
</svg>
