<svg xmlns="http://www.w3.org/2000/svg" viewBox="0 0 547.73 680.74"><defs><style>.cls-1{fill:#281616;}.cls-2{fill:#ffd3c8;}.cls-3{fill:#f8cb7a;}.cls-4{fill:#0c0e21;}.cls-5{fill:#787b85;}.cls-6{fill:#3b47c1;}.cls-7{fill:#422e2f;}.cls-13,.cls-8{fill:#ff8582;}.cls-8{opacity:0.43;}.cls-9{fill:#fd8584;}.cls-10{fill:#fff;}.cls-11{fill:#7e89fd;}.cls-12{fill:#ff8b87;}.cls-14{fill:#e9e8f0;}</style></defs><g id="Layer_2" data-name="Layer 2"><g id="Layer_1-2" data-name="Layer 1"><path class="cls-1" d="M364.59,210.62s7.63-15.64,19.16-22.46-7.56,21.11-7.56,21.11Z"/><path class="cls-2" d="M392.53,189.53S370,140,368,130.14,346.64,113.7,342.47,112s-9.57-1-17.91,2.21c-2.68,1-7.11,2.37-8.68,3.11-3.14,1.48-10.92,7-9.57,8.83,1.48,2.05,9.27-3,10.8-3.35,1.1-.24,8.67-1,8.67-1s-13.07,2.57-12.51,6.26,13,.85,13,.85-7.09,1.51-7.65,2.58c-1.43,2.74,2.74,4.43,8.51,3.08a67,67,0,0,1,6.88-1.43s-2.95.87-7.08,1.91c-3.62.91-1.52,4.46,2,4.34s14.15-3,14.15-3,5.32,4.83,11.38,6.46c2.17.59,15.26,67.8,15.26,67.8Z"/><path class="cls-2" d="M318.41,132c-.36,2.23,2.34,4.84,10.54,1.13,0,0,3.29-1.49,1.5-3.35S318.73,130.06,318.41,132Z"/><path class="cls-2" d="M325.4,136.82c-.91,1.63,1.73,4.41,8.94.81a1.69,1.69,0,0,0,.36-2.69C333.31,133.36,326.61,134.68,325.4,136.82Z"/><path class="cls-1" d="M331.91,138.91l-.06-.45s2.15-.28,2.91-1.36a1.44,1.44,0,0,0,.22-1.2c-.48-2.12-4.05-1.34-4.09-1.33l-.1-.45a7.73,7.73,0,0,1,2-.14c1.45.11,2.35.74,2.59,1.82a1.89,1.89,0,0,1-.29,1.56C334.26,138.61,332,138.9,331.91,138.91Z"/><path class="cls-1" d="M326,134.41l-.11-.44c2.61-.66,4.32-1.63,4.68-2.67a1.42,1.42,0,0,0-.31-1.4c-1-1.29-4.71-.63-6.05-.27l-.12-.45c.21-.05,5.15-1.36,6.54.44a1.88,1.88,0,0,1,.38,1.83C330.59,132.66,328.81,133.71,326,134.41Z"/><rect class="cls-1" x="316.31" y="119.76" width="0.46" height="3.13" transform="translate(-22.44 124.38) rotate(-21.49)"/><path class="cls-1" d="M343,136.51a12.34,12.34,0,0,1-2.49-4.55l.45-.12a11.78,11.78,0,0,0,2.39,4.36Z"/><path class="cls-1" d="M322.19,144.06a2.19,2.19,0,0,0,.61-1.47l.3-9.23,38.53-39.19a1.9,1.9,0,1,0-2.76-2.61l-37,40.63-9.21.81a2.21,2.21,0,0,0-1.43.69l-6,6.32a4.22,4.22,0,0,0-1.08,2.3,9.15,9.15,0,0,0,9.8,9.27,4.14,4.14,0,0,0,2.24-1.2Z"/><path class="cls-2" d="M313.51,127c-1.19,1.92,2.7,5,12,.74,0,0,1.8-1.11,0-3S315.07,124.42,313.51,127Z"/><path class="cls-1" d="M317.84,124.79l-.2-.42c.12-.06,2.89-1.37,5.17-.68l-.13.44C320.57,123.5,317.87,124.77,317.84,124.79Z"/><path class="cls-2" d="M359.16,126.87s-6.38,2.62-11.45,2-18.31-3.11-22.75-4.25-1.63-4.75,3.28-4.75,15.54-2,15.54-2S353.76,119.34,359.16,126.87Z"/><path class="cls-1" d="M352.94,130.41a35,35,0,0,1-13.51-3.33c-.89-.4-4.82-.58-6.77-.62-2.36-.08-8.64-.32-10.12-2.94a1.53,1.53,0,0,1-.09-1.46c.79-1.68,4.76-2.39,4.93-2.42l.08.46c-1.08.18-4,.94-4.6,2.15a1.11,1.11,0,0,0,.08,1c1.36,2.4,7.66,2.64,9.73,2.71.23,0,5.75.13,6.95.66,8,3.49,14.93,4.25,19.1,2.07l.22.41A13,13,0,0,1,352.94,130.41Z"/><path class="cls-1" d="M338.27,122.49l-.44-.15c.81-2.32,0-3.37,0-3.38l.37-.28S339.15,120,338.27,122.49Z"/><path class="cls-3" d="M390.16,184.28s-11.05,20.05-25.57,26.34c0,0,10.08,17,21.48,21.76,7.55,3.17,24.13,7.87,36.06-20.19s-3.7-90.84-3.7-90.84S402.64,139.39,390.16,184.28Z"/><path class="cls-4" d="M530.34,292.94c-8.66,0-25.68-18.81-31.75-39.07l1.14-.34c6.37,21.26,24.16,39.32,31.27,38.17,2.06-.33,3.06-2.35,3-6-.51-17.75-35.66-36.82-36-37l.56-1.05c1.48.79,36.11,19.6,36.64,38,.16,5.4-2.06,6.89-3.95,7.2A5.87,5.87,0,0,1,530.34,292.94Z"/><path class="cls-4" d="M547.73,309.14l-1.19,0a35.09,35.09,0,0,0-2.68-12.79c-3.72-8.94-10.56-14.79-20.32-17.37-24.18-6.4-25.09-18.33-25.12-18.83l1.19-.07c0,.12,1,11.59,24.24,17.74,12.65,3.35,18.47,11.7,21.13,18.12A35.53,35.53,0,0,1,547.73,309.14Z"/><path class="cls-1" d="M99.4,491.53s42.62,65.37,51,58.41-2.38-51.17-6.68-58.41S99.4,491.53,99.4,491.53Z"/><path class="cls-1" d="M186.42,332.26s-27.61,47-19.95,52.23,19.15-4.93,19.95-10.61S186.42,332.26,186.42,332.26Z"/><path class="cls-1" d="M342.85,245.77a70,70,0,0,1-7.82-5.83c-6.1-6.37-6.38-12.4-6.67-22a70.65,70.65,0,0,0-1.87-14.52.3.3,0,0,1,0-.1c-6.06-26.58-12.14-42.47-39.8-43.93-19.09-1-26.32,14-26.32,14-.23.39-.45.79-.68,1.21,0,0-11,8.06-14.54,22.09A42.39,42.39,0,0,0,244,207c-.06,9.39,1.07,16.92-8.15,23.84-30.6,23-24.59,53.73-24.59,53.73l5,2.68s1.31-30.52,17.61-42.63c-.13.37-11,9.86-13.67,44.75,0,0,3.4,5,16.27,7.72s73.3-14.38,73.3-14.38,6-.35,10.14-3.75,15.2-5.91,15.2-5.91.36-9.12-4.65-15.56-8-6.59-7.64-16.43c0,0,3.95,7.71,11,11.66a48.19,48.19,0,0,1,14.94,12.61l10.91-2.32S350.28,250.28,342.85,245.77Z"/><path class="cls-2" d="M52.57,626.19s0-6.89,3.34-19.52-30.53,0-30.53,0-1.91,19.1-2.39,21.24-5.86,33.42-5.86,33.42S9.64,673,18.7,672.75s20.51-10.29,20.51-11.7S52.57,626.19,52.57,626.19Z"/><path class="cls-5" d="M265.9,654.64a33.71,33.71,0,0,1,3.62,4.46c1.37,2.15-8.9.37-8.9.37l1.68-4.07Z"/><path class="cls-6" d="M298.55,274h45a22.69,22.69,0,0,1,22.61,25.16,70.14,70.14,0,0,1-11.38,30.64c-19.36,29.51-38.93,71.91-47.39,111.61s-29.49,58-56.8,58H113.39l40.15-38.63L273.44,289Z"/><path class="cls-2" d="M205.35,327.07l-6.25,17.35s-29.33-13.84-38.1-18.81c-7.55-4.28-10.63-7.13-10.63-7.13s2.07-7.19-4.82-14.92c-4.46-5-9.83-11.5-12.05-15s-3.15-7.29-5.67-5.46.49,15.08,3.94,20.66c0,0-15-7.77-19-10.12s-22.76-6.15-22.16-.53,2.63,8.14,2.63,8.14.36.12-.63,2.5,14.19,10.37,14.19,10.37,4.88,7.72,7.06,8.84S134,331.58,135.11,333s67.67,61.14,84.4,46.68c15.44-13.35,7.8-47.12,7.8-47.12l-11.06-11Z"/><path class="cls-5" d="M122.07,507.66H249.42a8.59,8.59,0,0,0,8.59-8.59H122.07Z"/><path class="cls-3" d="M214.72,376.39s-19.9,17.26-24.19,20.48-120,44.53-134,61.17S25.38,606.67,25.38,606.67H55.91S89.8,545.59,100.27,487l114.45-58.44,16.36-46.85Z"/><path class="cls-5" d="M130,659.49l-5.26-4.85c.76-.83,19.31-20.47,70.6-20.47v7.15c-25,0-41.47,5-50.87,9.11C134.32,654.91,130,659.44,130,659.49Z"/><path class="cls-5" d="M124.71,654.64a46.45,46.45,0,0,0-3.36,4.7c-1.43,2.35,9.66,2.89,9.66,2.89l-1.34-5.81Z"/><path class="cls-1" d="M129,657.06h-8.8v23.68H129c3,0,5.41-5.3,5.41-11.84S132,657.06,129,657.06Z"/><ellipse class="cls-5" cx="120.25" cy="668.9" rx="5.41" ry="11.84"/><path class="cls-3" d="M267,267.37l-8,.6a246.8,246.8,0,0,1-23.88,6.91C221.52,278.1,215,289.1,210.3,300.54S198,335.07,198,335.07a24.67,24.67,0,0,1,9.58,2.06c2.51,1,10,4.65,10,4.65s-2.86,33.08-2.86,34.61,44,13.69,64,12.26c0,0,25.39-25.76,35.41-49.73S327.41,286,327.41,286s-23.49-11.92-32-17.76S267,267.37,267,267.37Z"/><path class="cls-3" d="M188.61,421.2s-2.19.63-5.93,1.75C162.49,429,96.9,449.69,83.9,465.44,75,476.23,94.52,606.67,94.52,606.67h26.83s19.24-79,13.1-107.6c0,0,117.48-12.4,138.23-27.43s6.09-83,6.09-83-28.47-1.44-47.69-7S188.61,421.2,188.61,421.2Z"/><path class="cls-2" d="M112.05,661.43c-1.25,4.11-4.65,16.81-6.08,17.53s-24,0-24,0-4.11-1.26-1.79-5.19c1.56-2.64,3.7-5.35,5.32-7.83a20,20,0,0,0,1.89-3.44c1.25-3.22,7.87-35.6,7.87-37.39s-.72-18.44-.72-18.44h26.83s-1.11,17.37-1.11,19.52,4.15,13.23,5.05,16.63S113.3,657.31,112.05,661.43Z"/><path class="cls-5" d="M204.34,547.13H186.27a6.8,6.8,0,0,1-6.8-6.81v-34.1h31.68v34.1A6.81,6.81,0,0,1,204.34,547.13Z"/><rect class="cls-5" x="187.34" y="531.22" width="15.94" height="106.52"/><path class="cls-2" d="M106.82,314.08s-2.16-6.88-.4-7.48,5,1.14,7,7a20.53,20.53,0,0,0,6.92,9.25l-4.2,1.15Z"/><path class="cls-6" d="M240.67,439.46a5.37,5.37,0,0,1-2.45-10.36L315.55,400a5.37,5.37,0,0,1,3.78,10.05L242,439.14A5.26,5.26,0,0,1,240.67,439.46Z"/><path class="cls-5" d="M213.29,499.07H209c0-26.52,8.4-43.34,15.45-52.79,7.73-10.34,15.45-14.31,15.78-14.48l1.93,3.84-1-1.92,1,1.92c-.08,0-7.31,3.79-14.44,13.42C221.15,458,213.29,473.87,213.29,499.07Z"/><path class="cls-2" d="M298.55,216.93l-3.1,51.27s-9.78,7.87-21.46,8.11S259,268,259,268l3-17.69,1.76-10.46L274,230.4l10-9.18Z"/><path class="cls-7" d="M295.24,222.56c-.11.43-7.46,26.78-33.27,27.72l1.76-10.46L274,230.4Z"/><path class="cls-2" d="M310.66,210.62c-2.62,9.3-14.25,9.41-14.25,9.41-4.61,12.37-24.88,24.73-37.17,21.07a12,12,0,0,1-4.57-2.47c-11-9.54,3.58-59.15,3.58-59.15,2.43,1.88,7.77,1.82,13.71,1.73,6.89-.11,14.57-.25,19.44,2.57,9.06,5.24,8.82,21.7,8.82,21.7S313.28,201.32,310.66,210.62Z"/><path class="cls-8" d="M260,213.71c-.12,3.22-3,7.15-.24,8.94a3.91,3.91,0,0,0-1.07,4.18c.95,2.38.71,4.65-.6,8.23a5.94,5.94,0,0,0,1.12,6h0a12,12,0,0,1-4.57-2.47c-11-9.54,3.58-59.15,3.58-59.15,2.43,1.88,7.77,1.82,13.71,1.73-.08.31-4.95,20-11.92,24.15S260.16,210.49,260,213.71Z"/><path class="cls-1" d="M278.08,203.36c-.44,1.42-1.6,2.32-2.61,2s-1.48-1.7-1-3.12,1.6-2.32,2.6-2S278.51,201.94,278.08,203.36Z"/><path class="cls-1" d="M259.51,199.82c-.44,1.41-1.6,2.31-2.61,2s-1.48-1.71-1-3.13,1.6-2.31,2.6-2S259.94,198.4,259.51,199.82Z"/><path class="cls-1" d="M276.66,207.74c-2.8,0-3.41-3.09-3.42-3.12l.39-.07c0,.12.59,2.92,3.2,2.79l0,.4Z"/><path class="cls-1" d="M256.31,203.62a6.07,6.07,0,0,1-1.33-.15l.1-.39s2.57.66,3.75-.94l.32.24A3.41,3.41,0,0,1,256.31,203.62Z"/><path class="cls-1" d="M282.1,201.17a1,1,0,0,1-.91-.59,6.59,6.59,0,0,0-6.77-4.25,1,1,0,1,1-.31-2,8.6,8.6,0,0,1,8.9,5.42,1,1,0,0,1-.51,1.31A1,1,0,0,1,282.1,201.17Z"/><path class="cls-1" d="M254.49,195.45a1,1,0,0,1-.67-.26,1,1,0,0,1-.06-1.41,7.65,7.65,0,0,1,8.55-1.82,1,1,0,0,1-.81,1.82,5.66,5.66,0,0,0-6.28,1.35A1,1,0,0,1,254.49,195.45Z"/><path class="cls-9" d="M288.31,215.79c.39,2.51-2.22,5-5.84,5.58s-6.88-1-7.28-3.49,2.21-5,5.84-5.57S287.91,213.29,288.31,215.79Z"/><path class="cls-4" d="M299.72,211l-.42-.68c.33-.2,8.21-5,10.78-1.47l-.64.47C307.66,206.86,301.82,209.67,299.72,211Z"/><path class="cls-4" d="M301.08,216.23l-.28-.75c.24-.09,6-2.38,4.79-7.36l.77-.19C307.77,213.59,301.15,216.2,301.08,216.23Z"/><path class="cls-10" d="M87.94,558.39a.6.6,0,0,1-.59-.5c-.58-3.38-14-82.8-3.87-92.88,16.18-16.13,101.33-43.23,105-44.38a.6.6,0,0,1,.36,1.14c-.89.28-88.5,28.16-104.47,44.09-9.68,9.65,4.06,91,4.2,91.83a.6.6,0,0,1-.48.69Z"/><path class="cls-10" d="M203.39,429.79a.61.61,0,0,1-.47-.23c-4.81-6.19-12.91-7.76-13-7.77l-2.11-.4,2-.75c.44-.16,10.86-3.95,23.81,1.32a.59.59,0,0,1,.32.78.58.58,0,0,1-.77.32,35.32,35.32,0,0,0-20.87-1.88,24,24,0,0,1,11.55,7.64.6.6,0,0,1-.11.84A.58.58,0,0,1,203.39,429.79Z"/><path class="cls-1" d="M112.05,661.43c-1.25,4.11-4.65,16.81-6.08,17.53s-24,0-24,0-14.62.31-10.68-4.3a77.4,77.4,0,0,1,16.46-13.33c4.53.22,10.82,2.73,12.87,2,2.86-1,4.3-2.6,8.35-15a87.65,87.65,0,0,1,11.29-22.18c0,2.14,4.15,13.23,5.05,16.63S113.3,657.31,112.05,661.43Z"/><path class="cls-1" d="M125.29,642.82a293,293,0,0,0-3.76,36.45h-2.68s1.28-25.36-4-27.32S125.29,642.82,125.29,642.82Z"/><path class="cls-1" d="M41.46,661.43c-1.26,4.11-4.66,16.81-6.09,17.53s-24,0-24,0-14.62.31-10.69-4.3a77.94,77.94,0,0,1,16.46-13.33c4.54.22,10.83,2.73,12.88,2,2.86-1,4.29-2.6,8.34-15s14.22-22.18,14.22-22.18a129.14,129.14,0,0,0,2.12,16.63C55.59,646.22,42.71,657.31,41.46,661.43Z"/><path class="cls-1" d="M54.69,642.82a291.92,291.92,0,0,0-3.75,36.45H48.25s1.29-25.36-4-27.32S54.69,642.82,54.69,642.82Z"/><path class="cls-9" d="M258.81,219.4s1.35-1.76,4.33.51a8.52,8.52,0,0,0,5.9,1.85s-5,1.61-9.24.89a58.56,58.56,0,0,1-6.62-1.49,12,12,0,0,0,2.51-2C257.12,217.7,258.81,219.4,258.81,219.4Z"/><path class="cls-9" d="M253.18,221.16a4.71,4.71,0,0,1,1.31,2.27c.3,1.37,2.31,2.36,4,2.61s4.39.55,6.12-.7,3.44-3.3,3.92-3.44a67.12,67.12,0,0,1-7.68-.74C258.84,220.68,253.18,221.16,253.18,221.16Z"/><path class="cls-4" d="M202.52,363.61l-.8,0c.27-10.07-8.05-17.84-8.13-17.91l.54-.59C194.21,345.17,202.79,353.18,202.52,363.61Z"/><path class="cls-2" d="M259,268s-4.44,21.7-4.5,39.11c0,0,37.63-21.94,41-38.88Z"/><path class="cls-5" d="M260.64,659.49c-.05,0-4.35-4.58-14.47-9.06-9.4-4.15-25.85-9.11-50.86-9.11v-7.15c51.28,0,69.83,19.64,70.59,20.47l-5.28,4.83,2.64-2.41Z"/><rect class="cls-5" x="191.33" y="625" width="7.95" height="34.34"/><rect class="cls-1" x="190.62" y="657.06" width="9.74" height="23.69"/><path class="cls-1" d="M261.57,657.06h8.8v23.68h-8.8c-3,0-5.41-5.3-5.41-11.84S258.58,657.06,261.57,657.06Z"/><path class="cls-5" d="M264.94,668.9c0,6.54,2.43,11.84,5.42,11.84s5.41-5.3,5.41-11.84-2.42-11.84-5.41-11.84S264.94,662.36,264.94,668.9Z"/><path class="cls-2" d="M389.37,588.08c-4.63,12.81-9.37,26.79-8.37,35.8a10.48,10.48,0,0,0,.57,2.6c2.65,6.89,5.83,15.11,5.3,21.74S384.49,679,384.49,679h-4.78s1.06-27.58-3.18-30S351,679,351,679H316s1.19-2.86,8.35-7c4.38-2.51,9.14-5.53,12.17-7.49,1.92-1.24,3.14-2.06,3.14-2.06s13.79-41.83,14.85-46.86S365.13,495,365.13,495l53.3,2.44S400.74,556.62,389.37,588.08Z"/><path class="cls-2" d="M502,450.54s3.75,35.53.18,71.92-25.06,92.67-19.69,105.19c4.92,11.49,7.41,12.52,6.77,16.69-.06.38-.14.79-.25,1.23-.74,3-4.06,13.06-6.83,21.39-2.19,6.56-4,12-4,12H442.82a25.15,25.15,0,0,1,8.22-9.55,5.88,5.88,0,0,0,1.87-2.34c5-9.68,6.16-42.29,6.88-45.39.8-3.44-8-121.06-8-121.06l3.69-248.44L502,250.4s17.53,38,19.09,65.84S502,450.54,502,450.54Z"/><path class="cls-1" d="M386.87,648.22c-.53,6.63-2.38,30.76-2.38,30.76h-4.78s1.06-27.58-3.18-30S351,679,351,679H316s1.19-2.86,8.35-7c4.38-2.51,9.14-5.53,12.17-7.49,3.1,1.24,6.77,2.58,8.31,2.65,2.92.13,9.82-8.75,16.71-24.38S381,623.88,381,623.88a10.48,10.48,0,0,0,.57,2.6C384.22,633.37,387.4,641.59,386.87,648.22Z"/><path class="cls-1" d="M489.21,644.34l-2,34.64h-4l-1.13-12c-2.19,6.56-4,12-4,12H442.82a25.15,25.15,0,0,1,8.22-9.55,5.88,5.88,0,0,0,1.87-2.34c2.42.16,10.72.63,14.44,0,4.37-.8,6.56-11.54,8.95-22.08a71.51,71.51,0,0,1,6.14-17.32C487.36,639.14,489.85,640.17,489.21,644.34Z"/><path class="cls-1" d="M490,248.63h12.11s19.45,45.87,20.51,66.82-16.31,140.37-16.31,140.37,4.18,82.55-17,156H452l-9.06-156L418.43,507,391.06,609.11H351l8.8-91.38Z"/><path class="cls-11" d="M494.54,242.87l-24,284.94c-69.27,7.93-124.14-7.93-124.14-7.93,5.7-60.55,18-115.89,30.87-160.79,5.46-19.1,11-36.31,16.23-51.23,13.73-39.4,24.9-62.81,24.9-62.81Z"/><path class="cls-10" d="M481.8,612.45h-.1a.59.59,0,0,1-.49-.69c8.85-51.19,11.64-119.7,12.55-142.21l.18-4.38c.36-8.24,3-34.77,5.8-62.86,3.34-33.54,6.79-68.22,7.06-78.52.49-18.81-8.92-71.9-9-72.43a.6.6,0,1,1,1.18-.21c.09.53,9.52,53.74,9,72.67-.27,10.34-3.72,45.05-7.07,78.61-2.79,28.07-5.43,54.58-5.78,62.79-.06,1.21-.12,2.68-.18,4.37-.92,22.54-3.71,91.11-12.57,142.38A.59.59,0,0,1,481.8,612.45Z"/><path class="cls-10" d="M376.85,609.7h-.12a.6.6,0,0,1-.47-.7L392,528.33a.6.6,0,1,1,1.17.23l-15.75,80.66A.59.59,0,0,1,376.85,609.7Z"/><path class="cls-1" d="M517.36,87.84C509,82.06,502.74,77.73,502.55,77.6c.2.22,6.62,7.34,10.54,10.75s12.25,10.55,15.76,24.41c-1.64,1.72-3.45,3.57-5.39,5.44-1.23-4.19-5.14-14.85-14.35-20.52a86.07,86.07,0,0,1,11.46,23.24c-9.94,9.11-22.22,17.69-30.56,14.35-13.49-5.41-35.39-30-36.38-30.43s-10.74-34-30.29-53.74c-10.75-10.86-6.54-21.89.26-27.79,5.55-4.83,13.16-5.57,13.16-5.57C467.18-3.94,494.79,19.33,495,36s2.57,27.75,16.51,37.35c21.74,15,25.72,29.94,25.72,29.94s-1.64,2-4.36,5.07C531,104.81,524.59,92.8,517.36,87.84Z"/><path class="cls-3" d="M517.88,120s-25.48-13-55.31-10.23-44.14,11.54-44.14,11.54-11.07,55.47-10.68,64.72,14.65,65.17,14.65,65.17l80.46-.84s2.67-40.36,9.43-71A261.14,261.14,0,0,0,517.88,120Z"/><path class="cls-11" d="M432.92,115.45S409.22,170,408,178s3.89,49.47,12.53,76.52l76.42-3.28s-22.93-60.62-22.8-78.58c.11-15.91,8.74-44.08,15.9-61.62l-6.6-1s-15.26,31.44-20.56,52.65l-39.25-.14,15.06-48.74Z"/><path class="cls-2" d="M478.35,109.62c-4.24,13.72-16.7,19.95-27.72,18.09s-9.35-14.51-9.35-14.51V95.54a258.53,258.53,0,0,1,16.29-23.62c6.94-8.61,13.58-14.26,14.15-5.28A273.66,273.66,0,0,0,478.35,109.62Z"/><path class="cls-7" d="M468.54,73.09s-4.06,26.86-27.26,31.69V95.54a258.53,258.53,0,0,1,16.29-23.62C463.83,72.57,468.54,73.09,468.54,73.09Z"/><polygon class="cls-11" points="493.83 251.24 503.2 251.24 504.6 238.28 492.14 238.28 493.83 251.24"/><path class="cls-1" d="M454.62,217.6s-5.81,36.79,8.23,40.17c0,0,9.27-2.38,9.87-9.14S454.62,217.6,454.62,217.6Z"/><path class="cls-2" d="M514.55,119.23c-12.67-.55-19.49,18.82-23.21,45.34S485,208.85,481.27,211.5,403.91,234.14,396,236.21s-19.42,9.83-22.61,12.42-16.56,17.89-17.56,20.68,3.38,5.57,7.16,2c0,0-1.59,4.37.8,5.76s6.76-2.38,6.76-2.38-1.79,4,2.58,4,6.57-4,6.57-4,2.58,2.58,7.75-3.38,11.34-14.92,13.52-16.51,63.47-5.87,84.95-10,22.28-7.16,24.26-9.75,14.9-35.5,19.08-67.51S523.83,119.63,514.55,119.23Z"/><path class="cls-2" d="M481.8,59.3c0,11.93-13.26,13.79-13.26,13.79s-8.75,24.39-28.9,22.54a9.62,9.62,0,0,1-3.56-1c-15.5-7.87-7.84-57-7.84-57a79,79,0,0,0,8.51,3.36h0c5.91,2,13.13,4.15,18.79,5.65C464.56,49,469.6,58,469.6,58S481.8,47.37,481.8,59.3Z"/><path class="cls-8" d="M436.08,94.61c-15.5-7.87-7.84-57-7.84-57a79,79,0,0,0,8.51,3.36h0s-.47,12-2.66,16.39-4.64,5.72-4.94,8,3.64,2.71,4.54,4.6-1.69,2.51-1.78,4.79a3.29,3.29,0,0,0,2.18,3.09A2.76,2.76,0,0,0,432.74,81c.67,2.09,2.85,1,2.56,4.37S434.07,93.32,436.08,94.61Z"/><path class="cls-3" d="M454.62,217.6s10.49,28.24,8.23,40.17c0,0,43.08-11.45,50.24-19.31s33.66-110.77,3-119.24c0,0-13-7.42-22.1,27.05s-13.29,62.58-13.29,62.58Z"/><path class="cls-4" d="M500.52,225.69c-4.9-13.41-18.47-15.63-18.61-15.65l.12-.79c.14,0,14.17,2.32,19.23,16.17Z"/><path class="cls-4" d="M482.19,202.48l-.78-.12c12.36-78.2,25.37-81.31,25.92-81.4l.14.78s-3.3.81-8,11.2C495.07,142.47,488.55,162.27,482.19,202.48Z"/><path class="cls-1" d="M468.82,55.88c-2.15-4.32-6.79-5.35-19.17-8.11l-1-.22c-13.25-3-20.65-9.12-21-9.39l1-1.21c.07.06,7.43,6.18,20.27,9l1,.21c12.56,2.81,17.76,4,20.26,9Z"/><path class="cls-1" d="M528.47,93.25c-4.94-10.66-9.45-15-16.93-22.08-1.48-1.4-3-2.86-4.7-4.52-9.54-9.31-15.94-37.4-16.21-38.6l1.56-.34c.06.28,6.56,28.82,15.76,37.81,1.69,1.65,3.22,3.1,4.69,4.5,7.61,7.25,12.2,11.62,17.28,22.56Z"/><path class="cls-12" d="M460.81,63.86c.8,2.43-1.57,5.39-5.29,6.62s-7.38.26-8.18-2.17,1.56-5.39,5.28-6.62S460,61.43,460.81,63.86Z"/><path class="cls-1" d="M447.18,54.72a1.87,1.87,0,1,1-1.85-2.13A2,2,0,0,1,447.18,54.72Z"/><path class="cls-1" d="M431.2,54.72a1.86,1.86,0,1,1-1.84-2.13A2,2,0,0,1,431.2,54.72Z"/><path class="cls-1" d="M446.15,58.66A3.78,3.78,0,0,1,443.32,57l.33-.22a3.34,3.34,0,0,0,2.7,1.5l0,.4Z"/><path class="cls-1" d="M428.45,58.66h-.23l0-.4a3.35,3.35,0,0,0,2.7-1.5l.34.22A3.84,3.84,0,0,1,428.45,58.66Z"/><path class="cls-1" d="M469.53,62.49a.41.41,0,0,1-.3-.14.4.4,0,0,1,0-.56c.24-.21,5.92-5,8.79-2.67a.4.4,0,0,1-.5.62c-2-1.57-6.28,1.38-7.78,2.65A.35.35,0,0,1,469.53,62.49Z"/><path class="cls-1" d="M471.06,67.79a.41.41,0,0,1-.36-.23.4.4,0,0,1,.19-.53c.23-.11,5.68-2.81,4-7.92a.4.4,0,0,1,.25-.51.4.4,0,0,1,.5.26c1.91,5.78-4.35,8.86-4.41,8.89A.47.47,0,0,1,471.06,67.79Z"/><path class="cls-10" d="M487.47,37.72c-5.58-12.81-16.8-17.13-25.23-18.5a53.86,53.86,0,0,0-17.24.1l-.15-.78a54.56,54.56,0,0,1,17.49-.11c8.64,1.4,20.13,5.83,25.86,19Z"/><path class="cls-10" d="M481.47,38.44c-8.41-13-28.66-14.13-28.86-14.14l0-.79c.21,0,20.86,1.15,29.48,14.5Z"/><path class="cls-10" d="M502.57,106c0-.1-3.23-9.31-10.22-14.73a32,32,0,0,1-9.87-13.17l.75-.26a31.19,31.19,0,0,0,9.61,12.8c7.18,5.57,10.45,15,10.48,15.1Z"/><path class="cls-12" d="M431.92,75.41a4.16,4.16,0,0,1,2.89-.53c1.24.45,4.6,2.82,7.23,2.82,0,0-3.05,3.59-4.79,4.24a12.48,12.48,0,0,1-4.72.34c-1.18,0-3.17-1.32-4.61-4.24A2.68,2.68,0,0,0,429,76.77C429.18,76.28,430,74,431.92,75.41Z"/><path class="cls-1" d="M450.74,50.49a.75.75,0,0,1-.43-.13c-4.48-2.93-7.95-1.63-8-1.62a.79.79,0,0,1-.58-1.48c.17-.07,4.27-1.6,9.43,1.77a.8.8,0,0,1,.23,1.1A.82.82,0,0,1,450.74,50.49Z"/><path class="cls-1" d="M426,50.49a.75.75,0,0,1-.43-.13.79.79,0,0,1-.23-1.1c1.77-2.73,6.53-2.13,6.73-2.1a.8.8,0,1,1-.21,1.58c-1.1-.15-4.17-.18-5.19,1.39A.8.8,0,0,1,426,50.49Z"/><path class="cls-13" d="M259,268s-29.2,8.18-33,9.85S214.65,288,208.92,302.27s-16.12,41.34-16.12,41.34,2.53,39.75-14.17,49.29L71.7,447.57s48.62,21.37,62.75,55.79,15.92,46.58,15.92,46.58,34-27.82,43.49-39.35S229.08,495.23,252,489.5s46.51-41.51,49-72.28-26-84.07-26-84.07Z"/><path class="cls-1" d="M273.08,392.72l-3.94,4.65s-2,17.94,39,29.87C308.14,427.24,302.89,389.92,273.08,392.72Z"/><path class="cls-2" d="M340.65,343.57s-5.84,47-7.28,48.89S310,408.92,288.06,415.83s-29.57,10.26-31.24,13.36-6.09,11.15-8.59,15.8-3.76,6.26-4.29,8.94-1.61,8.41-1.79,10.38.18,8.23-2.68,7.87-1.55-19-1.55-19-4.66,6.8-5.37,8.47-1.43,10.13-3.7,11.8S226,469.2,226,469.2s-1.49,5.9-3.75,5.54-2.09-5.42-2.09-5.42-2.86.12-3.1-2.51,2.38-9.89,3.57-14.66,12.23-22.72,18.55-29,65.58-43.77,65.58-44.48,1.35-24.46,1.35-24.46S333.37,339.39,340.65,343.57Z"/><path class="cls-4" d="M226.51,468.57l-.8-.06c0-.35.67-8.53,1.28-10.35s4.28-8.38,4.44-8.65l.69.39c0,.06-3.8,6.78-4.38,8.51S226.51,468.49,226.51,468.57Z"/><path class="cls-4" d="M220.48,468.58l-.79-.08c.05-.44,1.08-10.95,1.32-11.92s3.53-7.82,3.91-8.6l.71.34c-1.45,3-3.68,7.78-3.84,8.45S220.78,465.55,220.48,468.58Z"/><path class="cls-13" d="M259,268s9.83,10,36.46.23c0,0,32.72,14.15,38.8,22.74s12.88,89.79,0,110.18-26.11,26.12-26.11,26.12-3.23-13.59-20.75-24.51a38.51,38.51,0,0,0-18.25-5.36L238,311Z"/><path class="cls-13" d="M196.52,336.73l-10.1-4.47s-3.67,40.78-19.95,52.23c0,0,10.92,9.66,19.95,8.05s26.74-21.47,26.2-27.73S196.52,336.73,196.52,336.73Z"/><path class="cls-4" d="M313.53,383.64c-18.94-4.55-29.47-.07-29.57,0l-.32-.73c.1-.05,10.85-4.64,30.08,0Z"/><path class="cls-4" d="M295.44,375.59l-.39-.69c.32-.19,8.16-4.58,21-1.95l-.16.78C303.34,371.17,295.52,375.55,295.44,375.59Z"/><path class="cls-4" d="M299.91,360.36l-.8,0c0-.31,1.18-30.68,6.13-49.82,5-19.36,17.41-20.67,17.53-20.68l.07.79c-.12,0-12,1.3-16.83,20.09C301.08,329.77,299.92,360.05,299.91,360.36Z"/><path class="cls-4" d="M216.88,354.61l-.77-.23c.57-1.93.27-4.9-.08-8.34-.67-6.54-1.5-14.67,3.8-19.27,7.64-6.64,11.52-21.82,11.56-22l.77.2c-.16.63-4,15.57-11.81,22.38-5,4.33-4.18,12.24-3.53,18.59C217.18,349.48,217.49,352.52,216.88,354.61Z"/><path class="cls-1" d="M82.85,274s-19.59,5.36-30.32,22.06l54.38,40.86s10-20.83,27.37-24.75Z"/><path class="cls-14" d="M84,273l51.46,38.93s-18.38,3.06-29,20l-55.2-42A63.65,63.65,0,0,1,84,273Z"/><path class="cls-1" d="M153.18,290.73s-12.63,6.8-18.5,18.87L108,286.11l9.53-20.74Z"/><path class="cls-14" d="M84,273a50.19,50.19,0,0,1,19.69-17.22l47.79,33.15s-16.08,12.62-16,23Z"/><path class="cls-2" d="M143.45,301.16S134.63,290.4,131.59,285s-5.9.17-2.86,8.94a56.4,56.4,0,0,0,8.23,15.2Z"/><rect class="cls-4" x="109.3" y="260.18" width="0.8" height="64.53" transform="translate(-189.71 203.51) rotate(-52.89)"/><path class="cls-2" d="M357.6,266.45s-13,11.54-12.43,13.72,7.14.33,7.14.33-5.88,4.05-3.85,6.06c2.53,2.52,8.71-1.81,8.71-1.81s-.65,4.12,3.71,3.44c4.73-.72,10.21-4.9,10.21-4.9s3,.93,7.36-1.66S390.16,268,390.16,268Z"/><path class="cls-2" d="M382.45,242.47s-14.41,4.87-17.86,7.93-9.94,6.77-14.58,10.22,5,2.82,9.28.66,16.11-2.78,16.11-2.78Z"/><path class="cls-1" d="M348.78,265.37s3.4,3.05,4.82,10.95c2,11.34,6.66,18.06,7.44,18.88,0,0,10.09-1.77,8.39-5-5.47-10.33-3.82-15.52-9.74-27.17L350,264.26Z"/><rect class="cls-1" x="369.88" y="280.12" width="8.47" height="0.4" transform="translate(-89.23 342.44) rotate(-44.48)"/><path class="cls-1" d="M363.42,281.9l-.29-.27c2.36-2.46,7.18-7.05,7.23-7.1l.27.29C370.59,274.87,365.78,279.45,363.42,281.9Z"/><path class="cls-4" d="M395.21,199a24.59,24.59,0,0,0-5.34-14.41l.59-.54A25,25,0,0,1,396,198.92Z"/><path class="cls-4" d="M400.49,190.24c-3.43-8-9.65-7.65-9.71-7.65l-.06-.79c.07,0,6.85-.39,10.5,8.13Z"/><path class="cls-4" d="M213.32,393.1c-23.45-5.66-30.75-.27-30.82-.22l-.49-.63c.31-.23,7.68-5.67,31.49.08Z"/><path class="cls-4" d="M194.17,382.47l-.62-.49c.29-.38,7.49-9.25,26.55-8.49l0,.79C201.41,373.54,194.24,382.38,194.17,382.47Z"/><path class="cls-1" d="M471.06,13.09S472.84-4,487.83.89c5.63,1.86,8.28,11,3.58,15.91a25.5,25.5,0,0,1-6,4.64Z"/><path class="cls-10" d="M475.73,12.06l-.6-.52c.06-.07,5.77-6.41,16.31-5.51l-.06.8C481.22,6,475.78,12,475.73,12.06Z"/><path class="cls-10" d="M481.65,12.22l-.51-.61c.12-.1,3-2.48,9.3-2.48v.8C484.43,9.93,481.68,12.19,481.65,12.22Z"/></g></g></svg>