<svg xmlns="http://www.w3.org/2000/svg" viewBox="0 0 476.2 654.85"><defs><style>.cls-1{fill:#3c2415;}</style></defs><g id="Layer_2" data-name="Layer 2"><g id="Background"><path class="cls-1" d="M474.42,579.1c-1.45-25.25-3.55-50.48-8.43-75.36-3.53-18.63-9.5-37.9-22.89-51.94-21.26-22-57.61-29.41-86.24-37.6l-10.52-2.34c-3.44-.93-6.85-2-10.28-3-2.86-1.06-5.89-2.23-8.76-3.32l-1.18-.56A106,106,0,0,1,348,392.89c7.89-3.67,16.44-6.49,23.52-11.69A33.06,33.06,0,0,0,383.89,351c-1-6.52-3.27-12.74-5.16-19-8-24.81-19.17-48.35-31.31-71.33l-6-11.5c-1.75-3.72-4.1-7.44-4.88-11.49a40.58,40.58,0,0,0,4.77-2.1,19.29,19.29,0,0,0,8.55-10c3.21-8.33,2.57-17.44,1.45-26.1-1.31-8.7-5-17.61-12.45-22.87a19.89,19.89,0,0,0-3.2-1.91,22.93,22.93,0,0,0,1.78-5.71,27.47,27.47,0,0,0-4.14-19.06c-.05-9.13-.2-18.27-.73-27.42C331.11,85.43,318.07,53.34,289.41,29c-30.5-26.6-76-39.11-113.17-19.18-10.54,5.53-17.7,12.53-21.39,20.31-22,12.58-36.77,40.46-34.75,65.71a44.88,44.88,0,0,0,8.71,22.85A50.15,50.15,0,0,0,118.06,133c-3,6.25-5.64,12.48-6.11,19.67-.16,8.22,4.39,10.48,10,9.55-6.35,14-10.87,28.77-10.82,44.26a6.62,6.62,0,0,0,3.26,5.83,5.7,5.7,0,0,0,1.4.5c-4,24.27,5.35,52.83,25.36,65.3A130.52,130.52,0,0,0,151.41,324a97.37,97.37,0,0,0,5.71,11.31l-.1,0a13.41,13.41,0,0,0-3.67-.49,8.11,8.11,0,0,0-5.39,2.57l-1.18,1.17a139.59,139.59,0,0,0-18.36,23.34,152.83,152.83,0,0,0-11.59,21.9,12.58,12.58,0,0,0-3.27,2.17c-3.43,3.22-3.61,8.43-3,12.8.48,3.71,1,7.39,1.5,11.07-12.15,3.16-24.21,6.6-36.27,10.08Q56.86,425.39,38,431.1c-13.71,3.53-22.69,14.54-26.86,27.62-4.17,12.64-5.25,26-5.82,39.15s-.3,26.33-.1,39.45C6,576.39,7.85,616.26,0,654.77l.33.08A231.8,231.8,0,0,0,7.4,616.06c2.65-25.81,2.09-52.88,1.23-78.83-.42-13.1-.85-26.2-.55-39.27s1.28-26.13,5.19-38.54c3.84-12.6,12.2-23.15,25.26-26.69,24.42-7.81,48.88-15.58,73.56-22.52.74,5.29,1.49,10.56,2.22,15.86,1.16,8,2.62,19.39,3.91,27.3,1.37,9,2.57,18.1,1.42,27a34,34,0,0,0-.43,9.31c-3.62,2.66-5,7.61-5.11,11.87-.94,18-2.33,36.95-5.17,54.73,0,.2-.07.4-.1.6a39.25,39.25,0,0,0-24.39,11.9c-13.18,13.36-17.23,33-17.73,51.13-.08,7.14.08,30.75,8.23,33,2.85,0,4.12-3,5.27-5,1.74-3.05,4.91-9.23,6.39-12.25a275.63,275.63,0,0,0,18.79-51.91c6.46-24.36,9.17-49.95,10.91-75,.47-4.39,0-9.16,1.66-13.18a7.87,7.87,0,0,1,2-2.85,11.76,11.76,0,0,0,1.09,2.19,8.67,8.67,0,0,0,6.87,4c3,.21,6.38-2.23,6.08-5.49-.57-5.65-7.4-6.94-12-5.17,0-.26,0-.51,0-.77a44.76,44.76,0,0,1,.65-6.63c1.29-9.39.11-18.78-1.18-27.87-2.26-15.62-5.19-38.69-7.42-54.56-2-13,6.5-11.69,16-14.52a245.27,245.27,0,0,1,33.37-13.06,77.54,77.54,0,0,1,11.52-2.61,9.23,9.23,0,0,1,9.53,3.45,60.92,60.92,0,0,1,6.89,9.51,140.27,140.27,0,0,1,10.35,21.49c1,3.65,2.42,8.42,2.05,12.5l0,.05a6.16,6.16,0,0,0-2,3.23,20.69,20.69,0,0,0,.43,12.95,9.08,9.08,0,0,1-6.57-2.4,36.77,36.77,0,0,0-1-11.59c.1-.88.17-1.76.22-2.64.35-2.21.68-4.42.94-6.64.22-2.51.76-5.23.15-7.78-.28-1-1.28-3.29-1.62-4.27-1.51-3.71-2.92-7.45-4.26-11.22a20.14,20.14,0,0,0-3.22-6.41c-2.75-3.42-7.72-3.71-11.63-3.16-3.6.37-8.38,1.32-12,1.9a93.71,93.71,0,0,0-17.55,5.14,88.55,88.55,0,0,0-11,5.15l.14.32a358.9,358.9,0,0,1,35-8.31c5.45-1.07,13-3.81,16.35,2.25a26.82,26.82,0,0,1,1.83,3.91c2,5.11,4.39,10.15,6.58,15.19.61,2.31.26,4.76.18,7.2,0,.32-.05.65-.07,1a28.23,28.23,0,0,0-1.21-5.55c-4.9-6.78-9.61-13.93-16.16-19.32a4.78,4.78,0,0,0-3.34-1.09c-7.58.66-14.81,3.59-21.28,7.35a71.32,71.32,0,0,0-13.29,9.9l.21.27c4.78-2.69,9.59-5.23,14.47-7.53,6.41-2.9,12.86-5.58,19.72-6.84.17,0,.56-.12.72-.14a3.94,3.94,0,0,1,1.16.53c6.31,4.7,11.3,11.59,16.26,17.76,2.48,6.37,2,15.69.28,22.93-7.82.4-9.93-8.63-9.57-14.88l0-.69-.72-.08c-4.14-.63-7.74-3.65-10-7.2.07-.12.14-.24.2-.36,1.09-2,3-4.3,2.16-6.85-.68-1.79-2.86-3.07-4.69-2.07-2.74,1.9-1.84,5.75-.15,8.91-2.69,4.56-6.5,8.66-11.41,10.66a15.8,15.8,0,0,1-1.68.57c-1.14-3.43-5.1-6.24-8.75-4.73a3,3,0,0,0-1.53,3.2c.83,3.23,4.57,4.15,7.4,4.13.55,0,1.1-.08,1.63-.15a9.77,9.77,0,0,1-.25,3.46,20,20,0,0,1-2.9,6,8.4,8.4,0,0,0-6.68.61c-2.55,2.23.4,4.32,2.81,4.07a7.33,7.33,0,0,0,4.54-3.07,14.26,14.26,0,0,1,4.43,2.67c10.89,10.15,11.15,34.34,11.47,48.51h.23a196.37,196.37,0,0,0-.7-20.58c-1.08-9.92-2.67-21.57-10.19-28.85a15.8,15.8,0,0,0-4.43-2.84c.29-.4.56-.8.83-1.18a14.31,14.31,0,0,0,2.55-9.11c5.91-1.46,10.78-6,14-11.1a14.23,14.23,0,0,0,1.51,1.8,19.44,19.44,0,0,0,3.21,2.71,14.23,14.23,0,0,0,.84,5.41,18.28,18.28,0,0,0,3,5.44c-.63,5.3-.7,10.82,1.78,15.72a81,81,0,0,1,.64,11.31,48.12,48.12,0,0,1-2,13.54c-3.73,12-12.56,22.43-16.79,34.57-2.05,5.7-2.55,11.88-2.83,17.77-.33,9.46.14,18.83.66,28.18.2,3.35.42,6.7.63,10.05l-.68.14.68-.09c2.17,34,4.64,67.9,2.08,101.9l.34,0a488.31,488.31,0,0,0,1.89-56.09c-.15-15.38-1.18-30.77-1.87-46.16,36.19-4.58,74.64-3.78,110.47,5.87,27.46,7.17,57.19,17.88,85.23,7.11A53,53,0,0,0,371,559.55c1.93,31.48,8.29,64.59,13.32,95.17l.33-.05-5.51-36.14c-3-20-5.55-40-6.46-60.18a44.42,44.42,0,0,0,10.17-10.53,14.78,14.78,0,0,0,2.12-9.46c-.82-5.67-6.22-9.83-11.46-6.2-4.06,3.17-3,9.28-3,13.76.06,3.54.2,7.12.39,10.72a52,52,0,0,1-12.1,6.37c-27.61,10.24-56.39-1.12-83.43-8.12A250.07,250.07,0,0,0,164,552.21c-.56-12.52-.91-25-.38-37.54a74.47,74.47,0,0,1,1.86-13.54c2.53-8.93,7.31-16.77,11.57-25,4.53-8.33,7.14-18,6.47-27.53a77,77,0,0,0-1.32-9.84,6.65,6.65,0,0,0,4.66,2.15,7.93,7.93,0,0,0,1.6,4.25l0,0c3.66-2.42,4.87-7,4.51-11.23v-.48a5.16,5.16,0,0,0,1.64.87h0a28.65,28.65,0,0,0,1-5.34,9.77,9.77,0,0,0,7,3.48,7.12,7.12,0,0,0,4.24,3.14,45,45,0,0,0,.7-10.87,33.15,33.15,0,0,0-2.09-9.86,25.32,25.32,0,0,0-.44-6.46,61.09,61.09,0,0,0-1.48-6.46,142.46,142.46,0,0,0-10.05-22.08l-.28-.48q2,2.4,4.09,4.72c7.16,7.58,17.53,18.82,28.39,19.92,1,.08,2.58-.15,3.56-.18,5.83-.36,11.73,0,17.53-1.38,14-3.19,25-13.42,34.73-23.41q4.37-4.67,8.49-9.55a34,34,0,0,0,3.36,8.81c5.08,9.61,13.49,17.11,22.74,22.61a110.33,110.33,0,0,0,10.76,5.68l1.26.5,2.51,1c7.75,3.28,17.63,5.84,25.89,7.66,28,8.46,64,16,84.7,37.87,8.54,9.07,13.86,20.64,17.34,32.52,5.14,18.09,7.24,36.94,9.42,55.59,4.4,37.37,5.49,76.21,8.13,113.12Q476.64,617,474.42,579.1ZM85.15,634.88c-1.68,3.49-4.41,9-6.24,12.23-.94,1.66-1.9,4.18-3.86,4.33-6.83-3.15-7.22-24.05-7.23-31.51,0-26.5,10.84-59.06,41-62.7C104.38,584,96.76,610.32,85.15,634.88Zm45-143.42c2.09,1.84.82,4.62-2.18,4.5s-4.7-2.4-5.51-5A7.41,7.41,0,0,1,130.17,491.46Zm15.88-61.62c-.37-.29-.29-.41-.14-.74a6,6,0,0,1,5.19-.87C149.58,429.93,147.8,430.92,146.05,429.84Zm3.09-15.16c-.79-.52-1.32-1.23-1-2,.82-1.26,3-.58,4.38.2a5.59,5.59,0,0,1,2.15,2.76A8.09,8.09,0,0,1,149.14,414.68ZM170.7,397a1,1,0,0,1,1.06.33,1.37,1.37,0,0,1,.48,1.31,9.85,9.85,0,0,1-1.52,3.2,9.39,9.39,0,0,1-.64-3.58A1.46,1.46,0,0,1,170.7,397ZM372.36,545.89c0-3-.25-6.17.4-8.85a4.82,4.82,0,0,1,7.25-3.42,7.89,7.89,0,0,1,2.82,5.07c.73,6.06-4.19,12.06-10.25,16.7C372.46,552.22,372.39,549.06,372.36,545.89Zm-178-126.74a75.7,75.7,0,0,1-.08,12.05c-.62-1.31-1.26-2.61-1.95-3.89h0l.16.05A61.43,61.43,0,0,0,194.36,419.15Zm-11.32,18c-2.51-4.8-1.53-11-1.26-16.28a21,21,0,0,1-3.9-5.31,18.61,18.61,0,0,1-1.65-4.39,13,13,0,0,0,4.9,1.8c.06,6,2.49,13.76,8.8,14.52a9.82,9.82,0,0,0,2.74,5.72c-.16,2.38-.92,5.25-3.21,6.18C187.28,440.08,184.19,439.26,183,437.12Zm4,3.79a7.29,7.29,0,0,0,1.8-.18,9.48,9.48,0,0,1-.15,3.48A8.35,8.35,0,0,1,187,440.91Zm2.53,2.17a6.53,6.53,0,0,0-.47-2.43,7,7,0,0,0,.81-.28,5.13,5.13,0,0,0,2.05-2A12.22,12.22,0,0,1,189.57,443.08Zm.4-15.61a9.39,9.39,0,0,0,2.36,0v-.12c.55,2,1.22,4,1.93,6C191.88,432.43,190.62,429.84,190,427.47Zm16,6.52a4.87,4.87,0,0,1-2.6-2.3,18.41,18.41,0,0,1-1.35-4.26c-.59-2.91-.76-9.74,1.92-11.88A37.07,37.07,0,0,1,205.93,434ZM338.1,243.55c1.63,3.84,6.56,13.77,8.41,17.55,11.41,23.2,22.16,46.91,29.6,71.68,1.68,6.14,3.75,12.28,4.57,18.59A30.11,30.11,0,0,1,379,365c.2-7.07-4.74-13.55-13.57-17.54-3.73-1.84-7.91-2.57-11.73-4.16-14.5-6-24.47-20.14-29.09-34.9a113.2,113.2,0,0,0,4.65-33.95,8.58,8.58,0,0,0,1.88-.25c2.36-.46,3.76-2.88,3.72-5.16a11.17,11.17,0,0,0-.42-3.4,113.24,113.24,0,0,1-4.77-12.09c-1.29-3.83-2.58-8.7.41-12a15.8,15.8,0,0,1,6.16-3.78A24.2,24.2,0,0,0,338.1,243.55Zm-4.93-70c-2.11-.83-4.28-1.54-6.28-2.44-3.79-1.67-6.67-4.9-9.12-8.35-2.66-3.7-4.42-8.06-9-10a5.55,5.55,0,0,0-6.89,2.65c-2.17,4.48-.8,9.36.91,13.61,5.61,15.34,24.51,19.93,32,7.27a25.11,25.11,0,0,1,11.11,11.28c4,7.61,4.84,16.5,4.93,25-.16,12.19-3.74,20.76-15.94,24.74-8.07,3.28-8.82,8.87-5.94,16.49a114.4,114.4,0,0,0,4.95,12.09c1.26,4.45-.18,8.1-4.72,8.24a109.2,109.2,0,0,0-3-23c-10.49-43.07-47.14-90.2-92.51-98.54-17.57-3.35-35.79-.59-52.22,6.06q4.22-6.41,8.75-12.53c8.46-11,19.44-22.75,34.13-23.42,8.45,0,18.74,4,23.46,11.36l-.09,0c-3.39,1.17-7.48,1.84-10.42,4.35-2.2,1.75-3.52,5-2.21,7.76,4.24,7.74,13.65,1.87,15.84-4.46a10.06,10.06,0,0,0-.08-6.75,62.48,62.48,0,0,0,11.32-6.4c1,.41,2,.79,3,1.16,12.47,4.09,26.14,4.13,38.87,6.15a50.72,50.72,0,0,1,12.08,3.48c7.6,3.28,14.1,9.38,17.12,17.11C335.26,161.72,335.61,168.4,333.17,173.59Zm-.89,1.64a13.2,13.2,0,0,1-3.23,3.53c-6.64,5-16.66,1.23-21.06-5.17a28.41,28.41,0,0,1-4.79-11.41c-.34-2.69-.2-6.12,2.4-7.35,3.92-1.11,6.66,3.53,8.64,6.41a41.13,41.13,0,0,0,6.21,7.84c3.12,3.25,7.71,4.73,11.79,6.14ZM242,147.55c-3,.79-6.16-2-5.07-5.07,1.87-4.48,7.31-5,11.49-6.53l.37-.15C250.56,140.63,246.72,146.22,242,147.55Zm-118.46-52c-1.61-24.83,10.1-50.82,31-64.76-4.76,10.69-3,22.82,5.47,34.66-8.59,4-14.2,14-8.72,22.9,2.81,4.55,8.45,6.07,13.46,6.13s10.06-.41,14.74,1.46c7,2.76,11.79,9.55,13.28,16.78l.34-.06a25,25,0,0,0-7.05-13.14c-6.09-6-13.38-5.72-21.28-5.81-4.8-.13-10.08-1.55-12.69-5.87-4.06-6.4-1.27-15,4.81-19.1a20,20,0,0,1,3.9-2.21,64.07,64.07,0,0,0,5.36,6.24c4.45,4.47,9.59,8.83,15.83,10.66,5.83,1.59,11.86-2.25,10.88-8.67-1.56-11.84-20.82-13.08-29.82-10.43-.36.1-.72.22-1.08.34-14.29-19.88-8.8-40,15.47-52.56,55.13-28.27,123.21,13.56,144.28,66.94,8.74,22.22,9.77,46.42,11.07,70.06a35.58,35.58,0,0,0-15.29-12.78c-8.11-3.81-17.18-4.49-25.89-5.54-7.46-.94-15-1.61-22.27-3.41-1.31-.39-2.6-.83-3.89-1.3,18-14.42,29.52-38.45,25.69-60.95-1.55-10.47-9.81-18.68-20.83-16.7-9.61,2.14-15.75,12-16.31,21.45a18.91,18.91,0,0,0-10.22-6.57c-14.44-4.09-28.36,7.11-25.52,22.29,2.7,13.43,13.67,23,23.8,31.2a80.91,80.91,0,0,0,18.14,10.91,55.74,55.74,0,0,1-10.15,5.45c-2.3-4.21-7-7.54-11.07-9.52-14.71-7.43-28-2.12-38.81,7.27-9.81-14.47-26.26-26.07-44.47-24.49a44.69,44.69,0,0,0-26.34,11.74A57.93,57.93,0,0,1,123.52,95.55ZM162.8,65.78a26.47,26.47,0,0,1,7.86-1.25c8.14-.15,23.1,2.65,20.2,13.73-5.06,9.69-18.56-1.8-23.27-6.85A64.91,64.91,0,0,1,162.8,65.78Zm91.42,5,.05.06.28-.2c-.07-.1-.15-.19-.21-.28.47-9.26,6.67-19.23,16.11-21.2,10.59-1.76,18.29,6.16,19.66,16.21,3.24,19.28-5.57,38.92-18.63,52.81a69.82,69.82,0,0,1-8,7.21,81,81,0,0,1-19.53-11c-9.78-7.65-20.44-16.61-23.44-29.15-3-14,9.79-24.1,23-20.94A18.51,18.51,0,0,1,254,70.45a2.62,2.62,0,0,1,0,.28ZM124.51,259.28c-7.23-13.85-10.35-30.73-7.52-46.31,6.22.13,14.7-7.77,18.1-11.63,2.95-3.52,5.65-7.59,5.93-12.37.32-4.56-3.16-7.33-7.54-6.13-4.17.93-6.7,4.64-9.13,7.79a53.37,53.37,0,0,0-8.2,20.1c-1.66-.39-2.74-1.9-2.79-5.11l.07-3.27c.85-14.37,5.82-28.07,11.93-41a26.63,26.63,0,0,0,3.24-1.4c6.2-3.08,12.29-6,17.33-10.95,3.35-3.45,7.22-8.05,5.67-13.25a7.06,7.06,0,0,0-6.53-4.72c-4.11-.17-7.48,2.36-9.6,5.53-4,7-8,14.15-11.6,21.54a14.43,14.43,0,0,1-5.27.82c-6.23-1.75-1.75-14-.14-18.42,8.78-25.95,37.69-40.74,62.48-26.13a63.16,63.16,0,0,1,18.92,16.84,91.57,91.57,0,0,0-12,13.07,239.4,239.4,0,0,0-30.07,50.63c-11.18,25.76-17.95,54.61-16.69,82.86C134,273.26,128.47,266.61,124.51,259.28Zm-7.09-48.44a54.82,54.82,0,0,1,7.32-17.92,42.92,42.92,0,0,1,2.94-3.91,20,20,0,0,1,3.42-3.29c3.55-2.27,8.45-2,8.08,3.18-.28,4.19-2.87,8-5.58,11.15C131.24,203,122.62,210.56,117.42,210.84Zm10.36-54.42q2.5-4.89,5.18-9.68c2.25-3.56,3.91-7.79,6.95-10.71,2.42-2.37,7.43-2.87,8.62.68,1.45,6.72-10.1,14.44-15.53,17C131.3,154.58,129.56,155.55,127.78,156.42Zm34.76,211.43c-4.87,1.35-10,3.07-15,4.94a42.22,42.22,0,0,0,10.81-14.92,33.24,33.24,0,0,0,15.1,7.56A87.76,87.76,0,0,0,162.54,367.85Zm15.24-2.76c-.54,0-1.09,0-1.63.07a75.34,75.34,0,0,1-12.25-7.33c-1.45-1.16-3-2.35-4.44-3.66.38-2.33.48-4.92-1.12-6.86a3.06,3.06,0,0,0-4.75.72c-1.29,2.5.72,5.27,2.06,7.09.35.41.71.81,1.09,1.2-1.7,6-6.87,13.17-10.43,16.94-6.24,2.36-12.31,4.94-17.55,7.35-3.5,1.12-7.53,1.38-11.08,2.81,4.1-6.86,8.4-13.55,13-20a218.38,218.38,0,0,1,16.35-20.09c2.27-2.16,4.23-5.79,7.74-5.16a63,63,0,0,1,34.87,17.92c-3,3.47,1.94,8.6,4.44,11.18a14.6,14.6,0,0,0,2,1.72c-1.44,2.4-4.72,3.12-7.41,2.95l-.55-.06c-.57-.73-1.17-1.45-1.8-2.14A12.27,12.27,0,0,0,177.78,365.09Zm-20.55-13.4a10.27,10.27,0,0,1-.94-1.51,2,2,0,0,1-.17-.76c0-.06.31-.23.28-.22A6,6,0,0,1,157.23,351.69Zm48.89,18.6a12.76,12.76,0,0,1-5.66-.34c-3.91-.65-13.91-9.33-10.53-13.58l.06.06.24.08A28.12,28.12,0,0,1,206.12,370.29Zm74.13,7.55c-9.43,9.91-20.09,20.1-33.75,23.41-6.57,1.58-13.86,1.19-20.78,1.79-11.71-1-25.56-16-34.15-26.36-.94-1.48-1.93-2.94-3-4.34,3.53,1.33,7.87,1.18,10.55-1.74a14.21,14.21,0,0,0,9,.66,30.7,30.7,0,0,0-8.21-11.45,15.06,15.06,0,0,0,7.59-1.26c14,5.31,29.6,7.95,42.93-.38a23.93,23.93,0,0,0,9.72,0c-6.93.36-13.61-2.08-19.34-5.8a7.07,7.07,0,0,0-4.44-1.54c-1.43.1-2.92.4-4.26.58l-3.83.57-3.85-1.44a15.58,15.58,0,0,0-2.28-.74c-2.56-.58-4.84,1-6.82,2.27-4.79,3-10.49,7.78-16.33,7a28.07,28.07,0,0,0-2.66-1.92,27.22,27.22,0,0,0-5.15-2.5,66.21,66.21,0,0,0-33.42-19.17c-8.79-16.77-13.22-35.63-14-54.47-1.48-43.22,13.78-85.68,37.31-121.69,16.7-5.9,34.85-8.24,52.22-4.43,36.75,8,63.83,38.73,80.32,71C342,281.88,320,334.59,280.25,377.84ZM228,354.29l.3,0,8.13-1.3a4.22,4.22,0,0,1,1.65.21,8.41,8.41,0,0,1,1.65.87,34.23,34.23,0,0,0,10.4,4.08,57.17,57.17,0,0,1-21.44,3.12c-6.95-.18-13.71-2-20.59-3a43.35,43.35,0,0,0,4.47-2.27c1.92-1.07,3.75-2.28,5.67-3.32a4.57,4.57,0,0,1,4.34-.47l5.14,2Zm62.34,14.78c15.1-18,27.49-38.08,34-59.79a65.17,65.17,0,0,0,3.23,9.3c4.91,11.57,13.36,21.88,25,27.25a52.15,52.15,0,0,0,5.92,2.31c5.39,2,10.84,5,14.62,9.34,4,4.4,3.78,10.28,1.63,15.45a30.25,30.25,0,0,1-5.36,5.6c-6.74,5.19-15,8.13-22.41,12.2-7.57,3.81-15.05,8.2-21.24,14C310.29,397.79,294.53,386.24,290.32,369.07Z"/><path class="cls-1" d="M237.12,342.27a8.47,8.47,0,0,1-6.87.37c-.8-.48-2.22-1.6-3.14-2.25a7,7,0,0,0-7.43-.41c-2.89,2-5.18,4.41-7.79,6.64l.49-.6a15.73,15.73,0,0,0-1.55,1.38.32.32,0,0,0-.06.13.22.22,0,0,0,.08.19c.17.09.17,0,.22,0A22.35,22.35,0,0,0,213.9,346c2.17-1.4,4.34-3.26,6.56-4.47a5.39,5.39,0,0,1,5.35.65l1.06.81,1.07.83c2.52,2.14,6.44,1.88,9.32.59a5.73,5.73,0,0,1,5.26-.87,13.21,13.21,0,0,1,2.3,1.19c.79.45,1.58.88,2.39,1.3a26.64,26.64,0,0,0-4.2-3.6A6.72,6.72,0,0,0,237.12,342.27Z"/><path class="cls-1" d="M207.25,369.42c1.86,2.92,5.86,3.61,9,4.3,10,1.58,20.25.42,30-2.05C237.68,371.16,212.93,374.38,207.25,369.42Z"/><path class="cls-1" d="M309.27,267.53h0c-4.64-8.17-9-18.22-18.56-21.41-12.49-4.1-25.31,1.14-37.5,3.67-2.44.61-8,1.86-7.26,5.3,0-.16,1.74,6.14,1.73,6.11s-1.34-6.25-1.33-6.28c-.27-2.94,4.81-3.76,7-4.2,3.12-.49,6.2-1.16,9.27-1.8,9-1.76,18.51-4,27.33-.82,5.17,1.82,8.65,5.84,11.54,10.39-6.91-5.72-13.21-5.75-22.5-4.28-8.65.94-17,3.67-25,6.84-2.64.89-6.53,2.58-4.23,5.91-2-3.24,1.87-4.7,4.42-5.38,8.17-2.68,16.46-5,25.05-5.69,9.7-1.2,15.68-1.22,23,6.17a29.44,29.44,0,0,1,4.38,5.32c.22.4.44.79.67,1.18a1.12,1.12,0,1,0,2-1Z"/><path class="cls-1" d="M163.69,262.06c7.28-7.37,13.3-7.38,23-6.17,8.59.71,16.88,3,25,5.69,2.56.69,6.43,2.13,4.42,5.38,2.31-3.32-1.62-5-4.24-5.91-8-3.17-16.38-5.9-25-6.84-9.29-1.47-15.59-1.44-22.5,4.28,2.88-4.54,6.36-8.57,11.53-10.39,8.83-3.14,18.33-.94,27.34.82,3.07.64,6.15,1.31,9.27,1.8,2.21.45,7.31,1.24,7,4.2,0,0-1.33,6.24-1.33,6.28s1.8-6.27,1.73-6.11c.69-3.44-4.78-4.68-7.27-5.3-12.18-2.52-25-7.77-37.5-3.67-9.59,3.19-13.92,13.24-18.55,21.41a1.12,1.12,0,1,0,2,1h0v0c.23-.38.45-.77.67-1.16A28.63,28.63,0,0,1,163.69,262.06Z"/><path class="cls-1" d="M188,278.86a68.28,68.28,0,0,1-11.25-2.93c-3.79-1.26-7.82-3.27-11.89-2.3,4.09.5,7.26,3.05,10.86,4.75a40.68,40.68,0,0,0,11.77,3.86c6.82,1.15,14.82-.59,18.36-7.07a16.4,16.4,0,0,0,1.72-4.29C202.88,278.32,196.08,280.17,188,278.86Z"/><path class="cls-1" d="M286.64,275.93a68.28,68.28,0,0,1-11.25,2.93c-8.12,1.31-14.91-.54-19.58-8a16.43,16.43,0,0,0,1.73,4.29c3.54,6.48,11.54,8.22,18.36,7.07a40.68,40.68,0,0,0,11.77-3.86c3.6-1.7,6.77-4.25,10.86-4.75C294.46,272.66,290.42,274.67,286.64,275.93Z"/><path class="cls-1" d="M246,312.73a109.54,109.54,0,0,1-4.94-13c-2.78-8.69-5.27-28.41-.42-36.26l-.18-.14c-2,2.51-2.65,5.75-3.16,8.83a79.16,79.16,0,0,0-.1,18.84A74.66,74.66,0,0,0,242,309.34c2,5.89,9.07,15.11,1,19.29a8.5,8.5,0,0,1-6.07.63,4.68,4.68,0,0,1-.45-.2,19,19,0,0,0,3.93-1.2c2-.85,3.76-3.31,1.39-4.85a3.48,3.48,0,0,0-3,0,10,10,0,0,0-4.18,2.93,3.13,3.13,0,0,0-.77,2.1,22.57,22.57,0,0,1-4.93,0,2.28,2.28,0,0,0,0-.27c-.6-2.53-3.23-4-5.56-4.71a2.13,2.13,0,0,0-1.79,3.83,15.85,15.85,0,0,0,5.94,2.29,2.42,2.42,0,0,1-.31.25c-2.49,1.52-6.09.68-8.49-.76-4.2-2.69-3.49-8.5-1.59-12.44l-.21-.1a16.5,16.5,0,0,0-1.49,4.46c-1.23,5.28,2.15,9.59,7.44,10.26,1.7.31,4.55.07,5.62-1.51a24,24,0,0,0,5.74.1,3.65,3.65,0,0,0,2,1.59c6,2.07,13.37-2.27,12.71-9C248.89,318.66,247.29,315.56,246,312.73Zm-24.14,11.83c1.15-1.83,6.17,1.59,6.28,3.27v0a21.75,21.75,0,0,1-3.82-.93C223.29,326.52,221.47,325.78,221.84,324.56Zm14.25,2.4c.93-1.24,3.74-3.11,4.95-2.53,1,.68-.61,1.68-1.33,2.08a18,18,0,0,1-4,1.24A1.69,1.69,0,0,1,236.09,327Z"/></g></g></svg>