<svg xmlns="http://www.w3.org/2000/svg" xmlns:xlink="http://www.w3.org/1999/xlink" viewBox="0 0 850.39 861.82"><defs><style>.cls-1{isolation:isolate;}.cls-2{fill:#fff;}.cls-3{fill:url(#Degradado_sin_nombre_75);}.cls-4{fill:#efab48;opacity:0.44;}.cls-5{opacity:0.53;fill:url(#linear-gradient);}.cls-5,.cls-6{mix-blend-mode:multiply;}.cls-6{fill:url(#Degradado_sin_nombre_75-2);}.cls-10,.cls-7,.cls-8{fill:none;}.cls-7,.cls-8{stroke:#231f20;stroke-linecap:round;stroke-linejoin:round;}.cls-7{stroke-width:3px;}.cls-8{stroke-width:2px;}.cls-9{fill:#231f20;}</style><linearGradient id="Degradado_sin_nombre_75" x1="445.49" y1="472.38" x2="533.77" y2="472.38" gradientUnits="userSpaceOnUse"><stop offset="0" stop-color="#ffe3de"/><stop offset="1" stop-color="#ffc9c3"/></linearGradient><linearGradient id="linear-gradient" x1="799.37" y1="-293.3" x2="436.46" y2="-280.74" gradientTransform="matrix(0.93, -0.36, 0.36, 0.93, 191.72, 776.76)" gradientUnits="userSpaceOnUse"><stop offset="0" stop-color="#fff"/><stop offset="1" stop-color="#d8c6a7"/></linearGradient><linearGradient id="Degradado_sin_nombre_75-2" x1="-8.38" y1="118.95" x2="125.96" y2="118.95" gradientTransform="translate(45.95 464.23)" xlink:href="#Degradado_sin_nombre_75"/></defs><g class="cls-1"><g id="Layer_2" data-name="Layer 2"><g id="Background"><path class="cls-2" d="M208.6,155.19a1.3,1.3,0,0,0-1.18-.09l-3.64,1.46a30.45,30.45,0,0,0-7.4,4.61,88.47,88.47,0,0,0-8.86,7.74c-.44.45-.9.9-1.3,1.39a35.3,35.3,0,0,1-3.7,4,8.08,8.08,0,0,0-1.08,1.26,18,18,0,0,1-2.75,3,19.58,19.58,0,0,0-4.22,5.37,40,40,0,0,1-2.93,4.28,9,9,0,0,1-1.32,1.37,48.88,48.88,0,0,0-5.48,6c-1.12,1.34-2.22,2.68-3.42,4-2.11,2.27-4.17,4.58-6.25,6.88a11.21,11.21,0,0,0-.77.91,50.52,50.52,0,0,1-4.75,5.61c-.55.58-1,1.22-1.52,1.83-.84,1-1.66,2.11-2.52,3.14a16,16,0,0,0-1.73,2.53c-1,1.7-1.95,3.38-2.93,5.07a9.7,9.7,0,0,1-1.79,2.21,41.07,41.07,0,0,0-5,5.71c-1,1.33-2.11,2.57-3.21,3.82A43.86,43.86,0,0,0,125,246a10.23,10.23,0,0,0-.52,1.29c-.48,1.31-.94,2.61-1.42,3.92a9,9,0,0,1-2.79,4,18.06,18.06,0,0,0-2.34,2.37A13.33,13.33,0,0,1,116.6,259a10.33,10.33,0,0,0-1.52,1.51,2.25,2.25,0,0,1-.67.67,7.77,7.77,0,0,0-2.63,2.72,4.37,4.37,0,0,1-1,1,61.46,61.46,0,0,0-4.75,4.05,14.73,14.73,0,0,1-1.28,1.09c-1.6,1.22-3.09,2.56-4.56,3.9a7.94,7.94,0,0,0-2,2.3,2.1,2.1,0,0,1-1.07.93c-.74.35-1.45.72-2.18,1.09a10.2,10.2,0,0,0-1.6,1.08,10.87,10.87,0,0,1-2.46,1.52,20,20,0,0,0-3.59,2A23.89,23.89,0,0,1,82,285.48c-1.07.41-2.13.85-3.19,1.27s-2.25.94-3.42,1.32c-1.56.51-3.06,1.17-4.57,1.78-2.43,1-4.91,1.81-7.42,2.59-1.1.33-2.2.64-3.31.95a7.9,7.9,0,0,1-.93.1,4.11,4.11,0,0,1,.83-.69c1.2-.52,2.4-1,3.63-1.49,2.22-.83,4.45-1.63,6.69-2.43a27.75,27.75,0,0,0,4.18-2c1.13-.63,2.22-1.34,3.29-2.07,1.93-1.32,3.82-2.69,5.74-4a75.46,75.46,0,0,0,11.89-10.11c.66-.69,1.35-1.36,2-2a89.19,89.19,0,0,0,6.51-7c2.37-2.87,4.61-5.82,6.88-8.76a84.37,84.37,0,0,0,6-8.74,42.62,42.62,0,0,1,5-6.6c.95-1.06,1.86-2.16,2.79-3.23.42-.48.86-1,1.27-1.42.89-1,1.76-2,2.64-3.06.36-.42.73-.84,1.11-1.24a23.43,23.43,0,0,0,3.46-4.2,2.58,2.58,0,0,1,.44-.56,44.46,44.46,0,0,0,4.73-5.9c.81-1.16,1.68-2.29,2.55-3.41,1.45-1.87,2.92-3.73,4.38-5.59.29-.38.56-.77.83-1.15,1.34-1.94,2.64-3.91,4.17-5.72a8.83,8.83,0,0,0,.67-1,16.6,16.6,0,0,1,2.71-3.28,15.27,15.27,0,0,0,2.32-2.7,39.2,39.2,0,0,1,6.27-7.13,26.87,26.87,0,0,0,4.59-4.83c0-.06.05-.19,0-.22a.75.75,0,0,0-.37-.15,1,1,0,0,0-.48.09c-1.38.7-2.76,1.39-4.12,2.11-.72.38-1.42.79-2.11,1.21a10.52,10.52,0,0,0-1.61,1.08,28.54,28.54,0,0,1-4.58,3.14,17.1,17.1,0,0,0-2.36,1.68,26.37,26.37,0,0,1-4.61,3.1,26.41,26.41,0,0,0-3.42,2.28c-1,.79-2,1.57-3.1,2.3a10,10,0,0,0-2.25,2.14,48.65,48.65,0,0,1-5.84,6.27,18.54,18.54,0,0,0-4,5.5,21.71,21.71,0,0,1-2.37,3.77,17.84,17.84,0,0,0-3.3,6.4c-.45,1.55-1,3.07-1.6,4.59s-1.17,3.35-1.68,5a9.45,9.45,0,0,1-1.14,2.53,18.83,18.83,0,0,0-1.65,3.1,5.47,5.47,0,0,1-1.27,2,11.75,11.75,0,0,0-2.14,3.08c-1,1.86-1.9,3.75-2.89,5.61-.47.89-1.06,1.72-1.58,2.59q-2.06,3.42-4.09,6.84c-.65,1.07-1.28,2.15-2,3.19a14.38,14.38,0,0,1-1.47,1.85q-4.2,4.56-8.8,8.78a73.75,73.75,0,0,1-9.58,7.68c-1.36.88-2.66,1.83-4,2.75a43.87,43.87,0,0,1-5.67,3.3,57.56,57.56,0,0,1-7.86,3.37,3.83,3.83,0,0,1-.75.08,2.45,2.45,0,0,1,.41-.63c2-1.53,3.67-3.32,5.53-5a72.31,72.31,0,0,0,6.71-7.09c.93-1.08,1.91-2.13,2.88-3.18A70.3,70.3,0,0,0,85.31,268c.27-.38.61-.73.92-1.09a50.72,50.72,0,0,0,5.08-6.82c1.51-2.47,3.11-4.88,4.84-7.23a3.08,3.08,0,0,0,.36-.6,37.45,37.45,0,0,1,3.26-5.42c1-1.52,2-3,3-4.54a18.53,18.53,0,0,1,1.66-2.29,49.63,49.63,0,0,0,3.16-4.13c1.43-2,2.91-3.93,4.14-6,1.85-2.18,3.07-4.73,4.88-6.94a8.19,8.19,0,0,0,.93-1.36,51.79,51.79,0,0,1,3-4.49,5.57,5.57,0,0,0,.43-.56,98.58,98.58,0,0,1,6.3-8.84,9.2,9.2,0,0,0,.69-1,42.23,42.23,0,0,1,3.36-4.54l.72-.95a61,61,0,0,1,7-8.33c1.27-1.21,2.54-2.42,3.87-3.57a7.91,7.91,0,0,0,1.54-1.79c.07-.1,0-.27,0-.41l.06,0a2.16,2.16,0,0,0-1.22.75,6.76,6.76,0,0,1-2.21,1.46c-.52.22-1,.46-1.55.72a17.11,17.11,0,0,0-1.93,1.05c-2.75,1.84-5.52,3.67-8.22,5.58a39.37,39.37,0,0,1-3.94,2.79c-.43.24-.83.51-1.28.71a9.93,9.93,0,0,0-2.4,1.62c-3.27,2.84-6.65,5.56-10.21,8.09a27.41,27.41,0,0,0-4.27,3.84c-1.08,1.17-2.2,2.3-3.38,3.38a100.36,100.36,0,0,0-8.37,8.52c-.77.91-1.51,1.84-2.24,2.77a13.82,13.82,0,0,0-2.94,7,35,35,0,0,1-1.15,5.16,17,17,0,0,0-.9,5.42,4,4,0,0,1-.08.91c-.44,2-.85,4.06-1.35,6.07a30.85,30.85,0,0,1-2.78,6.39,18.54,18.54,0,0,0-1,2.32c-.26.72-.65,1.41-1,2.12a25.91,25.91,0,0,1-3.87,6.66,22.31,22.31,0,0,0-1.84,3c-.64,1.08-1.24,2.17-1.89,3.24a30.34,30.34,0,0,1-2.84,3.78,47.41,47.41,0,0,1-5.42,5.37,85.58,85.58,0,0,1-7.63,5.89c-.81.55-1.65,1-2.44,1.6a20.4,20.4,0,0,1-4.74,2.49A27.84,27.84,0,0,1,47,297.4c-1,.18-1.93.43-2.9.61-1.45.26-2.92.46-4.37.75-3.23.64-6.45,1.32-9.67,2a4.76,4.76,0,0,0-2.74,1.84c-.08.09,0,.29,0,.43a.47.47,0,0,0,.57.3,32.94,32.94,0,0,0,5.27-1.2,14.1,14.1,0,0,1,2.16-.49,18.66,18.66,0,0,0,3.62-.69,2.53,2.53,0,0,1,.73-.11c2-.14,4-.21,5.9-.45a39.87,39.87,0,0,0,5.86-.79,14,14,0,0,1,1.7-.27,13.41,13.41,0,0,0,1.7-.3c1.66-.52,3.38-.69,5.07-1a28.47,28.47,0,0,1,7.37-.28c1.48.08,3,.17,4.43.31,2.44.23,4.89.51,7.33.78,1.06.12,2.12.26,3.18.36,2.61.26,5.22.49,7.83.77a28.4,28.4,0,0,1,2.9.52c2.31.51,4.61,1.07,6.93,1.55,2,.4,4,.81,6,1,1.8.19,3.57.49,5.35.77a44.3,44.3,0,0,0,8.84.42c3.29-.14,6.57-.42,9.86-.47l1,0A83.6,83.6,0,0,0,142,303c1.39-.16,2.78-.38,4.15-.63a7.16,7.16,0,0,1,2.91-.24,1.72,1.72,0,0,0,.74-.08l3.36-.75a4.07,4.07,0,0,0,.7-.22l2.74-1.07a22.16,22.16,0,0,0,3.3-1.57c1.54-.9,3.18-1.64,4.8-2.41,2-1,3.84-2.1,5.74-3.19q2.11-1.22,4.25-2.38L189,282.6c1.49-.82,3-1.61,4.51-2.41,1.66-.87,3.32-1.73,4.88-2.75.47-.31,1-.55,1.48-.84,1.11-.68,2.24-1.32,3.29-2.07,1.58-1.12,3.09-2.32,4.64-3.47.71-.53,1.44-1,2.17-1.54a3.15,3.15,0,0,1,1.34-.57A3.62,3.62,0,0,0,213,268c.15-.11.14-.4.23-.7-.49.05-.9.07-1.3.13l-5.1.89c-.57.1-1.14.19-1.7.32-2.16.53-4.3,1.11-6.46,1.61a60.94,60.94,0,0,0-9.11,3c-4.33,1.76-8.78,3.16-13.25,4.53-.71.22-1.4.47-2.08.75-2.12.85-4.24,1.72-6.36,2.59a18.33,18.33,0,0,1-4.26,1.19c-3.9.59-7.81,1.19-11.7,1.9-3.16.57-6.38.71-9.57,1a8.06,8.06,0,0,1-2.45-.21,53.37,53.37,0,0,0-6.31-1,8.41,8.41,0,0,1-3.53-.85,3.09,3.09,0,0,0-.94-.23,69.09,69.09,0,0,0-9.51-1.11,13.61,13.61,0,0,0-2.71.1,16.42,16.42,0,0,1-2.7.19,69.37,69.37,0,0,0-8.88.5,13.12,13.12,0,0,1-3.43,0,15.41,15.41,0,0,0-3,.08,11.74,11.74,0,0,1-2.15.14,14.36,14.36,0,0,1,3.25-1.08c2.42-.48,4.83-1,7.26-1.43,1.86-.32,3.75-.55,5.62-.81,1.39-.19,2.78-.35,4.16-.54a11.18,11.18,0,0,1,2.71-.07c3,.3,6,.38,9.09.48a71.16,71.16,0,0,1,7.86.48,22.3,22.3,0,0,0,2.94.26,18,18,0,0,0,4.91-.31,21.66,21.66,0,0,1,2.43-.44,14,14,0,0,0,5.69-2.13,27.15,27.15,0,0,1,3.08-1.47c.45-.2.94-.32,1.37-.54a108,108,0,0,1,11.63-4.58,28.59,28.59,0,0,1,5.2-1.45,28.57,28.57,0,0,0,5.42-1.6,2.07,2.07,0,0,0,.73-.59c.07-.08,0-.37,0-.4a4.09,4.09,0,0,0-1.37-.45,39.46,39.46,0,0,0-5.65,0c-5.07.58-10.16,1-15.23,1.59a30.08,30.08,0,0,1-6.64,0,43.85,43.85,0,0,0-12.52.69c-.16,0-.32.09-.48.11a62.29,62.29,0,0,0-9,2.42c-.94.3-1.89.56-2.84.8a21.72,21.72,0,0,0-3.72,1.26,13.19,13.19,0,0,1-3.05.95c-1,.19-2.09.44-3.14.64a24.25,24.25,0,0,0-3.54,1c-1.7.6-3.35,1.31-5,1.91-1.08.38-2.2.67-3.29,1L103,279c-.28-.05-.29-.16-.08-.3a18.83,18.83,0,0,1,4-2.21,37.21,37.21,0,0,0,4.85-2.32c1.9-1.09,3.86-2.09,5.81-3.1a14.56,14.56,0,0,1,1.58-.65c.67-.27,1.45-.4,1.81-1.11a9.53,9.53,0,0,1,3.34-1.46c2.18-.38,4.38-.71,6.55-1.16,3.38-.71,6.84-1.05,10.14-2.08a20.26,20.26,0,0,1,6.34-.75,77,77,0,0,0,9.61-.17c1.07-.12,2.14-.18,3.21-.21a10.38,10.38,0,0,0,2.93-.28,3.18,3.18,0,0,1,1-.06,40.56,40.56,0,0,0,4.93-.19l13.3-.88c.82-.06,1.64-.09,2.47-.08,2.22,0,4.44-.14,6.65-.32.74-.06,1.48-.16,2.21-.17a19.5,19.5,0,0,0,5.37-.64,5.48,5.48,0,0,1,1.46-.21,14.55,14.55,0,0,0,4.33-.86,23.39,23.39,0,0,1,2.86-.7,18.7,18.7,0,0,0,3.56-1c1.52-.62,3.09-1.07,4.62-1.63a66,66,0,0,0,7-3c2.48-1.24,4.86-2.61,7.22-4a38.29,38.29,0,0,0,3.4-2.31,87.43,87.43,0,0,0,9.72-8.58q3.69-3.73,7.16-7.66c.84-.95,1.75-1.85,2.62-2.78,1.19-1.28,2.35-2.59,3.57-3.85,1.38-1.43,2.8-2.83,4.2-4.24.23-.22.5-.41.71-.64a47.79,47.79,0,0,1,7.24-6.28,85.24,85.24,0,0,1,7.87-5.23,36.74,36.74,0,0,0,4.1-2.58.29.29,0,0,0,.07-.22s-.12-.09-.19-.08a1.44,1.44,0,0,0-.47.06c-2.34.77-4.75,1.31-7.13,1.93a61.69,61.69,0,0,0-9.74,3.39c-1,.46-2.1.89-3.17,1.29a64.54,64.54,0,0,0-11.66,5.61c-.61.39-1.27.71-1.91,1.06-.36.2-.75.34-1.08.57a47.68,47.68,0,0,1-6.19,3.41,35.12,35.12,0,0,0-4.81,2.84c-1.85,1.3-3.7,2.61-5.6,3.84-1.69,1.1-3.45,2.11-5.2,3.14-1,.61-2.14,1.16-3.19,1.78a28.2,28.2,0,0,1-7.72,3q-3.82.95-7.69,1.78c-1.6.34-3.23.65-4.86.84a17.6,17.6,0,0,0-4.08.9,13.83,13.83,0,0,1-3.35.78,7.23,7.23,0,0,0-1.89.5c-2.12.87-4.24,1.72-6.42,2.45a28,28,0,0,0-6,2.81,23.63,23.63,0,0,1-3.95,1.92c-2.05.81-4.12,1.59-6.16,2.42a43.48,43.48,0,0,1-7.32,2.13,33,33,0,0,1-4.82,1,.44.44,0,0,1-.23-.07c0-.12,0-.29.09-.34a4.7,4.7,0,0,1,.85-.47c2.82-1.11,5.63-2.22,8.46-3.3a22,22,0,0,0,4.28-2.31,30.42,30.42,0,0,1,4.45-2.51c3-1.34,5.76-3,8.68-4.48a68.56,68.56,0,0,1,10.32-4.47c1.87-.58,3.71-1.28,5.54-2,1.52-.6,3.13-.94,4.62-1.63,1-.45,1.95-.82,2.91-1.27a25.5,25.5,0,0,1,3.12-1.38,5.45,5.45,0,0,0,.89-.39,96.78,96.78,0,0,0,9.3-5.32c1-.68,2.06-1.29,3.06-2,2.07-1.41,4.12-2.85,6.18-4.26,1.2-.83,2.42-1.62,3.62-2.43s2.55-1.72,3.83-2.56c.68-.44,1.37-.87,2.09-1.24a26,26,0,0,0,3.3-2,2.56,2.56,0,0,1,.37-.3c2.14-1,3.91-2.59,5.9-3.82,3.25-2,6.18-4.39,9.34-6.49l.06,0a1.3,1.3,0,0,0-.95,0c-.93.33-1.85.67-2.78,1a15,15,0,0,1-2.58.78,20.07,20.07,0,0,0-4.66,1.54c-.91.37-1.82.71-2.75,1-1.93.67-3.87,1.34-5.81,2s-4,1.31-6.08,2a10,10,0,0,0-3.7,1.21,26.48,26.48,0,0,1-3.47,1.23,48.78,48.78,0,0,0-6.26,2.18,12.45,12.45,0,0,1-2.58.79,18,18,0,0,0-3.73,1.2c-2.12.87-4.16,1.89-6.3,2.71a13.16,13.16,0,0,0-3.94,2.39c-1,.84-2,1.59-3,2.39a14.74,14.74,0,0,0-3,3,9.66,9.66,0,0,1-3.19,2.86,37.5,37.5,0,0,0-5.41,4,35.33,35.33,0,0,1-5.56,3.86,30.74,30.74,0,0,0-4,2.66c-1.21.94-2.46,1.82-3.67,2.76a22.21,22.21,0,0,0-2.76,2.64,21.67,21.67,0,0,1-6.32,5.13,13.31,13.31,0,0,0-1.65,1c-.8.54-1.68,1-2.51,1.48a25.79,25.79,0,0,1-5.82,2.47c-.7.22-1.36.57-2,.84a17.38,17.38,0,0,1-2.76,1,11.36,11.36,0,0,0-4,1.78,10.25,10.25,0,0,1-2.37,1.23c-1.07.4-2.07.95-3.1,1.43a6,6,0,0,1-2.57.76.53.53,0,0,1-.39-.17.47.47,0,0,1,.08-.42,1.09,1.09,0,0,1,.37-.29c3.1-1.77,6.09-3.71,9.24-5.41a35.86,35.86,0,0,0,3.49-2.19q6.55-4.57,13.28-8.92c1.7-1.1,3.47-2.11,5.12-3.26a71.37,71.37,0,0,0,8.2-6.34c2.62-2.45,5.33-4.84,8.19-7.07,1.39-1.08,2.82-2.13,4.24-3.19l4.07-3,5.4-4.07c1.93-1.46,3.88-2.88,5.78-4.37a53.42,53.42,0,0,1,9.24-5.81,3.29,3.29,0,0,1,.88-.4,7.22,7.22,0,0,0,2.85-1.31c1.9-1.1,3.79-2.2,5.71-3.27a13.92,13.92,0,0,1,2.21-1,33.7,33.7,0,0,0,3.56-1.62c1.68-.83,3.37-1.64,5-2.54a57.12,57.12,0,0,1,7.15-3.17c.76-.3,1.55-.52,2.34-.77a1.42,1.42,0,0,1,.72-.1,5.06,5.06,0,0,0,2.88-.34l2.39-.62a8.14,8.14,0,0,1,1.2-.21,36.06,36.06,0,0,0,10.71-2.61,30.23,30.23,0,0,0,9.53-6.12c2.25-2,4.56-4,6.8-6.08,1.12-1,2.16-2.13,3.21-3.21a10.49,10.49,0,0,0,1.22-1.46c.86-1.31,1.84-2.55,2.8-3.8s1.71-2.45,2.52-3.7c1.1-1.71,2.31-3.37,3.5-5a14.18,14.18,0,0,0,1.32-2.21,14,14,0,0,1,1.92-3.21,2.14,2.14,0,0,0,.28-.39l3.55-6.33c-.24-.05-.42-.14-.52-.09-.53.22-1,.49-1.54.74a7.48,7.48,0,0,1-2.32.78,4.93,4.93,0,0,0-2.43,1.08c-.51.39-1.05.75-1.52,1.18a33.93,33.93,0,0,1-4.33,3.08,18.66,18.66,0,0,0-2.15,1.55,14.79,14.79,0,0,1-3.42,2.28,6.74,6.74,0,0,0-1.06.57c-1.38,1-2.71,2-4.1,3-1.06.73-2.15,1.43-3.28,2.06-.78.44-1.52.91-2.25,1.42a49.84,49.84,0,0,1-6.44,3.89,18.15,18.15,0,0,0-2.12,1.17,32.54,32.54,0,0,1-4.24,2.39,8.44,8.44,0,0,0-2.29,1.37,2.88,2.88,0,0,1-.81.52,20.72,20.72,0,0,0-3.37,1.93,3.28,3.28,0,0,0-1,.94,2.54,2.54,0,0,1-.74.58l-2.84,1.85a1.49,1.49,0,0,0-.55.46c-.57,1.08-1.68,1.66-2.54,2.48a29.05,29.05,0,0,1-2.74,2.33,8,8,0,0,0-1,1,12.93,12.93,0,0,1-1.81,1.56,16,16,0,0,0-2.66,2.39,38.05,38.05,0,0,1-5.77,5c-1.54,1.16-3.07,2.33-4.64,3.46a34.45,34.45,0,0,1-3,2c-2,1.14-3.75,2.53-5.64,3.78-2.36,1.55-4.71,3.13-7.06,4.7-.8.54-1.59,1.1-2.38,1.65-1.86,1.29-3.56,2.76-5.5,4-.55.34-1,.78-1.54,1.17-.15.12-.34.14-.42,0a.37.37,0,0,1,.1-.36c.82-.86,1.66-1.71,2.49-2.56l4.31-4.47c.55-.56,1.14-1.11,1.7-1.67s.89-.91,1.33-1.38a80.61,80.61,0,0,1,8.47-8.09c1.29-1.08,2.65-2.09,4-3.15s2.41-2.12,3.71-3.06c2.29-1.66,4.41-3.48,6.67-5.17,1.86-1.4,3.62-2.92,5.46-4.35a73,73,0,0,1,7-4.81,47.86,47.86,0,0,0,5.52-3.92c.93-.76,1.89-1.5,2.82-2.26,1.36-1.12,2.7-2.27,4.07-3.38l8.47-6.79c2.06-1.66,4.14-3.3,6.16-5,3.07-2.58,6.23-5.07,9.43-7.51,1-.78,2-1.58,3-2.4a27.44,27.44,0,0,1,3.38-2.34c2.14-1.31,4.26-2.65,6.3-4.11.85-.61,1.79-1.1,2.69-1.65l1.65-1a1.19,1.19,0,0,0,.49-.77l0-.07c-.06.06-.11.14-.18.16-2.89.89-5.78,1.78-8.75,2.44-1.92.43-3.88.69-5.81,1.08-3.79.76-7.57,1.52-11.27,2.63-1.57.47-3.18.82-4.77,1.22-.47.13-.94.28-1.41.43-2.73.86-5.46,1.74-8.11,2.79a48.12,48.12,0,0,0-5,2.09c-.35.19-.74.33-1.12.49a28.38,28.38,0,0,0-3.51,1.7,5.07,5.07,0,0,1-.85.47,17.62,17.62,0,0,0-5.63,3.71c-.66.58-1.33,1.16-2,1.77a33.68,33.68,0,0,1-4.29,3.49,14.2,14.2,0,0,0-2.86,2.55c-.66.79-1.33,1.57-2.07,2.3a17.51,17.51,0,0,0-3.76,6.42c-.49,1.22-.82,2.49-1.24,3.73a20.82,20.82,0,0,1-.79,2.17c-1,2.12-2,4.22-3,6.32-.36.77-.78,1.53-1.12,2.31a10,10,0,0,1-2.71,3.54c-.9.79-1.8,1.59-2.68,2.4a34.44,34.44,0,0,0-3.68,4.35,29.08,29.08,0,0,1-3.46,3.91,11.66,11.66,0,0,0-1.91,2.4,57,57,0,0,1-5,6.85c-1.3,1.48-2.52,3-3.84,4.51a26.82,26.82,0,0,1-3.14,3.26,4.17,4.17,0,0,0-.79.89,32.85,32.85,0,0,1-7.24,7.81c-1.19,1-2.34,2-3.51,2.93s-2.38,1.91-3.55,2.88c-.74.62-1.45,1.26-2.16,1.91a70.91,70.91,0,0,1-7.72,6.16,2.18,2.18,0,0,1-.43.22,1.06,1.06,0,0,1-.92-.09c.13.13.51.23.07.44,0-.14,0-.28,0-.43a48.41,48.41,0,0,0,5-4.81c3.32-3.33,6.47-6.79,9.57-10.3,1.42-1.61,3-3.11,4.27-4.81a98.4,98.4,0,0,0,6.31-8.82c.86-1.4,1.65-2.84,2.47-4.26a17.83,17.83,0,0,1,1.47-2.12,53.61,53.61,0,0,1,4-4.69,49.26,49.26,0,0,0,6.32-8c.73-1.12,1.53-2.2,2.17-3.36.75-1.36,1.38-2.79,2-4.2a1.74,1.74,0,0,0,.15-1.11c-.24-.76-.2-1.34.69-1.66.52-.78,1.07-1.55,1.54-2.36a4,4,0,0,0,.28-1.1,4.9,4.9,0,0,1,.94-2.33,4.76,4.76,0,0,0,.69-1.7,13.47,13.47,0,0,1,1.17-2.53c.87-1.57,1.75-3.13,2.59-4.71a30.62,30.62,0,0,1,3.59-5.24,43.55,43.55,0,0,0,2.92-3.73,20.84,20.84,0,0,1,1.7-2,7.55,7.55,0,0,0,.54-.76.81.81,0,0,0,.05-.27,1.84,1.84,0,0,0-.7,0c-1.26.58-2.55,1.13-3.74,1.81-1.75,1-3.44,2.12-5.16,3.19a2.72,2.72,0,0,0-.38.29c-1.24,1.26-2.93,2-4.18,3.25a1.53,1.53,0,0,1-.6.41c-1.78.6-2.91,2-4.31,3.06a18.15,18.15,0,0,0-3.48,3.58c-.94,1.26-2,2.46-2.92,3.73A43.12,43.12,0,0,0,198.2,180a26,26,0,0,0-1.45,3.64c-.35,1.09-.85,2.14-1.28,3.22a4.49,4.49,0,0,0-.33.86,14.55,14.55,0,0,1-1.58,3.84c-.71,1.3-1.31,2.64-2,4a5.94,5.94,0,0,0,.27.58,1.09,1.09,0,0,1,.17.87,19.71,19.71,0,0,1-1.14,3.51,10.29,10.29,0,0,0-1.07,3.75,10.57,10.57,0,0,1-1.52,4.81,14.8,14.8,0,0,0-.95,1.86,7.94,7.94,0,0,1-1.58,2.33,5.91,5.91,0,0,0-1.3,1.94,4.12,4.12,0,0,1-.76,1.17c-.65.8-1.35,1.56-2,2.35-.35.43-.63.9-.94,1.35a14.26,14.26,0,0,1-1.67,2.29c-.68.67-.87,1.64-1.65,2.28a8.65,8.65,0,0,0-1.78,2.21,2.83,2.83,0,0,1-.66.68,24.66,24.66,0,0,0-3.07,3.32,73,73,0,0,1-5,5.44c-2.84,2.79-5.78,5.5-8.72,8.21a59,59,0,0,1-5.2,3.93c-1.36,1-2.78,1.94-4.13,2.95a48.74,48.74,0,0,1-5.53,3.51c-3,1.66-6,3.18-9.07,4.75a12.85,12.85,0,0,0-3.63,2.39,3.09,3.09,0,0,1-1,.63c-.8.39-1.62.75-2.44,1.12-.52.24-1,.46-1.55.71a22.42,22.42,0,0,0-2.74,1.06,14.58,14.58,0,0,1-2.44,1.09c-.9.37-1.82.72-2.72,1.11-3.58,1.59-7.1,3.3-10.61,5a8.59,8.59,0,0,1-.88.37.26.26,0,0,1-.21-.08.18.18,0,0,1,0-.2,13,13,0,0,1,1.31-1.36,20.69,20.69,0,0,0,2.21-2.18c1.56-1.7,3.15-3.36,4.72-5.05s3-3.11,4.35-4.75a48.94,48.94,0,0,1,7.43-7.09,32.7,32.7,0,0,0,3.06-2.69c1.57-1.58,3.35-3,5-4.45a37.86,37.86,0,0,1,5-3.83c1.72-1.07,3.42-2.16,5.15-3.22a16.57,16.57,0,0,1,1.52-.76,44.14,44.14,0,0,0,6.22-3.33c1.21-.8,2.53-1.45,3.76-2.21,2.56-1.57,5.14-3.11,7.62-4.77a35.89,35.89,0,0,0,5.9-4.93,91,91,0,0,0,7.35-8.7,30.23,30.23,0,0,1,3.22-3.78,11.26,11.26,0,0,0,2.85-4.8,54.27,54.27,0,0,1,1.9-5.22,7.19,7.19,0,0,0,.58-1.75,22,22,0,0,1,2.45-6.24,24.89,24.89,0,0,0,1.32-3.21c.58-1.75,1.39-3.44,2.12-5.15a5,5,0,0,0,.64-2.19,2.09,2.09,0,0,1,.18-.89c.51-1.14,1-2.27,1.6-3.37.78-1.44,1.7-2.81,2.46-4.26a55.32,55.32,0,0,1,3.9-5.87c.36-.51.67-1.06,1-1.58.63-.91,1.26-1.8,1.9-2.7q.67-1,1.38-1.92c.47-.63.95-1.25,1.44-1.87l3-3.68Z"/><ellipse class="cls-3" cx="489.63" cy="472.38" rx="44.14" ry="53.2"/><path class="cls-4" d="M52.9,859.16S79,807.85,89.28,777.23s17-61.74,45.46-79.23,39.27-26,66.73-24.72,30.31,2,30.31,2-16.54,8.18,1.16,36.3,52.68,56,129.56,65.21,106.78,6.75,106.78,6.75l37.21,73.13Z"/><path class="cls-4" d="M561,777.23l55.5,80.45H830.66s8.32-75.57,2.84-105.54-7.59-55.3-36-76.63-80.12-11-81.14-11.89-13.54-2.13-13.91-1.45S685.1,688,674.08,703.3a196.6,196.6,0,0,1-50.89,48.84C606.41,763.15,561,777.23,561,777.23Z"/><path class="cls-5" d="M415.57,194.22s-15.91,29.3,8.56,71.3,98.7,36.87,128.2,78.57-14.56,75.34,25.48,132.3,120,17,126.41-7.77S683.94,145.94,562.51,145,415.57,194.22,415.57,194.22Z"/><ellipse class="cls-6" cx="104.74" cy="583.18" rx="67.17" ry="108.32" transform="translate(-200.69 75.46) rotate(-20.85)"/><path class="cls-7" d="M473.3,563.5a165.63,165.63,0,0,1-9,81.94c-1.92,5.06-4.09,10-5.57,15.26-2.44,8.56-2.94,17.54-3.43,26.43"/><path class="cls-7" d="M265,300.65c6.33-31.58,20.16-64.41,43.29-86.82"/><path class="cls-7" d="M308.24,213.83c4.5-11.73,14.63-20.28,24.75-27.73,11.94-8.79,24.52-16.84,38.12-22.75a140.4,140.4,0,0,1,110.94.24c9.19,4,17.91,9.06,26.61,14.07a182.42,182.42,0,0,1,17.09,10.69,90.77,90.77,0,0,1,34.8,53.23"/><path class="cls-7" d="M560.64,242.05a120.06,120.06,0,0,1,61.67,69.55c9.15,27.37,8,57.2,3,85.63s-13.65,56.09-19.4,84.37c-2.84,14-4.63,29.77,3.52,41.5"/><path class="cls-7" d="M264.53,302c-6.3,12.05-6.73,26.3-5.49,39.84s4,27,3.63,40.58c-.43,15.11-4.78,30.14-3.1,45.17,1.1,9.88,4.77,19.26,8.39,28.52,4.28,10.91,8.58,21.87,14.43,32,7.57,13.16,17.67,24.88,23.79,38.77a74.57,74.57,0,0,0,14.28,21.23c9.07,9.51,22.19,12.13,35.34,12.34"/><path class="cls-7" d="M355.8,560.5c18,1,35.35-6.7,51.18-15.39a279.45,279.45,0,0,0,44.33-29.61"/><path class="cls-7" d="M350.06,561.58a126,126,0,0,1,3.38,31.91c-.16,6.94-.94,14-4,20.25-4.72,9.47-14.1,15.58-23.16,21C294.08,654.14,259,671.4,221.43,672.32c-21.14.52-42.71-4.16-63.21,1C147.73,676,138,681.09,128.9,686.87c-15.85,10-30.66,22.56-39.8,38.94-5.91,10.6-9.24,22.4-13,33.94-9.06,27.81-27.25,71.56-41.62,97"/><path class="cls-7" d="M595.47,639.2c30,10.55,60.72,21.24,92.53,21.34,21.31.07,42.92-4.6,63.71,0a73,73,0,0,1,34.84,18.85c11.76,11.46,19.35,26.71,23.68,42.56s5.59,32.37,6.11,48.79c.81,26-1.68,63.72-4.46,89.54"/><path class="cls-7" d="M531.17,344.69c2.19-5.54,5.17-10.93,9.69-14.8s10.8-6.05,16.57-4.56c6.56,1.7,11.27,7.78,13.23,14.27S572.31,353,572,359.79l-.9,18.7c-.21,4.36-.43,8.77-1.79,12.91a40.68,40.68,0,0,1-6.55,11.54A121.52,121.52,0,0,1,546,421.14a17.8,17.8,0,0,1-6.55,4.18c-7.18,2.11-14.25-4.39-21.73-4.15-1.7.05-4.45-.39-6.14,2.08"/><path class="cls-7" d="M527.7,613c-5.53-8.52-8.26-18.5-11.88-28a153.15,153.15,0,0,0-30.74-49.43c-3.35-3.6-6.89-7.06-9.66-11.13-5.73-8.39-7.87-18.87-13.82-27.1a3.22,3.22,0,0,0-1.74-1.44c-1.57-.34-2.67,1.65-2.62,3.25s.68,3.27.11,4.78c-.67,1.77-2.69,2.6-3.8,4.12a8.09,8.09,0,0,0-1.24,4c-.88,8.93,2.13,17.84,6.32,25.78s9.56,15.2,14,23c8,14.23,12.76,30.07,16.66,45.94,2.2,9,4.15,18.54,1.38,27.37-1.45,4.63-4.12,8.77-6.76,12.84l-14.76,22.77c-3.89,6-7.84,12.06-13.12,16.86-4.52,4.12-10,7.24-13.9,11.91C435,707,434,718.94,433.68,730"/><path class="cls-7" d="M459.86,495.86c-2.19-7.45-3.58-18.18,1.43-24.12,1.63-1.93,3.94-3.43,4.75-5.82a30.21,30.21,0,0,0,.64-4.48c.27-1.49,1.16-3.07,2.65-3.33,2.26-.4,3.71,2.27,4.4,4.46q4.44,13.9,8.86,27.8a38.85,38.85,0,0,0,4,9.44,45.1,45.1,0,0,0,5.92,6.75c19.08,19.42,32.19,43.79,45,67.79l20.28,37.88"/><path class="cls-7" d="M476.48,471.2c0-8.32,4.59-18.19,8.65-25.46a5.52,5.52,0,0,1,2.19-2.52c2.35-1.13,4.79,1.31,6.15,3.53a66.76,66.76,0,0,1,6.9,15.4c.95,3.16,1.67,6.39,2.76,9.51,3.49,10,10.53,18.24,16,27.3,5.1,8.48,8.86,17.79,14.76,25.74,3.63,4.89,8,9.21,11.24,14.39s5.12,11.16,7.3,16.9A164.81,164.81,0,0,0,580,603.12"/><path class="cls-7" d="M503.25,467.06c.82-2.39.24-5,.5-7.53s2.07-5.32,4.57-5a4.88,4.88,0,0,1,2.39,1.14c4.14,3.25,5.84,8.6,8.28,13.27,4,7.69,10.35,13.89,15.28,21a133,133,0,0,1,9.18,16.46l37.71,75.81c3.33,6.71,6.68,13.45,11.1,19.49,4,5.45,9,10.56,10.56,17.13a19,19,0,0,1-7.48,19.64"/><path class="cls-7" d="M206.06,672c-2.25-.12-19.39,14.42,7.05,49.43s92.3,70.21,242.2,70.21"/><path class="cls-7" d="M549.57,784.83s60.66-10.51,98.76-61.85c44.09-59.4,42.68-62.21,57.71-63.19"/><path class="cls-7" d="M213.37,672.88c-2.24-.12-17.89,12.25,8.56,47.25s89.9,61,229.83,61"/><path class="cls-7" d="M542.54,774.85s67.69-12.66,105.79-64c19.49-26.27,30.09-41.47,37.15-50.34"/><path class="cls-7" d="M609.46,523.1c13.65,18.12,27.16,40.75,34.17,63.85,3.63,12,4.1,24.61,4.54,37.1.31,9.09-1.36,22-5.18,30.23"/><path class="cls-7" d="M433.81,730c1,17.27,8.95,33.27,16.73,48.72l37.55,74.57"/><path class="cls-7" d="M595.34,638.48c-17.75,23.95-38,48.45-55.73,72.41-4.13,5.57-8.29,11.2-11.06,17.55s-4.06,13.6-2.21,20.28c1.4,5,4.47,9.44,7.48,13.72L559,798.22c4,5.69,31.43,48.33,36.48,53.11"/><path class="cls-7" d="M560.64,242.05c6.85,6.9,8.25,20.48,8.22,30.2a9.62,9.62,0,0,0,.37,3.26,11.45,11.45,0,0,0,1.69,2.72,28.28,28.28,0,0,1,5.15,20.27c3,.63,3.52,4.55,3.36,7.57a189.66,189.66,0,0,1-2.82,23.76c2.29,0,3.13,3,3,5.3-.31,7.58-2.94,18.74-7.67,24.66"/><path class="cls-8" d="M308.81,213.5a81.27,81.27,0,0,1,35.1-25.31,5.14,5.14,0,0,1,3-.43,1.84,1.84,0,0,1,1.39,2.31,43.84,43.84,0,0,1,25.62-8.63l-5.17,6.49c2,.08,3.73-1.38,5.69-1.76,3.26-.62,6.25,1.79,9.47,2.6,3.53.9,7.22-.15,10.75-1.07,12.38-3.23,25.46-4.79,38-2.19a12.23,12.23,0,0,0-7.07,1.1l5.62,2.09-3.41.35a93.1,93.1,0,0,0,35.94,20.16"/><path class="cls-8" d="M451.55,210.33a41.73,41.73,0,0,0,24.5,4.85"/><path class="cls-8" d="M468.65,218.89a51.31,51.31,0,0,0,12.26,2.53,35.57,35.57,0,0,1-7.86,3.27,4.24,4.24,0,0,0,2.5.86,3.09,3.09,0,0,1,2.34,1.13c.47.76-.15,2.07-1,1.82,1.2,2.3,1.75,4.89,2.85,7.24,1.34,2.87,3.45,5.31,5.09,8,2.46,4.08,3.84,8.7,5.18,13.27"/><path class="cls-8" d="M486.37,259.66q4.9,16.59,9.82,33.18l-5.9-3.61a104.59,104.59,0,0,1,8.86,29.8,1.62,1.62,0,0,0-2.44.1,4.73,4.73,0,0,0-.9,2.63c-1.09,8.53-2.18,17.18-1,25.7s4.81,17.05,11.64,22.28"/><path class="cls-8" d="M495.61,364.07c2.18,6.89,8.81,11.18,13.56,16.63.5.58,1,1.49.46,2.05a1.27,1.27,0,0,1-.88.34c-2.08.14-3.76-1.58-5.12-3.17l-6.6-7.69c.07,2.16,1.58,4,2.92,5.66A59.75,59.75,0,0,1,507.44,390l-3.27-.41a1.14,1.14,0,0,0,.65,1.55"/><path class="cls-8" d="M531.39,348.9c-2.37,3-5,6-8.5,7.51s-8.17,1-10.37-2.15"/><path class="cls-8" d="M526.11,360a14.26,14.26,0,0,1-18.82-1.19"/><path class="cls-8" d="M514.16,369.42a41.76,41.76,0,0,1-6.8-3.61"/><path class="cls-8" d="M265.75,302.65c2.55-.79,4-4.22,6.71-4a4.43,4.43,0,0,0,1.77.08c.64-.22,1-.9,1.46-1.37a5.17,5.17,0,0,1,3.24-1.06c5.91-.55,12.43-.93,17.19,2.61,2.42,1.8,4.13,4.47,6.7,6.05l-1.35-4.62,6.39,10.6"/><path class="cls-8" d="M260.29,314.84a82.48,82.48,0,0,1,7.28-4.08,5.71,5.71,0,0,1,2.34-.76c1,0,2,.45,3,.47a10.14,10.14,0,0,0,3.35-1,17.63,17.63,0,0,1,6.56-.59,126.19,126.19,0,0,1,20.48,2.67c1.44.31,3,.62,4.32-.11"/><path class="cls-8" d="M348.94,295.15a22.1,22.1,0,0,1,16.6-14.08,2.72,2.72,0,0,0-1.76,1.78l8.25-2.17c-.21.73-.42,1.46-.62,2.18a65.52,65.52,0,0,1,23.85-2.95,2.94,2.94,0,0,0-1.87.61,132.3,132.3,0,0,1,39.46,8.53c5.19,2,10.36,4.37,14.42,8.18a25.93,25.93,0,0,1,4.07,4.91"/><path class="cls-8" d="M347.71,295.71c-.2-1.09-.39-2.18-.59-3.27A15,15,0,0,0,346,304.18l4.55-2c.16,1.35,2.16,1.22,3.42.69l1.81-.76a175.32,175.32,0,0,1,46.6-8"/><path class="cls-8" d="M403.49,293.8a69.89,69.89,0,0,1,39.89,3.37,21.73,21.73,0,0,1,7.53,4.47"/><path class="cls-8" d="M384.13,327c-1.6,3.73.44,9.3,3.73,11.67"/><path class="cls-8" d="M401.1,325.24c2.29,3.41,1.88,9.53-.83,12.61"/><path class="cls-8" d="M279.06,342.45a16.76,16.76,0,0,0-.34,4.94,8.1,8.1,0,0,0,3.21,4.83"/><path class="cls-8" d="M295.29,351.53c1.28-.86,1.57-2.42,1.93-3.92a18.78,18.78,0,0,0,.29-4.62,1.21,1.21,0,0,0-.38-1.05"/><path class="cls-8" d="M368,340.55a.53.53,0,0,0,.29.75,1.61,1.61,0,0,0,.92,0,33.31,33.31,0,0,0,6.12-2.19c.53-.25,1.31-.44,1.58.08a2.5,2.5,0,0,1,.09.25c.31.78,1.36.84,2.2.78l5.54-.42"/><path class="cls-8" d="M387.86,338.67a79.65,79.65,0,0,0,24.67-3.61c2.31-.72,4.7-1.56,7.1-1.22"/><path class="cls-8" d="M368.65,340l10.57-9.6a29.31,29.31,0,0,1,3.62-2.95,21,21,0,0,1,10.48-2.87,38.62,38.62,0,0,1,19.36,4.27c3.75,2,7.59,4.61,11.79,4,.51-.07,1.1-.26,1.25-.76a57.73,57.73,0,0,0-31-11.45,27.47,27.47,0,0,0-5.13.09c-4.61.61-8.76,3-12.94,5.05s-8.79,3.83-13.39,3.08"/><path class="cls-8" d="M378.14,319.9c6.21-4.07,14-5,21.43-4.37a55.5,55.5,0,0,1,23.11,7.4"/><path class="cls-8" d="M375.56,346.22a100.19,100.19,0,0,0,22.81,2.72"/><path class="cls-8" d="M269.84,352.26c2.94-2.94,4.39-7.34,7.93-9.53a14.77,14.77,0,0,1,6.35-1.78c7.1-.75,14.69-.08,20.6,3.92,2.48,1.69,4.56,3.89,7,5.62.24.17.56.35.82.2a.66.66,0,0,0,.26-.42c.21-.94-.6-1.78-1.36-2.4a49,49,0,0,0-16.62-9.22,31.94,31.94,0,0,0-18.84-.2c-4.71,1.51-9,4.3-13.83,5.29-2.38.49-5.26.34-6.73-1.6"/><path class="cls-8" d="M269.88,336c3.51-4.17,9.17-6.11,14.62-6s10.71,2,15.56,4.49a29,29,0,0,1,9.37,6.89"/><path class="cls-8" d="M270.17,352l-.9.75a.33.33,0,0,0-.15.2.28.28,0,0,0,.11.22,2,2,0,0,0,2.39,0,7.2,7.2,0,0,1,2.29-1.13c-.15.32.32.55.68.59l5.15.58"/><path class="cls-8" d="M299.46,352.35c2.43.07,4.71-1.5,7.14-1.38,1.84.09,3.62,1.14,5.43.82"/><path class="cls-8" d="M281.93,352.22a46.36,46.36,0,0,0,10.06.26,6.41,6.41,0,0,0,3.3-1"/><path class="cls-8" d="M270.36,358.9a25.58,25.58,0,0,0,20.4,2.36"/><path class="cls-8" d="M305.74,311.84c15.69,7.29,13.87,33.47,12.2,39.84-2.11,8.07-5.7,15.67-9.27,23.22q-4.12,8.72-8.24,17.42a25.83,25.83,0,0,0-2,5.25,16.65,16.65,0,0,0-.21,5.72A22.81,22.81,0,0,0,307.64,419"/><path class="cls-8" d="M308.19,419.14l2.3.06c.75,0,1.77-.23,1.72-1a1.34,1.34,0,0,0-.65-.89l-3.3-2.58a2.57,2.57,0,0,0-.91-.51,4.19,4.19,0,0,0-2.49,1.06,1.32,1.32,0,0,0,.06,1.48"/><path class="cls-8" d="M300.53,410.84c-.71-1.42,2.28-3.64,3.88-3.69s3,.93,4.31,1.86c2.32,1.67,4.9,3.39,7.75,3.18s4.94-2.12,7.3-3.48c7.16-4.12,16.13-3.19,24.13-1.11a19.62,19.62,0,0,1,7.52,3.28c-1.47,1.66-4.08,1.41-6.28,1.15a55.21,55.21,0,0,0-21.21,1.63c-1,.27-2.17.51-2.85-.23l2-1.62"/><path class="cls-8" d="M349.81,418.23l5.88-1a33,33,0,0,0,7.15-1.77,11.3,11.3,0,0,0,5.63-4.57c1.9-3.31,1.31-7.62-.59-10.93s-4.91-5.83-7.94-8.15"/><path class="cls-8" d="M312.4,417.58l3.91,1.56a11.94,11.94,0,0,0,3.87,1.07c2.82.13,5.32-1.69,7.55-3.43"/><path class="cls-8" d="M305.94,459.62c2-.92,1.31-3.93,2.26-5.91.85-1.76,3-2.53,5-2.49a46,46,0,0,1,5.78,1c7.32,1.13,14.33-3,21.6-4.34,5.53-1.06,11.22-.56,16.84-.31a255.74,255.74,0,0,0,28.37-.51c3.57-.24,7.19-.52,10.7.2,4.79,1,9.54,3.82,14.26,2.55a1.68,1.68,0,0,0-.72-1.42"/><path class="cls-8" d="M302.91,458.16c-1.29-4.74-2.4-8.1-.8-12.74a13.32,13.32,0,0,1,6.23-7.33,9.5,9.5,0,0,1,4.72-1.25c3.89.1,7.51,1.45,11.31.61,1.92-.42,3.48-1.8,5.21-2.74,3.48-1.89,7.62-2,11.56-1.84,19.19.7,37.89,6.09,56,12.46A74.61,74.61,0,0,0,410,448.39"/><path class="cls-8" d="M307.59,457.37c2.5,4.77,5.22,9.77,10.27,12.82,4.09,2.48,9.31,3.38,14.36,3.3a83.41,83.41,0,0,0,14.93-2l15.32-3a132.28,132.28,0,0,0,17-4.18,79.7,79.7,0,0,0,24.77-14.48"/><path class="cls-8" d="M308.28,455.82a4.14,4.14,0,0,1,4.14,2.53,6.59,6.59,0,0,0,3.2,3.27,11.71,11.71,0,0,0,7.07.82,13.21,13.21,0,0,1,2.35-.51c1.48-.09,2.71.52,4.14.73,2.91.41,5.65-.9,8.67-1.05a30.24,30.24,0,0,1,3.3.13,42.77,42.77,0,0,0,10-.59,34.38,34.38,0,0,1,4.16-.66c1.45-.08,2.93.08,4.37,0,2.36-.19,4.32-1.19,4.51-2.3,1.75,1.25,5.06,2,8.25,1.82s6.09-1.21,7.22-2.61c2.27.91,7.24-1,9.73-2.09,5.27-2.27,11.77-4.86,14.84-5.53"/><path class="cls-8" d="M406.29,427c1.63,2.75,3.88,5.11,5.47,7.89s2.46,6.27,1.1,9.17"/><path class="cls-8" d="M288,436.83a30.75,30.75,0,0,0-4.47,8.35c-.89,3.05-.73,6.57,1.19,9.09"/><path class="cls-8" d="M522.88,475.16c3.71-10.17,3.92-24.86-.07-35s-12.12-18.71-22.35-22.38a46.12,46.12,0,0,0-11.82-2.38,33.11,33.11,0,0,0-13.05,1.44c-39.23,12.86-37.68,58.12-28.68,77.28,1.61,3.42,3.5,7.31,7.18,8.19-.9-3.74-1.93-7.44-2.77-11.19-2.53-11.32-3.27-23.21-.54-34.48s9.19-21.88,18.88-28.25,22.74-8,33.11-2.78"/><path class="cls-8" d="M535.91,370.22a53.43,53.43,0,0,1,4.73-26.4,24.63,24.63,0,0,1,6.27-8.87,6.8,6.8,0,0,1,10.33.38c4,4,5.65,9.88,6,15.56s-.34,11.36-.26,17c0,4,.49,8.08-.49,12a34.15,34.15,0,0,1-2.29,5.82c-3.1,6.63-6.38,13.5-12.05,18.14a73.75,73.75,0,0,1,4.38-10.47c2.16-4.23,4.74-8.28,6.4-12.73,2.93-7.84,2.86-16.47,2.26-24.82-.25-3.45-.64-7.07-2.61-9.91a20.37,20.37,0,0,0-5.34-4.78"/><path class="cls-8" d="M536.16,370.05c-1.67,1.46-.67,4.12-.11,6.26a12.6,12.6,0,0,1-1.86,10.29c-2,2.8-5.19,4.91-6,8.25a2,2,0,0,0,.11,1.57,2.15,2.15,0,0,0,1.66.79c3.52.39,6.87-1.35,10-3a4.1,4.1,0,0,0,2.56-5.7c-1-4.4-1.84-8.83-2.63-13.26-1-5.72-1.75-12.07,1.44-16.91a3,3,0,0,1,1.61-1.39c1.38-.35,2.52,1.07,3.19,2.32a50.39,50.39,0,0,1,4.93,13.53"/><path class="cls-8" d="M562.36,253.92c1.07,6.05-.59,12.37-3.71,17.66s-7.6,9.66-12.41,13.49A95.79,95.79,0,0,1,510.29,303c.87,1.65,3.22,1.59,5.06,1.25a84,84,0,0,0,44.89-24.46"/><path class="cls-8" d="M540.58,306.81a191.43,191.43,0,0,1-24.45,17.59"/><path class="cls-8" d="M513.38,234.37a182.92,182.92,0,0,1,23.47,4.23c5,1.25,10.37,2.93,13.63,7-.25.61-1.15.51-1.77.29l-15.44-5.35"/><path class="cls-8" d="M461.25,180.24c16,.14,32.16,1.57,47.17,7s28.85,15.37,36.61,29.33c2,3.56,3.58,7.51,3.37,11.58-13.23-24.69-39.74-41.74-67.7-43.54"/><path class="cls-8" d="M378,177.62a91.9,91.9,0,0,1,50.25-20.37"/><path class="cls-8" d="M408.74,167.56a105.57,105.57,0,0,1,44-5.05"/><path class="cls-8" d="M444.13,169.89a49.38,49.38,0,0,1,17.93.68"/><path class="cls-8" d="M355.08,179.64c1.09-2,3.26-3.13,5.31-4.12q7.71-3.71,15.62-6.94"/><path class="cls-8" d="M602.81,405.32c-5.42,36.13-27.13,68.57-30.51,105a107.28,107.28,0,0,0,12.64,61"/><path class="cls-8" d="M602.81,405.32c1.57-5.93,1.9-13,3.8-17.55,4.81,21.19-.57,43.34-7.87,63.8s-16.61,40.44-20,61.89c-1.46,9.23-1.8,18.78.47,27.84,1.94,7.78,5.74,15,9.82,21.88,8.22,13.92,17.82,27.16,29.7,38.12"/><path class="cls-8" d="M602.8,567.83c7.28,10.36,14.6,20.78,20.08,32.2s9.08,24,8.49,36.63"/><path class="cls-8" d="M586.3,305.67a155.87,155.87,0,0,1-1.88,108"/><path class="cls-8" d="M579.44,392.29C567.51,414,555.48,436,549.12,460c-2.25,8.5-3.71,17.84-.06,25.83a238.05,238.05,0,0,1,9.79-48.72"/><path class="cls-8" d="M606.15,338.33a61.07,61.07,0,0,0-22.71-46.17,4.59,4.59,0,0,1,3.55-.08c6,1.7,10.62,6.5,13.55,11.94s4.35,11.56,5.74,17.59"/><path class="cls-8" d="M581.41,283.9c5.93.27,12.17.64,17.17,3.84"/><path class="cls-8" d="M258.86,677.7c-.38,1,.55,2,1.4,2.64,15.72,12.19,34.95,19.42,54.61,22.41s39.79,1.87,59.41-1.43c2.31-.39,5.1-1.27,5.49-3.58a192.93,192.93,0,0,1-71.5.29"/><path class="cls-8" d="M543.7,716c4.27,2.52,9.67,1.59,14.48.39,10.57-2.64,20.86-6.26,31.14-9.87l48-16.88c1.06-.37,2.34-1.11,2.13-2.21-4.44-.71-8.94.49-13.26,1.71q-15.64,4.4-31.14,9.32"/><path class="cls-8" d="M669.47,751.4c-1.12,15.9-2.24,31.87-.83,47.74s5.48,31.78,14,45.22c-5.16-22.8-10.36-45.88-9.82-69.25"/><path class="cls-8" d="M684.08,856.78c-.18-28.58,6.11-68.85,15-96"/><path class="cls-8" d="M165.66,851.33c2.08-10.22,6.39-30.5,5-40.83"/><path class="cls-8" d="M466,465.79a60.52,60.52,0,0,0,5.83,20.14,7.21,7.21,0,0,0,2.1,2.87,7.8,7.8,0,0,0,4.43,1c.37,0,.8,0,1-.33s-.18-1-.6-1.36a17.56,17.56,0,0,1-6-10.67"/><path class="cls-8" d="M457.82,498.42c-.54,1.77,0,3.68.55,5.45,1.57,4.91,3.59,9.88,7.35,13.41a2.24,2.24,0,0,0,1.06.66.86.86,0,0,0,1-.53"/><path class="cls-8" d="M484.3,446.6c-.53,5.75,1.27,11.44,3,16.94.67,2.1,1.46,4.34,3.27,5.59,1.38,1,3.12,1.16,4.75,1.58s3.34,1.23,3.95,2.8a14.46,14.46,0,0,1-15-8.51"/><path class="cls-8" d="M504.27,461.88a19.47,19.47,0,0,0,2.57,6.92c2.25,4.3,4.61,8.74,8.41,11.76,2.27,1.79,5.39,3,8,1.86.26-.11.55-.3.54-.59s-.42-.49-.76-.56a18.52,18.52,0,0,1-12.78-10.85"/><path class="cls-8" d="M305.94,461.62c2.13,6.56,7.28,22.51,13.41,25.68,4.21,2.17,9.12,2.46,13.85,2.28,22.5-.87,43.9-11.63,60.41-26.94,3.6-3.34,7.08-7,8.91-11.58"/><path class="cls-8" d="M146.7,736.67c-2.64,29.21,6.81,58,16.13,85.81-9.83-12.61-19.83-25.4-32.76-34.81-1.92,1.28-2.36,4-1.61,6.23a15.81,15.81,0,0,0,4,5.58l30,31.28-6.41.34"/><path class="cls-8" d="M170.63,810.5c-3.64-14.93-5.27-35.14-1.27-50"/><path class="cls-8" d="M688.36,826.88a122.62,122.62,0,0,1,35.54-60c2.71-2.5,5.81-5,9.49-5.21a16.12,16.12,0,0,1-3,6.15c-7.23,10.27-15.93,19.44-23.16,29.71s-13.06,22.07-13.41,34.62"/><path class="cls-9" d="M90.72,611.18A182.16,182.16,0,0,1,70.2,564.23a153.43,153.43,0,0,1-4.63-24.67c-.86-8.33-1.76-16.77-1.16-25.15a43.43,43.43,0,0,1,7.36-21.88A33.48,33.48,0,0,1,86,480.85,38.81,38.81,0,0,1,107.32,478a48.77,48.77,0,0,1,22,10,87.57,87.57,0,0,1,16.54,17.84,231.9,231.9,0,0,1,13.93,21.93c8.64,15.29,16.07,31.53,21,48.41,4.83,16.58,7.08,34.41,2.92,51.39-3.34,13.59-11.72,28-26.42,31.18a34,34,0,0,1-12.67.13,45.06,45.06,0,0,1-11.1-3.18c-5-2.24-9.37-5.78-13.42-9.39a166.09,166.09,0,0,1-25.43-29.14c-1.38-2-2.7-4-3.94-6.06a1.5,1.5,0,0,0-2.59,1.51A137.37,137.37,0,0,0,98,626.83a187.35,187.35,0,0,0,13.63,15.63,97.13,97.13,0,0,0,14.62,12.63,44.29,44.29,0,0,0,19.25,7c8.17,1.08,16.52-.35,23.34-5.13a42.41,42.41,0,0,0,13.61-16.85c7.39-15.67,7.59-33.91,4.52-50.67-3.28-18-10.28-35.2-18.42-51.46A262.15,262.15,0,0,0,155,514a140.58,140.58,0,0,0-15.54-20.7c-11.45-12.19-27.49-21-44.63-18.12a40,40,0,0,0-18.3,7.88A40.35,40.35,0,0,0,64.42,500c-3.15,8.08-3.48,17-3,25.55a207.44,207.44,0,0,0,2.86,25.94,174.19,174.19,0,0,0,17.42,49.8q3,5.81,6.46,11.39c1,1.65,3.6.14,2.59-1.51Z"/><path class="cls-9" d="M100.82,398.25A47.46,47.46,0,0,1,93.21,382a42.54,42.54,0,0,1-1.1-8.78,31,31,0,0,1,.54-8.6c2.88-11.34,17.61-15.12,27.15-10.07,5.08,2.68,8.77,7.4,11.93,12.07a60.89,60.89,0,0,1,8.2,16.84c1.79,6.13,2,12.78-.63,18.7-2.19,4.85-6.28,8.92-11.53,10.22a20.15,20.15,0,0,1-9.82-.19,20.44,20.44,0,0,1-6.52-3.45,46.13,46.13,0,0,1-10.61-10.49c-1.1-1.58-3.7-.08-2.59,1.51a49.88,49.88,0,0,0,10.55,10.72,29.65,29.65,0,0,0,6.53,4,21.76,21.76,0,0,0,8.46,1.44,19.78,19.78,0,0,0,16-8.52c3.84-5.33,5.11-12.2,4.32-18.64-.84-6.89-3.68-13.46-7.13-19.42-3.18-5.51-7.09-11.16-12.16-15.08a23.19,23.19,0,0,0-18.62-4.5,21.74,21.74,0,0,0-13.77,8.42,19,19,0,0,0-3.28,10.17,53,53,0,0,0,.49,10.76,48.19,48.19,0,0,0,8.63,20.69c1.11,1.56,3.71.07,2.59-1.51Z"/><path class="cls-9" d="M600.79,230a30.67,30.67,0,0,1,.74-12.36,25.3,25.3,0,0,1,4.65-9.46c5.21-5.91,15.17-3.35,19,2.82,2.22,3.58,2.84,8.12,3.12,12.24a36.84,36.84,0,0,1-.82,11.66c-1.75,6.84-8.06,13.89-15.82,11.61a12.64,12.64,0,0,1-7.85-7,30.25,30.25,0,0,1-3-9.13,1.55,1.55,0,0,0-1.5-1.5,1.52,1.52,0,0,0-1.5,1.5,34.8,34.8,0,0,0,3,9.87,16.09,16.09,0,0,0,7.12,7.95c8.48,4.52,17.77-.91,21.25-9.12a32.46,32.46,0,0,0,2.19-12.72c0-4.87-.55-10.16-2.5-14.67-3.52-8.14-14-12.63-22-8-3.94,2.28-6.12,6.95-7.63,11.07a33.38,33.38,0,0,0-1.41,16,1.51,1.51,0,0,0,1.84,1,1.54,1.54,0,0,0,1-1.84Z"/><rect class="cls-10" width="850.39" height="850.39"/></g></g></g></svg>