<svg xmlns="http://www.w3.org/2000/svg" viewBox="0 0 203.68 272.36"><defs><style>.cls-1{fill:#ffe7cc;}.cls-2{fill:#ffe0d4;}.cls-3{fill:#3c2415;}</style></defs><g id="Layer_2" data-name="Layer 2"><g id="Background"><path class="cls-1" d="M132.27,175.7c5.45-6.34,10.12-13.6,11.95-21.76s.46-17.32-5-23.65c-4.68-5.44-11.74-8.21-18.7-10-10.54-2.66-23.06-2.93-30.81,4.7-3.73,3.67-5.8,8.72-7.07,13.8a57,57,0,0,0,3.71,37.85c2.58,5.47,6.09,11.75,3.32,17.12-1.41,2.75-9,8.31-3.64,10.14,3.8,1.3,11.19-2.78,14.47-4.29A94.19,94.19,0,0,0,132.27,175.7Z"/><path class="cls-2" d="M43.86,162.8c-.74-4-2.94-7.72-3.4-11.79-.37-3.29.42-6.71-.56-9.87-1.43-4.58-6-7.15-9.7-9.66a17.67,17.67,0,0,1-6.29-6.56,16.82,16.82,0,0,1-1.21-4.51c-.3-1.5-1.21-1.93-2.62-1.29a12.49,12.49,0,0,0-3.33,2.24,11.9,11.9,0,0,0-3.38,6c-1,4.43.26,9.07,2.13,13.2s4.35,8,6,12.19c3.42,8.53,3.38,18,4.33,27.12s3.32,18.8,10.16,24.94c7.78,7,21.6,3,14.74-7.88C48.1,192.65,44.72,189,43.52,184,41.84,177,45.16,169.88,43.86,162.8Z"/></g><g id="Objects"><path class="cls-3" d="M32.21,178.32A17.87,17.87,0,0,0,30,186.46a27.78,27.78,0,0,0,1,8.36c1.42,5.47,4.1,10.54,6.33,15.85A49.06,49.06,0,0,1,40,219a31,31,0,0,1,.59,8.7,31.48,31.48,0,0,1-5.78,16.12,34,34,0,0,0,3.34-7.84,32.86,32.86,0,0,0,1.34-8.34,34.07,34.07,0,0,0-.75-8.37,48.41,48.41,0,0,0-2.68-8C34,205.93,31.23,200.79,30,195.08a28.41,28.41,0,0,1-.64-8.67A17.06,17.06,0,0,1,32.21,178.32Z"/><path class="cls-3" d="M28.59,175a20.8,20.8,0,0,1,1.76-6.42A22,22,0,0,1,34.06,163l.62-.69.27.92c.4,1.33,2.32,1.75,3.74,1.37s2.84-1.58,4.47-2.45a10.38,10.38,0,0,1,2.68-.93,10.26,10.26,0,0,1,2.82-.08,14.72,14.72,0,0,1,5.22,1.71,24.08,24.08,0,0,1,4.4,3.11c1.33,1.2,2.55,2.47,3.8,3.69,2.49,2.42,5.08,4.84,8.4,6.07-3.46-.82-6.41-3.09-9-5.4s-5.15-4.76-8.21-6.27-6.54-2.23-9.45-.67c-1.47.75-2.87,2-4.8,2.46a5.39,5.39,0,0,1-3-.14,3.23,3.23,0,0,1-2.12-2.2l.89.23a22.27,22.27,0,0,0-3.88,5.19A23.87,23.87,0,0,0,28.59,175Z"/><path class="cls-3" d="M31.71,171.81A41,41,0,0,1,45,170.05a40.91,40.91,0,0,1,13.16,2.42c-4.44-.47-8.8-.9-13.2-1S36.17,171.55,31.71,171.81Z"/><path class="cls-3" d="M29.84,176.85a24.21,24.21,0,0,0,8.73,3.82,30.48,30.48,0,0,0,9.43.55,44.83,44.83,0,0,0,9.31-2c1.53-.48,3-1,4.53-1.65s3-1.24,4.48-1.86c-1.34.91-2.76,1.7-4.19,2.49s-2.93,1.43-4.45,2.05a34.23,34.23,0,0,1-9.55,2.38,25.9,25.9,0,0,1-9.83-.9,22.89,22.89,0,0,1-4.56-1.91A18.36,18.36,0,0,1,29.84,176.85Z"/><path class="cls-3" d="M48.58,146.64c-2,.05-3.95,0-6-.06a2.45,2.45,0,0,1-1.71-.74,2,2,0,0,1-.26-2,2.52,2.52,0,0,1,1.28-1.44,4.06,4.06,0,0,1,1.73-.37,14.11,14.11,0,0,1,3.07.44,21.11,21.11,0,0,1,2.91.86,22.77,22.77,0,0,1,2.77,1.24,5.06,5.06,0,0,1,1.3.94,2.31,2.31,0,0,1,.72,1.55v.23l-.15.07a6.68,6.68,0,0,1-2.94.72A7.74,7.74,0,0,0,54,146.83l-.15.3c-.18-.8-1-1.27-1.85-1.63s-1.81-.67-2.73-1a27.21,27.21,0,0,0-5.57-1.11,2.55,2.55,0,0,0-1.14.2,1.24,1.24,0,0,0-.68.67c-.27.66,0,1.09.92,1.26C44.67,145.86,46.65,146.2,48.58,146.64Z"/><path class="cls-3" d="M55.5,148.44a9.09,9.09,0,0,0,5.9-3.82,5.77,5.77,0,0,0,0-6.33,7.58,7.58,0,0,0-5.93-2.95,18.54,18.54,0,0,0-7.14,1.49,14.12,14.12,0,0,1,7.14-2.6,8.24,8.24,0,0,1,7.1,3.25,6.25,6.25,0,0,1,1.1,4,7.29,7.29,0,0,1-1.39,3.79A8.33,8.33,0,0,1,55.5,148.44Z"/><path class="cls-3" d="M43.36,148.84c-2.43-.16-4.85-.41-7.29-.62s-5-.72-7-2.56a6.31,6.31,0,0,1-1.87-3.47,10.12,10.12,0,0,1,.07-3.88,20.55,20.55,0,0,1,3.11-6.84c2.79-4.1,6.12-7.63,7.89-12.1a26.87,26.87,0,0,0,1.87-6.91,28.73,28.73,0,0,0,.11-7.24,25.59,25.59,0,0,1,.58,7.31,27.28,27.28,0,0,1-1.54,7.24,27.75,27.75,0,0,1-3.48,6.57c-1.41,2-2.93,3.92-4.24,5.92a19.68,19.68,0,0,0-3,6.34c-.53,2.21-.3,4.68,1.26,6.29s4,2.22,6.36,2.64S41,148.36,43.36,148.84Z"/><path class="cls-3" d="M142.13,111.19c1.21,5.87,2.43,11.79,2.46,17.83a30.52,30.52,0,0,1-4.68,17.27,20.1,20.1,0,0,1-6.6,6.24,24.3,24.3,0,0,1-8.65,2.85,46,46,0,0,1-9.08.31,62.47,62.47,0,0,1-9-1A24.64,24.64,0,0,1,98,151.38a16.11,16.11,0,0,1-6-7,12,12,0,0,1-1-4.61,12.14,12.14,0,0,1,.93-4.62,15,15,0,0,1,6-7,22,22,0,0,1,8.71-3,29.39,29.39,0,0,1,9.17.2,29.94,29.94,0,0,1,16.09,8.36,30.41,30.41,0,0,1,8.2,16.19,32.19,32.19,0,0,1-2.45,18,46.38,46.38,0,0,1-10.45,14.81,82.73,82.73,0,0,1-14.38,11,106.32,106.32,0,0,1-69.27,14.86,105.6,105.6,0,0,0,35.71-2.16,106.23,106.23,0,0,0,33-13.63,86.57,86.57,0,0,0,14.1-10.93A45.24,45.24,0,0,0,136.5,167.4a30.88,30.88,0,0,0,2.3-17.23,29,29,0,0,0-7.87-15.42,28.6,28.6,0,0,0-15.32-8,28.23,28.23,0,0,0-8.75-.22,21.06,21.06,0,0,0-8.21,2.78,13.73,13.73,0,0,0-5.56,6.38,10.43,10.43,0,0,0,0,8.27,15.12,15.12,0,0,0,5.56,6.46,23.85,23.85,0,0,0,8.13,3.21,63.69,63.69,0,0,0,8.85,1.1,44.73,44.73,0,0,0,8.89-.21,23.61,23.61,0,0,0,8.38-2.65,19.47,19.47,0,0,0,6.43-6c3.41-4.87,4.85-10.93,4.91-16.88S143.22,117.08,142.13,111.19Z"/><path class="cls-3" d="M34.72,197.47a9.34,9.34,0,0,1,1.72-5.67,13,13,0,0,1,4.62-3.92,21.31,21.31,0,0,1,11.84-2,34.27,34.27,0,0,1,11.46,3.44c1.79.87,3.52,1.83,5.22,2.84s3.34,2.11,5,3.24l-5.29-2.63c-1.75-.88-3.52-1.72-5.33-2.46a39.17,39.17,0,0,0-11.15-3,22.28,22.28,0,0,0-11.23,1.53A12.17,12.17,0,0,0,37,192.22,9.61,9.61,0,0,0,34.72,197.47Z"/><path class="cls-3" d="M55.35,97.06a9.54,9.54,0,0,1,4.19-6.76A26.47,26.47,0,0,1,67,86.89a69.38,69.38,0,0,1,16-3.39,43.64,43.64,0,0,1,16.29,1.74,32.29,32.29,0,0,1,14,8.5l2.28,2.42-3-1.32c-4-1.72-7.88-3.43-11.93-4.76a48.91,48.91,0,0,0-12.46-2.52,31.71,31.71,0,0,0-12.52,1.92A75.59,75.59,0,0,0,64,95a68.94,68.94,0,0,1,11.4-6.11,31.6,31.6,0,0,1,12.76-2.34A45.28,45.28,0,0,1,101,88.89c4.14,1.32,8.13,3,12.09,4.69l-.77,1.1a32.65,32.65,0,0,0-13.45-8.17A42.79,42.79,0,0,0,83,84.68,68,68,0,0,0,67.19,87.6a27.22,27.22,0,0,0-7.41,3A9.55,9.55,0,0,0,55.35,97.06Z"/><path class="cls-3" d="M36.65,95.32a12.46,12.46,0,0,0-6.15-5.09,18.64,18.64,0,0,0-7.89-1.31,52.93,52.93,0,0,0-8.07,1,23,23,0,0,0-3.89.9A4,4,0,0,0,8.08,93l-.94-.87A25.37,25.37,0,0,1,21,90.4,24.67,24.67,0,0,1,33.6,96a27.49,27.49,0,0,0-12.72-4.6,26.62,26.62,0,0,0-13.19,2l-1.44.63.5-1.5a4.49,4.49,0,0,1,1.4-2,7.32,7.32,0,0,1,2-1.09,23.81,23.81,0,0,1,4.14-.93,46.9,46.9,0,0,1,8.31-.8,19.47,19.47,0,0,1,8.19,1.8A12.09,12.09,0,0,1,36.65,95.32Z"/><path class="cls-3" d="M8.5,100.42a48.41,48.41,0,0,1-.15,10.76c-.41,3.58-1,7.11-1.52,10.65a62.08,62.08,0,0,0-.72,10.6A31,31,0,0,0,8.24,142.7c1.2,3.33,2.74,6.56,4.1,9.9a34.83,34.83,0,0,1,2.83,10.51c.32,3.68-.37,7.25-.42,10.79s.49,7.24,2.92,10a10.57,10.57,0,0,1-2.78-4.59,19.54,19.54,0,0,1-.84-5.37c-.08-3.62.48-7.21,0-10.68-.81-7-4.64-13.26-7.17-20a32.37,32.37,0,0,1-2.1-10.71,55,55,0,0,1,.94-10.81c.61-3.54,1.36-7,1.91-10.57A53.72,53.72,0,0,0,8.5,100.42Z"/><path class="cls-3" d="M84.74,31.67a118.9,118.9,0,0,0,15.11,7.74,106,106,0,0,0,16,5.41,106.58,106.58,0,0,0,16.65,3l4.22.36,4.24.19,4.26,0c1.41,0,2.83-.08,4.25-.1-1.41.18-2.82.34-4.24.48L141,49l-4.28,0-4.28-.17a95.91,95.91,0,0,1-16.91-2.69,96.47,96.47,0,0,1-16.12-5.79A83.45,83.45,0,0,1,84.74,31.67Z"/><path class="cls-3" d="M114.55,48.91A79.14,79.14,0,0,1,124.27,57a44.88,44.88,0,0,1,7.67,10.15,31,31,0,0,1,3.74,12.23c.19,2.16,0,4.3,0,6.35a11.18,11.18,0,0,0,1.36,5.74c2,3.47,5.81,5.58,9,8.37a16.92,16.92,0,0,1,4.13,5,16.59,16.59,0,0,1,1.83,6.23A25.67,25.67,0,0,1,150,123.68a74.17,74.17,0,0,1-6.18,11,83.26,83.26,0,0,0,5.53-11.31A24.83,24.83,0,0,0,151,111.25a17.12,17.12,0,0,0-1.82-5.78,15.53,15.53,0,0,0-3.9-4.62c-1.57-1.34-3.3-2.53-5-3.86a17.3,17.3,0,0,1-4.44-4.8,12.49,12.49,0,0,1-1.49-6.42c0-2.16.2-4.23,0-6.27A31.7,31.7,0,0,0,131,67.67a44.47,44.47,0,0,0-7.2-10.17A90.39,90.39,0,0,0,114.55,48.91Z"/><path class="cls-3" d="M80.59,26.23a58,58,0,0,1-11.3,4.94c-3.92,1.28-7.89,2.33-11.81,3.53A77.92,77.92,0,0,0,46.06,39a50.36,50.36,0,0,0-10.13,6.66,68.17,68.17,0,0,0-15.48,18.7,97.41,97.41,0,0,0-5.5,11c-1.67,3.74-3.08,7.59-4.46,11.46,1.07-4,2.36-7.87,3.82-11.73A95.69,95.69,0,0,1,19.5,63.82,66.69,66.69,0,0,1,35,44.57,51.54,51.54,0,0,1,45.5,37.84a66.4,66.4,0,0,1,11.68-4.18c4-1.08,8-2,11.91-3.15A63.39,63.39,0,0,0,80.59,26.23Z"/><path class="cls-3" d="M120,51a17.82,17.82,0,0,1,5.65,1.18A23.46,23.46,0,0,1,130.77,55a28.68,28.68,0,0,1,7.7,8.74,44.45,44.45,0,0,1,4.27,10.79c.48,1.87.89,3.75,1.26,5.63s.65,3.78.89,5.68l-1.57-5.52c-.5-1.84-1-3.68-1.63-5.48a55.34,55.34,0,0,0-4.46-10.39,31.69,31.69,0,0,0-7.13-8.59A22.5,22.5,0,0,0,120,51Z"/><path class="cls-3" d="M89.85,28.19a71.3,71.3,0,0,0,10.89,4.4A67.81,67.81,0,0,0,112.15,35a67.79,67.79,0,0,0,11.66.43l2.92-.21,2.92-.35,2.9-.46c1-.21,1.93-.4,2.9-.58-.93.33-1.86.65-2.81,1l-2.87.77-2.92.56-2.95.41A52.22,52.22,0,0,1,112,36.44a51.69,51.69,0,0,1-11.58-2.82A46.4,46.4,0,0,1,89.85,28.19Z"/><path class="cls-3" d="M9.07,78.32C7,85.89,4.82,93.45,3.3,101.14a97.65,97.65,0,0,0-2.19,23.28A73.94,73.94,0,0,0,2.58,136c.79,3.82,1.84,7.59,2.86,11.39s2,7.61,2.71,11.52a68.15,68.15,0,0,1,1,11.83c0,7.87-.65,15.76,1.06,23.34s5.42,14.55,9.21,21.39,7.9,13.66,10.34,21.21a44.44,44.44,0,0,1,2.28,11.59,29,29,0,0,1-1.65,11.62c2.45-7.54,1.37-15.7-1.29-23S22.44,222.79,18.49,216,10.75,202.16,9,194.36s-1.14-15.83-1.22-23.61a66.22,66.22,0,0,0-.94-11.61c-.66-3.83-1.63-7.63-2.62-11.42s-2-7.6-2.81-11.47A67.72,67.72,0,0,1,0,124.46,97.93,97.93,0,0,1,2.62,101C4.38,93.32,6.67,85.8,9.07,78.32Z"/><path class="cls-3" d="M157.14,168.58a98.73,98.73,0,0,1-1.25,13.83c-.73,4.58-1.69,9.12-2.63,13.64-1.89,9-3.94,18.08-4.26,27.26a64.5,64.5,0,0,0,.68,13.68,46.7,46.7,0,0,0,4.15,13,69.07,69.07,0,0,0,7.58,11.48l8.58,10.9c-6-7-12.63-13.61-17.13-21.88a44.51,44.51,0,0,1-4.46-13.27,65.33,65.33,0,0,1-.82-14c.45-9.34,2.5-18.45,4.62-27.43,1.07-4.5,2.14-9,3-13.53A112.53,112.53,0,0,0,157.14,168.58Z"/><path class="cls-3" d="M54.65,214.76a49.22,49.22,0,0,1,4.7,13.4,48.89,48.89,0,0,1,.88,14.17c-.67-4.69-1.33-9.31-2.27-13.89S55.86,219.34,54.65,214.76Z"/><path class="cls-3" d="M87.58,5.42A72.32,72.32,0,0,0,64,5.94c-3.87.72-7.73,1.57-11.52,2.66a87.19,87.19,0,0,0-11.14,3.85,42.74,42.74,0,0,0-10.11,5.84,40.27,40.27,0,0,0-7.86,8.61,67.37,67.37,0,0,0-5.69,10.34c-1.68,3.58-3.1,7.28-4.6,10.95,2.41-7.53,5-15.11,9.38-21.89a37.81,37.81,0,0,1,8-9,44.25,44.25,0,0,1,10.36-6.14A88.51,88.51,0,0,1,52.14,7.35,96.77,96.77,0,0,1,63.83,4.87,79.18,79.18,0,0,1,75.75,4,58.74,58.74,0,0,1,87.58,5.42Z"/><path class="cls-3" d="M148.92,63.86c10.07,11.19,19.51,23.3,25.51,37.33a70,70,0,0,1,5.53,22A133.64,133.64,0,0,1,179.3,146c-.73,7.52-1.6,15-1.6,22.52a126.71,126.71,0,0,0,2,22.41,125.34,125.34,0,0,0,15.94,42,119.77,119.77,0,0,1-10.53-20.06,124.73,124.73,0,0,1-6.48-21.75,118.42,118.42,0,0,1-2.24-22.62c0-7.6.78-15.15,1.48-22.66a132.23,132.23,0,0,0,.78-22.49,54.74,54.74,0,0,0-.66-5.56c-.26-1.86-.68-3.68-1.1-5.5a80.12,80.12,0,0,0-3.49-10.67,90.9,90.9,0,0,0-4.87-10.15c-1.81-3.3-3.81-6.49-5.92-9.61A220.52,220.52,0,0,0,148.92,63.86Z"/><path class="cls-3" d="M187,97.74a9.9,9.9,0,0,1,4.54,3.13,11.92,11.92,0,0,1,2.4,5.12,10.4,10.4,0,0,1-.49,5.73,40.23,40.23,0,0,1-2.66,4.88c-1.88,3-1.6,6.69-1.21,10.24a94.58,94.58,0,0,0,2.24,10.67A55.11,55.11,0,0,1,188.55,127a24,24,0,0,1-.53-5.56,12.21,12.21,0,0,1,.38-2.86,12.9,12.9,0,0,1,1.13-2.66,53.45,53.45,0,0,0,2.61-4.71,9.88,9.88,0,0,0,.61-5,10.94,10.94,0,0,0-1.84-4.86A10.66,10.66,0,0,0,187,97.74Z"/><path class="cls-3" d="M106.75,4.19A65.71,65.71,0,0,1,142,1.08a80,80,0,0,1,32.86,13.77,69.89,69.89,0,0,1,13,12.32A56.86,56.86,0,0,1,197,42.62c4.33,11.2,5.94,23.15,6.69,35C203,71.7,202.23,65.8,201,60a93.11,93.11,0,0,0-5-17c-4.45-10.92-12.44-20.16-22-27A80.58,80.58,0,0,0,141.79,2.15,76,76,0,0,0,133,1a72.76,72.76,0,0,0-8.86-.07A63.65,63.65,0,0,0,106.75,4.19Z"/><path class="cls-3" d="M195.57,115.54a50.32,50.32,0,0,0,2.37-12.84,51.08,51.08,0,0,0-.85-13,50.3,50.3,0,0,0-10.91-23.21c-5.49-6.67-12.57-12.23-17.16-19.92a40.5,40.5,0,0,1-4.8-12.32,39.16,39.16,0,0,1-.45-13.13,41.21,41.21,0,0,0,1.13,13,39.82,39.82,0,0,0,5,11.91c4.63,7.34,11.61,12.83,17.32,19.58a50.25,50.25,0,0,1,10.9,23.92,52.21,52.21,0,0,1,.47,13.21A47.82,47.82,0,0,1,195.57,115.54Z"/><path class="cls-3" d="M177.24,48.91c2.26,2.61,4.41,5.19,6.74,7.62s4.75,4.75,7.22,7.16a30.33,30.33,0,0,1-14-14.78Z"/><path class="cls-3" d="M196.81,153.51a17.62,17.62,0,0,1,1.08,8.55c-.23,2.9-.82,5.7-1.08,8.49a22.47,22.47,0,0,0,.55,8.25,23.85,23.85,0,0,0,3.57,7.61,18.13,18.13,0,0,1-4.63-7.29,20.28,20.28,0,0,1-.91-8.71c.3-2.91,1-5.69,1.4-8.48A22.7,22.7,0,0,0,196.81,153.51Z"/><path class="cls-3" d="M61.69,103a40.56,40.56,0,0,0,10.6,6.35,33.44,33.44,0,0,0,12,2.47,29.06,29.06,0,0,0,11.91-2.47A25.17,25.17,0,0,0,105.8,102l.49.58a23.69,23.69,0,0,1-8.17,2.28,22.7,22.7,0,0,1-8.37-.82,24.2,24.2,0,0,0,8.31.33,23.2,23.2,0,0,0,7.87-2.48l1.5-.8-1,1.38a25.25,25.25,0,0,1-9.85,7.78,28.06,28.06,0,0,1-12.31,2.5A31.4,31.4,0,0,1,72,109.91,36.13,36.13,0,0,1,61.69,103Z"/><path class="cls-3" d="M34.57,103a13.65,13.65,0,0,1-2.4,2.34A16,16,0,0,1,29.26,107a15.08,15.08,0,0,1-6.66,1.34,15.24,15.24,0,0,1-6.55-1.76,16.81,16.81,0,0,1-2.8-1.9A13.87,13.87,0,0,1,11,102.23a17,17,0,0,0,2.54,2.1,15.56,15.56,0,0,0,2.84,1.6,16.52,16.52,0,0,0,12.58.41,16.16,16.16,0,0,0,2.93-1.42A17.24,17.24,0,0,0,34.57,103Z"/></g></g></svg>