<svg xmlns="http://www.w3.org/2000/svg" viewBox="0 0 1593.9 1005.62"><defs><style>.cls-1{fill:#3c2415;}</style></defs><g id="Layer_2" data-name="Layer 2"><g id="Objects"><path class="cls-1" d="M366.27,520.17a69.6,69.6,0,0,1-4.52,6.79c-.7-2.89-1.3-5.81-1.78-8.75a2.12,2.12,0,0,0-.44-1.44,2.27,2.27,0,0,0-3-.52,2.49,2.49,0,0,0-1.52,2.12c-2.57,26.53-7,60.94-35.45,72.37a2.52,2.52,0,0,0-1.36,1.24.41.41,0,0,1-.05.09s-.05.11-.07.17a2.49,2.49,0,0,0,.84,3.17,2,2,0,0,0,2,.15h0c34.25-4,50.19-43.71,50.07-74.13A2.51,2.51,0,0,0,366.27,520.17Z"/><path class="cls-1" d="M395.84,709.37c2.56,16.87-17.41,26.37-29.29,14.55-2.28-2.27-5.82,1.27-3.53,3.54,7,6.92,17.39,9.19,26.29,4.56s12.81-14.36,11.35-24C400.18,704.87,395.36,706.22,395.84,709.37Z"/><path class="cls-1" d="M415.58,678.34A23.22,23.22,0,0,0,402,695.73c-.53,3.15,4.28,4.5,4.82,1.33a18.73,18.73,0,0,1,11.33-14.41C421.05,681.38,418.5,677.08,415.58,678.34Z"/><path class="cls-1" d="M398.79,660c-3.09.89-1.78,5.72,1.33,4.82a13.63,13.63,0,0,1,15.66,6.28c1.61,2.78,5.93.27,4.32-2.52A18.7,18.7,0,0,0,398.79,660Z"/><path class="cls-1" d="M218.76,662.6a2.94,2.94,0,0,0-.74.28,2.26,2.26,0,0,0-.53.32c-13.64,7.95-25.11,20.09-34,33-7.34,10.74-11.3,25.21-2.87,36.23a2.21,2.21,0,0,0,1.67,1.85c2,1.34,4.63-1.37,3.34-3.54A49.2,49.2,0,0,1,194,704.9c5.56-8.16,13.15-12.83,21.7-17.38,6-3.22,15.9-7.88,16-15.9C231.85,664.26,225.26,660.22,218.76,662.6Zm6.94,11.83c-2.66,3.83-7.81,6.27-11.84,8.41-6.82,3.64-13.57,7.14-18.92,12.87a53.52,53.52,0,0,0-13.5,27.68c-2.91-10,3.7-21.45,9.93-29.39,8.22-10.45,17.56-20.15,29.17-26.8C225.2,665.13,228.18,670.87,225.7,674.43Z"/><path class="cls-1" d="M261.34,666.78c-3.16.35-3.2,5.35,0,5a92.67,92.67,0,0,1,73,23.68c2.37,2.17,5.91-1.35,3.53-3.54A97.41,97.41,0,0,0,261.34,666.78Z"/><path class="cls-1" d="M268.26,586.44c1.55-4.2.86-8.85.09-13.13-1.23-6.81-3-13.47-3.56-20.4-1-13.23,2.22-26.48,7.93-38.38,3.77-7.85,8.47-14.09,14.26-20.56a74.3,74.3,0,0,0,18.09-36.1,2.1,2.1,0,0,0-1.21-3,2.27,2.27,0,0,0-3.43,1,188,188,0,0,1-26.55,28.56c-8.95,7.81-16.57,16.27-22.44,26.7-10.38,18.45-13.92,42.49-11.09,63.38.9,6.7,2.94,12.83,8.16,17.39C255.25,597.73,265.2,594.69,268.26,586.44Zm-9.2,3.1c-8,3.63-12.51-8.17-13.52-13.94-3.43-19.58.12-43.43,9.6-60.88,6.1-11.22,14.32-19.75,23.76-28.11a178.76,178.76,0,0,0,18.26-18.77,64.28,64.28,0,0,1-12,20.68c-4.37,5-8.95,9.78-12.42,15.49-11,18-15.38,38.66-11.5,59.42C262.59,570.68,268.48,585.25,259.06,589.54Z"/><path class="cls-1" d="M291.39,336.5c9.05,16.44,6.38,37.1-5,51.73-1.95,2.51,1.56,6.07,3.54,3.53,12-15.42,15.7-36.41,7.46-54.48a59,59,0,0,0-28.13-28.08c-2.9-1.33-5.45,3-2.52,4.32A55.26,55.26,0,0,1,291.39,336.5Z"/><path class="cls-1" d="M289.16,314.76A47.53,47.53,0,0,1,310,379.52c-1.52,2.84,2.8,5.37,4.31,2.53,13.79-25.91,3.66-58.45-22.61-71.6C288.82,309,286.28,313.32,289.16,314.76Z"/><path class="cls-1" d="M326.85,328.62c13.76,11,14.9,31.77.79,43.09-2.51,2,1,5.53,3.53,3.54,16-12.88,15-37.57-.79-50.16C327.89,323.1,324.33,326.61,326.85,328.62Z"/><path class="cls-1" d="M206.87,317.28c23,9.47,36.76,34.15,29,58.82-1,3.08,3.86,4.39,4.82,1.33,8.59-27.38-6.75-54.38-32.51-65C205.23,311.24,203.93,316.08,206.87,317.28Z"/><path class="cls-1" d="M172.45,323.31c14.93,1,29.33,8.37,37.88,20.84,10.08,14.71,9,33.66-.29,48.42-1.72,2.73,2.6,5.24,4.32,2.53,10.21-16.19,11.31-37.37.28-53.47-9.59-14-25.41-22.16-42.19-23.32C169.23,318.08,169.25,323.08,172.45,323.31Z"/><path class="cls-1" d="M128.61,338.42c30.72-8,73.86,11.5,63.14,49.05-.88,3.1,3.94,4.43,4.82,1.33C201.94,370,194.64,351.17,178,341a65.39,65.39,0,0,0-50.67-7.44C124.17,334.41,125.49,339.23,128.61,338.42Z"/><path class="cls-1" d="M109.34,360.34c17.17-.8,34.51,10.47,33.08,29.26-.24,3.21,4.76,3.2,5,0,1.62-21.42-18.33-35.18-38.08-34.26C106.14,355.49,106.12,360.49,109.34,360.34Z"/><path class="cls-1" d="M88.74,376.19C107.42,369.74,126,383,128,402c.34,3.16,5.34,3.2,5,0-2.42-22.12-23.58-38.28-45.63-30.67C84.39,372.41,85.69,377.25,88.74,376.19Z"/><path class="cls-1" d="M69.11,394c21.32-8.07,43.07,9.51,38.4,32.2-.65,3.14,4.17,4.49,4.82,1.33C117.7,401.4,93,379.6,67.78,389.13,64.8,390.26,66.09,395.09,69.11,394Z"/><path class="cls-1" d="M55.45,418.44a42.2,42.2,0,0,1,38.36,30.32c.92,3.07,5.74,1.76,4.82-1.33a47.38,47.38,0,0,0-43.18-34C52.24,413.26,52.25,418.26,55.45,418.44Z"/><path class="cls-1" d="M28.64,458c18.59-5.32,37.49,5.31,40.62,24.72.51,3.17,5.33,1.82,4.82-1.33-3.55-22.06-25.81-34.22-46.76-28.21C24.23,454.08,25.54,458.9,28.64,458Z"/><path class="cls-1" d="M26.33,483.12c15.27-.26,31.57,7.91,33.32,24.52.34,3.17,5.34,3.2,5,0-2.05-19.38-20-29.83-38.32-29.52C23.12,478.18,23.11,483.18,26.33,483.12Z"/><path class="cls-1" d="M49.8,590.36c2.92-1.33.38-5.64-2.53-4.32a24.21,24.21,0,0,1-21.92-.9c-2.83-1.55-5.35,2.77-2.53,4.31A29.6,29.6,0,0,0,49.8,590.36Z"/><path class="cls-1" d="M58.75,591.37c1.78-2.69-2.55-5.2-4.32-2.52A21.08,21.08,0,0,1,35,598.23c-3.21-.23-3.2,4.77,0,5A26.12,26.12,0,0,0,58.75,591.37Z"/><path class="cls-1" d="M426.1,715.45c-3.21-.21-3.2,4.79,0,5,3.75.25,6.7,2.52,9,5.3,1.54,1.82,3.17,4,1.79,6.38a15,15,0,0,1-3.43,3.49c-2.46,2.08,1.09,5.6,3.54,3.53,4.78-4,7.36-8.9,3.48-14.57C437.13,719.63,432.22,715.85,426.1,715.45Z"/><path class="cls-1" d="M391.61,373c7.05-15.25,26.66-7.3,37.58-1.11,2.8,1.59,5.32-2.72,2.52-4.31-13.28-7.53-36-15.21-44.42,2.89C386,373.42,390.26,376,391.61,373Z"/><path class="cls-1" d="M437.15,382.29c-11.11-.28-22.07,6.89-18.76,19.1a3,3,0,0,0,.15.55,2.29,2.29,0,0,0,.24.55c2.84,6.77,9.72,11.39,17,12.16,2.52.26,5.57-.76,7.8.46,2.59,1.41,2.9,5.1,4.26,7.53a12.32,12.32,0,0,0,11.89,6.43c13.45-1.12,12-17.3,7.64-26C461.58,391.59,450.39,382.62,437.15,382.29Zm24.92,41c-6.93,4-9.7-3.72-12.06-8.33a9.42,9.42,0,0,0-7.53-5.41c-3.27-.29-6.35.46-9.57-.66-4.11-1.43-8-4.07-9.55-8.27-4.53-15,16.3-14.75,24.82-10.52a33,33,0,0,1,13.34,12.73C464.71,408.12,469.42,419.07,462.07,423.28Z"/><path class="cls-1" d="M745.55,458.74c-6.19-.87-11.27,1.66-16.12,5.32-8.17,6.25-13.7,14.68-12.11,25.33.73,4.91,3.68,9.73,8.57,11.44,5.64,2,12.43-.87,17.07-4.1,8.56-6,16.92-18.4,13.55-29.35C755,462.38,750.56,459.44,745.55,458.74Zm-5.12,33.67c-3.51,2.49-9.51,5.53-13.78,3.3-3.59-1.89-4.59-6.24-4.57-10,0-7.4,4.15-13,9.88-17.37,3.54-2.68,7.12-5,11.76-4.83,4.81.21,8.32,3.37,8.45,8.32C752.38,479.86,746.71,488,740.43,492.41Z"/><path class="cls-1" d="M850.19,534.83h0a2.4,2.4,0,0,0-.49.38c-4.42,4.27-4.79,11.78.4,15.63,4.6,3.42,11.65,4.5,16.22.53C877.36,541.78,860.14,527.52,850.19,534.83Zm13.31,12.31c-5,5.33-16.65-1.91-10.44-8.23C858,535.93,868.81,541.44,863.5,547.14Z"/><path class="cls-1" d="M1591.51,472.91c-49.75,5-100.21,17.28-145.17,39.53-16.39,8.11-32.1,17.57-48.32,26q-42,21.87-85.51,40.56c-35.59,15.26-72,28.73-109.57,38.33-21.82,5.58-44.17,9.91-66.77,10-28.88.15-56.58-7.71-84.3-15L948,585.28l-51.93-13.57c-14-3.66-30-5.91-42.59-13.51-5.43-3.28-10-7.94-10.85-14.48a3.45,3.45,0,0,0,.05-.57c-.09-13.66,15.09-12.88,24.53-9.88,13.34,4.23,27.07,5.9,41,6.05,9.24.1,18.5-.59,27.72.22,12.63,1.12,24.88,4.68,36.58,9.49,3,1.22,4.26-3.62,1.33-4.83a128.57,128.57,0,0,0-39.69-9.8c-11.57-.82-23.2.28-34.79-.33a121.14,121.14,0,0,1-26.61-4.31c-6.36-1.8-12.26-4.19-19-3.45a19.72,19.72,0,0,0-10.69,4.3,2.53,2.53,0,0,0-1.11-.21c-14.58.6-29.91.77-44.29-2-10.63-2-24-9.64-22.84-21.5a12.64,12.64,0,0,0,8.88,6.15c7.5,1.53,16.29.61,21.93-5,6-5.93,3.36-14.16-3.84-17.36,7.3-.3,14.71.28,20.44.27,18.3,0,36.61-.12,54.91.06,12.66.13,25.33.34,38,.51l57.85.8c3.22,0,3.22-5,0-5-52.54-.73-105-1.4-157.6-1.36-11.59,0-26.1-.64-35.93,5.57h0A11.87,11.87,0,0,1,769.17,483a11.71,11.71,0,0,1-.44-5.09c.14.2.29.4.46.6,4.87,6,16,5.56,22.33,2.77s13.3-10.48,6.74-16.8a13.88,13.88,0,0,0-1.86-1.5c19.61-2.77,39.48-5.72,58.43-11.32A111.94,111.94,0,0,1,895,447.27c13.92.9,27.8,2.42,41.73,3.18a137.1,137.1,0,0,0,42.56-4.67c3.11-.82,1.79-5.64-1.33-4.82a131.49,131.49,0,0,1-39.27,4.59c-13.29-.58-26.55-2.11-39.82-3-15-1-29-.67-43.38,3.75-7,2.13-14.07,3.74-21.2,5.19q-9.3,1.88-18.67,3.45a2.29,2.29,0,0,0-1.14-.14c-7.11.78-14.08-3-15-10.07a11.62,11.62,0,0,0,.79,1.46c3.66,5.68,12.71,5.42,18.34,3.61a2.57,2.57,0,0,0,.53-.23l.07,0c6.77-2.93,10.72-9.53,6.57-16.38a10.08,10.08,0,0,0-7.94-4.63c7.95-1.87,16.47-2.09,24.51-2.67,19.31-1.4,37.29-7.34,56.13-11.42,25.07-5.44,51-4.58,76.51-6.47,23.73-1.77,47.47-.41,71.23-1.38,16.1-.65,30.71-2.72,45.89-8.48,3-1.13,1.69-6-1.32-4.82-14.82,5.62-28.88,7.67-44.57,8.3-14.25.58-28.49.41-42.74.29-10.81-.1-21.53.65-32.3,1.37a12,12,0,0,1-5.6-14.76,19.42,19.42,0,0,0,6.75,1.54,3.17,3.17,0,0,0,.62,0,3.75,3.75,0,0,0,.61-.08c5-.69,12-3.57,13.54-8.88a191.38,191.38,0,0,0,27.11-9.39c7.21-3.11,14.17-7.84,21.91-9.55,4.21-.94,7.86-.45,12,.54,9,2.17,18.13,4,27.24,5.87,12.38,2.57,24.68,5.51,37.06,8.07,12,2.47,17.47,14.18,24.08,23.44q11.46,16.08,22.93,32.16c5.35,7.47,11,15,18.5,20.43,16.55,11.85,40,6.12,58.09,1,18.51-5.23,36.28-13.06,53.26-22,20.14-10.63,38.68-23.32,57.21-36.43a1328.3,1328.3,0,0,1,120.86-75.86c2.81-1.56.29-5.88-2.53-4.31-38,21.18-75.06,44-110.81,68.81l-1,.7a404.23,404.23,0,0,1-78-5.56c-23.76-4.17-47-11-70.1-17.76-45-13.09-89.23-29.52-135.22-38.84a473.07,473.07,0,0,0-72.63-8.78c27-11.54,55.47-19.73,83.64-27.86,74.9-21.59,150.18-42.66,226.62-58.14a936.23,936.23,0,0,1,153.13-18.06c3.21-.12,3.22-5.12,0-5-80.16,2.82-158.78,17.28-236.39,36.88-44.19,11.16-88.13,23.43-132,35.87-30.45,8.64-61.15,17.25-90.55,29.09-5.33,2.14-10.6,4.43-15.83,6.83h-.25a2.21,2.21,0,0,0-2.05,1.08c-28.76,13.44-56,30.55-81.34,49.53,0-.22.07-.43.09-.66,1.33-14.1-10.85-23.29-24.2-21.56-3.15.4-3.19,5.41,0,5,7.36-1,15.61,1.38,18.44,9,1.64,4.4.86,9.49-.85,13.75-4.61,11.47-18.8,17.35-29.18,22.23-17,8-32.92,17.38-45.68,31.33l-.08.11c-8.85,1.3-19.61,4-24.17,12-5,8.69-1.11,17.63,6.07,22-5.82.9-11.64,1.75-17.46,2.59a2.13,2.13,0,0,0-1.12.47,24.9,24.9,0,0,0-8.78,2.42,18.14,18.14,0,0,0-2.94,1.93c-5.19,3.61-8.73,9.27-8.55,15.56a2.55,2.55,0,0,0-.69.76c-4.18,6.93-9.8,13.49-16.59,18-11.67,7.69-28.64,6.42-32-9.44-3-14.46,3.91-29.4,12-41,8.71-12.51,20.08-22.71,30.39-33.84,10.77-11.63,20.5-24.47,24.45-40.08.78-3.12-4-4.45-4.83-1.33-8.69,34.4-44.33,52.11-60.27,82.45-.12.22-.23.44-.34.66a2.77,2.77,0,0,0-.64.6A118.76,118.76,0,0,1,675,491.2a2.22,2.22,0,0,0-1.11,1.23,2.42,2.42,0,0,0-.84,1.27,92.18,92.18,0,0,1-24.76,40.94,1.84,1.84,0,0,0-1.13,1.33A2,2,0,0,0,647,537c-2,13.38-7.59,24.81-15.08,36-5.09,7.63-14.39,14-22.2,10.09l.63-.21c6.8-2.5,12.22-11.12,12.48-18.27.22-6.41-4.85-11.4-11-12.08,1.8-3.85,3.33-7.46,4.61-10.3a2.54,2.54,0,0,0,.23-.94.31.31,0,0,0,.05-.1c4.3-13.79,8.65-27.59,12.22-41.59,1.42-5.6,2.44-11.15,5.19-16.32,2.66-5,6.31-8.78,10.42-12.56,4.93-4.54,9.08-10,13.12-15.29,8.76-11.51,16.79-23.59,24.69-35.7,1.76-2.71-2.57-5.21-4.32-2.53-8,12.26-16.11,24.49-25,36.12a109.77,109.77,0,0,1-13,14.69c-9,8.17-12.84,17.79-15.72,29.29-3.59,14.33-8.06,28.46-12.46,42.56a2.61,2.61,0,0,0-.12.58c-3.16,7-6.55,13.84-10.32,20.49-4.6,8.09-12,18.16-22.35,12.77-.4-1.37-.82-2.74-1.25-4.1a15.6,15.6,0,0,0,3-22.57,2.29,2.29,0,0,0-.44-.44q6.18-19.65,12.5-39.25c5-15.48,10-30.36,19.74-43.65,8.81-12.1,20.23-22.26,30.75-32.83q17.94-18,35.79-36.13c2.26-2.29-1.27-5.83-3.54-3.53C658,409.19,640,426.91,622.41,444.93c-9.1,9.32-17.21,19.43-23.1,31.11-5.42,10.75-8.75,22.48-12.44,33.9l-.57,1.78a2.43,2.43,0,0,0-.26.29c-7.76,10.9-22.14,14.61-32.57,5a2.38,2.38,0,0,0-2.42-.56L550,515a18.56,18.56,0,0,0,9.71-4.16c3.09-2.75,7.08-10.14,4.3-14.36q33-35.79,67.92-69.65c1.53-1.4,3-2.83,4.5-4.32l0-.06c21.72-20.81,44.41-41,70.64-55.91,14.35-8.18,29.52-14.83,43.92-22.92s28.41-16.88,42.44-25.59c13.82-8.58,27.52-17.36,40.73-26.85,12.74-9.16,24.57-19.21,36.38-29.52,7.26-6.33,14.79-11.71,23.87-15.11,8.41-3.15,17.15-5.32,25.57-8.46a226.43,226.43,0,0,0,46.48-23.83,1.73,1.73,0,0,0,.21-.17,2.74,2.74,0,0,0,.7-.29c55.23-33.57,111.29-65.91,168.45-96.09,26.12-13.79,52.41-27.39,79.17-39.91,32.28-15.1,65.32-28.54,98.65-41.11q44.85-16.9,90.45-31.76c3-1,1.74-5.83-1.33-4.82-59.6,19.57-118.74,41.06-176,66.81-56.83,25.56-111.81,55.53-166,86.26q-48.39,27.47-96,56.3l-.16.13a2.41,2.41,0,0,0-.74.33,220.67,220.67,0,0,1-43.62,22.69c-14.3,5.47-29.91,8.16-42.67,17s-23.91,20.56-36.41,30.1c-13.17,10-27,19.23-41,28.09s-27.87,17.42-42,25.79c-14.55,8.61-29.73,15.86-44.71,23.68-28,14.65-52.31,34.8-75.23,56.42q-5.17,4.89-10.3,9.83a96.39,96.39,0,0,1-24.68,16.27c-12.51,5.65-25.9,7.41-39.47,8.45-21.87,1.67-42.79,1.1-63.66-5.82a34.66,34.66,0,0,0,2.31-12.14c.15-11.67-6-23-13.08-31.87-7.7-9.71-18.23-17-28.48-23.76-7.89-5.2-15.94-10.21-24.11-15-7.95-4.61-16.41-8.83-25.59-10.13-13.86-2-26.14,2.83-33,14.52-3.3-8.23-9.56-15.25-16.86-20.18l-.14-.23a2.45,2.45,0,0,0-1.61-1.07c-17.88-26.7-50.85-39.07-82.42-42.27-21.54-2.18-43.57-1.47-65.13.16-19.94,1.5-39.89,4.41-59.11,10.06-19,5.58-37.3,13.92-53.22,25.78C82.93,349,68.82,364.9,55.3,381,41.91,397,29.06,413.75,20.68,433,11.8,453.3,7.33,475.79,3.31,497.52-1,520.8-1.85,544.17,5.31,567A123.82,123.82,0,0,0,39,620.44c3.37,14.64,10.7,28.4,21.73,38.72,10.2,9.54,23.68,16.24,35.76,23a2.56,2.56,0,0,0,.24.11,185,185,0,0,0,60,52.94,143.78,143.78,0,0,0,30.05,11.9c-36.38,7.17-68.56,36-68.65,75.13-.06,22.73,10.08,45.52,27.89,59.85,14,11.24,31.52,16.56,49.24,17.67a105.49,105.49,0,0,0,52.18-9.88c-6.91,22.06,5.47,46,23.43,59.64,26.49,20.11,63.16,17,94.25,14,76.86-7.4,154.45-12.41,231.41-3.32,75.4,8.9,148.35,31.71,223.67,41.18,35.78,4.49,72.17,6,108,1.64,32.2-3.94,66.33-11.93,94-29.5,22.36-14.18,48.32-44.89,32.43-72.64-6.88-12-20-19-32.5-23.6a162.36,162.36,0,0,0-51.44-9.92,164.73,164.73,0,0,0-26.36,1.39,2.59,2.59,0,0,0-1.86,1.14,2.4,2.4,0,0,0-1.8-.26c-56.91,12.56-115.82,10.92-172.35-2.77-14.73-3.57-29.36-7.82-43.76-12.64a2.39,2.39,0,0,0-1-.84c-22.55-11-41.28-28.11-52.8-50.56a144.32,144.32,0,0,1-14-44.48c-5.93-41-8-83.37-20.43-123.1a106.3,106.3,0,0,0-25.3-43c-2.23-2.33-5.76,1.21-3.54,3.53a99.4,99.4,0,0,1,23.4,38.82c6.56,20.1,10,41.11,12.84,62l.3,2.32a51.29,51.29,0,0,0-52.38,12q0-1.35,0-2.7c-.13-16.7-2.09-33.5-3.25-50.15-1.24-17.71-2.22-35.45-3.93-53.11a171.21,171.21,0,0,0-3.14-22c-.25-1.07-.52-2.13-.79-3.19,6.32,1.8,11.79-.46,16.49-4.74a12,12,0,0,0,2.41,5.06,2.66,2.66,0,0,0,.33.65c3,4.3,7.45,7.81,12.75,8.69,6.89,1.14,13.73-2.67,18.48-7.44,5.33-5.35,9.39-12.78,12.87-19.42a76.66,76.66,0,0,0,7.77-24.43,97.26,97.26,0,0,0,25.95-42.8,123.47,123.47,0,0,0,32.51-25.07c-2.22,8.61-2.52,17.72,1,25.71,5.73,12.83,21,15.11,32.8,9.67,8.58-4,15.72-11.26,21-19.14a16.69,16.69,0,0,0,9.62,8.91,22,22,0,0,0-3.61,5.5c0,.06-.07.12-.1.19l0,.1a25.58,25.58,0,0,0-1,2.6,2.32,2.32,0,0,0,0,1.47c-1.68,11.56,7.81,21.75,18.39,25.71,7.72,2.89,16.23,3.49,24.38,4,8.84.59,17.7.68,26.55.4a17,17,0,0,0-1.61,7.16,2.28,2.28,0,0,0-.08,1c1.42,11.31,10.22,18,20.15,22.26,14.4,6.14,30.53,8.92,45.63,12.86l106.74,27.9L1063,620.51c16.45,4.3,33,8.56,49.88,10.57,19.68,2.34,39.46,1.25,59-2,39.55-6.53,78.24-19.63,115.45-34.34,50.52-20,99.22-44,146.77-70.22,43.23-23.83,91.81-37.95,140.59-44.66q8.38-1.14,16.81-2C1594.68,477.6,1594.71,472.59,1591.51,472.91ZM817.15,445c-3.22,1-7.2,1.52-10.4.11-2.07-.91-4.07-3.09-3.09-5.78.57-1.57,2.84-2.92,4.15-3.69,3.26-1.9,8.77-3.4,12.19-1.19C825.48,438,821.31,443,817.15,445ZM978.7,383a13.58,13.58,0,0,1-5.75,2,12.9,12.9,0,0,1-4.86-.68l.25-.11c.65-.26,1.25-.73,1.88-1a27.49,27.49,0,0,1,7.83-2.27,21.07,21.07,0,0,1,3.07-.25h.11C980.41,381.37,979.33,382.65,978.7,383Zm-94.62,4.9c6.72-4.18,12.62-9.37,15.77-16.24,26.9-20.58,56-39.16,86.83-53.47a472.08,472.08,0,0,1,77.93,8.22c21,4.06,41.52,9.89,62,16,23.55,7.06,46.92,14.66,70.48,21.66,24,7.13,48.23,14.41,72.9,19a403.57,403.57,0,0,0,75.85,6.5c-4.08,2.93-7.78,5.64-12.57,9q-16.5,11.73-34.09,21.81c-16.53,9.49-33.74,18-51.73,24.3a188.43,188.43,0,0,1-28.38,7.74c-11.34,2.09-24.31,4-34.87-1.82-9.19-5.05-15.48-14.08-21.43-22.42q-11.26-15.78-22.5-31.55c-5.88-8.24-11.42-19.63-21.38-23.52-4.27-1.67-9-2.12-13.48-3.06-6.5-1.37-13-2.92-19.43-4.39-11.31-2.57-22.75-4.54-34-7.29-4.49-1.1-8.92-2.3-13.58-1.77-7,.82-13,4.2-19.22,7.25A182.4,182.4,0,0,1,985,376.45a14.51,14.51,0,0,0-6.66-.55c-4.72.54-11.34,1.84-14.59,5.68a3.11,3.11,0,0,0-.5.52,17.44,17.44,0,0,0,.56,21.6c-25,1.42-50,1.43-74.44,7.78-11.06,2.88-22.2,6.19-33.48,8.07-9,1.5-18.31,1.73-27.47,2.57a123.2,123.2,0,0,1,18.78-14.88C858.92,399.62,872.26,395.28,884.08,387.94ZM576.19,564.62c-.36-1-.73-2-1.1-3a2.36,2.36,0,0,0,1.1-1.41c.79-2.52,1.59-5,2.37-7.55A10.67,10.67,0,0,1,576.19,564.62ZM583,522q-5.28,16.51-10.44,33.06A192.37,192.37,0,0,0,557,525.3C565.7,529.26,575.33,527.64,583,522Zm-26.79-14.7a11.51,11.51,0,0,1-5.41,2.41c-.58.1-1.2,0-1.78.1.8-1,2.15-2.82,2.48-3.15.88-.89,1.8-1.75,2.72-2.6a40,40,0,0,1,3.14-2.68,16.21,16.21,0,0,1,1.69-1.15c.22-.12.6-.25.9-.38h.13C560.36,502,557.37,506.37,556.21,507.33ZM567.39,453c13.34-1.11,26.28-3.3,38.57-8.86.8-.36,1.58-.75,2.37-1.14Q583,468.41,558.78,494.86c-3.28.91-6.45,4.16-8.59,6.15-1.48,1.39-4.39,3.88-5.93,6.5a195.58,195.58,0,0,0-59.13-49,28.4,28.4,0,0,0,13-11.48C520.77,454.75,543.67,455,567.39,453ZM43.83,619a2.1,2.1,0,0,0-.3-1,2.06,2.06,0,0,0-.91-1C13.67,590.06,1.19,551.56,6,512.64a351.7,351.7,0,0,1,13.85-63.15c6.38-20,17.24-37.66,30.17-54.09,12.1-15.38,25-30.55,39.4-43.8a157.12,157.12,0,0,1,50.18-31.13c29.89-11.46,62.36-15.33,94.4-16.12a2,2,0,0,0,.23.17c13.1,7.68,24.79,18.32,32.3,31.63,8.16,14.49,12.73,33.45,6.9,49.55-7.17,19.81-28.48,32.16-49.19,26.53-10.13-2.76-18.82-9.43-28.88-12.65a68.64,68.64,0,0,0-29.67-3c-22.63,2.94-37,18.44-46.41,38.18v0a2.81,2.81,0,0,0-.24.58c-1.88,6.49-4.38,13.17-9,18.23-2.91,3.15-6.54,4.95-10.18,7.12a107.24,107.24,0,0,0-11,7.37C84.33,444.66,61,429.31,37.86,436.25c-3.07.92-1.76,5.75,1.33,4.82,20.81-6.24,41,7.68,44.87,28.7a2.13,2.13,0,0,0,.94,1.48A56.1,56.1,0,0,0,72,488.1c-5.64,11.2-8.32,23.45-8.89,35.9a39.3,39.3,0,0,0-44.75-23.76c-3.14.68-1.81,5.5,1.33,4.82A34.19,34.19,0,0,1,58.8,526.78,2.67,2.67,0,0,0,63,527.91a126.63,126.63,0,0,0,1.1,17.94c-14-13.47-32.15-22.55-52.12-20.35-3.16.35-3.2,5.35,0,5,21.21-2.34,39.77,8.69,53.51,24,.24,1.24.49,2.48.75,3.71a2.41,2.41,0,0,0-1-.5c-8.73-2.15-16.75.51-25.46-.31-10-.93-17.09-8.78-21.58-17.16-1.52-2.83-5.84-.31-4.32,2.53,4.16,7.75,10.59,15.3,19.12,18.3,10.15,3.56,20.62-1.07,30.91,1.46a2.41,2.41,0,0,0,2.94-1.64c.21.92.43,1.82.66,2.73a28.45,28.45,0,0,1-25,10.58c-9.06-1-19.57-6.79-21.53-16.35-.65-3.15-5.47-1.81-4.83,1.33,2.37,11.5,14.75,18.74,25.69,20a32.45,32.45,0,0,0,22.54-6,88.32,88.32,0,0,0-3.78,25.31A2.62,2.62,0,0,0,56,600a12.08,12.08,0,0,1-10.1,11.08c-3.15.42-3.19,5.42,0,5a17.24,17.24,0,0,0,14.8-13.78,59.51,59.51,0,0,0,1.41,9.84A2.73,2.73,0,0,0,59,614.53a14.62,14.62,0,0,1-7.84,11.23c-2.84,1.51-.31,5.83,2.53,4.32a19.56,19.56,0,0,0,9.87-13,44.22,44.22,0,0,0,4,8.62A2.48,2.48,0,0,0,65.47,628a15.09,15.09,0,0,1-8.26,12.37c-2.86,1.49-.33,5.81,2.52,4.32a20,20,0,0,0,10.55-15.05c1.18,1.58,2.36,3.11,3.43,4.73,0,0,0,.05,0,.08a14,14,0,0,1-7.65,14.64c-2.87,1.45-.34,5.76,2.53,4.32a18.83,18.83,0,0,0,8.93-9.81c.84,4,1,8.1,1.83,12.12a37.87,37.87,0,0,0,6.54,14.84c-7.53-4.26-15-8.89-21.14-14.54C54,646.24,47.06,633.1,43.83,619ZM925.39,877.75q8.4-1.47,16.72-3.31a2.21,2.21,0,0,0,1.32-.78,2.25,2.25,0,0,0,1,.08,161.22,161.22,0,0,1,51,1.3c14.93,2.84,30.91,7.3,43.47,16.2,14,9.93,18.51,25.52,12.68,41.65-5.15,14.23-16.3,25.77-28.6,34.17-25.84,17.65-58.5,25.88-89.1,30.2-33.7,4.76-68,4.06-101.8.49-70.91-7.5-139.54-28.12-209.88-39-71-11-142.92-9.75-214.35-4-17.5,1.39-34.95,3.24-52.44,4.73-16.37,1.4-33.1,2.25-49.35-.71-14.62-2.66-28.4-8.39-39-19.07-9.1-9.2-16-21.61-16.71-34.74a37.52,37.52,0,0,1,3.69-18.33c54.1-21.76,111.32-36.24,169.67-39.32,46.88-2.47,92.73,3.4,138.25,14.58,53.43,13.11,105.62,29,156.74,49.28,34.63,13.77,69.07,26.56,106.1,32.12,52.57,7.9,106.23,3.58,157.77-8.77,8.46-2,16.85-4.28,25.2-6.69,3.09-.9,1.78-5.72-1.32-4.83-54.65,15.83-112,23.49-168.73,17-37.93-4.33-73.49-16.06-108.79-30.11-20.13-8-40.28-15.93-60.78-22.95-29.4-10.07-59.32-18.27-89.41-26C532.49,849,486.06,840.71,438.1,841.71c-55.26,1.15-110,12.56-162,31.14q-12.23,4.36-24.25,9.25a2,2,0,0,0-1.22.56c-27.42,15.16-64.53,17.58-92.36,1.76-39.33-22.37-47.23-79.7-13.72-110.61a88.71,88.71,0,0,1,54.89-23.28,2.89,2.89,0,0,0,.44-.07,205.53,205.53,0,0,1,35.25,11.79q-6.58.21-13.18.5-12.66.57-25.32,1.39c-3.19.2-3.22,5.2,0,5q24.51-1.57,49.07-2.18h.18a1192.93,1192.93,0,0,1,129.89,3.79,1097,1097,0,0,1,145.48,21.74c45.9,10.19,90.85,24.17,135,40.36,16,5.88,31.58,12.7,47.39,19.11,16.61,6.73,34.1,11.92,51.38,16.6C810.51,883.6,868.59,887.64,925.39,877.75ZM439,748.28c1.93-1.81,5.3-2,7.65-3.2a12.73,12.73,0,0,0,4.59-3.81c3.89-5.11,1.62-9.8,1.44-15.6-.25-8.2,4.56-15.94,10.94-20.68,3.88-2.89,8-5.31,11.1-9.06a37.89,37.89,0,0,0,6.45-11.48c-1.93,30.11-17.57,59.25-41,78.29a9,9,0,0,0,.1-.91C440.57,757,434.54,752.47,439,748.28Zm47.38-66.56c2.57,5.4,6.14,10.2,8.9,15.5,7.32,14.07,11.74,30.39,4.07,45.33-6.6,12.84-18,22.8-32.89,24a38.74,38.74,0,0,1-13.34-1.29,25.52,25.52,0,0,0-6.74-1.22c23.67-20.68,38.83-51.23,39.87-82.58C486.28,681.53,486.32,681.63,486.37,681.72Zm158.57,22.76c2.37,18.25,4.54,36.53,7.13,54.75a152.29,152.29,0,0,0,12.32,41.56,115.83,115.83,0,0,0,37.08,45c-10.45-4.27-20.71-9-31.28-13-42.19-16-85.15-29.9-129-40.67a74.57,74.57,0,0,0,42.6-38.94c5.06-10.8,7.16-22.65,7.8-34.53C604.62,703,625.84,696.65,644.94,704.48Zm-62.72-66,3.69,53c1,14.1,1.6,28.29-1.06,42.27a70.43,70.43,0,0,1-53.06,55.9,2,2,0,0,0-.29.09l-3-.69c-30.63-7.07-61.69-12.53-92.88-16.72l.29-.21a20,20,0,0,1,6.49-2.65c4.42-.93,7.64.35,11.84,1.23a43.52,43.52,0,0,0,21.65-.9c13.21-4,23.4-14.74,28.91-27.2,6.1-13.81,3.6-28.81-2.48-42.12-3-6.47-6.93-12.2-10.26-18.44A75.47,75.47,0,0,1,484.89,661a18.15,18.15,0,0,0,5.73-3.75c2.33-2.23-1.21-5.77-3.53-3.53a12.65,12.65,0,0,1-11.92,3.23c-3.12-.76-4.45,4.06-1.32,4.82a18.26,18.26,0,0,0,6.09.44c-.47,11.41-2.37,24.6-11.19,32.81-4.13,3.85-9.38,6.25-13.21,10.47a32.27,32.27,0,0,0-7.61,16.31c-.82,5.58,3,12.94-1.41,17.38-3.29,3.31-8.92,2.87-12,6.64-2.84,3.46-2.84,7.72-.83,11.54,1.12,2.13,2,3.6,1.13,6-1.17,3.19-4.1,5.68-6.56,7.85l0,0,0,0-.05,0q-17.82-2.26-35.67-4a1185.39,1185.39,0,0,0-128.9-5.66,56.69,56.69,0,0,1,6.06-17.5,151.73,151.73,0,0,0,8.27-16c5.86-13.95,3.93-29.86-.07-44.09a2.13,2.13,0,0,0-1.24-1.71l-.18-.09-.11,0a2.69,2.69,0,0,0-1.77,0h0a2.59,2.59,0,0,0-.38.17l-.05,0a2.26,2.26,0,0,0-1.21,2.2c-.65,18-2.39,50.87-24,56.14a2.56,2.56,0,0,0-1.75,3.08,12.48,12.48,0,0,1-3,11,2.47,2.47,0,0,0,0,3.35,1.92,1.92,0,0,0,2.09,1,17.7,17.7,0,0,0,7.24-2.51,15.46,15.46,0,0,0,2.38,5c-3.15,0-6.3.12-9.45.19A207.84,207.84,0,0,0,204,746.27c-14.56-3.54-28.64-7-42.06-14-24.48-12.68-45.94-31.79-62-54.11a2.26,2.26,0,0,0-.71-.94C91.34,670.88,85.6,663.18,83.93,653c-1.58-9.61-2.55-18.06-9.06-25.86-13.7-16.42-10.28-43.41-2.52-61.72a1.92,1.92,0,0,0,.13-2.39c-6.45-25.16-7.26-53.6,6.08-76.71,6.83-11.84,18.19-17.5,29.28-24.56,8.73-5.56,13.11-15.31,15.91-24.91,4.66-9.72,10.33-19.26,19-25.93,9.12-7,20.72-10.14,32.14-9.89,12.37.26,23.89,4.46,34.71,10.19,8.92,4.73,17.78,7.95,28,7.2,18.67-1.37,34.28-13.92,40.57-31.42,5.59-15.56,2.13-33-4.52-47.7C267.16,324.94,256,313.09,243,304.21c3.54,0,7.07,0,10.59,0,40.64.38,90.22,10.54,108,52.18a30.26,30.26,0,0,1-12.95,33.47c-2.71,1.72-.21,6.05,2.52,4.31A35.47,35.47,0,0,0,367,357a2.29,2.29,0,0,0-.17-1.2c-.07-.16-.15-.32-.22-.49s-.12-.44-.18-.66a35.86,35.86,0,0,1,8.2,13.81c3.84,12.66-.42,26.22-12,33.15-2.76,1.65-.25,6,2.52,4.32,12.24-7.31,17.69-20.94,15.26-34.69a2.42,2.42,0,0,0,.21-.39c5-11.82,14.91-17.56,27.62-16.56,16.45,1.31,31.61,12.77,45.09,21.36,18.33,11.69,40.57,26.67,44.08,50.13,1.94,13-4.79,25.87-17.9,29.51a2.32,2.32,0,0,0-1.54,1.25c-1.2,1-1.52,3.07.28,4,46.82,23.79,82.88,66.57,96.88,117.4C580.47,597.54,580.81,618.31,582.22,638.49Zm34.69-70.09a19.28,19.28,0,0,1-4.6,7.3c-3.88,3.76-11.56,4.06-10.45-3.84a16.58,16.58,0,0,1,1.64-4.17c.92-1.33,1.79-2.71,2.64-4.13,1.46-2,3-4.06,4.33-6C616.1,558,619,562.57,616.91,568.4ZM794.62,473c-1.17,2.05-4.24,3.51-6.34,4.23a18.27,18.27,0,0,1-12.06,0c-5.71-2.24-4.13-6.25-.85-8.92a21.17,21.17,0,0,1,3.34-1.82,2.52,2.52,0,0,0,.62-.39,18,18,0,0,1,10.55-.67C793.38,466.41,796.83,469.13,794.62,473Zm6.86,32.09c-3.72,3.26-9,3.89-13.77,3.47-5.76-.51-11.44-3.87-7.83-9.84,3.21-3.36,8.31-4.79,12.88-4.79C798.5,493.94,809.14,498.41,801.48,505.11Z"/><path class="cls-1" d="M1558,907.57c-31.65-7.52-64.06-10.71-96.36-13.94-33.5-3.35-67-6.67-100.56-9.51-67-5.66-134.23-9.39-201.45-7.32a1003.71,1003.71,0,0,0-111.54,9.47c-3.17.46-1.82,5.28,1.33,4.82,65.91-9.45,132.66-11.24,199.13-9,66,2.25,131.8,8.42,197.5,15,37,3.68,74.33,6.69,110.62,15.31C1559.82,913.14,1561.15,908.32,1558,907.57Z"/><path class="cls-1" d="M1389.9,701.39q65.61,9.39,130.75,21.72c3.15.59,4.49-4.22,1.33-4.82q-114.18-21.57-229.8-34.21-58.08-6.33-116.38-10.37c-39-2.7-78.41-3.34-117.15-9.22a463.63,463.63,0,0,1-120.26-35.44c-2.92-1.31-5.46,3-2.53,4.32a469.75,469.75,0,0,0,105,33.14c37.77,7.13,76.13,8.47,114.39,10.85Q1273,684.68,1389.9,701.39Z"/></g></g></svg>