<svg xmlns="http://www.w3.org/2000/svg" viewBox="0 0 380.82 244.68"><defs><style>.cls-1{fill:#ebcec1;}.cls-2{fill:#f2eae6;}.cls-3{fill:#ebcfa9;}.cls-4{fill:#fff;}.cls-5{fill:#38271f;}.cls-6{fill:#733160;}</style></defs><g id="Layer_2" data-name="Layer 2"><g id="Background"><path class="cls-1" d="M207.39,129.58c22.94-21.05,53.31-35.11,84.2-45.69,10.06-3.44,20.67-6.62,31.1-5.84,7.52.55,14.42,3.13,21.17,5.68,10.28,3.88,21,8.08,27.3,15.93,4,5,5.83,11.09,7.45,17.1,1.84,6.89,3.45,14.19.88,21.21-4.5,12.33-19.78,19.44-33.08,26a316.12,316.12,0,0,0-72,48.51c-8.62,7.77-16.79,16-26.82,22.46s-22.44,10.87-34.25,9.5c-10.53-1.22-19.34-7-25.5-14C161.47,200.07,176.78,157.67,207.39,129.58Z"/><path class="cls-2" d="M159.8,14.35c9.22,3.06,18.1,6.59,27,10.11l26,10.32c6.94,2.75,14.15,5.68,18.49,10.44,4.11,4.5,5.15,10.11,5.43,15.54a21.13,21.13,0,0,1-.78,8c-2.5,7.42-11.46,12.93-20.84,16.61-20.46,8-44.35,9.71-67.45,10a67.31,67.31,0,0,1-12.81-.68,47.2,47.2,0,0,1-14.34-5.51C90.51,72.81,74.54,45.5,73,18.23,72.78,14,72.28,4.1,78.1,1.13c5.34-2.71,19.44.22,25.51.92A281.16,281.16,0,0,1,159.8,14.35Z"/><path class="cls-3" d="M92.5,199.41c-21.06-7.24-40-19.5-58.64-31.64-9.16-6-18.53-12.1-25-20.89A45.61,45.61,0,0,1,26.37,78.44c8.43-3.91,17.84-5.16,27.12-5.55,22.53-1,47.46,4.15,61.22,22,9.62,12.49,12.18,29.17,21.07,42.19,6.4,9.36,15.9,16.59,20.67,26.87a34.68,34.68,0,0,1-1,30.78c-4.28,7.77-15.45,18-25.19,17.47-5.39-.31-12.09-4.83-17.39-6.56C106.08,203.45,99.21,201.72,92.5,199.41Z"/><ellipse class="cls-4" cx="290.83" cy="209.29" rx="7.64" ry="11.22"/><ellipse class="cls-4" cx="263.8" cy="57.65" rx="7.64" ry="11.22"/><ellipse class="cls-4" cx="364.89" cy="150.51" rx="7.64" ry="11.22"/><path class="cls-5" d="M307.13,87.37c-1.5-1.7-2.57-3.94-1.32-5.91,1.46-2.32,4-3.59,5.95-5.41,2.17-2,4.27-4.13,6.37-6.21,8.42-8.32,15-18.41,23.2-27,2.95-3.08,4.95-5.89,9.18-3.48s.66,7.06-.94,10.26c-3.79,7.59-6.94,15.4-10.49,23.11-2.21,4.79-4.51,9.52-6.8,14.27-1.18,2.46-2.18,5-3.16,7.52-.67,1.71-.92,4.25-2.75,4.72s-5.45-1.2-7-2.15c-2.17-1.31-1.82-1.57-3.44.37-3.14,3.76-5.41,8.23-8.18,12.25-3,4.27-6.4,8.25-9,12.78a68.92,68.92,0,0,0-3.46,7.13c-.89,2.09-1.35,4.87-2.61,6.77a4.61,4.61,0,0,1-2.42,2c-1.5.19-1.21-.71-2.05-1.53s-2.54-1.28-3.27-2.05c-.51-.54-.35-1.3-.79-1.82-.62-.73-1.93-.58-2.7-1.09-1.71-1.15-1.12-2.78.36-4,3.45-2.87,7.72-4.88,11.21-7.78s5.95-7.31,8.71-10.94c4-5.23,7.75-10.6,11.7-15.86C311.48,91.22,309,89.5,307.13,87.37Zm34.29-22.12c2.24-5.38,4.32-11,7.24-16,1.93-3.35,5.36-8.22-.49-9.56-4-.92-8.81,6.62-11.15,9.34-3.87,4.48-7.84,8.91-11.49,13.58a116.14,116.14,0,0,1-11,12c-2,1.91-4,3.57-6.08,5.39-1.74,1.56-2.89,2.59-1.75,4.88s3.48,3.65,5.23,5.44a24.09,24.09,0,0,0,3.76,3.14c1.33.92,2.6,2,4,2.8,2.26,1.36,4.43,1.54,7,2.08C331.25,87.16,336.77,76.43,341.42,65.25ZM295,119.81c-1.28,1.07-2.61,2.07-3.89,3.14.42.51,3.29-2.18,3.65-1.74-2.39,2.9-6.7,5.16-9.71,7.38a34.37,34.37,0,0,1,5.56-5.22c-1.88.49-3.5,2.32-5.13,3.35-.84.52-4.15,1.92-4.09,3.15.05,1.4,3.09,1.52,3.77,2.4.29.37.27,1.1.6,1.52a7.63,7.63,0,0,0,1.3.79,8.54,8.54,0,0,1,2,1.34c.38.39.27,1.08.89,1.25,1.34.36,2.51-2.46,2.87-3.37,1.47-3.72,3.17-7.32,4.74-11A5.34,5.34,0,0,1,295,119.81Zm18.2-24.55c-2.07,2.24-3.68,5.09-5.49,7.54-3.58,4.87-7.36,9.67-10.74,14.68l-1.14,1.7,2.12,2.77a12.43,12.43,0,0,1,.83-1.32c2.17-2.34,4.15-5.76,5.81-8.12,4-5.66,7.71-11.5,11.69-17.17C315,93.93,314.29,94,313.17,95.26Z"/><path class="cls-5" d="M346,43c-5.08,5.64-9,12.34-13.8,18.22-4.56,5.57-9.64,10.77-14.38,16.19,2-.2,5.19-4.55,6.46-5.88,2.68-2.78,5.16-5.83,7.62-8.81,3.27-3.93,6.08-8.17,9.14-12.25C341.79,49.4,346.54,44.52,346,43Z"/><path class="cls-5" d="M328,85.59c2-4.09,5.53-8.88,6.12-13.49C332.11,76,330,79.78,328,83.69c-.7,1.42-4,6.36-3.3,8.15C325,92,327.76,86.16,328,85.59Z"/><path class="cls-5" d="M311.49,84.64c.22-.23,2.65-3,2.39-3.34-.36-.51-4.12,4.37-4.2,4.7C309.92,86.17,311.33,84.81,311.49,84.64Z"/><path class="cls-5" d="M291.73,129c-.07.11-2.3,3.7-2.24,3.78.67.93,3.71-5,3.84-5.26s2.79-4.58,2.54-4.89C296,122.75,292.06,128.34,291.73,129Z"/><path class="cls-5" d="M290.18,126.62c-1.05,1.29-1.87,2.74-2.92,4,1.22,0,7.18-6.43,6.81-7.73C294.11,123.06,290.53,126.18,290.18,126.62Z"/><path class="cls-5" d="M36.25,48.17l3.88,1.09C54.43,53.37,69,58.57,79.63,69c12.59,12.36,18,30.49,29.92,43.5,9.35,10.2,22.24,16.72,31.3,27.19,7.29,8.43,11.85,19.13,20.11,26.6,3.75,3.39,9.79,5.93,13.56,2.56,4.18-3.72,1.41-10.61-1.92-15.12-10.49-14.18-24.71-26.13-30.9-42.66a28.68,28.68,0,0,1,28,11.12c6.65,9.21,7.63,22.26,16.32,29.56,2.4,2,6.26,3.33,8.44,1.09,2-2.06,1-5.45,0-8.11l-7.15-17.58a59.54,59.54,0,0,1,16.1,25.56c1.87,6,2.86,12.37,6.38,17.52s10.81,8.54,16.13,5.26a19.93,19.93,0,0,0,9,7.06c1.39.55,3,.92,4.33.17,2.47-1.43,1.55-5.17.31-7.74L222,138.7a122.49,122.49,0,0,0,27.75,18.65,18.7,18.7,0,0,0,8.87,2.13,7.55,7.55,0,0,0,3.9-1.17,6,6,0,0,0,2.46-3.05,3.24,3.24,0,0,0-.39-2.15,5.68,5.68,0,0,0-.72-1c-2.65-4.33-6.61-7.49-10.41-10.74-9.41-8.13-20.6-13.74-30.53-21.16-7.19-5.13-14.29-10.39-21.38-15.65L196,100.42c-.76-1.42-1.59-2.81-2.46-4.16A59.6,59.6,0,0,0,177,78.76c-6.06-4.43-12.84-7.76-19.6-11-4.77-2.39-9.66-5.09-14.53-7.4-5.19-2.51-10.2-5.74-15.23-8.61s-9.58-6.26-14.37-9.45C97.86,32,82.13,22,65.65,13.46c0,.19,0,.38,0,.58a106.54,106.54,0,0,1,10,6.35,4.3,4.3,0,0,1,1.14,1.2c12,6.82,23.62,14.27,35,22,3.87,2.56,7.61,5.34,11.54,7.82,4.35,2.59,8.74,5.14,13.12,7.69,5.09,2.85,10.39,5.21,15.52,8C165.43,73.69,179.38,80,188.6,92.27c1.37,1.76,2.56,3.66,3.75,5.55a123.63,123.63,0,0,0-13-8.27c-4.13-2.23-8.89-4.28-13.59-2.62-.05,0-.2,0-.22.07a7.09,7.09,0,0,0,2.59.87c6.43.33,11.92,4,17.24,7.31,8.72,5.75,17,12.19,25.4,18.34,7.18,5.22,14.29,10.57,21.78,15.35,8.34,5.12,16.51,10.56,23.71,17.21a30.48,30.48,0,0,1,6.49,7.42,3,3,0,0,1,.52,1.15c.54,3.43-6.81,3.24-8.69,2.65a43,43,0,0,1-7.1-3.17,90.39,90.39,0,0,1-10.64-6.79c-4.67-3.39-9.16-7-13.85-10.4a148.29,148.29,0,0,0-82.34-27.72,69.85,69.85,0,0,0-11.86-18.36c8.17,16.23,16.43,32.61,28.1,46.53,6.07,7.24,13.11,13.9,17.2,22.42a7.81,7.81,0,0,1,1,5c-.62,2.78-4,4.28-6.77,3.78s-5.13-2.44-7.12-4.49c-7.77-8-12.7-18.3-20.11-26.6-9.84-11-23.65-18-33.13-29.38-10-12-14.48-28-25.35-39.15-9.09-9.32-21.66-14.27-34-18.43q-3.06-1-6.13-2c-.93-.1-1.87-.18-2.81-.21C38.52,48.27,37.38,48.22,36.25,48.17ZM212.58,148.82a111,111,0,0,0-8.85-14.89c-2.14-3.27-4.16-6.64-6.43-9.82a95.32,95.32,0,0,1,10.83,5.12,111.64,111.64,0,0,1,10.54,7.1c4.35,8.22,8.19,16.7,12.41,25,1.47,3.75,9,16.76,7.68,19.75-2.62,1.23-6.6-1.69-8.5-3.53C222,169.63,218.23,158.5,212.58,148.82ZM181.45,120.1c-.95-1-1.92-1.91-2.89-2.85a110.48,110.48,0,0,1,15.39,5.4,83.18,83.18,0,0,1,6.18,9c2,3.24,4.27,6.27,6.25,9.5,1.75,3,3.31,6.09,5,9.12,4.61,7.93,8,16.9,13.72,24.15-2.42.34-4.82,1.09-7.29.43-3.57-1.4-5.77-5-7.76-8.11-4.13-7.4-5.34-16.07-8.74-23.79-2.07-3.83-4.06-7.85-6.78-11.29C190.7,127.2,185.64,124.13,181.45,120.1Zm-16.93-6.29,4.62,1.07q2.94.68,5.87,1.42l.54.49c2.17,2.08,4.23,4.26,6.48,6.26.81.67,1.59,1.3,2.35,1.91,0,.11.09.21.13.32,1.56,4.21,3.33,8.35,5.15,12.45a54.16,54.16,0,0,1,4.22,11.05c0,6.82-6.58,2.51-8.85-.51-4.64-5.55-6.22-12.76-9.69-19a56.43,56.43,0,0,0-7.85-11.85C166.55,116.2,165.56,115,164.52,113.81Z"/><path class="cls-6" d="M159,159.63a9.11,9.11,0,0,0,1.84,4.09,36.72,36.72,0,0,0,10.25,10.9c1.23.81,2.76,1.48,4.2.82a4.34,4.34,0,0,0,2.16-4,9.61,9.61,0,0,0-1.41-4.29,87.69,87.69,0,0,0-4.64-7.55c-1.9-2.76-2.31-4.42-5.54-5.29C163.41,153.64,158.81,156.46,159,159.63Z"/><path class="cls-6" d="M253.43,146.56a18.52,18.52,0,0,0,3.05,3.53,77.41,77.41,0,0,0,12.19,10c1.26.8,2.7,1.54,3.53,1.19s.68-1.69,0-3a17.73,17.73,0,0,0-2.81-3.63c-1.84-2-4.62-4.78-6.58-6.65-2.56-2.46-3.53-3.84-6.34-5C254.39,142.31,252,144,253.43,146.56Z"/><path class="cls-6" d="M233.77,172.08a14.32,14.32,0,0,0,1.25,3.74,59.37,59.37,0,0,0,6.47,11.66c.75,1,1.68,2,2.49,2s1.18-1.16,1.1-2.38a14.24,14.24,0,0,0-1-3.75c-.81-2.14-2.1-5.21-3-7.29-1.23-2.73-1.54-4.14-3.47-5.85A2.22,2.22,0,0,0,233.77,172.08Z"/><path class="cls-6" d="M190.2,144a13.45,13.45,0,0,0,.79,3.47,54.74,54.74,0,0,0,4.71,11.11c.57,1,1.31,2,2,2s1.14-.92,1.17-2a13.12,13.12,0,0,0-.58-3.47c-.53-2-1.41-4.88-2.06-6.84-.85-2.57-1-3.86-2.55-5.59A2,2,0,0,0,190.2,144Z"/><path class="cls-6" d="M218.87,164.2c.2.26.4.51.58.79,2,3,3.8,6.11,5.88,9,.84,1.19,1.71,2.36,2.64,3.48a4.13,4.13,0,0,1,1,1.54,13.88,13.88,0,0,1,.46,2.2c.09,1.22-.29,2.34-1.09,2.38s-1.74-1-2.5-2A59.42,59.42,0,0,1,219.36,170a13.78,13.78,0,0,1-1.25-3.73A2.23,2.23,0,0,1,218.87,164.2Z"/></g></g></svg>